<svg width="32" height="32" viewBox="0 0 32 32" fill="none" xmlns="http://www.w3.org/2000/svg">
<rect width="32" height="32" rx="10" fill="#FFFAF6"/>
<path fill-rule="evenodd" clip-rule="evenodd" d="M26.9658 11.4282C27.4144 11.1718 27.9884 11.3234 28.2477 11.7669C29.3483 13.6487 28.8162 15.5375 27.7553 16.8826C26.7237 18.1906 25.0852 19.1438 23.5804 19.2696C20.5622 19.5221 18.448 18.6254 17.0625 17.3014C16.5983 16.8578 16.2242 16.3743 15.928 15.884C15.6317 16.3743 15.2577 16.8578 14.7934 17.3014C13.408 18.6254 11.2937 19.5221 8.27553 19.2696C6.77074 19.1438 5.1322 18.1906 4.1006 16.8826C3.0397 15.5375 2.50761 13.6487 3.60818 11.7669C3.86755 11.3234 4.44149 11.1718 4.89011 11.4282C5.33872 11.6846 5.49214 12.2519 5.23278 12.6954C4.61843 13.7459 4.84821 14.8135 5.58052 15.742C6.34213 16.7076 7.52813 17.3454 8.43376 17.4212C10.9623 17.6327 12.528 16.8862 13.4892 15.9677C14.4823 15.0186 14.9087 13.8095 14.9952 13.0252H16.8607C16.9473 13.8095 17.3736 15.0186 18.3668 15.9677C19.328 16.8862 20.8937 17.6327 23.4222 17.4212C24.3278 17.3454 25.5138 16.7076 26.2754 15.742C27.0077 14.8135 27.2375 13.7459 26.6231 12.6954C26.3638 12.2519 26.5172 11.6846 26.9658 11.4282Z" fill="#2C2524"/>
<path d="M13.5188 8.18509C10.958 10.1867 14.0398 12.9437 15.9008 14.072C17.7618 12.9437 20.8436 10.1867 18.2829 8.18509C17.8234 7.88643 16.7368 7.73964 15.9697 9.4463C15.9435 9.50458 15.8582 9.50458 15.832 9.4463C15.0649 7.73964 13.9782 7.88643 13.5188 8.18509Z" fill="#2C2524"/>
<path d="M20.0684 18.3839C16.3345 25.403 13.1057 21.3085 11.958 18.3839C13.1351 18.3839 15.2249 15.9432 16.1226 14.7229C16.6145 16.0601 18.9581 17.7207 20.0684 18.3839Z" fill="#F97561"/>
<path fill-rule="evenodd" clip-rule="evenodd" d="M16.3452 13.1609L16.8266 14.4696C16.9059 14.6853 17.0809 14.9618 17.3599 15.2843C17.633 15.6002 17.9763 15.9265 18.3506 16.2433C19.1004 16.8777 19.9293 17.4354 20.4557 17.7498L21.0599 18.1107L20.7313 18.7284C19.7713 20.533 18.7975 21.7165 17.8028 22.3723C16.7708 23.0526 15.7327 23.1499 14.7863 22.8082C13.8865 22.4833 13.1515 21.7922 12.5859 21.0502C12.0134 20.299 11.5656 19.4314 11.2595 18.6515L10.8638 17.6431H11.9579C12.0223 17.6431 12.2181 17.5951 12.563 17.3674C12.8835 17.1558 13.2453 16.8481 13.6188 16.4837C14.3641 15.7566 15.0847 14.8743 15.5167 14.2871L16.3452 13.1609ZM12.9786 18.8442C13.2042 19.3007 13.4751 19.7555 13.7826 20.1589C14.2619 20.7878 14.7826 21.23 15.3003 21.417C15.7713 21.587 16.3122 21.5747 16.9716 21.14C17.5825 20.7372 18.296 19.9673 19.0739 18.6343C18.5593 18.2939 17.9495 17.8535 17.3764 17.3685C16.9646 17.0201 16.5603 16.6391 16.221 16.2468C16.1608 16.1771 16.1015 16.1059 16.0439 16.0333C15.641 16.5214 15.1643 17.0569 14.6712 17.5379C14.2629 17.9362 13.8254 18.315 13.395 18.5991C13.2656 18.6846 13.1259 18.7689 12.9786 18.8442Z" fill="#2C2524"/>
</svg>
