<svg width="141" height="176" viewBox="0 0 141 176" fill="none" xmlns="http://www.w3.org/2000/svg">
<path d="M21.1949 33.2536C27.0177 21.6021 34.1525 10.8022 41.6958 0.289907C42.5588 0.508553 41.7993 1.0494 42.11 1.38887C42.5991 1.61327 43.14 0.439482 43.7729 1.48668C44.3483 2.44757 44.0088 3.17258 43.6003 3.92058C41.4599 7.85045 38.3701 11.1646 36.5001 15.3074C35.8614 16.7229 35.5852 18.4605 34.0086 19.5595C33.0362 20.2385 33.2664 21.9531 32.4091 23.0866C31.874 23.7943 31.5748 24.784 30.9764 25.5838C28.6 28.7656 27.2306 32.3676 26.8394 36.3204C26.7703 37.0339 26.4711 37.6783 25.8094 37.7013C24.0085 37.7646 22.219 38.5069 20.4526 36.9304C19.1695 35.7853 19.0544 34.7496 19.4169 33.3687C20.2915 30.043 22.0234 27.1143 23.7265 24.1798C25.7174 20.7505 27.9786 17.4824 30.0845 14.1336C32.9212 9.62263 36.0915 5.36478 39.1065 0.991859C39.3942 0.577582 39.6647 -0.285492 40.2976 0.0942611C40.7694 0.381953 40.2746 1.06092 40.0042 1.4752C38.301 4.08744 36.477 6.61335 34.6128 9.11052C32.8233 11.5099 31.3273 14.1336 29.8313 16.7344C27.4147 20.9404 24.7565 25.0084 22.5758 29.341C21.9428 30.5839 21.3272 31.8324 21.1949 33.2536Z" fill="#41766C"/>
<path d="M11.9894 83.5362C10.8962 84.4165 10.1022 83.0471 9.75694 82.7709C8.81906 82.0172 7.35759 82.794 6.98934 81.9079C6.43698 80.5615 5.24591 79.4222 5.74074 77.6155C6.69587 74.1229 8.14585 70.8375 9.49225 67.506C10.4704 65.0894 11.4025 62.6497 12.8295 60.446C13.4681 59.4621 14.1989 58.5933 15.2749 58.0985C16.3853 57.5921 17.3578 57.5518 18.4222 58.4667C19.2105 59.1399 20.2289 59.5887 20.9596 60.377C21.6559 61.1307 22.2082 61.9247 21.3854 62.9489C20.81 63.6682 20.9136 64.6175 20.6259 65.4403C19.4579 68.7488 19.0148 72.3046 17.1449 75.3657C15.7582 77.6327 14.734 80.0723 13.6638 82.4947C13.3646 83.1909 13.0654 84.0253 11.9894 83.5362Z" fill="#41766C"/>
<path d="M80.9548 58.7773C80.6959 59.3585 80.529 59.7325 80.3736 60.0892C80.5635 60.3367 80.7361 60.187 80.926 60.1352C81.3115 60.0259 81.4438 59.2837 81.9157 59.5829C82.4853 59.9396 81.7545 60.3712 81.7948 60.7969C82.4162 60.9408 82.5831 60.1755 83.0894 60.1525C83.872 61.3608 83.4634 62.3332 82.7327 63.415C80.7476 66.3552 79.0272 69.4507 77.865 72.834C77.4277 74.1114 75.7878 74.7385 75.759 76.2173C75.7188 78.0988 74.8384 79.7328 73.8545 81.0792C72.1514 83.4038 71.7889 86.1369 70.7705 88.6628C70.4828 89.3705 70.8741 90.2508 70.1721 90.832C69.9477 91.0218 69.5909 91.4477 69.4413 91.0852C68.935 89.8481 67.9453 90.4465 67.1283 90.2394C65.6093 89.8596 65.3101 88.3694 65.1605 87.0575C64.9246 84.9918 65.523 82.9953 66.3631 81.154C69.5737 74.1056 73.3022 67.3391 77.9167 61.1019C78.6187 60.1525 79.2516 58.9615 80.9548 58.7773Z" fill="#41766C"/>
<path d="M59.694 30.7853C59.343 31.8843 59.0035 33.0293 58.6065 34.1628C56.0978 41.3206 52.8469 48.1504 49.3255 54.8536C47.9734 57.4256 46.4199 59.894 45.3957 62.6328C45.1022 63.4211 44.5786 64.0368 43.6407 63.2025C43.4221 63.0068 43.0941 62.9147 42.8007 62.8112C40.8559 62.1207 40.0964 60.6304 40.7063 58.6108C41.3335 56.5337 42.49 54.7213 43.6062 52.8973C48.3474 45.1929 52.8066 37.3447 56.2071 28.9326C56.6387 27.8681 56.7652 27.8681 57.519 28.6794C57.5996 28.7657 57.7664 28.829 57.8873 28.8175C59.3027 28.6967 59.4293 29.7324 59.694 30.7853Z" fill="#41766C"/>
<path d="M12.1617 111.201C10.8671 114.383 8.75541 116.817 7.52409 119.694C6.28126 122.605 4.77375 125.413 3.99123 128.52C5.12473 126.029 6.25247 123.537 7.39173 121.046C8.7036 118.192 10.3607 115.539 11.9948 112.864C12.8118 111.523 13.7325 111.586 14.6588 112.329C15.5622 113.054 15.7463 114.268 14.9005 115.114C13.1744 116.84 12.2019 119.049 11.569 121.218C10.47 124.993 8.53677 128.497 7.95563 132.438C7.82329 133.347 7.16157 134.124 7.02923 135.137C6.87963 136.276 6.81637 137.254 7.38024 138.313C7.70821 138.929 8.51374 139.74 7.80026 140.43C7.21337 140.994 6.35604 141.409 5.37789 140.896C5.00389 140.701 4.46305 140.827 3.99698 140.816C1.26967 140.724 -0.341425 138.946 0.0613439 136.196C0.607959 132.507 1.99465 129.055 3.45612 125.643C5.37215 121.178 7.4608 116.794 10.2974 112.818C10.7117 112.225 11.0627 111.575 12.1617 111.201Z" fill="#41766C"/>
<path d="M86.5585 146.006C82.8646 146 81.7483 144.383 83.0027 141.316C83.9808 138.923 85.6437 136.943 87.249 134.97C90.9948 130.355 94.8959 125.867 99.0501 121.604C100.069 120.562 101.3 120.188 102.566 119.797C103.009 119.665 103.993 119.394 103.952 119.78C103.872 120.568 104.666 121.281 103.952 122.121C100.776 125.884 97.9396 129.912 95.0052 133.859C93.7106 135.597 92.2779 137.243 91.0293 139.015C90.1835 140.212 89.3261 141.512 90.1777 143.123C90.2813 143.319 90.2295 143.819 90.1374 143.854C88.6759 144.337 87.7956 145.891 86.5585 146.006Z" fill="#41766C"/>
<path d="M124.333 62.3332C126.231 60.1985 127.411 57.6092 129.281 55.4918C129.833 54.8704 130.495 54.3238 130.967 53.6506C131.744 52.5344 132.543 53.3859 133.061 53.7369C133.562 54.0764 133.798 54.8704 133.257 55.6242C131.07 58.691 129.31 62.0397 127.831 65.4575C126.778 67.8913 125.029 70.0202 124.666 72.8511C124.528 73.9213 123.797 75.1585 123.389 76.361C122.848 77.9663 121.732 76.6372 120.869 76.5797C120.731 76.5682 120.61 76.1711 120.489 76.1711C119.96 76.1769 119.649 77.529 119.028 76.5911C118.187 75.3195 117.284 74.1228 117.877 72.247C118.815 69.2665 120.253 66.5737 121.824 63.9384C123.959 60.3595 125.926 56.6541 128.964 53.7024C129.189 53.4837 129.396 53.2478 129.632 53.0464C129.879 52.8393 130.213 52.6667 130.478 52.9198C130.817 53.2421 130.639 53.6333 130.34 53.875C127.768 55.9809 126.484 59.0247 124.678 61.6887C124.534 61.8786 124.442 62.1145 124.333 62.3332Z" fill="#41766C"/>
<path d="M60.8162 115.292C61.6103 114.544 62.5078 113.876 63.1695 113.025C63.9463 112.035 64.8094 111.816 65.9026 112.248C66.5528 112.507 66.4147 113.186 66.3514 113.623C66.1903 114.739 65.5286 115.602 64.4469 115.999C64.188 116.097 63.7967 115.902 63.8025 116.368C63.8082 118.652 61.8059 119.866 60.9486 121.696C60.6839 122.254 60.1948 122.789 59.8438 123.364C58.8311 125.044 58.0026 126.868 55.8622 127.507C55.3616 127.657 54.5733 128.106 54.838 128.865C55.6608 131.178 54.0382 132.726 53.1176 134.44C51.6043 137.26 49.6883 139.849 48.2843 142.738C48.129 143.066 48.0254 143.526 47.5709 143.411C47.0012 143.267 47.755 142.766 47.3637 142.467C46.656 142.847 46.0346 143.86 45.0449 142.663C44.6939 142.237 44.1761 142.956 43.923 143.411C43.7273 143.756 43.5202 144.084 43.0829 143.831C42.5593 143.526 43.0081 143.204 43.1519 142.916C45.6779 137.766 48.8022 132.979 52.0416 128.261C54.8955 124.107 57.7494 119.952 60.5976 115.798C60.6724 115.631 60.7414 115.459 60.8162 115.292Z" fill="#41766C"/>
<path d="M91.8579 101.12C91.3113 101.281 92.7037 99.3882 91.2192 100.55C91.1789 100.579 91.1041 100.631 91.0811 100.614C90.103 99.8542 89.2399 99.9002 88.348 100.827C88.1121 101.068 86.2939 99.0315 86.2536 98.4273C86.1961 97.5182 86.4263 96.6551 86.8233 95.8611C89.0845 91.3616 92.2664 87.6216 96.2826 84.5951C98.2504 83.1106 100.316 83.2717 102.376 84.3764C103.481 84.969 103.475 85.6826 102.56 86.5687C101.593 87.5008 100.673 88.4904 99.8039 89.5204C98.8028 90.7057 97.9627 92.0117 96.8637 93.1395C95.4195 94.624 94.9189 96.7242 93.866 98.4848C93.2848 99.4572 92.7728 100.441 91.8579 101.12ZM88.4401 97.0119C90.1893 94.3076 91.95 91.6033 93.9005 89.0198C91.6738 90.6884 88.9982 94.5492 88.4401 97.0119Z" fill="#41766C"/>
<path d="M137.705 103.824C137.475 104.607 137.337 105.084 137.124 105.804C137.475 105.533 137.688 105.447 137.751 105.303C138.275 104.106 139.236 104.417 139.995 104.802C140.806 105.217 141.019 106.154 140.691 106.96C140.162 108.278 139.552 109.578 138.804 110.786C137.774 112.449 136.606 114.055 135.904 115.867C135.173 117.76 134.103 119.607 134.558 121.834C134.776 122.887 133.896 123.502 132.935 123.071C132.412 122.835 131.945 122.864 131.428 122.887C128.159 123.048 126.468 120.729 127.739 117.61C129.529 113.209 132.423 109.486 135.432 105.873C136.013 105.182 136.41 104.262 137.705 103.824Z" fill="#41766C"/>
<path d="M18.4852 172.559C18.4679 173.733 19.4576 174.303 19.5956 175.241C18.1457 175.436 17.2366 174.654 16.9144 173.037C16.5691 171.282 17.1215 169.659 17.9731 168.261C19.7913 165.281 21.3103 162.128 23.8535 159.556C24.8489 158.549 25.5336 156.92 26.5003 155.701C29.2563 152.225 32.1333 148.848 34.9756 145.442C35.5453 144.757 36.2243 144.181 37.0068 143.738C37.4038 143.508 37.8008 143.456 38.1748 143.756C38.5776 144.078 38.5315 144.486 38.3071 144.883C37.9734 145.476 37.68 146.097 37.2599 146.621C33.4221 151.5 29.475 156.299 25.7407 161.265C24.285 163.198 23.1515 165.419 22.369 167.738C22.0065 168.808 22.392 169.987 22.5186 171.115C22.5531 171.42 22.9789 171.84 22.438 172.07C21.3966 172.513 20.522 172.951 21.4369 174.309C21.644 174.619 21.1722 174.78 20.8385 174.786C20.2458 174.798 19.5669 174.792 19.4978 174.055C19.4403 173.388 19.0605 173.043 18.4852 172.559Z" fill="#41766C"/>
<path d="M43.4915 92.4203C43.152 92.1786 42.9621 92.1326 42.8125 92.4951C42.2716 93.8069 41.8228 95.1706 41.1208 96.3847C40.6951 97.1211 40.7871 98.6344 39.1588 98.1914C38.8999 98.1223 38.9516 98.4503 39.0725 98.6344C39.3487 99.066 39.1761 99.3825 38.8769 99.7449C38.3705 100.361 38.2324 101.051 38.359 101.897C38.6007 103.462 37.5132 104.227 36.0805 103.583C35.9079 103.508 35.6029 103.243 35.5856 103.353C35.2174 105.907 33.8365 102.518 33.2726 103.755C32.8468 103.404 32.6512 102.956 32.5994 102.403C32.4901 101.137 33.0079 100.061 33.5948 99.0084C35.8273 95.0153 39.0207 91.8334 42.2946 88.7321C43.0829 87.9841 44.2739 87.9438 45.2924 87.6446C45.8908 87.4662 46.2475 87.9668 46.4719 88.4386C46.7826 89.0888 46.4431 89.1578 45.908 88.9852C45.839 90.1533 45.0737 90.9645 44.4466 91.8506C44.1876 92.2419 44.0093 92.7137 43.4915 92.4203Z" fill="#41766C"/>
<path d="M84.6835 42.4886C84.2232 43.1503 84.5512 44.278 83.1127 44.3701C82.0713 44.4334 82.2611 43.9328 82.2611 43.3977C81.3635 43.4782 81.726 44.5427 80.932 44.7556C80.604 43.3171 81.1392 41.9362 81.0701 40.5553C81.0816 40.515 81.0874 40.469 81.0874 40.423C82.1978 39.4678 82.4568 38.0409 83.0724 36.8095C83.3256 36.3032 83.4177 35.6991 83.7284 35.2388C86.2428 31.539 88.2912 27.5459 90.9955 23.9612C93.1186 21.1533 95.0001 18.1614 97.2671 15.4571C97.7907 14.8356 98.2511 14.1509 99.3673 13.5007C98.5042 15.0658 97.8483 16.2511 97.1923 17.4421C97.2096 17.3961 97.2211 17.3443 97.2384 17.2983C95.5065 18.6677 94.8045 20.7851 93.32 22.3617C93.8264 22.7874 93.976 22.3444 94.2234 22.2926C94.6377 22.2063 94.8966 22.4652 95.0577 22.8277C95.1382 23.0061 95.2936 23.2593 95.0174 23.3341C93.7746 23.6563 94.0738 24.6862 94.0335 25.5033C93.9932 26.4066 93.5042 26.9014 92.7964 27.3099C91.709 27.9314 91.0587 28.8117 91.1796 30.1293C90.9897 30.4113 90.7998 30.6932 90.6042 30.9751C89.4131 31.5563 87.71 34.3987 87.8309 35.6013C87.1519 35.6358 86.8815 36.9246 85.9609 36.2169C85.6847 35.4574 85.5293 35.0949 84.8216 36.0443C83.924 37.2411 84.0678 38.8694 82.9804 39.9396C82.8192 40.1007 82.8308 40.3309 83.0494 40.469C83.3371 40.6473 83.6018 40.515 83.6478 40.2331C83.8377 39.0133 84.8101 38.156 85.1035 36.9994C85.2301 36.5104 85.3624 36.0846 86.0011 36.1766C86.3866 38.4321 84.649 39.9799 84.0564 41.9074C83.9758 42.1606 83.0207 41.4759 83.3659 42.3332C83.5327 42.736 84.1714 42.9431 84.6835 42.4886ZM90.1324 28.2593C90.0058 28.1615 89.8735 28.0695 89.7469 27.9717C89.0046 29.1454 88.2624 30.3135 87.5374 31.493C87.4511 31.6311 87.29 31.8785 87.5374 32.0281C87.71 32.1317 88.0092 32.1604 88.0668 31.9418C88.4465 30.5494 89.7642 29.6575 90.1324 28.2593Z" fill="#41766C"/>
<path d="M120.271 146.8C119.954 147.68 120.202 148.468 120.478 149.234C120.627 149.636 120.737 149.936 120.259 150.102C119.822 150.252 119.551 149.947 119.396 149.613C118.999 148.762 119.097 147.812 119.333 147.001C120.23 143.9 121.91 141.213 123.988 138.762C124.603 138.037 125.334 137.375 125.817 136.57C126.692 135.102 128.188 134.682 129.609 134.222C130.271 134.003 130.397 134.895 130.535 135.373C130.616 135.649 130.409 136.178 130.167 136.339C127.802 137.887 127.423 140.764 125.817 142.835C125.288 143.52 125.53 144.901 124.851 145.81C124.31 146.524 124.022 147.421 123.021 147.761C122.446 147.956 122.883 148.704 122.618 149.142C122.486 149.366 122.399 149.642 122.118 149.677C121.836 149.711 121.473 149.47 121.525 149.291C121.864 148.066 120.42 147.755 120.271 146.8Z" fill="#41766C"/>
<path d="M60.816 115.292C60.7469 115.459 60.6721 115.631 60.6031 115.798C58.5259 117.628 56.8515 119.832 55.229 122.03C52.9965 125.05 50.9711 128.238 49.0263 131.454C47.3807 134.176 45.2806 136.627 44.1241 139.659C43.6522 140.891 42.8755 142.013 41.5176 142.853C41.1953 141 42.3807 139.809 43.0596 138.503C44.8548 135.062 47.1161 131.903 49.3428 128.739C53.359 123.025 57.1392 117.122 62.1451 112.168C62.4328 111.886 62.6629 111.494 63.3476 111.707C62.8988 113.203 61.4604 113.991 60.816 115.292Z" fill="#41766C"/>
<path d="M121.634 93.4159C121.019 93.8705 121.744 95.0903 120.8 94.8889C119.994 94.722 120.288 93.7381 120.489 93.1167C121.744 89.2616 124.212 86.4077 127.791 84.5377C128.332 84.2558 129.12 83.8243 129.621 84.624C130.064 85.3375 129.379 85.7691 128.982 86.2121C127.336 88.0764 125.771 89.9866 125.363 92.5585C125.259 93.203 124.736 93.4389 124.2 93.6575C124.016 93.7323 123.826 93.8589 123.694 94.0085C122.653 95.1996 121.864 95.3262 121.634 93.4159Z" fill="#41766C"/>
<path d="M89.3725 24.2429C89.1999 26.1647 87.5601 27.2234 86.6682 28.7194C86.0065 29.8241 85.4657 31.0842 84.4127 31.9588C84.148 32.1774 84.0445 32.6608 83.6129 32.4133C83.2677 32.2177 83.1986 31.8265 83.4288 31.4582C84.8327 29.2315 86.1964 26.9817 87.8765 24.9449C88.2735 24.4615 88.8949 24.4788 89.4243 24.2832L89.3725 24.2429Z" fill="#41766C"/>
<path d="M89.4183 24.2829C89.2227 23.8571 88.9925 23.4601 89.3493 22.9768C91.3689 20.2264 93.3482 17.4416 95.6958 14.9444C95.8741 14.7488 95.9777 14.2942 96.3862 14.5819C96.6452 14.766 96.5818 15.048 96.4035 15.2724C94.1134 18.1666 91.8925 21.1125 89.8096 24.1678C89.7521 24.2541 89.5219 24.2253 89.3723 24.2484C89.3723 24.2426 89.4183 24.2829 89.4183 24.2829Z" fill="#41766C"/>
<path d="M81.0811 40.4172C81.0754 40.4632 81.0697 40.5093 81.0639 40.5495C80.7877 41.2515 80.1836 41.8154 80.2353 42.6555C80.2526 42.9547 80.2929 43.3747 79.8383 43.3402C79.4298 43.3056 79.4873 42.9259 79.5219 42.6094C79.8383 39.7555 80.8107 37.0857 81.8925 34.4562C82.0766 34.0074 82.6232 33.5183 83.118 33.7543C83.7049 34.0304 83.2618 34.6116 83.0547 34.9511C82.019 36.6369 81.5645 38.53 81.0811 40.4172Z" fill="#41766C"/>
<path d="M97.2323 17.2868C97.2208 17.3386 97.2035 17.3847 97.1863 17.4307C97.848 16.7575 98.9988 16.5619 99.1081 15.319C99.1253 15.1119 99.6489 14.3639 100.173 14.8299C100.673 15.2672 100.138 15.7333 99.8503 16.0095C98.5384 17.2523 97.497 18.6505 96.9043 20.5378C96.398 19.9509 95.65 19.5654 96.6512 18.8519C97.192 18.4606 96.9791 17.7817 97.2323 17.2868Z" fill="#41766C"/>
<path d="M90.5983 30.9631C90.7881 30.6812 90.978 30.3992 91.1736 30.1173C91.4038 29.9389 91.6339 29.7548 91.8641 29.5764C91.9446 29.634 92.0252 29.6858 92.1058 29.7433C91.5764 30.6869 91.0471 31.6248 90.5235 32.5684C90.4084 32.5339 90.299 32.4936 90.184 32.4591C90.3163 31.9585 90.4544 31.4579 90.5983 30.9631Z" fill="#41766C"/>
<path d="M85.293 41.677C84.988 40.5953 85.7705 39.8761 86.1848 39.0475C86.5876 38.2305 87.0594 37.4422 87.5025 36.6482C87.6578 37.0567 87.6233 37.4134 87.3931 37.8104C86.6739 39.082 85.9892 40.3824 85.293 41.677Z" fill="#41766C"/>
</svg>
