<svg width="113" height="140" viewBox="0 0 113 140" fill="none" xmlns="http://www.w3.org/2000/svg">
<path d="M16.881 26.4852C21.5187 17.2052 27.2013 8.60351 33.2092 0.2309C33.8966 0.405043 33.2917 0.835805 33.5392 1.10618C33.9287 1.28491 34.3595 0.35003 34.8636 1.18408C35.3219 1.9494 35.0515 2.52684 34.7261 3.12259C33.0213 6.25258 30.5604 8.89221 29.071 12.1918C28.5624 13.3191 28.3424 14.7031 27.0867 15.5784C26.3122 16.1191 26.4956 17.4848 25.8127 18.3876C25.3865 18.9513 25.1482 19.7395 24.6716 20.3765C22.779 22.9107 21.6883 25.7795 21.3767 28.9278C21.3217 29.4961 21.0834 30.0093 20.5564 30.0277C19.122 30.0781 17.6967 30.6692 16.2899 29.4136C15.2679 28.5016 15.1763 27.6767 15.465 26.5769C16.1615 23.9281 17.5409 21.5955 18.8974 19.2583C20.483 16.527 22.284 13.924 23.9613 11.2569C26.2206 7.66405 28.7456 4.27283 31.147 0.789977C31.3761 0.460022 31.5915 -0.227383 32.0956 0.0750753C32.4714 0.304211 32.0773 0.844981 31.8619 1.17494C30.5054 3.25549 29.0527 5.26728 27.5679 7.25617C26.1427 9.16716 24.9512 11.2569 23.7597 13.3283C21.8349 16.6782 19.7177 19.9182 17.9809 23.369C17.4768 24.3589 16.9864 25.3533 16.881 26.4852Z" fill="#F97561"/>
<path d="M9.54885 66.5335C8.67813 67.2346 8.04572 66.1439 7.77076 65.924C7.02377 65.3236 5.85977 65.9423 5.56647 65.2366C5.12653 64.1642 4.17789 63.2568 4.57201 61.8178C5.33274 59.0361 6.48759 56.4194 7.55994 53.766C8.339 51.8413 9.0814 49.8982 10.2179 48.143C10.7266 47.3594 11.3086 46.6674 12.1656 46.2733C13.05 45.87 13.8245 45.8379 14.6723 46.5666C15.3001 47.1027 16.1113 47.4602 16.6933 48.0881C17.2478 48.6884 17.6877 49.3208 17.0324 50.1365C16.5741 50.7094 16.6566 51.4655 16.4275 52.1208C15.4972 54.7559 15.1443 57.588 13.6549 60.026C12.5505 61.8316 11.7348 63.7746 10.8824 65.704C10.6441 66.2585 10.4058 66.923 9.54885 66.5335Z" fill="#F97561"/>
<path d="M64.4772 46.814C64.2709 47.2768 64.138 47.5747 64.0143 47.8588C64.1655 48.0559 64.303 47.9367 64.4542 47.8955C64.7613 47.8084 64.8667 47.2173 65.2425 47.4556C65.6961 47.7397 65.1141 48.0834 65.1462 48.4225C65.6411 48.5371 65.774 47.9276 66.1773 47.9092C66.8006 48.8716 66.4752 49.6461 65.8932 50.5077C64.3122 52.8494 62.9419 55.3149 62.0162 58.0095C61.668 59.0269 60.3619 59.5264 60.339 60.7042C60.3069 62.2027 59.6057 63.5042 58.8221 64.5765C57.4656 66.428 57.1769 68.6048 56.3658 70.6166C56.1366 71.1803 56.4483 71.8814 55.8892 72.3442C55.7104 72.4954 55.4263 72.8346 55.3072 72.5459C54.9039 71.5606 54.1156 72.0372 53.4649 71.8722C52.2551 71.5698 52.0168 70.3828 51.8976 69.338C51.7097 67.6928 52.1863 66.1026 52.8554 64.6361C55.4126 59.0223 58.3821 53.6331 62.0575 48.6654C62.6166 47.9093 63.1207 46.9606 64.4772 46.814Z" fill="#F97561"/>
<path d="M47.5441 24.5191C47.2645 25.3944 46.9941 26.3064 46.6779 27.2092C44.6799 32.9101 42.0906 38.3498 39.286 43.6886C38.2091 45.7371 36.9718 47.7031 36.156 49.8845C35.9223 50.5123 35.5053 51.0026 34.7583 50.3381C34.5841 50.1823 34.323 50.109 34.0892 50.0265C32.5403 49.4766 31.9354 48.2896 32.4211 46.6811C32.9206 45.0267 33.8418 43.5832 34.7308 42.1305C38.5069 35.9942 42.0586 29.7434 44.7669 23.0435C45.1106 22.1957 45.2114 22.1957 45.8118 22.8419C45.8759 22.9106 46.0088 22.961 46.1051 22.9518C47.2324 22.8556 47.3333 23.6805 47.5441 24.5191Z" fill="#F97561"/>
<path d="M9.68631 88.5674C8.6552 91.1016 6.97335 93.0401 5.99265 95.3315C5.00278 97.6503 3.8021 99.8867 3.17886 102.361C4.08165 100.377 4.97985 98.3927 5.88722 96.4084C6.93208 94.1354 8.2519 92.0228 9.55339 89.8918C10.2041 88.824 10.9374 88.8745 11.6752 89.4656C12.3947 90.0431 12.5413 91.01 11.8677 91.6836C10.4929 93.0585 9.71837 94.8182 9.21427 96.5459C8.33898 99.5522 6.7992 102.343 6.33635 105.482C6.23095 106.206 5.70391 106.825 5.59851 107.631C5.47936 108.539 5.42897 109.318 5.87808 110.161C6.13929 110.651 6.78086 111.298 6.21261 111.848C5.74517 112.297 5.06234 112.627 4.28328 112.219C3.9854 112.063 3.55464 112.164 3.18344 112.155C1.01124 112.081 -0.271932 110.665 0.048858 108.475C0.484215 105.537 1.58866 102.788 2.75267 100.07C4.27871 96.5138 5.94224 93.0218 8.20151 89.8552C8.53147 89.3831 8.81101 88.8653 9.68631 88.5674Z" fill="#F97561"/>
<path d="M68.9407 116.288C65.9986 116.283 65.1095 114.996 66.1085 112.553C66.8876 110.647 68.212 109.07 69.4906 107.498C72.4739 103.823 75.581 100.249 78.8897 96.8529C79.7009 96.0234 80.6816 95.7255 81.6898 95.4139C82.0426 95.3085 82.8263 95.0931 82.7942 95.4001C82.73 96.0279 83.3624 96.5962 82.7942 97.2653C80.2645 100.262 78.0053 103.47 75.6681 106.614C74.637 107.998 73.4959 109.309 72.5014 110.72C71.8278 111.673 71.1449 112.709 71.8232 113.992C71.9057 114.148 71.8644 114.547 71.7911 114.574C70.6271 114.959 69.9259 116.196 68.9407 116.288Z" fill="#F97561"/>
<path d="M99.0263 49.6461C100.539 47.946 101.478 45.8837 102.967 44.1973C103.407 43.7024 103.934 43.267 104.31 42.7308C104.929 41.8418 105.566 42.52 105.978 42.7995C106.377 43.0699 106.565 43.7024 106.134 44.3027C104.393 46.7453 102.99 49.4124 101.813 52.1345C100.974 54.073 99.5808 55.7686 99.2921 58.0233C99.1821 58.8757 98.6001 59.861 98.2747 60.8188C97.8439 62.0974 96.9549 61.0388 96.2675 60.9929C96.1575 60.9838 96.0612 60.6675 95.965 60.6675C95.5434 60.6721 95.2959 61.749 94.801 61.0021C94.1319 59.9893 93.4124 59.0361 93.8845 57.5421C94.6314 55.1683 95.7771 53.0236 97.0282 50.9247C98.7284 48.0742 100.296 45.123 102.715 42.7721C102.894 42.5979 103.059 42.41 103.247 42.2496C103.444 42.0847 103.71 41.9472 103.921 42.1488C104.191 42.4054 104.049 42.7171 103.811 42.9096C101.762 44.5868 100.74 47.0111 99.3012 49.1329C99.1867 49.2841 99.1134 49.472 99.0263 49.6461Z" fill="#F97561"/>
<path d="M48.4377 91.8258C49.0701 91.2301 49.785 90.6985 50.312 90.0203C50.9307 89.232 51.6181 89.0579 52.4888 89.4016C53.0067 89.6078 52.8967 90.1486 52.8463 90.4969C52.718 91.3859 52.191 92.0733 51.3294 92.3896C51.1232 92.4675 50.8116 92.3116 50.8162 92.6828C50.8207 94.5021 49.226 95.4691 48.5431 96.9264C48.3323 97.3709 47.9428 97.7971 47.6633 98.2554C46.8567 99.5935 46.1968 101.046 44.492 101.555C44.0933 101.674 43.4655 102.032 43.6763 102.636C44.3316 104.479 43.0393 105.711 42.3061 107.077C41.1008 109.323 39.5748 111.385 38.4566 113.685C38.3328 113.947 38.2504 114.313 37.8883 114.222C37.4346 114.107 38.035 113.708 37.7234 113.47C37.1597 113.772 36.6647 114.579 35.8765 113.626C35.597 113.287 35.1845 113.859 34.9829 114.222C34.8271 114.496 34.6621 114.758 34.3138 114.556C33.8968 114.313 34.2542 114.057 34.3688 113.827C36.3806 109.726 38.869 105.913 41.4491 102.155C43.7221 98.8466 45.9951 95.5378 48.2636 92.2291C48.3232 92.0962 48.3782 91.9587 48.4377 91.8258Z" fill="#F97561"/>
<path d="M73.1615 80.5381C72.7261 80.6665 73.8351 79.1587 72.6528 80.0845C72.6207 80.1074 72.5611 80.1486 72.5428 80.1349C71.7637 79.5299 71.0763 79.5666 70.366 80.3044C70.1781 80.4969 68.73 78.8746 68.6979 78.3935C68.6521 77.6694 68.8354 76.982 69.1516 76.3496C70.9526 72.7659 73.4868 69.7871 76.6856 67.3766C78.2529 66.1943 79.898 66.3226 81.5387 67.2025C82.4185 67.6745 82.414 68.2428 81.6853 68.9485C80.9154 69.6909 80.1822 70.4791 79.4902 71.2994C78.6928 72.2435 78.0237 73.2837 77.1484 74.1819C75.9981 75.3643 75.5995 77.037 74.7608 78.4393C74.298 79.2138 73.8901 79.9974 73.1615 80.5381ZM70.4393 77.2661C71.8325 75.1123 73.2348 72.9584 74.7883 70.9007C73.0148 72.2297 70.8839 75.3047 70.4393 77.2661Z" fill="#F97561"/>
<path d="M109.677 82.6919C109.493 83.3151 109.383 83.6955 109.214 84.2683C109.493 84.0529 109.663 83.9842 109.713 83.8696C110.13 82.9164 110.896 83.1639 111.5 83.4709C112.147 83.8009 112.316 84.5479 112.055 85.1894C111.633 86.2389 111.148 87.2746 110.552 88.237C109.732 89.5614 108.801 90.8399 108.242 92.2835C107.66 93.7912 106.808 95.2622 107.17 97.0357C107.344 97.8744 106.643 98.3647 105.877 98.021C105.46 97.8331 105.089 97.8561 104.677 97.8744C102.074 98.0027 100.726 96.1559 101.739 93.672C103.164 90.1663 105.47 87.2013 107.866 84.3233C108.329 83.7734 108.645 83.0402 109.677 82.6919Z" fill="#F97561"/>
<path d="M14.7228 137.437C14.7091 138.372 15.4973 138.826 15.6073 139.573C14.4524 139.729 13.7284 139.105 13.4718 137.818C13.1968 136.42 13.6367 135.128 14.315 134.014C15.7631 131.64 16.9729 129.129 18.9985 127.08C19.7913 126.278 20.3366 124.981 21.1065 124.01C23.3017 121.242 25.593 118.552 27.8569 115.839C28.3105 115.294 28.8513 114.835 29.4746 114.482C29.7908 114.299 30.107 114.258 30.4048 114.496C30.7256 114.753 30.689 115.078 30.5103 115.394C30.2445 115.866 30.0107 116.361 29.6762 116.778C26.6195 120.665 23.4758 124.486 20.5016 128.441C19.3422 129.981 18.4394 131.75 17.8162 133.597C17.5274 134.449 17.8345 135.389 17.9353 136.287C17.9628 136.53 18.3019 136.864 17.8711 137.048C17.0417 137.401 16.3451 137.749 17.0738 138.83C17.2387 139.078 16.8629 139.206 16.5971 139.211C16.1251 139.22 15.5844 139.215 15.5294 138.629C15.4836 138.097 15.1811 137.822 14.7228 137.437Z" fill="#F97561"/>
<path d="M34.6392 73.6094C34.3688 73.4169 34.2175 73.3803 34.0984 73.669C33.6676 74.7138 33.3102 75.7999 32.7511 76.7669C32.412 77.3535 32.4853 78.5587 31.1884 78.2059C30.9822 78.1509 31.0234 78.4121 31.1196 78.5588C31.3396 78.9025 31.2021 79.1545 30.9638 79.4432C30.5606 79.9336 30.4506 80.4835 30.5514 81.1572C30.7439 82.4037 29.8777 83.0131 28.7366 82.4999C28.5992 82.4403 28.3563 82.2295 28.3425 82.3165C28.0492 84.3513 26.9494 81.6521 26.5003 82.6374C26.1612 82.3578 26.0053 82.0004 25.9641 81.5604C25.877 80.5523 26.2895 79.6953 26.7569 78.8566C28.535 75.6762 31.0784 73.142 33.686 70.6719C34.3138 70.0762 35.2624 70.0441 36.0735 69.8058C36.5501 69.6637 36.8343 70.0624 37.013 70.4382C37.2605 70.9561 36.9901 71.011 36.5639 70.8735C36.5089 71.8038 35.8994 72.45 35.3999 73.1557C35.1937 73.4673 35.0516 73.8431 34.6392 73.6094Z" fill="#F97561"/>
<path d="M67.4468 33.8406C67.0802 34.3676 67.3414 35.2659 66.1957 35.3392C65.3663 35.3896 65.5175 34.9909 65.5175 34.5647C64.8026 34.6289 65.0913 35.4766 64.4589 35.6462C64.1976 34.5005 64.6239 33.4007 64.5689 32.3008C64.578 32.2688 64.5826 32.2321 64.5826 32.1954C65.4671 31.4347 65.6733 30.2982 66.1636 29.3175C66.3653 28.9142 66.4386 28.433 66.6861 28.0664C68.6887 25.1197 70.3202 21.9393 72.474 19.0843C74.1651 16.8479 75.6636 14.4649 77.4692 12.3111C77.8862 11.8161 78.2528 11.2708 79.1419 10.7529C78.4545 11.9994 77.932 12.9435 77.4096 13.8921C77.4233 13.8554 77.4325 13.8142 77.4463 13.7775C76.0669 14.8682 75.5078 16.5547 74.3254 17.8103C74.7287 18.1494 74.8479 17.7966 75.0449 17.7553C75.3749 17.6866 75.5811 17.8928 75.7094 18.1815C75.7736 18.3236 75.8973 18.5252 75.6773 18.5848C74.6875 18.8414 74.9258 19.6617 74.8937 20.3125C74.8616 21.032 74.4721 21.4261 73.9084 21.7514C73.0423 22.2464 72.5244 22.9475 72.6207 23.997C72.4694 24.2215 72.3182 24.4461 72.1624 24.6706C71.2138 25.1335 69.8573 27.3973 69.9535 28.3551C69.4128 28.3826 69.1974 29.4092 68.4642 28.8455C68.2442 28.2406 68.1204 27.9518 67.5568 28.708C66.8419 29.6612 66.9564 30.9581 66.0903 31.8105C65.962 31.9388 65.9712 32.1221 66.1453 32.2321C66.3745 32.3741 66.5852 32.2688 66.6219 32.0442C66.7731 31.0727 67.5476 30.3898 67.7813 29.4687C67.8821 29.0792 67.9875 28.7401 68.4962 28.8134C68.8033 30.6098 67.4193 31.8426 66.9473 33.3778C66.8831 33.5794 66.1224 33.0341 66.3974 33.7169C66.5303 34.0377 67.0389 34.2027 67.4468 33.8406ZM71.7866 22.5076C71.6858 22.4297 71.5804 22.3564 71.4796 22.2785C70.8884 23.2133 70.2972 24.1436 69.7198 25.0831C69.6511 25.1931 69.5228 25.3901 69.7198 25.5093C69.8573 25.5917 70.0956 25.6146 70.1414 25.4405C70.4439 24.3315 71.4933 23.6212 71.7866 22.5076Z" fill="#F97561"/>
<path d="M95.791 116.92C95.5389 117.621 95.736 118.249 95.9559 118.859C96.0751 119.18 96.1622 119.418 95.7818 119.551C95.4335 119.67 95.2181 119.427 95.0944 119.161C94.7782 118.483 94.8561 117.727 95.044 117.081C95.7589 114.611 97.097 112.47 98.7514 110.518C99.2417 109.941 99.8237 109.414 100.209 108.772C100.905 107.604 102.097 107.269 103.229 106.902C103.756 106.728 103.857 107.439 103.967 107.819C104.031 108.039 103.866 108.461 103.673 108.589C101.79 109.822 101.487 112.113 100.209 113.763C99.7871 114.308 99.9795 115.408 99.4388 116.132C99.008 116.7 98.7789 117.415 97.9815 117.686C97.5232 117.841 97.8715 118.437 97.6607 118.785C97.5553 118.964 97.4865 119.184 97.262 119.212C97.0374 119.239 96.7487 119.047 96.79 118.905C97.0604 117.929 95.9101 117.681 95.791 116.92Z" fill="#F97561"/>
<path d="M48.4377 91.8254C48.3827 91.9583 48.3231 92.0958 48.2681 92.2287C46.6138 93.686 45.2802 95.4412 43.9879 97.1918C42.2098 99.5977 40.5967 102.137 39.0477 104.698C37.7371 106.866 36.0644 108.818 35.1432 111.233C34.7675 112.214 34.1488 113.108 33.0673 113.777C32.8106 112.301 33.7547 111.352 34.2955 110.312C35.7253 107.572 37.5263 105.056 39.2998 102.535C42.4985 97.9846 45.5093 93.2828 49.4963 89.3371C49.7254 89.1125 49.9087 88.8009 50.4541 88.9704C50.0966 90.1619 48.951 90.7897 48.4377 91.8254Z" fill="#F97561"/>
<path d="M96.877 74.4023C96.3866 74.7643 96.964 75.7358 96.2125 75.5754C95.5709 75.4425 95.8046 74.6589 95.965 74.1639C96.964 71.0935 98.93 68.8205 101.78 67.3311C102.211 67.1066 102.839 66.7629 103.238 67.3999C103.591 67.9681 103.045 68.3118 102.729 68.6647C101.418 70.1495 100.172 71.6709 99.8466 73.7194C99.7641 74.2326 99.347 74.4206 98.9208 74.5947C98.7742 74.6543 98.623 74.7551 98.5176 74.8742C97.6881 75.8229 97.0603 75.9237 96.877 74.4023Z" fill="#F97561"/>
<path d="M71.1816 19.3086C71.0441 20.8392 69.738 21.6824 69.0277 22.8739C68.5007 23.7538 68.0699 24.7574 67.2313 25.454C67.0205 25.6281 66.938 26.0131 66.5943 25.816C66.3193 25.6602 66.2643 25.3486 66.4476 25.0553C67.5658 23.2818 68.6519 21.4899 69.9901 19.8677C70.3063 19.4827 70.8012 19.4965 71.2228 19.3406L71.1816 19.3086Z" fill="#F97561"/>
<path d="M71.2182 19.3405C71.0624 19.0013 70.8791 18.6852 71.1632 18.3002C72.7718 16.1097 74.3482 13.8916 76.218 11.9027C76.36 11.7469 76.4425 11.3849 76.7679 11.614C76.9741 11.7607 76.9237 11.9852 76.7816 12.164C74.9577 14.4691 73.1888 16.8154 71.5299 19.2488C71.484 19.3176 71.3007 19.2946 71.1816 19.313C71.1816 19.3084 71.2182 19.3405 71.2182 19.3405Z" fill="#F97561"/>
<path d="M64.5781 32.1906C64.5735 32.2273 64.5689 32.2639 64.5643 32.296C64.3444 32.8551 63.8632 33.3042 63.9044 33.9733C63.9182 34.2116 63.9502 34.5462 63.5882 34.5187C63.2628 34.4912 63.3087 34.1887 63.3362 33.9366C63.5882 31.6636 64.3627 29.5373 65.2242 27.443C65.3709 27.0855 65.8062 26.696 66.2004 26.8839C66.6678 27.1038 66.3149 27.5667 66.1499 27.8371C65.325 29.1798 64.963 30.6875 64.5781 32.1906Z" fill="#F97561"/>
<path d="M77.4417 13.7684C77.4325 13.8096 77.4188 13.8463 77.405 13.883C77.932 13.3468 78.8486 13.191 78.9357 12.2011C78.9494 12.0361 79.3664 11.4404 79.7834 11.8116C80.1821 12.1599 79.756 12.5311 79.5268 12.751C78.482 13.7409 77.6525 14.8545 77.1805 16.3576C76.7772 15.8902 76.1814 15.5831 76.9788 15.0149C77.4096 14.7033 77.2401 14.1625 77.4417 13.7684Z" fill="#F97561"/>
<path d="M72.1579 24.6611C72.3091 24.4365 72.4603 24.212 72.6161 23.9874C72.7994 23.8454 72.9827 23.6987 73.166 23.5566C73.2302 23.6025 73.2944 23.6437 73.3585 23.6896C72.9369 24.4411 72.5153 25.1881 72.0983 25.9397C72.0066 25.9122 71.9195 25.8801 71.8279 25.8526C71.9333 25.4539 72.0433 25.0552 72.1579 24.6611Z" fill="#F97561"/>
<path d="M67.9324 33.1942C67.6895 32.3327 68.3128 31.7599 68.6427 31.0999C68.9635 30.4492 69.3393 29.8214 69.6922 29.189C69.8159 29.5143 69.7884 29.7984 69.6051 30.1147C69.0323 31.1274 68.4869 32.1631 67.9324 33.1942Z" fill="#F97561"/>
</svg>
