<svg width="23" height="25" viewBox="0 0 23 25" fill="none" xmlns="http://www.w3.org/2000/svg">
<path d="M11.1582 14.0583C13.0672 14.0583 14.6148 12.5107 14.6148 10.6017C14.6148 8.69261 13.0672 7.14502 11.1582 7.14502C9.24913 7.14502 7.70154 8.69261 7.70154 10.6017C7.70154 12.5107 9.24913 14.0583 11.1582 14.0583Z" stroke="#F97561" stroke-width="1.8"/>
<path d="M20.7597 10.6018C20.7597 5.29853 16.4612 1 11.1579 1C5.85468 1 1.55615 5.29853 1.55615 10.6018C1.55615 12.9815 2.42646 15.1546 3.85981 16.8322C3.85981 16.8322 8.41721 22.137 9.87822 23.5312C10.5964 24.2164 11.7187 24.2164 12.4369 23.5312C14.1399 21.9073 18.4553 16.8322 18.4553 16.8322C19.8894 15.1546 20.7597 12.9815 20.7597 10.6018Z" stroke="#F97561" stroke-width="1.8"/>
</svg>
