<svg width="80" height="78" viewBox="0 0 80 78" fill="none" xmlns="http://www.w3.org/2000/svg">
<path fill-rule="evenodd" clip-rule="evenodd" d="M38.8329 0.00122824C55.8811 -0.122429 72.1089 9.09658 77.6073 25.2342C83.3409 42.0616 77.6125 60.9655 63.1067 71.2427C49.0869 81.1756 30.3705 78.7105 16.565 68.4819C3.18274 58.5669 -3.39838 41.6232 1.75194 25.7844C6.89881 9.95619 22.1894 0.121951 38.8329 0.00122824Z" fill="#F2F0EF"/>
<path d="M52.4563 52.2595H27.3459C24.7781 52.2595 22.6958 50.1772 22.6958 47.6094V29.9392C22.6958 27.3714 24.7781 25.2891 27.3459 25.2891H52.4563C55.024 25.2891 57.1063 27.3714 57.1063 29.9392V47.6094C57.1063 50.1772 55.024 52.2595 52.4563 52.2595Z" stroke="#493D3C" stroke-width="3.8" stroke-linecap="round"/>
<path d="M22.6958 31.7991L39.9011 41.0992L57.1063 31.7991" stroke="#493D3C" stroke-width="3.8" stroke-linecap="round"/>
</svg>
