<svg width="129" height="119" viewBox="0 0 129 119" fill="none" xmlns="http://www.w3.org/2000/svg">
<circle opacity="0.15" cx="63.1005" cy="51.1005" r="49.1005" fill="#F9BAB0"/>
<path d="M116.895 32.4871H53.0725L44.2459 50.1402L69.3677 80.6937H100.6L125.722 50.1402L116.895 32.4871ZM84.9839 71.1882L67.3308 50.1402H102.433L84.9839 71.1882Z" fill="white"/>
<path d="M84.9839 73.2251C82.309 73.2251 79.6603 73.752 77.189 74.7756C74.7177 75.7992 72.4722 77.2996 70.5808 79.191C68.6894 81.0825 67.189 83.3279 66.1654 85.7992C65.1417 88.2705 64.6149 90.9192 64.6149 93.5941C64.6149 96.269 65.1417 98.9177 66.1654 101.389C67.189 103.86 68.6894 106.106 70.5808 107.997C72.4722 109.889 74.7177 111.389 77.189 112.413C79.6603 113.436 82.309 113.963 84.9839 113.963C87.6588 113.963 90.3075 113.436 92.7787 112.413C95.25 111.389 97.4955 109.889 99.3869 107.997C101.278 106.106 102.779 103.86 103.802 101.389C104.826 98.9177 105.353 96.269 105.353 93.5941C105.353 90.9192 104.826 88.2705 103.802 85.7992C102.779 83.3279 101.278 81.0825 99.3869 79.191C97.4955 77.2996 95.25 75.7992 92.7787 74.7756C90.3075 73.752 87.6588 73.2251 84.9839 73.2251V73.2251Z" fill="white"/>
<path d="M62.0779 93.5941C62.0779 106.227 72.3504 116.5 84.9838 116.5C97.6171 116.5 107.89 106.227 107.89 93.5941C107.89 80.9608 97.6171 70.6882 84.9838 70.6882C72.3504 70.6882 62.0779 80.9608 62.0779 93.5941ZM67.1517 93.5941C67.1517 83.7537 75.1433 75.762 84.9838 75.762C94.8242 75.762 102.816 83.7537 102.816 93.5941C102.816 103.435 94.8242 111.426 84.9838 111.426C75.1433 111.426 67.1517 103.435 67.1517 93.5941Z" fill="#2C2524" stroke="#2C2524"/>
<mask id="path-5-outside-1" maskUnits="userSpaceOnUse" x="41.2051" y="29.45" width="88" height="48" fill="black">
<rect fill="white" x="41.2051" y="29.45" width="88" height="48"/>
<path d="M127.555 49.2573L118.728 31.6042C118.389 30.9252 117.71 30.45 116.895 30.45H53.0724C52.3256 30.45 51.5787 30.8573 51.2392 31.6042L42.4126 49.2573C42.0732 50.0042 42.1411 50.8868 42.6842 51.4979L62.7137 75.3975C63.1211 75.8728 63.6643 76.1444 64.2754 76.1444C64.7506 76.1444 65.2259 76.0086 65.5654 75.6691C66.4481 74.9223 66.516 73.6322 65.837 72.8175L46.9617 50.2079C46.758 50.0042 46.758 49.7326 46.8938 49.461L53.0724 37.1717C53.2761 36.7643 53.8872 36.6964 54.2267 37.0359L78.1942 66.3673L78.5337 66.7747C78.941 67.2499 79.4842 67.5215 80.0953 67.5215C80.5706 67.5215 81.0458 67.3857 81.3853 67.0463C82.268 66.2994 82.3359 65.0094 81.6569 64.1946L72.6946 53.2632C72.2872 52.8558 72.6267 52.1769 73.1698 52.1769H90.2798C91.3661 52.1769 92.3846 51.3621 92.4525 50.2758C92.5204 49.1215 91.5698 48.1031 90.4156 48.1031H68.7565C68.5529 48.1031 68.3492 48.0352 68.2134 47.8315L58.2326 35.6101C57.8931 35.2027 58.2326 34.5238 58.7757 34.5238H111.124C111.667 34.5238 112.007 35.2027 111.667 35.6101L88.6503 63.7872L88.3787 64.1267C87.6318 65.0094 87.6997 66.3673 88.5824 67.1141C88.9898 67.4536 89.3971 67.5894 89.8724 67.5894C90.4835 67.5894 91.0267 67.3178 91.434 66.8426L115.809 37.0359C116.148 36.6285 116.692 36.6964 116.963 37.1717L123.142 49.461C123.278 49.7326 123.21 50.0042 123.074 50.2079L104.334 72.6138C103.588 73.4964 103.723 74.7865 104.606 75.4654C105.489 76.2123 106.779 76.0765 107.458 75.1939L127.351 51.43C127.827 50.819 127.895 49.9363 127.555 49.2573Z"/>
</mask>
<path d="M127.555 49.2573L118.728 31.6042C118.389 30.9252 117.71 30.45 116.895 30.45H53.0724C52.3256 30.45 51.5787 30.8573 51.2392 31.6042L42.4126 49.2573C42.0732 50.0042 42.1411 50.8868 42.6842 51.4979L62.7137 75.3975C63.1211 75.8728 63.6643 76.1444 64.2754 76.1444C64.7506 76.1444 65.2259 76.0086 65.5654 75.6691C66.4481 74.9223 66.516 73.6322 65.837 72.8175L46.9617 50.2079C46.758 50.0042 46.758 49.7326 46.8938 49.461L53.0724 37.1717C53.2761 36.7643 53.8872 36.6964 54.2267 37.0359L78.1942 66.3673L78.5337 66.7747C78.941 67.2499 79.4842 67.5215 80.0953 67.5215C80.5706 67.5215 81.0458 67.3857 81.3853 67.0463C82.268 66.2994 82.3359 65.0094 81.6569 64.1946L72.6946 53.2632C72.2872 52.8558 72.6267 52.1769 73.1698 52.1769H90.2798C91.3661 52.1769 92.3846 51.3621 92.4525 50.2758C92.5204 49.1215 91.5698 48.1031 90.4156 48.1031H68.7565C68.5529 48.1031 68.3492 48.0352 68.2134 47.8315L58.2326 35.6101C57.8931 35.2027 58.2326 34.5238 58.7757 34.5238H111.124C111.667 34.5238 112.007 35.2027 111.667 35.6101L88.6503 63.7872L88.3787 64.1267C87.6318 65.0094 87.6997 66.3673 88.5824 67.1141C88.9898 67.4536 89.3971 67.5894 89.8724 67.5894C90.4835 67.5894 91.0267 67.3178 91.434 66.8426L115.809 37.0359C116.148 36.6285 116.692 36.6964 116.963 37.1717L123.142 49.461C123.278 49.7326 123.21 50.0042 123.074 50.2079L104.334 72.6138C103.588 73.4964 103.723 74.7865 104.606 75.4654C105.489 76.2123 106.779 76.0765 107.458 75.1939L127.351 51.43C127.827 50.819 127.895 49.9363 127.555 49.2573Z" fill="#2C2524"/>
<path d="M127.555 49.2573L126.661 49.7045L127.555 49.2573ZM118.728 31.6042L119.623 31.157L118.728 31.6042ZM51.2392 31.6042L52.1336 32.0514L52.1419 32.0349L52.1496 32.018L51.2392 31.6042ZM42.4126 49.2573L41.5182 48.8101L41.5099 48.8267L41.5023 48.8435L42.4126 49.2573ZM42.6842 51.4979L43.4507 50.8556L43.4413 50.8444L43.4316 50.8336L42.6842 51.4979ZM62.7137 75.3975L61.9473 76.0399L61.9545 76.0483L62.7137 75.3975ZM65.5654 75.6691L64.9195 74.9057L64.8877 74.9326L64.8583 74.962L65.5654 75.6691ZM65.837 72.8175L66.6052 72.1773L66.6046 72.1766L65.837 72.8175ZM46.9617 50.2079L47.7294 49.567L47.7006 49.5325L47.6688 49.5008L46.9617 50.2079ZM46.8938 49.461L46.0004 49.0118L45.9994 49.0138L46.8938 49.461ZM53.0724 37.1717L53.9659 37.6209L53.9668 37.6189L53.0724 37.1717ZM54.2267 37.0359L55.001 36.4032L54.9693 36.3643L54.9338 36.3288L54.2267 37.0359ZM78.1942 66.3673L77.4198 67.0001L77.426 67.0075L78.1942 66.3673ZM78.5337 66.7747L77.7654 67.4149L77.7744 67.4255L78.5337 66.7747ZM81.3853 67.0463L80.7394 66.2829L80.7076 66.3097L80.6782 66.3391L81.3853 67.0463ZM81.6569 64.1946L80.8836 64.8286L80.8887 64.8348L81.6569 64.1946ZM72.6946 53.2632L73.4679 52.6292L73.4366 52.591L73.4017 52.5561L72.6946 53.2632ZM92.4525 50.2758L93.4505 50.3382L93.4508 50.3345L92.4525 50.2758ZM68.2134 47.8315L69.0454 47.2768L69.0186 47.2365L68.9879 47.199L68.2134 47.8315ZM58.2326 35.6101L59.0071 34.9775L59.0008 34.9699L58.2326 35.6101ZM111.667 35.6101L110.899 34.9699L110.893 34.9775L111.667 35.6101ZM88.6503 63.7872L87.8758 63.1546L87.8694 63.1625L88.6503 63.7872ZM88.3787 64.1267L89.1421 64.7726L89.151 64.7621L89.1596 64.7514L88.3787 64.1267ZM88.5824 67.1141L87.9364 67.8776L87.9422 67.8824L88.5824 67.1141ZM91.434 66.8426L92.1933 67.4934L92.2008 67.4846L92.2081 67.4756L91.434 66.8426ZM115.809 37.0359L115.041 36.3957L115.035 36.4029L115.809 37.0359ZM116.963 37.1717L117.857 36.7225L117.845 36.6987L117.831 36.6756L116.963 37.1717ZM123.142 49.461L124.036 49.0138L124.035 49.0118L123.142 49.461ZM123.074 50.2079L123.841 50.8494L123.876 50.8078L123.906 50.7626L123.074 50.2079ZM104.334 72.6138L105.098 73.2597L105.101 73.2553L104.334 72.6138ZM104.606 75.4654L105.252 74.7021L105.234 74.687L105.216 74.6728L104.606 75.4654ZM107.458 75.1939L106.691 74.5519L106.678 74.5678L106.665 74.5841L107.458 75.1939ZM127.351 51.43L128.118 52.0719L128.13 52.0581L128.141 52.044L127.351 51.43ZM128.449 48.8101L119.623 31.157L117.834 32.0514L126.661 49.7045L128.449 48.8101ZM119.623 31.157C119.13 30.1704 118.122 29.45 116.895 29.45V31.45C117.298 31.45 117.648 31.6801 117.834 32.0514L119.623 31.157ZM116.895 29.45H53.0724V31.45H116.895V29.45ZM53.0724 29.45C51.9785 29.45 50.8484 30.0473 50.3288 31.1904L52.1496 32.018C52.3089 31.6674 52.6727 31.45 53.0724 31.45V29.45ZM50.3448 31.157L41.5182 48.8101L43.3071 49.7045L52.1336 32.0514L50.3448 31.157ZM41.5023 48.8435C41.0275 49.888 41.0883 51.2076 41.9368 52.1623L43.4316 50.8336C43.1939 50.566 43.1188 50.1204 43.323 49.6711L41.5023 48.8435ZM41.9178 52.1402L61.9473 76.0399L63.4802 74.7552L43.4507 50.8556L41.9178 52.1402ZM61.9545 76.0483C62.5328 76.723 63.3443 77.1444 64.2754 77.1444V75.1444C63.9843 75.1444 63.7095 75.0227 63.473 74.7467L61.9545 76.0483ZM64.2754 77.1444C64.924 77.1444 65.6892 76.9595 66.2725 76.3762L64.8583 74.962C64.7626 75.0577 64.5773 75.1444 64.2754 75.1444V77.1444ZM66.2114 76.4325C67.5207 75.3246 67.6297 73.4067 66.6052 72.1773L65.0688 73.4577C65.4022 73.8578 65.3754 74.5199 64.9195 74.9057L66.2114 76.4325ZM66.6046 72.1766L47.7294 49.567L46.1941 50.8487L65.0693 73.4583L66.6046 72.1766ZM47.6688 49.5008C47.6978 49.5297 47.7306 49.5727 47.7565 49.6296C47.7823 49.6865 47.7949 49.7434 47.7983 49.7934C47.8046 49.8888 47.7767 49.9313 47.7883 49.9082L45.9994 49.0138C45.7449 49.5229 45.6443 50.3047 46.2546 50.915L47.6688 49.5008ZM47.7873 49.9102L53.9659 37.6209L52.179 36.7225L46.0004 49.0118L47.7873 49.9102ZM53.9668 37.6189C53.8903 37.7721 53.7623 37.8115 53.7132 37.8172C53.6643 37.8228 53.5885 37.812 53.5196 37.743L54.9338 36.3288C54.5253 35.9204 53.9743 35.7738 53.484 35.8303C52.9936 35.8869 52.4583 36.164 52.178 36.7245L53.9668 37.6189ZM53.4523 37.6687L77.4198 67L78.9685 65.7345L55.001 36.4032L53.4523 37.6687ZM77.426 67.0075L77.7654 67.4149L79.3019 66.1345L78.9624 65.7271L77.426 67.0075ZM77.7744 67.4255C78.3527 68.1001 79.1642 68.5215 80.0953 68.5215V66.5215C79.8043 66.5215 79.5294 66.3998 79.2929 66.1239L77.7744 67.4255ZM80.0953 68.5215C80.7439 68.5215 81.5091 68.3367 82.0924 67.7534L80.6782 66.3391C80.5826 66.4348 80.3973 66.5215 80.0953 66.5215V68.5215ZM82.0313 67.8096C83.3406 66.7017 83.4496 64.7838 82.4251 63.5544L80.8887 64.8348C81.2221 65.2349 81.1954 65.897 80.7394 66.2829L82.0313 67.8096ZM82.4302 63.5606L73.4679 52.6292L71.9212 53.8973L80.8836 64.8286L82.4302 63.5606ZM73.4017 52.5561C73.454 52.6085 73.4978 52.6893 73.5109 52.7826C73.5229 52.8682 73.506 52.9381 73.4837 52.9863C73.4446 53.0711 73.3393 53.1769 73.1698 53.1769V51.1769C72.4572 51.1769 71.9106 51.6222 71.6678 52.1482C71.4163 52.6932 71.4461 53.4289 71.9875 53.9703L73.4017 52.5561ZM73.1698 53.1769H90.2798V51.1769H73.1698V53.1769ZM90.2798 53.1769C91.8021 53.1769 93.3442 52.0388 93.4505 50.3382L91.4544 50.2134C91.4249 50.6855 90.9302 51.1769 90.2798 51.1769V53.1769ZM93.4508 50.3345C93.552 48.6128 92.1521 47.1031 90.4156 47.1031V49.1031C90.9875 49.1031 91.4887 49.6302 91.4542 50.2171L93.4508 50.3345ZM90.4156 47.1031H68.7565V49.1031H90.4156V47.1031ZM68.7565 47.1031C68.7627 47.1031 68.8084 47.1038 68.8733 47.1333C68.9467 47.1667 69.0079 47.2206 69.0454 47.2768L67.3813 48.3862C67.7536 48.9446 68.3223 49.1031 68.7565 49.1031V47.1031ZM68.9879 47.199L59.0071 34.9776L57.458 36.2426L67.4388 48.464L68.9879 47.199ZM59.0008 34.9699C59.1384 35.135 59.0947 35.3071 59.0676 35.3614C59.0404 35.4158 58.9492 35.5238 58.7757 35.5238V33.5238C58.0591 33.5238 57.5266 33.9712 57.2787 34.4669C57.0309 34.9625 56.9873 35.6778 57.4643 36.2503L59.0008 34.9699ZM58.7757 35.5238H111.124V33.5238H58.7757V35.5238ZM111.124 35.5238C110.951 35.5238 110.859 35.4158 110.832 35.3614C110.805 35.3071 110.761 35.135 110.899 34.9699L112.435 36.2503C112.913 35.6778 112.869 34.9625 112.621 34.4669C112.373 33.9712 111.841 33.5238 111.124 33.5238V35.5238ZM110.893 34.9775L87.8758 63.1546L89.4247 64.4198L112.442 36.2427L110.893 34.9775ZM87.8694 63.1625L87.5978 63.502L89.1596 64.7514L89.4311 64.4119L87.8694 63.1625ZM87.6153 63.4808C86.5372 64.7549 86.6027 66.749 87.9364 67.8775L89.2283 66.3508C88.7968 65.9856 88.7265 65.2638 89.1421 64.7726L87.6153 63.4808ZM87.9422 67.8824C88.5313 68.3733 89.1658 68.5894 89.8724 68.5894V66.5894C89.6285 66.5894 89.4483 66.534 89.2226 66.3459L87.9422 67.8824ZM89.8724 68.5894C90.8035 68.5894 91.615 68.168 92.1933 67.4934L90.6748 66.1918C90.4383 66.4677 90.1634 66.5894 89.8724 66.5894V68.5894ZM92.2081 67.4756L116.583 37.669L115.035 36.4029L90.6599 66.2095L92.2081 67.4756ZM116.577 37.6761C116.568 37.6866 116.539 37.716 116.484 37.7395C116.427 37.7633 116.36 37.7739 116.292 37.7657C116.147 37.7482 116.093 37.6644 116.095 37.6679L117.831 36.6756C117.562 36.2038 117.101 35.8484 116.531 35.78C115.95 35.7103 115.406 35.9574 115.041 36.3957L116.577 37.6761ZM116.07 37.6209L122.248 49.9102L124.035 49.0118L117.857 36.7225L116.07 37.6209ZM122.247 49.9082C122.236 49.8854 122.225 49.8554 122.22 49.8204C122.214 49.7859 122.215 49.7542 122.218 49.7277C122.225 49.6777 122.241 49.6542 122.242 49.6532L123.906 50.7626C124.177 50.356 124.378 49.6974 124.036 49.0138L122.247 49.9082ZM122.307 49.5663L103.567 71.9722L105.101 73.2553L123.841 50.8494L122.307 49.5663ZM103.571 71.9678C102.466 73.2737 102.649 75.2214 103.996 76.2581L105.216 74.6728C104.798 74.3515 104.709 73.7192 105.098 73.2597L103.571 71.9678ZM103.96 76.2288C105.266 77.3337 107.214 77.1512 108.25 75.8036L106.665 74.5841C106.344 75.0018 105.711 75.0909 105.252 74.7021L103.96 76.2288ZM108.224 75.8358L128.118 52.0719L126.585 50.7881L106.691 74.5519L108.224 75.8358ZM128.141 52.044C128.862 51.1165 128.954 49.8193 128.449 48.8101L126.661 49.7045C126.835 50.0533 126.791 50.5214 126.562 50.8161L128.141 52.044Z" fill="#2C2524" mask="url(#path-5-outside-1)"/>
<path d="M85.9977 82.9921L89.2073 88.0886C89.3629 88.3415 89.6158 88.536 89.927 88.6138L95.7627 90.0922C96.6186 90.3062 96.9493 91.3371 96.3852 91.9985L92.5336 96.6281C92.3391 96.8616 92.2418 97.1533 92.2613 97.4646L92.6503 103.475C92.7087 104.351 91.8333 104.973 91.0164 104.662L85.4141 102.425C85.1223 102.308 84.8111 102.308 84.5388 102.425L78.956 104.662C78.139 104.993 77.2831 104.351 77.322 103.475L77.711 97.4646C77.7305 97.1533 77.6332 96.8616 77.4387 96.6281L73.5872 91.9985C73.0231 91.3177 73.3537 90.3062 74.2096 90.0922L80.0453 88.6138C80.3371 88.536 80.59 88.3609 80.765 88.0886L83.9746 82.9921C84.4415 82.2529 85.5308 82.2529 85.9977 82.9921Z" fill="#F97561"/>
</svg>
