<svg width="122" height="127" viewBox="0 0 122 127" fill="none" xmlns="http://www.w3.org/2000/svg">
<path opacity="0.3" fill-rule="evenodd" clip-rule="evenodd" d="M59.2533 0.00186345C84.3883 -0.185747 108.314 13.8011 116.42 38.2846C124.874 63.8148 116.428 92.4953 95.0414 108.088C74.3712 123.157 46.7768 119.418 26.4226 103.899C6.69248 88.8562 -3.01039 63.1496 4.58298 39.1194C12.1713 15.1053 34.715 0.185021 59.2533 0.00186345Z" fill="#FFCA0F"/>
<path d="M50.1615 33.812H41.07H31.9785V94.4221H50.1615V33.812ZM67.5869 35.3273C75.0874 33.812 82.8152 33.509 90.4673 34.4181L91.2249 34.4939C95.013 34.9485 97.892 38.2062 97.892 41.9944V117.454C97.892 121.469 94.6342 124.651 90.6945 124.651C86.4518 124.651 83.1183 121.015 83.4971 116.772L85.9215 91.0128C86.3003 87.3004 83.8001 83.9669 80.1635 83.285L67.5869 80.7848V35.3273Z" fill="white"/>
<path d="M90.6945 127C88.0428 127 85.4669 125.864 83.6486 123.894C81.8303 121.924 80.9969 119.272 81.2242 116.621L83.6486 90.8612C83.8759 88.3611 82.2091 86.0124 79.7089 85.5578L67.1323 83.0577C65.9201 82.8304 65.0867 81.6182 65.314 80.406C65.5413 79.1938 66.7535 78.3604 67.9657 78.5877L80.5423 81.0878C85.3154 82.0728 88.5731 86.467 88.1186 91.3158L85.6942 117.075C85.5426 118.515 85.9972 119.803 86.9821 120.863C87.967 121.924 89.255 122.454 90.6187 122.454C93.3462 122.454 95.5433 120.257 95.5433 117.53V42.0701C95.5433 39.4184 93.4977 37.1455 90.846 36.7667L90.0884 36.6909C82.8152 35.7818 75.3147 36.0848 68.0415 37.5243C66.8293 37.7516 65.6171 36.994 65.3898 35.706C65.1625 34.4938 65.9201 33.2816 67.2081 33.0543C74.9359 31.5391 82.891 31.236 90.6945 32.1452L91.4521 32.2209C96.3767 32.8271 100.165 36.994 100.165 41.9943V117.454C100.165 122.757 95.9221 127 90.6945 127Z" fill="#2C2524"/>
<path d="M50.1615 31.5392H31.9784C30.6905 31.5392 29.7056 32.5241 29.7056 33.8121V94.4222C29.7056 95.7101 30.6905 96.695 31.9784 96.695C33.2664 96.695 34.2513 95.7101 34.2513 94.4222V36.0849H38.7971V62.6019C38.7971 63.8898 39.782 64.8747 41.07 64.8747C42.3579 64.8747 43.3428 63.8898 43.3428 62.6019V36.0849H47.8886V94.4222C47.8886 95.7101 48.8735 96.695 50.1615 96.695C51.4494 96.695 52.4344 95.7101 52.4344 94.4222V33.8121C52.4344 32.5241 51.4494 31.5392 50.1615 31.5392Z" fill="#2C2524"/>
<path d="M67.2082 74.232H82.3607C83.6487 74.232 84.6336 73.2471 84.6336 71.9592C84.6336 70.6712 83.6487 69.6863 82.3607 69.6863H67.2082C65.9202 69.6863 64.9353 70.6712 64.9353 71.9592C64.9353 73.2471 65.9202 74.232 67.2082 74.232Z" fill="#F9BAB0"/>
<path d="M67.2082 65.1405H82.3607C83.6487 65.1405 84.6336 64.1556 84.6336 62.8676C84.6336 61.5797 83.6487 60.5948 82.3607 60.5948H67.2082C65.9202 60.5948 64.9353 61.5797 64.9353 62.8676C64.9353 64.1556 65.9202 65.1405 67.2082 65.1405Z" fill="#F9BAB0"/>
<path d="M67.2082 56.049H82.3607C83.6487 56.049 84.6336 55.0641 84.6336 53.7761C84.6336 52.4882 83.6487 51.5033 82.3607 51.5033H67.2082C65.9202 51.5033 64.9353 52.4882 64.9353 53.7761C64.9353 55.0641 65.9202 56.049 67.2082 56.049Z" fill="#F9BAB0"/>
<path d="M67.2082 46.9575H82.3607C83.6487 46.9575 84.6336 45.9726 84.6336 44.6846C84.6336 43.3967 83.6487 42.4117 82.3607 42.4117H67.2082C65.9202 42.4117 64.9353 43.3967 64.9353 44.6846C64.9353 45.9726 65.9202 46.9575 67.2082 46.9575Z" fill="#F9BAB0"/>
<path d="M52.889 104.271C48.9494 104.12 45.5401 105.938 43.3429 108.817V80.8606C43.3429 79.6484 42.4338 78.512 41.2216 78.4362C39.9336 78.3604 38.7972 79.4211 38.7972 80.7091V108.741C36.6758 105.862 33.1908 104.044 29.2511 104.195C23.4174 104.423 18.6443 109.196 18.3413 114.954C18.0382 121.469 23.2659 126.849 29.7057 126.849C34.5545 126.849 38.7972 123.742 40.3882 119.424C40.6155 118.742 41.5246 118.742 41.8277 119.424C43.4187 123.742 47.5856 126.849 52.5102 126.849C58.95 126.849 64.1777 121.469 63.8746 114.954C63.4958 109.272 58.7228 104.499 52.889 104.271ZM29.7057 122.454C25.9175 122.454 22.887 119.424 22.887 115.636C22.887 111.848 25.9175 108.817 29.7057 108.817C33.4938 108.817 36.5243 111.848 36.5243 115.636C36.5243 119.424 33.4938 122.454 29.7057 122.454ZM52.4345 122.454C48.6463 122.454 45.6158 119.424 45.6158 115.636C45.6158 111.848 48.6463 108.817 52.4345 108.817C56.2226 108.817 59.2531 111.848 59.2531 115.636C59.2531 119.424 56.2226 122.454 52.4345 122.454Z" fill="#2C2524"/>
<path d="M39.5007 70.352C39.9269 69.9257 40.505 69.6863 41.1078 69.6863C41.7106 69.6863 42.2888 69.9257 42.715 70.352C43.1413 70.7782 43.3807 71.3564 43.3807 71.9592C43.3807 72.562 43.1413 73.1401 42.715 73.5663C42.2888 73.9926 41.7106 74.232 41.1078 74.232C40.505 74.232 39.9269 73.9926 39.5007 73.5663C39.0744 73.1401 38.835 72.562 38.835 71.9592C38.835 71.3564 39.0744 70.7782 39.5007 70.352Z" fill="#FFCA0F"/>
</svg>
