<svg width="122" height="127" viewBox="0 0 122 127" fill="none" xmlns="http://www.w3.org/2000/svg">
<path opacity="0.3" fill-rule="evenodd" clip-rule="evenodd" d="M59.3329 0.00193113C85.3807 -0.192494 110.175 14.3024 118.576 39.6752C127.337 66.1327 118.584 95.8549 96.4207 112.013C74.9999 127.631 46.4031 123.755 25.3097 107.673C4.86291 92.0835 -5.19238 65.4433 2.67679 40.5403C10.5407 15.6539 33.9032 0.191741 59.3329 0.00193113Z" fill="#FFCA0F"/>
<path d="M118.564 57.8062H105.237C105.237 50.8573 99.5257 45.241 92.672 45.3362L78.8694 45.4314V40.6719C78.8694 33.3422 72.9676 27.4404 65.638 27.4404H63.5438C51.9305 27.4404 42.6019 36.7691 42.6019 48.3823H63.4486C68.5889 48.3823 72.7772 52.5707 72.7772 57.711C72.2061 66.7541 64.6861 73.8933 55.643 73.8933H40.9837C33.178 73.8933 25.658 77.0346 20.2322 82.5557C16.7101 86.3633 10.8083 99.0236 7.28626 107.02C5.85841 110.256 8.23817 113.873 11.7602 113.873C13.2833 113.873 14.6159 113.207 15.5678 111.969C17.662 109.399 20.0418 107.21 22.7071 105.401L29.656 120.537C30.4175 122.25 32.2261 123.392 34.1299 123.392C37.3664 123.392 39.7462 120.346 38.8895 117.205L34.4155 100.261C36.7001 99.7851 38.9847 99.4995 41.3644 99.4995H44.5057H45.0768C55.9285 99.4995 65.3524 106.068 69.3504 115.682C69.636 116.443 70.0167 117.966 70.3975 119.394C70.8734 121.489 72.5869 123.107 74.681 123.297C77.8223 123.678 80.3925 121.108 80.2021 118.157C80.0117 113.588 79.8213 106.544 80.3925 99.5947H89.0548C91.6249 99.5947 94.0999 100.451 96.1941 101.974C96.8604 102.546 97.5267 103.117 98.0979 103.783C99.4305 105.116 101.525 105.687 103.524 105.021C106.855 103.878 107.998 100.166 106.094 97.1198C103.048 92.1699 97.6219 89.1238 91.8153 89.1238H82.0107C83.3434 83.9835 85.4376 79.8903 88.7692 78.3673C100.002 73.0366 118.564 84.6498 118.564 62.8512C118.564 62.6609 118.564 62.5657 118.564 62.3753C118.564 59.71 118.564 57.8062 118.564 57.8062Z" fill="white"/>
<path d="M55.7382 76.8442H28.7993C20.8985 76.8442 13.7592 72.0847 10.7131 64.755L5.47766 52.2851C4.90652 50.8572 5.57285 49.1438 7.00071 48.5726C8.42856 48.0015 10.142 48.6678 10.7131 50.0957L16.0438 62.5656C18.2332 67.8011 23.2783 71.1328 28.8945 71.1328H55.7382C63.3534 71.1328 69.636 65.2309 70.0167 57.6157C70.1119 55.9975 71.4446 54.8552 73.0628 54.9504C74.6811 55.0456 75.8233 56.3782 75.7282 57.9965C75.0618 68.5626 66.3043 76.8442 55.7382 76.8442Z" fill="#2C2524"/>
<path d="M75.1571 126.343C71.5399 126.343 68.3986 123.868 67.5419 120.346C66.9708 117.966 66.6852 117.205 66.59 116.919C63.068 108.162 54.596 102.546 45.077 102.546H41.3646C32.1311 102.546 23.564 106.734 17.7573 113.873C16.3295 115.682 14.0449 116.824 11.7603 116.824C9.09502 116.824 6.71526 115.492 5.2874 113.302C3.85955 111.113 3.66917 108.352 4.71626 105.972C8.80945 96.6438 14.5209 84.745 18.1381 80.747C19.1852 79.6048 20.9938 79.5096 22.1361 80.5567C23.2784 81.6038 23.3736 83.4124 22.3265 84.5546C19.9467 87.22 15.4728 95.8823 9.95173 108.257C9.57097 109.114 9.95173 109.875 10.1421 110.161C10.3325 110.446 10.8084 111.113 11.8555 111.113C12.4267 111.113 12.9978 110.827 13.4738 110.351C20.3275 101.784 30.5128 96.8342 41.5549 96.8342H45.2674C57.071 96.8342 67.6371 103.878 72.111 114.73C72.4918 115.587 72.8726 116.919 73.3485 119.014C73.5389 119.965 74.3956 120.632 75.3475 120.632C75.9187 120.632 76.4898 120.441 76.8706 119.965C77.2513 119.585 77.4417 119.014 77.4417 118.442C76.3946 101.594 77.5369 80.5567 87.5319 75.7971C91.9106 73.703 96.8605 73.8933 101.715 73.9885C106.475 74.0837 110.854 74.2741 113.233 71.9895C114.852 70.3713 115.708 67.3252 115.708 62.8512V62.3753C115.708 61.709 115.708 61.1378 115.708 60.5667H105.237C103.619 60.5667 102.382 59.3292 102.382 57.711C102.382 55.1408 101.334 52.6659 99.5259 50.8573C97.7173 49.0486 95.2423 48.0967 92.6722 48.0967L78.9648 48.2871C78.2032 48.2871 77.4417 48.0015 76.9658 47.4304C76.3946 46.8593 76.109 46.1929 76.109 45.4314V40.6719C76.109 34.9605 71.4447 30.2961 65.7333 30.2961H63.6391C54.596 30.2961 47.1712 36.8643 45.7433 45.5266H65.5429C67.1611 45.5266 68.3986 46.7641 68.3986 48.3823C68.3986 50.0005 67.1611 51.238 65.5429 51.238H42.6972C41.079 51.238 39.8415 50.0005 39.8415 48.3823C39.8415 35.246 50.5028 24.5847 63.6391 24.5847H65.7333C74.586 24.5847 81.8205 31.8192 81.8205 40.6719V42.5757L92.6722 42.4805C96.7654 42.4805 100.668 44.0036 103.619 46.9545C105.904 49.1438 107.331 51.9995 107.903 54.9504H118.564C120.182 54.9504 121.42 56.1879 121.42 57.8062C121.42 57.8062 121.42 59.8052 121.42 62.4705V62.9464C121.42 69.0386 119.992 73.4174 117.231 76.1779C113.138 80.0807 107.331 79.9855 101.62 79.7951C97.5269 79.6999 93.2433 79.5096 90.102 81.0326C84.6762 83.6027 82.0108 97.7861 83.0579 118.157C83.1531 120.251 82.3916 122.345 80.9637 123.963C79.3455 125.487 77.3465 126.343 75.1571 126.343Z" fill="#2C2524"/>
<path d="M101.81 108.257C99.0499 108.257 96.5749 106.924 95.0519 104.64C94.1952 103.307 94.5759 101.594 95.8134 100.642C97.1461 99.7851 98.8595 100.166 99.8114 101.403C100.287 102.07 100.954 102.45 101.81 102.45C103.048 102.45 103.714 101.594 103.905 101.213C104.095 100.832 104.571 99.8803 103.905 98.8332L102.953 97.215C101.049 93.9785 97.5268 91.9795 93.7192 91.9795C92.101 91.9795 90.8635 90.742 90.8635 89.1238C90.8635 87.5055 92.101 86.2681 93.7192 86.2681C99.5258 86.2681 104.952 89.4094 107.807 94.3593L108.759 95.9775C110.282 98.5476 110.282 101.594 108.854 104.069C107.331 106.734 104.761 108.257 101.81 108.257ZM34.1301 126.343C31.084 126.343 28.3234 124.535 27.086 121.774L24.5158 116.158C23.8495 114.73 24.5158 113.017 25.9437 112.35C27.3715 111.684 29.085 112.35 29.7513 113.778L32.3214 119.394C32.7022 120.156 33.3685 120.632 34.2252 120.632C35.082 120.632 35.6531 120.156 35.8435 119.87C36.0339 119.585 36.4146 118.918 36.2242 118.062L34.7964 112.826C34.4156 111.303 35.3675 109.78 36.8906 109.304C38.4136 108.923 39.9367 109.875 40.4126 111.398L41.7453 116.634C42.3164 119.014 41.8405 121.393 40.3174 123.297C38.7944 125.201 36.605 126.343 34.1301 126.343ZM92.8625 52.0947C92.1051 52.0947 91.3788 52.3956 90.8432 52.9311C90.3077 53.4667 90.0068 54.1931 90.0068 54.9504C90.0068 55.7078 90.3077 56.4342 90.8432 56.9697C91.3788 57.5053 92.1051 57.8061 92.8625 57.8061C93.6199 57.8061 94.3463 57.5053 94.8818 56.9697C95.4174 56.4342 95.7182 55.7078 95.7182 54.9504C95.7182 54.1931 95.4174 53.4667 94.8818 52.9311C94.3463 52.3956 93.6199 52.0947 92.8625 52.0947Z" fill="#2C2524"/>
<path d="M115.591 65.5083C114.701 65.4667 110.586 62.6033 110.476 60.5725L115.716 60.5725C115.716 60.5725 115.765 65.0526 115.591 65.5083Z" fill="#F9BAB0"/>
<ellipse cx="90.9421" cy="59.784" rx="5.07942" ry="2.07196" fill="#F9BAB0"/>
</svg>
