<svg width="129" height="119" viewBox="0 0 129 119" fill="none" xmlns="http://www.w3.org/2000/svg">
<g clip-path="url(#clip0)">
<circle opacity="0.15" cx="60.4807" cy="51.4807" r="48.4807" fill="#F9BAB0"/>
<path d="M93.6909 29.2505L60.1441 36.8606V65.7481C60.1441 87.4914 71.0157 100.304 89.0316 112.341L91.5942 114.049C92.2154 114.438 92.9143 114.67 93.6909 114.67V114.593C94.3898 114.593 95.1663 114.36 95.7875 113.972L98.3501 112.263C116.444 100.227 127.238 87.4137 127.238 65.6705V36.7053L93.6909 29.2505Z" fill="white"/>
<path d="M93.6906 71.9599V106.438L94.1565 106.128C108.367 96.654 117.531 87.3355 119.394 71.9599H93.6906ZM93.6906 44.7031C84.9933 44.7031 76.3737 45.5573 67.5987 47.421V65.7475C67.5987 67.9218 67.754 70.0185 67.987 71.9599H93.6906V44.7031Z" fill="#F97561"/>
<path d="M93.6907 117C92.5259 117 91.3611 116.612 90.3516 115.991L87.789 114.282C72.2581 103.876 57.8143 90.8305 57.8143 65.748V36.8606C57.8143 35.7734 58.5909 34.8415 59.6004 34.6086L93.1471 26.9984C93.4578 26.9208 93.846 26.9208 94.1567 26.9984L127.703 34.4533C128.791 34.6862 129.489 35.6181 129.489 36.7052V65.6704C129.489 90.7528 115.123 103.799 99.5148 114.204L96.9522 115.913C96.1757 116.379 95.3991 116.767 94.4673 116.845C94.312 116.922 94.0014 117 93.6907 117ZM62.4736 38.7243V65.748C62.4736 87.336 73.6559 99.2171 90.3516 110.399L92.9142 112.108C92.9918 112.185 93.1472 112.263 93.2248 112.263C93.3801 112.263 93.5354 112.185 93.6907 112.185C94.0014 112.185 94.2343 112.108 94.4673 111.952L97.0299 110.244C113.726 99.0618 124.908 87.2583 124.908 65.5927V38.569L93.6907 31.6577L62.4736 38.7243Z" fill="#2C2524"/>
</g>
<defs>
<clipPath id="clip0">
<rect width="129" height="119" fill="white"/>
</clipPath>
</defs>
</svg>
