<svg width="23" height="25" viewBox="0 0 23 25" fill="none" xmlns="http://www.w3.org/2000/svg">
<path d="M18.5837 15.6103C17.7837 14.5103 16.3837 14.0103 15.0837 14.4103L12.7837 15.1103C12.7837 15.1103 12.6837 15.1103 12.5837 15.1103C12.4837 15.0103 12.3837 15.0103 12.2837 14.9103C11.8837 14.6103 11.4837 14.0103 10.8837 13.1103C10.2837 12.1103 10.0837 11.5103 9.98367 11.1103C9.88367 10.8103 9.88367 10.6103 9.88367 10.6103C9.88367 10.5103 9.88367 10.5103 9.98367 10.5103L11.6837 8.91032C12.6837 8.01032 12.9837 6.51032 12.3837 5.31032L11.3837 3.01032C10.7837 1.41032 9.08367 0.710324 7.58367 1.11032L6.28367 1.51032C4.88367 1.91032 3.68367 3.11032 3.28367 4.51032C2.48367 7.71032 3.38367 11.5103 5.88367 15.8103C8.38367 20.0103 11.2837 22.8103 14.4837 23.7103C15.9837 24.1103 17.5837 23.7103 18.6837 22.7103L19.6837 21.7103C20.8837 20.6103 20.9837 18.8103 20.0837 17.5103L18.5837 15.6103Z" stroke="#F97561" stroke-width="1.8"/>
</svg>
