<svg width="80" height="78" viewBox="0 0 80 78" fill="none" xmlns="http://www.w3.org/2000/svg">
<path fill-rule="evenodd" clip-rule="evenodd" d="M38.8329 0.00122824C55.8811 -0.122429 72.1089 9.09658 77.6073 25.2342C83.3409 42.0616 77.6125 60.9655 63.1067 71.2427C49.0869 81.1756 30.3705 78.7105 16.565 68.4819C3.18274 58.5669 -3.39838 41.6232 1.75194 25.7844C6.89881 9.95619 22.1894 0.121951 38.8329 0.00122824Z" fill="#F2F0EF"/>
<path d="M39.9013 18C34.5722 18 29.4613 20.117 25.6931 23.8852C21.9248 27.6535 19.8079 32.7643 19.8079 38.0934C19.8079 43.4225 21.9248 48.5334 25.6931 52.3016C29.4613 56.0699 34.5722 58.1868 39.9013 58.1868C45.2304 58.1868 50.3412 56.0699 54.1095 52.3016C57.8777 48.5334 59.9947 43.4225 59.9947 38.0934C59.9947 32.7643 57.8777 27.6535 54.1095 23.8852C50.3412 20.117 45.2304 18 39.9013 18V18Z" stroke="#493D3C" stroke-width="3.8" stroke-linecap="round"/>
<path d="M39.9011 29.6821V38.7853H48.2734" stroke="#493D3C" stroke-width="3.8" stroke-linecap="round"/>
</svg>
