<svg width="23" height="22" viewBox="0 0 23 22" fill="none" xmlns="http://www.w3.org/2000/svg">
<path d="M11.4996 1C8.84752 1 6.30409 2.05352 4.42881 3.92881C2.55352 5.80409 1.5 8.34752 1.5 10.9996C1.5 13.6516 2.55352 16.195 4.42881 18.0703C6.30409 19.9456 8.84752 20.9991 11.4996 20.9991C14.1516 20.9991 16.695 19.9456 18.5703 18.0703C20.4456 16.195 21.4991 13.6516 21.4991 10.9996C21.4991 8.34752 20.4456 5.80409 18.5703 3.92881C16.695 2.05352 14.1516 1 11.4996 1V1Z" stroke="#2C2524" stroke-width="2" stroke-miterlimit="10"/>
<path d="M11.4996 6.81362V10.3439C11.4996 10.8962 11.9473 11.3439 12.4996 11.3439H15.6661" stroke="#2C2524" stroke-width="2" stroke-miterlimit="10" stroke-linecap="round"/>
</svg>
