<svg width="122" height="127" viewBox="0 0 122 127" fill="none" xmlns="http://www.w3.org/2000/svg">
<g clip-path="url(#clip0)">
<path opacity="0.3" fill-rule="evenodd" clip-rule="evenodd" d="M59.3329 0.00193113C85.3807 -0.192494 110.175 14.3024 118.576 39.6752C127.337 66.1327 118.584 95.8549 96.4207 112.013C74.9999 127.631 46.4031 123.755 25.3097 107.673C4.86291 92.0835 -5.19238 65.4433 2.67679 40.5403C10.5407 15.6539 33.9032 0.191741 59.3329 0.00193113Z" fill="#FFCA0F"/>
<path d="M99.7785 107.118L81.0007 23.5022L77.3799 27.123C74.2643 30.2386 70.1382 31.9227 65.8438 31.9227C61.5493 31.9227 57.4232 30.2386 54.3076 27.123L50.6868 23.5022L31.909 107.118C31.0669 110.739 31.7406 114.276 33.3405 117.223L10.6892 111.834C6.64737 110.907 2.77393 114.023 2.77393 118.149C2.77393 121.77 5.72111 124.633 9.25774 124.633H85.8846C94.9788 124.549 101.799 116.044 99.7785 107.118Z" fill="white"/>
<path d="M57.4233 46.2375C56.7533 46.2375 56.1107 46.5037 55.637 46.9774C55.1632 47.4512 54.8971 48.0937 54.8971 48.7637C54.8971 49.4337 55.1632 50.0762 55.637 50.55C56.1107 51.0237 56.7533 51.2899 57.4233 51.2899C58.0932 51.2899 58.7358 51.0237 59.2095 50.55C59.6833 50.0762 59.9494 49.4337 59.9494 48.7637C59.9494 48.0937 59.6833 47.4512 59.2095 46.9774C58.7358 46.5037 58.0932 46.2375 57.4233 46.2375ZM74.2643 46.2375C73.5944 46.2375 72.9518 46.5037 72.4781 46.9774C72.0043 47.4512 71.7382 48.0937 71.7382 48.7637C71.7382 49.4337 72.0043 50.0762 72.4781 50.55C72.9518 51.0237 73.5944 51.2899 74.2643 51.2899C74.9343 51.2899 75.5769 51.0237 76.0506 50.55C76.5243 50.0762 76.7905 49.4337 76.7905 48.7637C76.7905 48.0937 76.5243 47.4512 76.0506 46.9774C75.5769 46.5037 74.9343 46.2375 74.2643 46.2375Z" fill="#2C2524"/>
<path d="M102.305 106.529L83.4427 22.9127C83.2743 21.9865 82.6007 21.3128 81.6744 21.0602C80.8324 20.8076 79.8219 21.0602 79.1483 21.7338L75.5274 25.3547C73.0013 27.965 69.5488 29.3965 65.8438 29.3965C62.1388 29.3965 58.6863 27.965 56.076 25.3547L52.4551 21.7338C51.7815 21.0602 50.8552 20.8076 49.929 21.0602C49.0027 21.3128 48.3291 22.0707 48.1607 22.9127L29.3829 106.529C28.2882 111.497 29.4671 116.718 32.6669 120.675C33.0037 121.096 33.4247 121.517 33.8458 121.938H9.17357C6.98423 121.938 5.21592 120.17 5.21592 117.981C5.21592 116.802 5.72115 115.623 6.73162 114.865C7.65788 114.107 8.92096 113.855 10.0998 114.107L20.1203 116.465C21.4676 116.802 22.8148 115.96 23.1517 114.612C23.4885 113.265 22.6464 111.918 21.2991 111.581L11.2787 109.223C8.58414 108.634 5.80536 109.223 3.61602 110.992C1.42668 112.676 0.247803 115.286 0.247803 118.065C0.247803 123.033 4.28966 127.075 9.25778 127.075H45.8871H45.9713H47.3186C48.7501 127.075 49.8448 125.98 49.8448 124.549C49.8448 123.117 48.7501 122.022 47.3186 122.022H45.8871C42.2663 122.022 38.8981 120.423 36.6245 117.56C34.351 114.781 33.5931 111.16 34.351 107.623L52.1183 28.4703L52.4551 28.8071C56.076 32.5121 60.7915 34.4489 65.8438 34.4489C70.8961 34.4489 75.6116 32.5121 79.1483 28.8913L79.5693 28.5545L97.4208 107.708C98.1787 111.16 97.4208 114.781 95.1473 117.644C92.8737 120.507 89.5055 122.107 85.8847 122.107H85.211C83.7795 122.107 82.6849 123.201 82.6849 124.633C82.6849 126.064 83.7795 127.159 85.211 127.159H85.8847C91.0212 127.159 95.8209 124.885 99.1049 120.844C102.305 116.718 103.484 111.581 102.305 106.529Z" fill="#2C2524"/>
<path d="M84.0321 80.004C82.6848 79.7513 81.3376 80.5934 81.0849 82.0249L73.5065 120.002C73.2538 121.265 72.2434 122.107 70.9803 122.107C69.5488 122.107 68.4541 121.012 68.4541 119.58V90.8664C68.4541 89.435 67.3595 88.3403 65.928 88.3403C64.4965 88.3403 63.4018 89.435 63.4018 90.8664V119.496C63.4018 120.844 62.2229 122.022 60.7915 122.022H59.9494C58.6863 122.022 57.6759 121.18 57.4232 119.917L49.7605 81.9407C49.5079 80.5934 48.1606 79.6671 46.8134 80.004C45.4661 80.2566 44.5398 81.6039 44.8766 82.9511L52.5393 120.844C53.1288 124.464 56.3286 127.075 60.0336 127.075H60.8757C62.8124 127.075 64.6649 126.317 66.0122 125.138C67.3595 126.317 69.1278 127.075 71.0645 127.075C74.6853 127.075 77.7167 124.549 78.4746 120.928L86.0531 82.9511C86.3057 81.6039 85.3794 80.2566 84.0321 80.004Z" fill="#2C2524"/>
<ellipse cx="56.5794" cy="53.3619" rx="5.07942" ry="2.07196" fill="#F9BAB0"/>
<ellipse cx="75.608" cy="53.3619" rx="5.07942" ry="2.07196" fill="#F9BAB0"/>
<line x1="84.905" y1="54.6335" x2="98.247" y2="50.3236" stroke="#2C2524" stroke-width="3" stroke-linecap="round"/>
<line x1="1.5" y1="-1.5" x2="15.5208" y2="-1.5" transform="matrix(-0.951584 -0.30739 -0.30739 0.951584 49.0765 56.0183)" stroke="#2C2524" stroke-width="3" stroke-linecap="round"/>
<line x1="84.6866" y1="59.6291" x2="98.8006" y2="61.1127" stroke="#2C2524" stroke-width="3" stroke-linecap="round"/>
<line x1="1.5" y1="-1.5" x2="15.6918" y2="-1.5" transform="matrix(-0.994521 0.104537 0.104537 0.994521 49.9773 60.4604)" stroke="#2C2524" stroke-width="3" stroke-linecap="round"/>
</g>
<defs>
<clipPath id="clip0">
<rect width="122" height="127" fill="white"/>
</clipPath>
</defs>
</svg>
