<svg width="129" height="119" viewBox="0 0 129 119" fill="none" xmlns="http://www.w3.org/2000/svg">
<circle opacity="0.15" cx="53.91" cy="56.91" r="53.91" fill="#F9BAB0"/>
<path d="M62.0635 41.6819C69.663 41.6819 76.5237 44.9539 80.9568 50.1258C85.601 44.9539 92.4617 41.6819 99.8501 41.6819C113.783 41.6819 125.288 52.7646 125.288 66.5915C125.288 74.4022 121.593 81.2618 115.999 85.8015L80.9568 112.928L46.5477 86.3293C40.4259 81.6851 36.6261 74.6133 36.6261 66.5915C36.6261 52.9757 47.9199 41.6819 62.0635 41.6819Z" fill="white"/>
<path d="M62.0637 49.5979C52.4587 49.5979 44.7536 57.1975 44.7536 66.5913C44.7536 68.3857 46.1257 69.7578 47.9201 69.7578C49.6089 69.7578 51.0866 68.3857 51.0866 66.5913C51.0866 60.6806 56.0474 55.9309 62.0637 55.9309C63.858 55.9309 65.2302 54.5587 65.2302 52.7644C65.2302 50.97 63.858 49.5979 62.0637 49.5979Z" fill="#F97561"/>
<path d="M80.9568 116.094C80.3235 116.094 79.5846 115.883 79.0569 115.461L44.6478 88.7568C37.576 83.4794 33.4596 75.3521 33.4596 66.5915C33.4596 51.0757 46.2311 38.5154 62.0635 38.5154C69.2408 38.5154 75.996 41.0486 81.0623 45.6927C86.2342 41.1541 92.9894 38.5154 99.9557 38.5154C115.682 38.5154 128.56 51.0757 128.56 66.5915C128.56 74.9299 124.76 82.8461 118.11 88.2291L82.8567 115.461C82.3289 115.883 81.5901 116.094 80.9568 116.094ZM62.0635 44.8483C49.8197 44.8483 39.7926 54.6644 39.7926 66.5915C39.7926 73.3467 42.959 79.6796 48.4476 83.6905L80.9568 108.917L114.099 83.2683C119.166 79.1519 122.121 73.03 122.121 66.5915C122.121 54.6644 112.094 44.8483 99.8501 44.8483C93.5171 44.8483 87.5008 47.5926 83.2789 52.2368C82.6456 52.8701 81.8012 53.2923 80.8512 53.2923C79.9013 53.2923 79.0569 52.8701 78.5291 52.2368C74.5183 47.5926 68.502 44.8483 62.0635 44.8483Z" fill="#2C2524"/>
</svg>
