<svg width="122" height="127" viewBox="0 0 122 127" fill="none" xmlns="http://www.w3.org/2000/svg">
<path opacity="0.3" fill-rule="evenodd" clip-rule="evenodd" d="M59.3329 1.00193C85.3807 0.807506 110.175 15.3024 118.576 40.6752C127.337 67.1327 118.584 96.8549 96.4207 113.013C74.9999 128.631 46.4031 124.755 25.3097 108.673C4.86291 93.0835 -5.19238 66.4433 2.67679 41.5403C10.5407 16.6539 33.9032 1.19174 59.3329 1.00193Z" fill="#FFCA0F"/>
<path d="M80.6414 61.0067L58.1143 38.4796L60.351 36.2428C63.4664 33.1274 68.4991 33.1274 71.6146 36.2428L82.8781 47.5064C85.9936 50.6219 85.9936 55.6545 82.8781 58.77L80.6414 61.0067Z" fill="#F9BAB0"/>
<path d="M106.603 89.2056V116.366C106.603 120.76 103.009 124.354 98.6152 124.354H37.025C30.7941 124.354 25.0425 120.68 22.4863 115.008L10.7434 89.2056H106.603Z" fill="white"/>
<path d="M48.9278 78.1164C47.5697 78.1164 46.5312 77.0779 46.5312 75.7199V74.1222C46.5312 73.0837 46.5313 72.0452 46.6111 71.0068C46.691 69.6487 47.8094 68.6901 49.1674 68.77C50.5254 68.8499 51.484 69.9683 51.4041 71.3263C51.3243 72.2849 51.3243 73.2435 51.3243 74.1222V75.7199C51.3243 77.0779 50.2858 78.1164 48.9278 78.1164Z" fill="#2C2524"/>
<path d="M95.34 26.0977C91.6653 26.0977 88.2303 27.5356 85.6741 30.0918L77.2863 38.4796L73.372 34.5653C69.298 30.4114 62.6677 30.4114 58.6735 34.4854L56.4367 36.7221C55.4781 37.6807 55.4781 39.1985 56.4367 40.0773L59.3126 42.9531C54.6793 48.0656 51.0846 54.2166 49.0076 60.8469C48.6082 62.1251 49.3271 63.4831 50.5254 63.8825C50.765 63.9624 51.0047 63.9624 51.2443 63.9624C52.2828 63.9624 53.1615 63.3233 53.5609 62.2848C55.4781 56.3735 58.5936 50.8615 62.7475 46.3082L66.1825 49.7431C59.7919 57.0125 56.1971 66.5187 56.277 76.2644C56.277 77.5426 57.3954 78.6609 58.6735 78.6609C60.0315 78.6609 61.07 77.5426 61.07 76.2644C60.9901 67.7968 64.0257 59.5688 69.6175 53.1781L73.0525 56.6131C68.4193 62.0452 65.863 69.0749 65.9429 76.1846V77.7822C65.9429 79.1402 66.9814 80.1787 68.3394 80.1787C69.6974 80.1787 70.7359 79.1402 70.7359 77.7822V76.1846C70.656 70.2732 72.733 64.5216 76.4875 59.9682L79.2035 62.6843C79.6828 63.1636 80.3219 63.4032 80.8811 63.4032C81.4403 63.4032 82.0793 63.1636 82.5586 62.6843L84.7954 60.4475C88.8694 56.3735 88.8694 49.823 84.7954 45.749L80.8811 41.8347L89.0292 33.5268C90.7067 31.8493 92.9435 30.8907 95.34 30.8907C100.213 30.8907 104.207 34.8848 104.207 39.7577V116.366C104.207 119.481 101.731 121.958 98.6152 121.958H37.0251C31.7528 121.958 26.8799 118.842 24.6432 113.969L14.498 91.602H91.4257C92.7837 91.602 93.8222 90.5636 93.8222 89.2055C93.8222 87.8475 92.7837 86.809 91.4257 86.809H10.7434C9.9446 86.809 9.14577 87.2085 8.74635 87.9274C8.26705 88.6464 8.26705 89.4452 8.58659 90.244L20.3294 116.046C23.2851 122.597 29.8356 126.831 37.0251 126.831H98.6152C104.367 126.831 109 122.197 109 116.446V39.7577C109 32.2487 102.849 26.0977 95.34 26.0977ZM81.2006 57.0924L80.6414 57.6516L61.4694 38.4796L62.0286 37.9204C64.1854 35.7635 67.7802 35.7635 69.937 37.9204L81.2006 49.184C83.4373 51.3408 83.4373 54.9356 81.2006 57.0924Z" fill="#2C2524"/>
</svg>
