<svg width="129" height="119" viewBox="0 0 129 119" fill="none" xmlns="http://www.w3.org/2000/svg">
<circle opacity="0.15" cx="59.5653" cy="50.5653" r="50.5653" fill="#F9BAB0"/>
<path d="M82.1039 29.3455C76.4877 29.3455 70.9265 30.4517 65.7378 32.6009C60.5491 34.7501 55.8346 37.9003 51.8633 41.8715C47.8921 45.8428 44.7419 50.5573 42.5927 55.746C40.4435 60.9347 39.3373 66.4959 39.3373 72.1121C39.3373 77.7283 40.4435 83.2895 42.5927 88.4782C44.7419 93.6669 47.8921 98.3814 51.8633 102.353C55.8346 106.324 60.5491 109.474 65.7378 111.623C70.9265 113.773 76.4877 114.879 82.1039 114.879C87.7201 114.879 93.2813 113.773 98.47 111.623C103.659 109.474 108.373 106.324 112.345 102.353C116.316 98.3814 119.466 93.6669 121.615 88.4782C123.764 83.2895 124.871 77.7283 124.871 72.1121C124.871 66.4959 123.764 60.9347 121.615 55.746C119.466 50.5573 116.316 45.8428 112.345 41.8715C108.373 37.9003 103.659 34.7501 98.47 32.6009C93.2813 30.4517 87.7201 29.3455 82.1039 29.3455V29.3455Z" fill="white"/>
<path d="M82.1039 29.3455C76.4877 29.3455 70.9265 30.4517 65.7378 32.6009C60.5491 34.7501 55.8346 37.9003 51.8633 41.8715C47.8921 45.8428 44.7419 50.5573 42.5927 55.746C40.4435 60.9347 39.3373 66.4959 39.3373 72.1121C39.3373 77.7283 40.4435 83.2895 42.5927 88.4782C44.7419 93.6669 47.8921 98.3814 51.8633 102.353C55.8346 106.324 60.5491 109.474 65.7378 111.623C70.9265 113.773 76.4877 114.879 82.1039 114.879C87.7201 114.879 93.2813 113.773 98.47 111.623C103.659 109.474 108.373 106.324 112.345 102.353C116.316 98.3814 119.466 93.6669 121.615 88.4782C123.764 83.2895 124.871 77.7283 124.871 72.1121C124.871 66.4959 123.764 60.9347 121.615 55.746C119.466 50.5573 116.316 45.8428 112.345 41.8715C108.373 37.9003 103.659 34.7501 98.47 32.6009C93.2813 30.4517 87.7201 29.3455 82.1039 29.3455V29.3455Z" stroke="#2C2524" stroke-width="7"/>
<path d="M62.5024 76.5668L74.5751 87.2585L101.705 56.0745" stroke="#F97561" stroke-width="7" stroke-linecap="round"/>
</svg>
