<svg width="20" height="20" viewBox="0 0 20 20" fill="none" xmlns="http://www.w3.org/2000/svg">
<path d="M12.2501 5.49963H9.1991C8.73174 5.49996 8.27907 5.66289 7.91871 5.96048C7.55835 6.25807 7.31277 6.67178 7.22408 7.13064C7.13539 7.5895 7.20913 8.06492 7.43265 8.47536C7.65616 8.8858 8.01552 9.20568 8.4491 9.38013L11.5436 10.6176C11.9781 10.7915 12.3385 11.1113 12.5628 11.5221C12.787 11.9329 12.8612 12.409 12.7724 12.8685C12.6836 13.328 12.4375 13.7422 12.0763 14.0399C11.7152 14.3376 11.2616 14.5002 10.7936 14.4996H7.7501" stroke="#2C2524" stroke-width="2" stroke-miterlimit="10" stroke-linecap="round"/>
<path d="M10 5.49963V4.37463" stroke="#2C2524" stroke-width="2" stroke-miterlimit="10" stroke-linecap="round"/>
<path d="M10 15.6246V14.4996" stroke="#2C2524" stroke-width="2" stroke-miterlimit="10" stroke-linecap="round"/>
<path d="M10 18.9996C14.9706 18.9996 19 14.9702 19 9.99963C19 5.02907 14.9706 0.999634 10 0.999634C5.02944 0.999634 1 5.02907 1 9.99963C1 14.9702 5.02944 18.9996 10 18.9996Z" stroke="#2C2524" stroke-width="2" stroke-miterlimit="10"/>
</svg>
