<svg width="134" height="36" viewBox="0 0 134 36" fill="none" xmlns="http://www.w3.org/2000/svg">
<path fill-rule="evenodd" clip-rule="evenodd" d="M47.7303 11.0716C48.5726 10.5902 49.6502 10.8749 50.1371 11.7076C52.2034 15.2407 51.2045 18.7868 49.2126 21.3122C47.2758 23.768 44.1994 25.5576 41.3742 25.7939C35.7076 26.2679 31.7381 24.5844 29.1369 22.0986C28.2653 21.2657 27.563 20.3579 27.0068 19.4375C26.4506 20.3579 25.7483 21.2657 24.8767 22.0986C22.2755 24.5844 18.306 26.2679 12.6394 25.7939C9.81417 25.5576 6.73781 23.768 4.801 21.3122C2.80915 18.7868 1.81016 15.2407 3.87648 11.7076C4.36344 10.8749 5.441 10.5902 6.28328 11.0716C7.12556 11.553 7.41361 12.6182 6.92665 13.4508C5.7732 15.4231 6.20463 17.4275 7.57953 19.1707C9.00946 20.9838 11.2362 22.1812 12.9365 22.3234C17.6837 22.7205 20.6234 21.319 22.428 19.5945C24.2927 17.8126 25.0931 15.5425 25.2556 14.07H28.7581C28.9206 15.5425 29.721 17.8126 31.5856 19.5945C33.3903 21.319 36.3299 22.7205 41.0771 22.3234C42.7774 22.1812 45.0041 20.9838 46.4341 19.1707C47.809 17.4275 48.2404 15.4231 47.087 13.4508C46.6 12.6182 46.888 11.553 47.7303 11.0716Z" fill="#2C2524"/>
<path d="M22.4837 4.98275C17.676 8.74079 23.462 13.917 26.956 16.0354C30.4501 13.917 36.2361 8.74079 31.4284 4.98275C30.5657 4.42202 28.5255 4.14643 27.0853 7.35067C27.0361 7.4601 26.876 7.4601 26.8268 7.35067C25.3866 4.14643 23.3464 4.42202 22.4837 4.98275Z" fill="#2C2524"/>
<path d="M34.7804 24.1307C27.7701 37.309 21.708 29.6217 19.5532 24.1307C21.7633 24.1307 25.6868 19.5484 27.3723 17.2572C28.2958 19.7677 32.6958 22.8856 34.7804 24.1307Z" fill="#F97561"/>
<path fill-rule="evenodd" clip-rule="evenodd" d="M27.7904 14.325L28.6942 16.7821C28.8432 17.1871 29.1717 17.7061 29.6954 18.3117C30.2083 18.9048 30.8527 19.5175 31.5556 20.1122C32.9632 21.3033 34.5195 22.3504 35.5078 22.9407L36.6422 23.6183L36.0253 24.7779C34.2229 28.1662 32.3946 30.3882 30.5271 31.6193C28.5895 32.8966 26.6405 33.0794 24.8635 32.4377C23.1743 31.8278 21.7942 30.5303 20.7324 29.1371C19.6574 27.7267 18.8166 26.0979 18.242 24.6336L17.499 22.7404H19.5533C19.6742 22.7404 20.0417 22.6502 20.6892 22.2227C21.2911 21.8254 21.9703 21.2477 22.6716 20.5636C24.0708 19.1985 25.4238 17.542 26.2349 16.4395L27.7904 14.325ZM21.4697 24.9953C21.8932 25.8525 22.4019 26.7064 22.9791 27.4638C23.879 28.6445 24.8567 29.4748 25.8286 29.8257C26.7128 30.145 27.7284 30.1219 28.9664 29.3057C30.1135 28.5496 31.4529 27.104 32.9134 24.6013C31.9473 23.9621 30.8025 23.1353 29.7264 22.2248C28.9533 21.5707 28.1943 20.8554 27.5573 20.1188C27.4441 19.9879 27.3328 19.8542 27.2246 19.7179C26.4682 20.6344 25.5732 21.6397 24.6475 22.5428C23.881 23.2906 23.0595 24.0018 22.2515 24.5352C22.0084 24.6957 21.7461 24.8541 21.4697 24.9953Z" fill="#2C2524"/>
<path d="M80.5095 7.599L73.128 27.7251H68.2262L60.8447 7.599H65.1698L70.7059 23.6018L76.2132 7.599H80.5095Z" fill="#2C2524"/>
<path d="M97.3287 19.3921C97.3287 19.9688 97.2902 20.4878 97.2133 20.9491H85.5356C85.6317 22.1025 86.0354 23.0059 86.7466 23.6595C87.4578 24.3131 88.3325 24.6399 89.3705 24.6399C90.8699 24.6399 91.9367 23.9959 92.5711 22.708H96.925C96.4636 24.2458 95.5794 25.5145 94.2723 26.5141C92.9651 27.4944 91.36 27.9846 89.457 27.9846C87.9192 27.9846 86.5352 27.6482 85.3049 26.9754C84.0939 26.2834 83.1424 25.3126 82.4503 24.0632C81.7776 22.8137 81.4412 21.372 81.4412 19.7381C81.4412 18.0849 81.7776 16.6336 82.4503 15.3842C83.1231 14.1347 84.065 13.1736 85.2761 12.5008C86.4871 11.828 87.8807 11.4916 89.457 11.4916C90.9756 11.4916 92.3308 11.8184 93.5226 12.4719C94.7336 13.1255 95.6659 14.0578 96.3195 15.2688C96.9923 16.4606 97.3287 17.835 97.3287 19.3921ZM93.1477 18.2387C93.1285 17.2007 92.7537 16.3741 92.0232 15.759C91.2928 15.1247 90.3989 14.8075 89.3417 14.8075C88.3421 14.8075 87.4963 15.115 86.8043 15.7302C86.1315 16.3261 85.7182 17.1623 85.5644 18.2387H93.1477Z" fill="#2C2524"/>
<path d="M104.525 15.067V22.7945C104.525 23.3327 104.649 23.7268 104.899 23.9767C105.168 24.2073 105.611 24.3227 106.226 24.3227H108.1V27.7251H105.563C102.16 27.7251 100.459 26.0719 100.459 22.7656V15.067H98.5559V11.7511H100.459V7.80084H104.525V11.7511H108.1V15.067H104.525Z" fill="#2C2524"/>
<path d="M129.025 27.7251L124.672 20.9491L120.721 27.7251H116.166L122.509 17.5755L116.079 7.599H120.721L125.075 14.3461L128.997 7.599H133.552L127.238 17.7197L133.668 27.7251H129.025Z" fill="#2C2524"/>
</svg>
