<svg width="80" height="78" viewBox="0 0 80 78" fill="none" xmlns="http://www.w3.org/2000/svg">
<path fill-rule="evenodd" clip-rule="evenodd" d="M38.8329 0.00122824C55.8811 -0.122429 72.1089 9.09658 77.6073 25.2342C83.3409 42.0616 77.6125 60.9655 63.1067 71.2427C49.0869 81.1756 30.3705 78.7105 16.565 68.4819C3.18274 58.5669 -3.39838 41.6232 1.75194 25.7844C6.89881 9.95619 22.1894 0.121951 38.8329 0.00122824Z" fill="#F2F0EF"/>
<path d="M39.9018 41.5415C43.3416 41.5415 46.1301 38.753 46.1301 35.3132C46.1301 31.8734 43.3416 29.085 39.9018 29.085C36.4621 29.085 33.6736 31.8734 33.6736 35.3132C33.6736 38.753 36.4621 41.5415 39.9018 41.5415Z" stroke="#493D3C" stroke-width="3.8" stroke-linecap="round"/>
<path d="M57.202 35.3135C57.202 25.758 49.4568 18.0128 39.9013 18.0128C30.3458 18.0128 22.6006 25.758 22.6006 35.3135C22.6006 39.6013 24.1687 43.5168 26.7514 46.5395C26.7514 46.5395 34.963 56.0978 37.5954 58.6099C38.8895 59.8445 40.9116 59.8445 42.2057 58.6099C45.2742 55.684 53.0498 46.5395 53.0498 46.5395C55.6338 43.5168 57.202 39.6013 57.202 35.3135Z" stroke="#493D3C" stroke-width="3.8" stroke-linecap="round"/>
</svg>
