<svg width="222" height="222" viewBox="0 0 222 222" fill="none" xmlns="http://www.w3.org/2000/svg">
<path d="M165.098 52.006C159.647 44.9714 153.754 38.2932 147.58 31.8591C147.647 31.7955 147.714 31.7317 147.783 31.6713C149.055 32.9927 150.311 34.3213 151.593 35.635C155.554 39.6814 159.167 44.0299 162.794 48.3679C165.48 51.5803 167.694 55.098 169.544 58.8562C171.737 63.3231 174.549 67.4273 177.199 71.6287C182.283 79.7004 186.96 87.9988 190.666 96.8064C190.96 97.5006 191.385 98.2306 191.483 98.8991C191.726 100.557 192.488 102.09 192.491 103.815C192.495 104.735 193.06 105.609 192.979 106.622C192.765 109.378 193.447 112.047 193.858 114.75C194.492 118.918 195.132 123.161 194.174 127.311C192.455 134.764 190.081 142.032 185.792 148.456C181.355 155.105 175.525 160.118 167.999 163.153C164.761 164.463 161.63 165.981 158.108 166.374C156.28 166.576 154.451 166.55 152.618 166.511C150.426 166.463 148.24 166.725 146.031 166.333C142.974 165.787 139.941 165.223 136.942 164.386C133.793 163.508 130.917 164.594 128.114 166.049C124.647 167.849 121.389 170.028 117.751 171.511C107.577 175.66 97.3087 176.05 86.7753 172.86C81.4568 171.25 76.3558 169.12 71.1685 167.198C66.3011 165.391 61.5644 163.196 56.6955 161.427C45.6815 157.429 38.9623 149.07 33.5186 139.348C31.1027 135.031 29.5778 130.338 28.1926 125.593C26.6795 120.41 24.9533 115.295 24.4258 109.87C23.4796 100.111 24.8093 90.808 29.5924 82.1149C31.8926 77.9287 34.2012 73.7465 37.3328 70.1114C40.4127 66.5386 43.9261 63.4857 48.0955 61.1657C53.1261 58.3653 58.4975 56.2703 63.5443 53.5104C64.5187 52.9776 65.4172 52.3557 66.2729 51.6665C68.5375 49.8493 71.0572 48.3469 73.1439 46.3189C75.667 43.8594 78.0544 41.2624 80.5827 38.8095C84.4534 35.0574 88.7356 31.8376 93.3137 28.9642C97.6223 26.2618 102.119 23.9648 106.801 22.0222C109.593 20.8636 112.507 19.9866 115.489 19.5368C116.893 19.3242 118.397 18.5314 119.87 19.4269C125.129 18.7434 129.647 21.1593 134.319 22.903C136.369 23.666 138.212 24.8541 140.159 25.8163C141.746 26.6002 142.746 27.9348 144.009 28.9965C147.463 31.8932 150.454 35.2746 153.517 38.5721C157.529 42.898 161.316 47.439 165.098 52.006ZM162.718 126.339C157.715 124.67 152.813 122.677 147.246 121.775C152.183 124.269 160.778 126.832 162.718 126.339ZM137.261 124.292C137.215 124.483 137.169 124.674 137.129 124.866C141.335 125.967 145.541 127.068 149.889 127.549C145.811 125.91 141.499 125.24 137.261 124.292ZM107.101 153.664C102.62 153.561 98.2043 152.551 93.7187 152.691C98.1309 153.857 102.6 154.094 107.101 153.664ZM150.777 153.35C149.433 152.342 143.267 152.332 141.528 153.327C144.75 153.725 147.766 153.312 150.777 153.35ZM99.4046 109.642C101.513 111.212 108.152 113.566 110.175 113.461C106.544 112.17 103.09 110.948 99.4046 109.642ZM28.3528 103.029C28.9221 100.055 29.3374 97.0759 29.1827 94.0368C28.3493 96.9797 28.204 99.9901 28.3528 103.029ZM85.1374 157.63C88.2241 158.402 91.2752 159.433 94.5447 158.802C91.4026 158.457 88.2754 158.01 85.1374 157.63ZM147.245 129.352C144.062 128.545 140.905 127.603 137.615 127.334C140.773 128.257 143.949 129.109 147.245 129.352ZM54.8913 159.024C53.2206 158.195 51.6124 157.29 50.0933 156.255C48.5964 155.235 47.1684 154.106 45.7115 153.022C48.3147 155.949 52.4586 158.639 54.8913 159.024ZM69.4866 146.682C71.9604 148.282 77.7701 150.222 79.1964 149.923C77.4815 149.347 75.9169 148.759 74.3197 148.298C72.6795 147.824 71.0953 147.198 69.4866 146.682ZM155.386 118.701C155.421 118.603 155.456 118.506 155.49 118.415C153.652 117.18 151.51 116.778 149.423 116.231C149.389 116.322 149.357 116.417 149.323 116.508C151.341 117.237 153.365 117.968 155.386 118.701ZM85.0245 100.465C87.5149 101.38 90.002 102.297 92.4925 103.212C92.5268 103.121 92.5578 103.032 92.5922 102.941C90.181 101.804 87.6701 100.937 85.0245 100.465ZM93.0424 98.4999C92.0925 97.5576 87.4681 95.989 86.0901 95.9994C88.5252 96.8782 90.7837 97.689 93.0424 98.4999ZM138.387 129.867C138.359 129.98 138.328 130.095 138.302 130.211C140.346 130.718 142.4 131.196 144.542 131.208C142.492 130.76 140.441 130.312 138.387 129.867ZM134.211 149.324C136.171 149.214 138.134 149.108 140.092 149.001C138.114 148.585 136.168 148.753 134.211 149.324ZM161.456 158.318C159.514 158.808 157.569 159.294 155.631 159.781C157.672 159.692 159.631 159.291 161.456 158.318ZM61.9254 113.158C61.8696 113.255 61.813 113.359 61.7571 113.456C63.1879 114.252 64.616 115.044 66.05 115.837C66.0986 115.751 66.144 115.667 66.1926 115.58C64.6942 114.908 63.5284 113.646 61.9254 113.158ZM94.3239 92.525C93.1526 91.6463 91.8557 91.1338 90.4499 90.921C91.5621 91.8999 92.9782 92.1525 94.3239 92.525ZM150.334 163.315C151.454 163.765 152.566 163.763 153.685 163.58C153.86 163.552 154.094 163.591 154.098 163.321C154.108 163.058 153.885 163.032 153.699 163.046C152.583 163.131 151.459 163.228 150.334 163.315ZM93.8098 164.37C92.4125 164.161 91.033 163.901 89.6293 164.108C90.9956 164.714 92.4075 164.565 93.8098 164.37ZM153.9 157.074C155.465 157.273 157.467 156.859 158.233 156.272C156.686 156.56 155.292 156.819 153.9 157.074ZM134.672 30.1728C135.836 31.0625 137.001 31.9522 138.167 32.8451C137.196 31.6744 136.081 30.6923 134.672 30.1728ZM152.654 124.615C151.39 124.029 150.122 123.52 148.752 123.338C149.999 123.943 151.305 124.379 152.654 124.615ZM39.3424 73.0017C39.8843 72.4547 40.8972 72.3872 41.0324 71.2936C40.0741 71.5577 39.7082 72.2797 39.3424 73.0017ZM88.3006 114.95C87.33 114.291 86.2426 113.922 85.1137 113.655C86.0936 114.285 87.1671 114.698 88.3006 114.95ZM163.5 51.4974C163.517 51.4844 163.53 51.474 163.546 51.4611C162.832 50.5609 162.118 49.6608 161.402 48.7573C161.386 48.7703 161.372 48.7807 161.356 48.7937C162.073 49.6971 162.786 50.5972 163.5 51.4974Z" fill="#F97561"/>
</svg>
