<svg width="117" height="113" viewBox="0 0 117 113" fill="none" xmlns="http://www.w3.org/2000/svg">
<path d="M55.9471 33.1631C56.2158 33.1631 56.5312 33.1631 56.8409 33.1631C56.9986 33.4961 57.0571 33.8759 57.4135 34.0687C59.1545 34.1154 58.6053 33.9868 60.6034 35.9908C61.9529 35.9908 63.3259 35.9908 64.6462 35.9908C65.248 36.2653 65.4232 37.1125 66.2178 36.9723C66.7845 37.7493 68.1691 37.7493 68.1808 39.0813C68.1808 39.2683 68.5314 39.4552 68.7183 39.6422C68.4087 40.501 67.69 41.021 67.0883 41.6695C66.8896 41.9908 66.2412 41.4299 66.2236 42.0259C66.2061 42.6042 65.6336 42.2888 65.4349 42.6276C65.2947 42.8671 64.8331 42.9139 64.5118 43.0483C64.3833 42.9373 64.2664 42.8379 64.1554 42.7386C64.0035 43.3287 63.4369 43.4222 63.0104 43.6617C62.7007 43.7084 62.6598 43.2294 62.1807 43.428C61.9879 43.6675 61.6959 44.0356 61.4037 44.392C61.0883 44.1349 60.8955 43.837 60.6326 43.9947C59.949 44.4095 59.2947 44.8827 58.6345 45.3384C57.986 45.7883 57.022 46.0629 56.2333 45.9577C55.614 45.8759 55.1642 46.6179 54.4514 46.0337C54.4514 46.6354 54.4514 46.9918 54.4514 47.2956C54.1009 47.6637 53.5167 47.2722 53.2538 47.9616C53.1136 46.9918 51.8867 47.5059 51.7698 46.5887C51.2674 46.8282 50.7474 47.1671 50.3501 46.4134C50.2566 46.2498 50.4845 46.2265 50.5371 46.0921C50.5254 45.7824 50.2567 45.9402 50.0931 45.8818C49.7659 45.5546 49.9119 44.912 50.5897 43.6559C49.094 42.7094 48.4864 41.0502 47.5166 39.7415C47.5809 38.6957 48.2118 38.0414 49.1349 37.6383C49.4037 37.5214 49.7192 37.5273 50.0054 37.4513C50.7708 37.2468 51.5303 36.9489 52.3657 36.9606C53.8497 36.9898 54.2703 36.6101 54.7377 35.1845C54.9655 34.4718 55.0298 33.6597 55.9471 33.1631Z" fill="#F2F0EF"/>
<path d="M98.356 92.556C97.4621 93.111 96.58 93.2746 96.0366 93.9873C95.8263 94.2619 95.54 94.3612 95.2596 94.4197C94.2255 94.6417 93.542 95.6173 92.4319 95.6933C92.2333 95.705 92.058 96.0438 91.8652 96.2308C90.7201 96.1256 89.6568 96.7975 88.5001 96.558C88.2021 96.4937 87.8691 96.6865 87.5945 96.4411C86.8525 95.7751 85.9353 95.5472 84.9888 95.4421C84.13 95.3428 83.6627 94.7235 83.1135 94.1918C83.0142 93.853 83.3121 93.2629 82.5117 93.3564C82.5117 92.8773 82.5117 92.4099 82.5117 91.89C83.3647 90.8091 84.5799 90.3593 86.0054 90.1548C87.3667 89.962 88.7104 89.553 90.0191 89.109C90.5974 88.9162 91.0648 88.5131 91.4154 87.8354C92.3268 86.0769 93.0045 84.2424 93.5945 82.367C94.0385 80.9532 94.0093 80.9473 95.2129 80.3047C96.0775 80.5209 95.7328 81.3037 95.8496 81.7886C96.1768 81.4615 96.4981 81.1401 96.7961 80.8422C97.2343 81.1694 97.4505 81.4381 97.4972 81.8412C97.9821 81.8587 98.4963 82.1333 98.8935 81.5024C99.1623 82.1041 98.7357 82.8403 99.6413 83.1616C99.8458 82.8811 100.115 82.5189 100.395 82.1392C100.792 82.5949 100.442 83.0681 100.71 83.4245C101.014 83.6173 101.189 83.4069 101.371 83.2083C101.447 83.255 101.546 83.2843 101.587 83.3544C102.627 85.1596 102.358 86.924 101.359 88.63C100.862 89.4829 100.196 90.2132 99.4485 90.8617C98.8993 91.3466 98.5371 91.9367 98.356 92.556Z" fill="#F2F0EF"/>
<path d="M78.5741 69.1048C78.1651 69.1457 77.7737 69.3268 77.5692 68.8302C77.0785 69.1925 76.7162 69.9111 76.0035 69.245C75.8223 69.0756 75.612 69.099 75.4659 69.2976C75.2322 69.619 74.8701 69.3794 74.5838 69.5313C74.1456 70.9159 73.0414 71.7748 71.9664 72.6453C71.832 72.7504 71.6276 72.9491 71.4698 72.9491C70.056 72.9607 68.6363 73.0834 67.2225 72.8906C66.8077 72.359 65.8905 73.0367 65.5925 72.2188C65.0083 72.2071 64.5059 72.0026 63.9917 71.728C63.4601 71.4417 62.9926 71.0445 62.4727 70.7874C61.6723 70.396 61.24 69.7533 60.8427 69.0523C60.5798 68.5849 60.3812 68.0766 60.1475 67.5741C60.4162 67.0542 60.6266 66.4875 61.129 66.0844C61.4153 65.8507 61.684 65.7221 62.0579 65.6228C63.016 65.3599 63.8515 64.8341 64.6577 64.209C66.5623 62.7309 68.3793 61.1476 70.2021 59.5702C70.5585 59.2606 70.9966 59.1729 71.3706 58.9509C71.6744 59.1729 72.0307 59.3307 71.9255 59.7922C72.4338 60.1077 72.9947 59.7455 73.4738 60.0201C73.5147 60.4758 72.983 60.0259 72.9713 60.4758C73.3686 60.7094 73.8827 60.4816 74.356 60.5868C74.5721 60.9256 75.0044 61.0717 75.1447 61.5274C75.2557 61.8954 75.7522 62.357 75.6529 62.5439C75.3842 63.0288 75.8574 63.3093 75.7814 63.7124C75.6997 64.1155 75.8574 64.6355 75.6529 64.9218C75.4192 65.2548 75.945 65.6404 75.4075 65.874C75.9918 66.2421 76.5117 66.8088 77.096 66.8789C77.7328 66.9607 77.7503 68.0182 78.5799 67.5099C78.5741 68.0649 78.5741 68.5323 78.5741 69.1048Z" fill="#F2F0EF"/>
<path d="M37.1057 82.2734C36.3403 82.6473 36.019 83.6171 35.0608 83.88C34.7395 82.8693 36.3812 82.694 35.8729 81.7417C35.4172 81.4846 34.9732 81.1341 34.4708 80.9705C34.0209 80.8245 33.8573 80.5966 33.6704 80.1877C33.4016 79.5918 33.0511 79.0017 32.4201 78.6102C32.4201 78.248 32.3792 77.88 32.426 77.5177C32.5311 76.7115 32.7298 75.9637 33.3666 75.3561C34.9498 73.8371 36.7083 72.6453 38.8291 72.0085C39.3374 71.8566 39.7931 71.5235 40.3014 71.2606C40.3773 70.5713 40.798 69.9111 40.7571 69.099C40.7396 68.7484 41.0141 68.1817 41.6217 68.0591C41.9314 67.9948 42.2118 67.7611 42.6207 67.5508C42.6207 68.2168 42.6207 68.8244 42.6207 69.6248C43.129 69.1224 43.4796 68.7777 43.8067 68.4563C45.7055 69.5839 47.0434 70.9977 47.4348 73.1711C47.2128 73.2529 47.0258 73.3171 46.7863 73.3989C46.7863 73.8429 46.7863 74.3045 46.7863 74.7251C45.9509 75.3561 45.8691 76.3376 45.5419 77.138C45.1329 78.137 44.6538 79.0309 43.9236 79.8138C43.2868 80.4856 42.5039 81.0348 42.1066 81.9228C42.0073 82.1507 41.7795 82.396 41.5516 82.4778C40.6811 82.7816 40.1144 83.4243 39.5769 84.2013C39.4776 83.9267 39.4133 83.7456 39.279 83.3834C39.0686 84.0669 38.9401 84.5752 38.2683 84.9082C37.4445 85.3172 37.1582 84.8381 36.7259 84.4467C36.5214 84.6687 36.3578 84.8849 36.0423 84.7154C36.0073 84.6278 35.9138 84.5168 35.943 84.4467C36.165 83.8741 36.4455 83.3425 36.9479 82.9511C37.1524 82.7933 37.3218 82.5947 37.1057 82.2734Z" fill="#F2F0EF"/>
<path d="M63.8401 14.6371C63.6415 14.5554 63.6181 14.3275 63.3552 14.4502C63.2617 15.2097 63.5246 16.0743 62.8411 16.8572C62.5723 16.9565 61.9648 16.8105 61.7953 17.348C61.661 17.7803 61.5207 18.1075 61.0942 18.1717C60.6035 18.1659 60.9774 17.5232 60.5275 17.5291C60.0894 17.5291 59.9725 17.9673 59.6746 18.16C59.5285 18.0666 59.4467 17.8913 59.5227 17.7686C59.7447 17.4181 59.9901 17.0909 59.7505 16.6527C59.4058 16.3548 59.2422 16.7929 58.9852 16.8397C58.8041 16.7287 58.8274 16.5242 58.8858 16.4132C59.5109 15.2214 59.7563 13.9069 60.2179 12.6683C59.289 12.0724 58.3192 11.681 57.4136 11.2311C56.3912 10.7228 55.6959 9.95747 54.8196 9.19797C54.434 9.19797 53.9725 9.19797 53.4467 9.19797C53.4408 8.39173 54.3639 8.18142 54.1711 7.28755C53.6979 6.96038 53.5752 8.15803 52.991 7.96524C52.8449 7.8776 52.7923 7.74324 52.8274 7.48618C53.6979 6.92532 54.8138 6.87273 55.7777 6.39951C56.806 5.89707 57.992 5.83866 59.1078 5.58744C60.2704 5.32453 61.398 5.56407 62.5782 5.36543C63.4136 4.72278 63.2734 3.60105 63.6298 2.6955C64.0096 1.74904 64.4244 0.855181 65.2131 0.16579C65.511 -0.091271 65.7856 0.0197255 66.1186 0.0489369C66.1712 0.528005 65.324 0.592276 65.6278 1.22324C66.0368 1.02461 66.4517 0.825962 66.8431 0.633166C67.1761 0.650693 67.1468 0.878542 67.1468 1.08886C68.6892 1.4394 68.9521 1.60883 69.5071 3.20962C69.6298 3.56016 69.7174 4.02753 69.7058 4.45986C69.6824 5.04409 69.6999 5.62833 69.6999 6.20087C69.8168 6.43456 70.0797 6.31771 70.29 6.46961C70.29 7.21743 70.29 7.99445 70.29 8.85911C69.0865 9.27391 68.8061 10.5592 68.1167 11.4998C67.8129 11.9146 67.5909 12.3879 66.7204 12.493C67.1352 12.0315 67.5091 11.7627 67.661 11.4064C67.807 11.0617 68.2101 10.7871 68.0933 10.3664C67.9998 10.197 67.9297 10.1853 67.8479 10.3022C67.3923 10.9506 67.0417 11.716 66.1887 11.9731C66.2237 12.5631 66.0193 12.4696 65.7272 12.1308C65.3942 12.3586 65.6045 12.6975 65.5577 12.9838C65.5227 13.1941 65.5461 13.3811 65.2365 13.3986C64.4828 13.4395 64.3192 14.1931 63.8401 14.6371Z" fill="#F2F0EF"/>
<path d="M34.3246 36.9665C34.3947 37.6209 34.2895 38.0415 33.7404 38.246C33.3139 38.2402 33.197 37.8078 32.899 37.6092C32.5251 38.0006 32.1513 38.0649 31.6956 37.691C31.3216 37.3872 30.9945 36.9607 30.9536 36.5751C30.8718 35.8039 30.3927 35.3716 29.8961 34.9393C28.9613 34.1155 28.3245 33.1165 27.863 31.9597C27.6351 31.393 27.6177 31.0016 27.9156 30.4173C28.4297 29.4183 29.16 28.8691 30.2174 28.6822C30.9068 28.5595 31.5553 28.1797 32.2681 28.3842C32.4258 28.1038 32.677 28.0103 32.7471 27.7065C33.1386 26.1232 33.7696 24.6335 34.5407 23.2021C35.0724 22.2206 35.5281 22.1622 36.5154 22.7055C37.1347 23.0444 37.7482 23.3248 38.2857 23.8272C39.0335 24.5225 39.3431 24.8905 39.7579 25.9071C40.1668 26.9061 40.4006 27.911 40.3947 28.9918C40.3889 29.4826 40.1786 30.0434 40.6927 30.4641C40.7687 30.5283 40.7511 30.7912 40.6927 30.9256C40.2896 31.8428 40.4765 32.8945 39.9215 33.7883C39.2964 34.7932 38.6946 35.8098 37.7482 36.5225C37.4327 36.7621 37.012 37.0191 36.5038 36.9724C35.8319 36.9256 35.1425 36.9665 34.3246 36.9665Z" fill="#F2F0EF"/>
<path d="M17.4463 54.8965C17.4463 55.2762 17.3353 55.6501 17.4639 55.7845C18.1124 56.4447 17.2711 56.9822 17.3821 57.5839C16.6342 58.2909 16.4122 59.3249 15.7987 60.1078C15.4541 60.546 15.0919 60.9783 14.3674 60.9082C13.9701 60.8673 13.5086 61.1185 13.1756 61.4691C12.8542 61.2295 12.5154 61.0192 12.0948 61.2821C12.0539 61.5392 12.4745 61.621 12.3051 62.0007C11.7325 62.1877 11.0899 62.3921 10.4473 62.6083C9.79877 62.8303 8.95163 62.877 8.54852 63.3269C8.08113 63.8469 7.49103 64.1916 6.9886 64.7524C6.59132 64.4837 6.1181 64.3668 5.60398 64.3026C5.84351 63.8878 6.41024 63.7768 6.21745 63.0991C5.94286 63.3211 5.69745 63.5197 5.45792 63.7125C5.28849 63.6132 5.26515 63.3795 5.33525 63.3035C5.604 63.0114 5.74422 62.7018 5.55726 62.1993C4.65171 62.176 3.73443 61.8196 2.81719 61.3814C2.5426 60.8965 3.11516 60.4992 3.121 60.0786C2.73541 59.7806 2.54849 59.9618 2.3557 60.1779C1.82405 59.9968 1.63704 59.5177 1.86489 59.1205C2.18038 58.5771 2.42577 57.9812 3.121 57.6599C5.11907 56.7251 7.0295 55.5976 9.03925 54.7387C9.92143 53.2373 9.75784 51.2801 11.2184 50.0474C11.5281 50.0474 11.8435 50.0474 12.1649 50.0474C12.3168 50.5089 12.6498 50.5907 13.1289 50.7251C13.9643 50.9704 14.8816 51.3677 15.197 52.3142C15.4132 52.9568 15.939 53.36 16.2078 53.9676C16.3889 54.394 16.7803 54.8264 17.4463 54.8965Z" fill="#F2F0EF"/>
<path d="M58.4064 105.789C58.1902 105.625 58.126 105.444 58.0675 105.456C57.5709 105.981 57.1503 106.414 56.6011 106.992C56.5544 107.278 57.2145 106.881 57.2379 107.261C56.2681 107.822 54.9653 108.032 54.8367 109.574C54.8776 109.615 55.0237 109.761 55.2749 110.013C55.5436 109.645 55.8182 109.277 56.0928 108.903C56.4258 109.259 56.3265 109.458 56.1103 109.668C55.5903 110.182 55.0354 110.55 54.2583 110.591C53.7209 110.62 53.2359 111.07 52.6283 110.848C52.5465 111.076 52.4823 111.263 52.418 111.45C52.2135 111.573 52.2018 111.315 51.974 111.251C51.9331 111.777 51.3664 111.795 51.0918 112.139C50.5777 111.929 50.1921 111.327 49.6546 111.415C49.3976 111.456 49.012 110.901 48.8425 111.578C48.5621 111.222 48.3109 110.895 48.0947 110.62C47.5455 110.62 47.1307 110.62 46.786 110.62C46.0032 110.252 45.7812 109.563 45.4774 108.938C45.5767 108.774 45.6702 108.616 45.7636 108.464C45.5591 108.26 45.3722 108.073 45.156 107.857C45.1794 107.407 45.4891 107.056 45.7228 106.688C45.9565 106.32 46.3304 106.373 46.6868 106.519C46.7043 106.794 46.2427 106.951 46.5407 107.337C47.2535 106.858 48.1239 106.735 48.8892 106.367C49.4267 104.942 49.3859 103.312 50.5485 102.096C50.8172 101.816 51.0217 101.214 50.9107 100.665C50.8523 100.367 51.1268 100.379 51.3664 100.379C51.7403 100.817 51.4015 101.372 51.5709 101.851C52.6167 101.401 52.9613 100.77 52.9263 99.6718C52.9146 99.3329 53.2242 98.9824 53.0723 98.5326C52.7978 98.48 52.8504 98.6961 52.7978 98.8597C52.751 98.9941 52.6167 99.1051 52.5232 99.2219C52.383 99.4089 52.2018 99.4732 51.9798 99.3855C52.0441 97.7847 52.5056 97.1129 53.937 96.5579C54.2875 96.8967 53.9136 97.3758 54.1765 97.7672C54.492 97.7205 54.603 97.3933 54.8834 97.2005C55.0645 97.5335 55.1463 97.9425 55.5261 98.1411C55.8357 98.258 55.976 97.9775 56.2272 97.7847C57.3314 98.2404 58.2077 98.8714 58.2486 100.274C58.2603 100.758 58.8212 101.278 58.5174 101.711C58.1377 102.248 58.7043 102.593 58.57 103.066C58.383 103.726 59.0315 104.287 58.8912 105C58.827 105.374 58.6167 105.543 58.4064 105.789Z" fill="#F2F0EF"/>
<path d="M92.853 28.3665C93.2269 28.3665 93.4957 28.3665 93.7703 28.3665C94.1267 28.6995 93.7761 29.1785 93.9981 29.5583C94.5473 29.8562 94.67 29.2603 94.9971 29.0558C95.0614 29.0909 95.149 29.1201 95.2075 29.1668C95.5697 29.4648 95.78 29.8796 96.1773 30.1892C97.4801 31.1941 97.7313 32.7365 96.966 34.3899C96.6155 35.1494 96.2824 35.9965 95.6982 36.5457C95.2191 37.0014 95.336 37.5914 94.9621 38.0238C94.5998 38.4444 94.1441 38.7424 93.8812 39.3208C93.5774 39.9926 92.6135 40.1504 92.1461 40.7872C91.299 40.5944 91.1646 41.313 90.8374 41.7979C90.6914 42.014 90.4694 42.1776 90.2357 42.4113C89.7858 42.3237 89.3535 42.0433 88.8276 42.0257C88.3778 42.0082 87.9513 41.4415 87.4664 41.9965C86.7829 41.3948 86.0409 42.1718 85.4158 41.9498C84.7264 41.7044 83.9318 41.7745 83.3184 41.2253C83.1022 41.0326 82.6231 41.1143 82.2609 41.1202C81.8052 41.126 81.6358 40.8339 81.5774 40.6995C81.3729 40.1211 82.1616 40.1036 81.7468 39.6421C81.5774 39.3441 81.186 39.6713 80.9289 39.4318C80.7887 39.1981 80.8705 38.941 80.8938 38.6898C81.4021 38.4678 81.8754 38.2399 82.4655 38.2166C83.3126 38.1873 84.0137 37.6206 84.7965 37.3227C86.4032 36.7151 87.8871 35.8972 89.1081 34.6411C89.5463 34.1912 89.8501 33.6888 90.113 33.1396C90.6622 31.9887 91.2289 30.8377 91.8014 29.6985C92.0526 29.2019 92.3389 28.717 92.853 28.3665Z" fill="#F2F0EF"/>
<path d="M0.386819 25.8251C0.608826 26.0354 0.836613 26.2457 1.05278 26.456C2.22124 26.4152 2.50168 25.3869 2.74121 24.6449C3.4306 22.4891 4.28943 20.3976 5.01972 18.2593C5.23004 17.6459 5.40534 17.5115 6.80165 16.8513C6.95939 17.5874 7.37419 17.8795 8.18627 17.9146C8.70039 17.938 9.33719 18.4287 9.64099 18.8903C9.88637 19.27 10.4648 19.6673 10.383 19.9653C10.2544 20.4326 10.9964 20.7364 10.4998 21.1863C10.4297 21.2506 10.8328 21.5076 10.7685 21.8173C10.6692 22.2905 11.4228 22.6936 11.0548 23.0909C10.5932 23.5816 11.306 23.8913 11.084 24.2885C11.0607 24.3294 11.0665 24.3996 11.084 24.4463C11.2768 25.0247 10.0383 25.0714 10.5874 25.8835C10.7802 26.1698 10.2544 26.6897 10.0208 27.0929C9.72864 27.5953 9.3664 28.0043 8.97496 28.4074C8.61858 28.7813 8.25638 29.1377 7.67799 29.2078C7.18724 28.5301 6.67309 29.6459 6.11807 29.348C5.9837 30.3821 4.70423 30.3003 4.35954 31.2234C4.2719 31.4746 4.66332 31.5622 4.70421 31.8309C4.59905 32.5262 4.01483 32.7131 3.54745 32.4853C2.79964 32.1289 2.04019 32.275 1.26316 32.1756C1.19306 31.4921 1.00023 30.867 0.497789 30.4113C0.211516 30.1542 0.106335 29.7628 0.258235 29.5758C0.976837 28.6995 0.281604 27.94 0.112177 27.163C-0.0397224 26.4502 -0.109776 26.4619 0.386819 25.8251Z" fill="#F2F0EF"/>
<path d="M99.9807 60.0726C100.355 59.6987 100.688 59.3657 101.026 59.0268C103.311 58.6588 105.589 58.3257 107.944 58.945C108.633 58.7873 108.954 58.1096 109.135 57.5487C109.375 56.8126 109.989 56.3394 110.211 55.6032C110.374 55.0599 111.11 55.1943 111.344 54.7561C111.864 54.9723 112.22 55.1709 112.057 55.7843C112.793 55.7434 113.412 55.7318 113.815 56.3627C114.125 56.8476 114.919 56.7892 115.06 57.5779C115.159 58.1271 115.597 58.6178 115.86 59.0911C115.153 60.131 116.164 60.984 116.111 61.9304C115.895 62.5497 115.696 63.1515 114.768 63.1924C114.242 63.2157 113.692 63.6831 113.243 64.057C112.658 64.5361 112.156 64.5419 111.566 64.0512C111.543 64.8282 110.859 64.9626 110.339 65.2664C110.222 65.2021 110.053 65.021 109.901 65.0327C108.861 65.1028 107.903 64.5536 106.945 64.5595C105.957 64.5653 105.028 64.4192 104.257 63.9694C103.433 63.4903 102.481 63.3969 101.692 62.8243C101.359 62.5848 101.061 62.4679 100.921 62.0239C100.711 61.3637 99.9456 60.9723 99.9807 60.0726Z" fill="#F2F0EF"/>
</svg>
