<svg width="270" height="257" viewBox="0 0 270 257" fill="none" xmlns="http://www.w3.org/2000/svg">
<path d="M223.611 234.384C223.732 234.917 223.334 235.24 222.998 235.408C220.882 236.475 218.963 237.865 216.884 239.002C215.793 239.599 214.693 240.287 213.685 241.077C212.887 241.698 211.896 241.983 211.073 242.596C210.187 243.256 209.138 243.65 208.197 244.247C207.408 244.75 206.451 244.96 205.623 245.452C204.423 246.165 203.155 246.778 201.891 247.37C201.076 247.748 200.3 248.256 199.376 248.324C199.132 248.34 199.015 248.508 198.838 248.592C198.07 248.949 197.318 249.331 196.5 249.596C194.791 250.154 193.141 250.881 191.428 251.41C190.185 251.796 188.971 252.253 187.741 252.678C186.557 253.081 185.365 253.467 184.168 253.824C181.359 254.659 178.512 255.373 175.632 255.877C173.373 256.272 171.093 256.486 168.797 256.624C166.937 256.738 165.072 256.906 163.225 256.771C161.743 256.666 160.236 256.771 158.791 256.528C157.431 256.301 156.045 256.15 154.685 255.957C151.54 255.516 148.42 254.949 145.322 254.26C143.5 253.857 141.677 253.412 139.855 253.034C137.718 252.594 135.648 251.918 133.515 251.472C132.264 251.212 131.004 250.776 129.753 250.431C128.544 250.095 127.385 249.592 126.155 249.335C124.925 249.079 123.732 248.626 122.548 248.248C121.435 247.891 120.163 247.769 119.202 246.967C118.198 247.215 117.459 246.468 116.59 246.22C115.734 245.976 114.86 245.666 113.995 245.481C113.105 245.288 112.203 245.065 111.329 244.847C109.553 244.406 107.739 244.137 105.972 243.705C104.893 243.44 103.814 243.52 102.739 243.352C100.698 243.042 98.6114 242.962 96.5246 243.058C95.6891 243.096 94.8493 243.071 94.0432 242.861C93.4301 242.701 92.9641 243.142 92.3679 243.092C91.4064 243.004 90.4281 243.075 89.4582 243.063C89.1349 243.058 88.8368 243.071 88.6352 243.356C88.3749 243.146 88.1734 242.987 87.9886 242.836C87.6402 242.832 87.9467 243.096 87.7871 243.222C87.3883 243.251 86.9642 243.39 86.5317 243.159C86.1244 242.945 85.8053 243.373 85.3645 243.319C84.4114 243.197 83.4457 243.911 82.4841 243.293C81.6318 243.709 80.6829 243.583 79.7844 243.734C79.3352 243.814 78.8481 243.797 78.424 243.524C78.0545 243.289 77.6934 244.053 77.3114 243.545C75.8082 244.125 74.2925 243.566 72.8188 243.453C70.4633 243.264 68.0742 243.251 65.7314 242.664C64.5599 242.366 63.2541 242.403 62.0575 242.122C59.3578 241.496 56.616 241.056 53.9918 240.102C52.9086 239.708 51.7371 239.561 50.6581 239.154C48.3698 238.301 46.0731 237.449 43.8562 236.416C43.4405 236.227 42.9871 236.109 42.6931 235.69C42.374 235.236 41.7946 235.547 41.3369 235.316C40.7953 235.043 40.4342 234.531 39.796 234.338C39.4433 234.228 39.0109 233.846 38.6036 233.725C37.2768 233.322 36.3489 232.201 35.0137 231.831C34.5099 231.688 34.1698 231.214 33.8045 230.89C32.5575 229.795 30.878 229.324 29.7822 228.061C29.1818 227.368 28.4428 226.914 27.6282 226.604C27.3679 226.503 27.0866 226.406 27.0026 226.196C26.7045 225.453 25.9655 225.176 25.4365 224.697C24.8697 224.189 24.1265 223.883 23.5975 223.287C23.06 222.682 22.552 221.956 21.8676 221.599C20.6416 220.969 19.8396 219.924 18.9075 219.008C18.4415 218.551 17.7361 218.248 17.7067 217.404C17.6899 216.959 16.7872 217.476 16.8166 216.749C16.8334 216.321 16.5395 216.153 16.1364 216.027C15.7669 215.91 15.8929 215.221 15.4688 215.175C15.0532 215.129 14.5283 214.906 14.5829 214.684C14.7215 214.125 13.9237 214.285 14.0707 213.835C14.0833 213.798 14.0497 213.73 14.0119 213.701C12.874 212.807 12.366 211.4 11.2701 210.447C10.6319 209.893 10.1323 209.108 9.75017 208.339C9.3765 207.605 8.87265 206.958 8.40659 206.316C7.58785 205.203 7.14701 203.889 6.32406 202.797C6.10154 202.499 6.67255 201.802 5.82861 201.815C5.95038 201.273 5.40456 201.122 5.23241 200.765C5.10226 200.5 5.1442 200.148 5.10641 199.749C4.51859 199.262 4.26671 198.514 3.93501 197.746C3.301 196.272 2.73417 194.773 2.29331 193.249C1.6887 191.15 0.974897 189.042 1.04208 186.808C1.05468 186.351 0.584443 186.267 0.555055 185.868C0.370313 183.525 -0.0495431 181.207 0.189778 178.818C0.29055 177.819 0.0302224 176.744 0.126789 175.724C0.319926 173.667 0.231757 171.597 0.727198 169.539C1.0211 168.322 1.1303 167.012 1.40321 165.756C1.96163 163.149 2.61659 160.571 3.78383 158.161C4.65296 156.359 5.4885 154.541 6.50878 152.807C6.86148 152.211 7.39893 151.766 7.66765 151.187C7.94477 150.591 8.31002 150.124 8.76769 149.709C9.12877 149.381 8.99441 148.827 9.45208 148.512C9.80477 148.269 10.2121 147.987 10.2331 147.379C10.2415 147.101 10.7117 146.833 10.9762 146.568C11.3583 146.186 11.6942 145.733 12.1351 145.443C12.4961 145.208 12.2694 144.469 12.9412 144.57C12.874 143.915 13.4618 143.688 13.7935 143.306C14.1084 142.94 14.4779 142.613 14.818 142.273C15.2001 141.891 15.5821 141.509 15.9642 141.127C16.3085 140.782 16.7704 140.497 16.9677 140.081C17.3456 139.283 18.1098 138.838 18.58 138.116C19.1007 137.318 19.8942 136.693 20.608 136.038C21.2336 135.463 21.3974 134.585 22.0944 134.048C22.7704 133.523 23.5135 132.939 23.8914 132.209C24.3239 131.381 25.193 130.907 25.4869 130.126C25.8396 129.194 26.7507 128.837 27.1706 128.064C28.0733 126.381 29.4883 125.041 30.4078 123.408C31.5708 121.347 32.9858 119.445 34.0564 117.316C34.7534 115.93 35.4084 114.519 36.1054 113.134C36.7982 111.761 37.2138 110.245 37.6631 108.763C38.2299 106.911 38.5742 105.014 38.8345 103.091C39.0949 101.159 39.0655 99.2153 39.2964 97.2881C39.4014 96.4106 39.3426 95.5288 39.4727 94.6513C39.6155 93.7024 39.3887 92.6947 39.5273 91.7416C39.8758 89.3609 39.5735 86.9257 40.1949 84.5744C40.1109 81.5429 41.0557 78.6417 41.3747 75.6606C41.5343 74.1742 42.1137 72.7383 42.479 71.2729C43.0878 68.8419 43.9402 66.4865 44.7673 64.1226C45.5273 61.9519 46.4762 59.8609 47.5175 57.812C48.2606 56.3382 49.0794 54.8981 49.8015 53.4117C50.0912 52.8113 50.8344 52.5048 50.8386 51.7364C51.9513 50.7078 52.3543 49.1459 53.5132 48.1466C53.7819 47.1725 54.5713 46.5847 55.264 45.9675C55.7931 45.4972 55.7805 44.7288 56.3977 44.3048C56.9645 43.9143 57.6027 43.4188 57.8588 42.8184C58.3291 41.7267 59.2318 41.0928 59.9918 40.3076C61.7552 38.4854 63.5522 36.6883 65.3787 34.929C65.9791 34.3538 66.3948 33.5435 67.2849 33.2832C68.0659 33.0564 68.2842 32.0655 69.1407 31.8976C69.4514 31.8388 69.2163 31.3602 69.5396 31.1796C70.1694 30.8186 70.4129 30.004 71.2527 29.8277C71.9034 29.6891 72.0714 28.7402 72.8859 28.6898C73.3814 28.6562 72.9825 27.51 73.8601 27.7913C74.4017 27.0565 75.2246 26.6786 75.9426 26.1706C76.5388 25.7507 76.8243 24.9949 77.643 24.7892C78.34 24.6129 78.5458 23.5926 79.4191 23.6094C80.007 22.6857 81.1322 22.4338 81.867 21.6654C82.4212 21.086 83.1517 20.6577 83.8529 20.242C84.9362 19.5954 86.0069 18.9194 87.0523 18.2183C87.4386 17.9579 87.8375 17.7522 88.2363 17.5381C88.4631 17.4205 88.7276 17.5255 88.9544 17.2988C90.3693 15.8586 92.2251 15.0608 93.9718 14.1623C95.0257 13.6207 96.0459 12.9699 97.2174 12.613C97.5365 12.5123 97.9102 12.1218 98.2839 12.0924C99.3923 12.0084 100.274 11.3786 101.206 10.9251C101.718 10.6732 102.218 10.4759 102.764 10.3835C102.869 10.3625 103.024 10.4255 103.083 10.3751C104.12 9.37161 105.552 9.27505 106.803 8.7964C108.016 8.33035 109.318 8.09523 110.519 7.59978C112.937 6.6005 115.515 6.13859 117.959 5.24008C118.757 4.94617 119.617 4.82442 120.239 4.67327C120.747 4.41713 120.432 4.04346 120.78 3.80412C121.095 3.59839 121.469 3.75375 121.91 4.01827C122.59 3.02737 123.77 3.11554 124.769 2.86363C127.129 2.26742 129.522 1.77197 131.924 1.36889C133.502 1.10857 135.073 0.80629 136.698 0.734906C141.85 0.503987 147.001 0.474574 152.149 0.583733C154.114 0.625726 156.087 0.659346 158.044 0.802103C159.707 0.928061 161.386 1.03723 163.036 1.26816C166.882 1.80558 170.737 2.34299 174.541 3.16595C177.45 3.79996 180.31 4.60193 183.173 5.39968C185.008 5.90773 186.809 6.49972 188.598 7.16311C191.453 8.22118 194.274 9.33801 197.083 10.5262C199.72 11.6431 202.067 13.31 204.759 14.2799C206.01 15.5227 207.866 15.8334 209.087 17.1224C209.982 17.2861 210.574 18.0041 211.262 18.4744C211.976 18.9614 212.845 19.2763 213.404 20.0279C213.656 20.3722 214.256 20.3176 214.562 20.7417C214.814 21.0944 215.138 21.4429 215.633 21.4933C215.549 22.1315 216.271 21.762 216.469 22.1693C216.67 22.5807 217.065 23.0089 217.481 23.1895C218.497 23.6262 219.022 24.6969 219.92 25.1251C220.898 25.5912 221.356 26.5527 222.221 27.0062C223.275 27.5646 223.585 28.757 224.526 29.3784C224.606 29.433 224.564 29.6765 224.576 29.8402C224.811 29.941 224.912 29.6723 225.185 29.6093C225.299 30.0082 225.336 30.4659 225.55 30.806C225.807 31.2048 226.218 31.5071 226.617 31.906C227.037 31.864 227.511 31.8178 227.931 31.7759C228.28 32.3427 228.792 32.5442 228.977 33.1236C229.056 33.3797 229.64 33.6274 229.993 33.871C230.459 34.1943 230.362 34.9879 230.828 35.076C231.458 35.1936 231.714 35.6428 232.071 35.9997C235.405 39.3083 238.726 42.6294 242.035 45.9632C242.391 46.3201 242.962 46.5637 242.891 47.2228C243.819 47.0255 243.471 48.029 243.92 48.3271C244.331 48.6042 244.55 49.0997 244.81 49.5531C245.259 50.3215 246.065 50.8673 246.695 51.5391C247.115 51.9842 247.619 52.3284 247.791 53.0296C247.93 53.588 248.576 53.924 248.908 54.4908C249.311 55.171 249.701 55.9393 250.298 56.5188C250.705 56.9092 251.1 57.2871 251.272 57.8959C251.402 58.3536 252.162 58.5173 252.057 59.1849C252.884 59.9197 253.253 60.9526 253.829 61.8469C255.218 64.0092 256.423 66.2639 257.54 68.5732C258.477 70.5088 259.442 72.4234 260.358 74.3716C260.652 75.0014 260.933 75.6522 261.181 76.2946C262.079 78.6207 263.045 80.9467 263.675 83.3484C264.237 85.4897 264.901 87.6143 265.371 89.7892C265.619 90.9439 266.114 92.0691 266.421 93.2321C267.147 95.9739 267.798 98.7324 268.306 101.516C268.755 103.964 269.267 106.399 269.234 108.91C269.225 109.573 269.41 110.228 269.444 110.892C269.481 111.643 269.339 112.424 269.481 113.155C269.67 114.1 269.57 115.049 269.717 115.976C269.83 116.694 269.133 117.299 269.649 118.084C270.027 118.655 269.263 119.445 269.687 120.137C269.171 121.032 269.813 121.976 269.519 122.95C269.234 123.891 269.46 124.983 269.456 126.011C269.456 127.036 269.57 128.081 269.431 129.093C269.179 130.949 269.393 132.826 269.183 134.665C268.982 136.42 269.162 138.221 268.6 139.917C268.465 140.32 268.818 140.446 268.797 140.77C268.78 141.106 268.516 141.32 268.532 141.647C268.604 142.961 268.44 144.267 268.297 145.569C268.1 147.42 267.848 149.268 267.668 151.12C267.382 153.991 266.824 156.8 266.24 159.609C265.862 161.44 265.417 163.262 264.997 165.084C264.502 167.201 264.027 169.321 263.494 171.424C263.083 173.028 262.566 174.603 262.134 176.203C261.794 177.466 261.5 178.751 261.214 180.036C260.815 181.804 260.353 183.567 259.942 185.33C259.358 187.837 258.603 190.281 257.75 192.695C257.322 193.913 256.898 195.134 256.31 196.31C255.941 197.049 255.588 197.864 255.332 198.649C254.803 200.253 253.887 201.621 253.14 203.091C252.876 203.607 252.502 204.023 252.221 204.498C251.96 204.943 251.666 205.346 251.385 205.77C250.545 207.038 249.47 208.155 248.845 209.57C248.803 209.662 248.744 209.754 248.664 209.817C247.321 210.884 246.645 212.517 245.343 213.634C244.184 214.625 243.58 216.136 242.333 217.073C242.106 218.08 241.107 218.5 240.611 219.281C239.28 221.385 237.324 222.896 235.64 224.664C233.965 226.423 232.21 228.103 230.501 229.828C229.287 231.05 227.805 231.919 226.424 232.923C226.126 233.137 225.676 233.233 225.404 233.557C224.9 234.086 224.308 234.333 223.611 234.384ZM97.7716 240.065C97.8808 240.837 98.3427 240.921 98.8297 240.997C99.0522 240.774 99.279 240.548 99.6107 240.216C100.337 240.875 101.051 239.851 101.962 240.207C102.713 240.506 103.65 240.325 104.494 240.354C104.641 239.989 104.082 239.825 104.326 239.414C103.604 239.372 102.827 239.611 102.327 238.876C102.113 239.091 101.966 239.237 101.786 239.418C101.219 239.086 100.585 239.183 99.9717 239.183C99.3839 239.183 98.8003 238.65 98.2209 239.179C97.7254 238.583 97.1166 239.242 96.5372 239.023C96.0166 238.83 95.3742 238.952 94.7864 238.952C94.165 238.952 93.5268 239.12 92.9389 239.112C92.3511 239.103 91.7675 239.275 91.1839 239.17C90.5793 239.061 89.9621 238.755 89.3659 239.023C88.7277 239.317 88.165 239.175 87.552 238.939C86.9936 239.851 86.3637 239.296 85.7507 238.876C85.7507 239.112 85.7508 239.221 85.7508 239.338C85.461 239.603 85.3729 239.078 85.1084 239.175C84.3862 239.435 83.622 239.779 82.8789 239.607C82.0433 239.41 81.2707 239.67 80.4688 239.666C77.3198 239.657 74.1791 239.59 71.0385 239.414C70.8244 239.401 70.5557 239.485 70.4003 239.389C69.4892 238.797 68.4731 239.057 67.5033 238.935C66.4578 238.805 65.3577 238.906 64.371 238.675C62.8805 238.326 61.4025 237.999 59.9162 238.041C59.8196 237.835 59.9792 237.65 59.8574 237.613C59.0135 237.583 58.1023 237.806 57.5607 237.457C56.8259 236.991 56.1962 237.26 55.3186 237.063C56.5195 238.037 56.5195 238.037 57.6657 238.049C57.7539 238.683 58.6734 238.511 58.8035 239.221C59.3158 238.902 59.8112 238.272 60.4158 239.044C60.5334 239.196 60.7056 239.225 60.8441 239.179C61.8686 238.792 62.8259 239.33 63.7958 239.452C64.5641 239.548 65.4543 239.59 65.891 240.346C66.7013 240.014 67.3983 240.006 68.1037 240.233C68.1121 240.468 68.1163 240.631 68.1246 240.816C68.5529 240.657 68.9686 240.501 69.401 240.338C69.8083 240.72 70.3458 240.862 70.8832 241.014C71.0343 240.862 71.1855 240.711 71.3367 240.56C71.7565 240.871 72.2394 240.808 72.7012 240.783C73.1295 240.757 73.478 241.131 73.9944 240.833C74.3597 240.627 74.9433 240.791 75.4261 240.795C75.7369 240.997 75.9132 241.417 76.4087 241.517C76.2827 241.223 76.2029 241.043 76.0266 240.64C76.6606 241.232 77.1476 240.745 77.6683 240.778C78.529 240.833 79.3939 240.791 80.2588 240.791C80.5317 240.14 80.9558 241.085 81.3253 240.673C81.7536 240.195 81.8669 241.249 82.3078 240.976C82.3246 240.833 82.3372 240.694 82.3246 240.825C83.4121 240.82 84.4198 240.82 85.4317 240.825C85.7088 240.783 85.2931 241.257 85.692 241.228C86.3386 241.228 85.6206 240.258 86.368 240.342C86.5653 240.447 86.2756 240.745 86.5989 240.816C86.8928 240.749 86.9684 240.279 87.3714 240.346C87.3421 240.611 87.3084 240.888 87.4554 240.951C87.8165 241.093 87.9089 240.942 88.018 240.833C88.4967 240.338 89.0215 240.006 89.7311 240.346C90.2097 239.884 90.6758 240.426 91.1629 240.359C91.6919 240.291 92.2671 240.455 92.7752 240.325C94.3959 239.888 96.0418 240.224 97.7716 240.065ZM180.032 239.989C178.689 239.603 177.505 240.014 176.329 240.031C175.317 240.044 174.272 240.233 173.247 240.367C172.139 240.51 171.03 240.434 169.943 240.581C168.335 240.795 166.739 241.022 165.119 241.014C164.69 241.014 164.208 240.892 163.842 241.047C162.847 241.454 161.844 241.173 160.849 241.228C159.854 241.282 158.888 241.618 157.872 241.492C157.603 241.459 157.435 241.257 157.045 241.337C155.449 241.664 153.778 241.295 152.17 241.702C151.641 241.299 151.116 241.765 150.579 241.715C150.033 241.664 149.483 241.702 148.887 241.702C149.197 242.492 149.789 242.118 150.197 242.223C151.985 242.685 153.824 242.97 155.672 243.062C159.282 243.239 162.889 243.008 166.471 242.584C167.361 242.475 168.255 242.513 169.128 242.37C172.097 241.887 175.053 241.341 178.004 240.766C178.659 240.64 179.348 240.464 180.032 239.989ZM194.984 245.359C194.711 245.363 194.501 245.372 194.295 245.376C194.354 245.813 194.069 246.132 193.993 246.51C193.414 246.804 193.313 245.662 192.704 246.077C192.599 246.359 193.086 246.476 192.88 246.783C192.553 247.244 191.99 247.211 191.554 247.421C191.319 247.286 191.251 246.942 190.911 246.963C190.861 247.383 190.768 247.786 190.269 247.883C189.278 248.067 188.388 248.731 187.317 248.567C186.931 248.508 186.675 248.949 186.28 248.806C185.894 249.503 185.146 249.47 184.521 249.633C182.476 250.184 180.444 250.763 178.37 251.191C175.624 251.762 172.869 252.333 170.086 252.648C168.167 252.862 166.244 253.265 164.296 253.156C163.989 253.135 163.813 253.278 163.846 253.538C171.614 254.101 179.004 252.388 186.284 249.927C186.276 250.221 186.221 250.503 186.561 250.633C187.12 250.435 187.674 250.167 188.253 250.058C188.971 249.927 189.345 249.554 189.341 248.903C190.009 248.697 190.571 248.521 191.092 248.361C191.293 248.529 191.499 248.802 191.612 248.773C192.44 248.542 193.401 248.563 193.838 247.589C194.316 248.135 194.736 247.58 195.16 247.652C195.358 247.076 196.319 247.526 196.391 246.673C196.441 246.06 196.932 245.897 197.512 246.165C197.512 246.275 197.512 246.384 197.512 246.535C197.818 246.153 198.469 246.526 198.658 245.993C198.666 245.607 198.087 246.052 198.217 245.51C199.048 245.166 199.892 244.7 200.803 244.477C201.408 244.326 201.635 244.007 201.962 243.487C201.236 243.684 200.686 244.116 200.031 243.781C200.031 244.1 200.09 244.41 199.59 244.457C199.136 244.499 198.918 244.23 198.637 243.99C198.536 243.906 198.427 243.982 198.427 244.091C198.515 244.272 198.599 244.448 198.725 244.717C197.461 245.107 196.294 245.67 194.992 245.838C194.984 245.67 194.988 245.565 194.984 245.359ZM201.408 13.8096C201.337 13.436 201.106 13.2554 200.795 13.1378C199.485 12.6508 198.242 11.9874 196.983 11.3996C194.715 10.3331 192.398 9.43459 190.055 8.56967C186.062 7.09592 182.006 5.79431 177.874 4.74464C176.111 4.29956 174.335 3.87556 172.55 3.53545C170.64 3.17017 168.7 2.95178 166.781 2.59491C164.942 2.25061 163.078 2.17507 161.235 1.91894C159.686 1.70481 158.103 1.83495 156.566 1.47386C156.259 1.40248 155.919 1.45709 155.6 1.46548C155.281 1.47387 154.937 1.40667 154.664 1.52004C154.777 1.92732 154.987 1.93571 155.21 1.92312C156.213 1.87693 157.229 2.0365 158.182 2.20025C160.479 2.59912 162.801 2.72088 165.102 3.05677C166.328 3.23313 167.604 3.29189 168.784 3.57319C171.442 4.20721 174.137 4.65227 176.795 5.29467C180.368 6.16378 183.853 7.29746 187.393 8.26736C188.232 8.4941 188.934 9.01051 189.748 9.22884C191.541 9.71169 193.304 10.2912 194.963 11.1015C196.223 11.7145 197.583 12.0588 198.822 12.76C199.586 13.1882 200.463 13.6291 201.408 13.8096ZM163.38 32.8591C162.499 32.8675 161.73 32.4686 160.912 32.2209C159.946 31.927 158.938 31.7927 157.964 31.5239C157.595 31.4232 157.208 31.9522 156.889 31.4568C155.18 31.948 153.488 31.6667 151.767 31.3811C151.721 31.1502 151.687 30.9571 151.653 30.7808C151.439 30.7766 151.221 30.7681 151.015 30.764C151.007 30.9235 150.998 31.0747 150.994 31.2216C150.574 31.3392 150.545 30.6212 150.075 30.8228C150.159 31.0159 150.238 31.1964 150.327 31.377C149.592 32.0362 149.588 32.0404 148.811 31.5407C148.66 31.44 148.534 31.4148 148.395 31.5533C148.177 31.7129 148.29 31.9438 148.261 32.1411C147.875 32.2755 147.27 31.8472 147.106 32.4812C148.072 32.9767 149.08 32.7583 150.05 32.8801C151.171 33.0186 152.283 33.2412 153.421 33.3042C154.521 33.3713 155.63 33.4469 156.717 33.5603C157.947 33.6904 159.161 33.9886 160.408 33.976C160.84 33.9718 161.331 33.8416 161.684 34.0096C162.15 34.2321 162.599 34.1859 163.061 34.2027C163.557 34.2195 164.048 34.2069 164.514 34.2027C164.464 33.3545 163.191 33.8038 163.38 32.8591ZM125.588 164.635C125.025 164.232 124.681 164.82 124.177 164.778C123.678 164.732 123.157 164.807 122.636 164.9C120.655 165.252 118.643 165.433 116.641 165.664C115.196 165.832 113.731 165.954 112.316 166.201C110.901 166.449 109.457 166.499 108.063 166.818C106.74 167.125 105.304 166.873 104.065 167.608C104.225 168.532 104.632 168.947 105.59 168.855C106.967 168.72 108.336 168.485 109.704 168.259C110.657 168.103 111.598 167.826 112.555 167.742C114.445 167.566 116.275 167.096 118.11 166.688C120.327 166.193 122.544 165.697 124.765 165.231C125.189 165.143 125.424 164.984 125.588 164.635ZM252.85 163.804C252.716 164.215 252.493 164.597 252.51 164.967C252.519 165.168 252.72 165.311 252.544 165.622C251.83 166.881 251.108 168.149 250.537 169.476C250.243 170.156 249.756 170.761 249.71 171.563C249.592 173.713 249.416 175.854 249.261 178C249.244 178.201 249.349 178.415 249.16 178.604C248.895 178.869 249.051 179.217 249.051 179.519C249.051 179.788 248.912 180.103 249.244 180.468C250.159 178.176 250.755 175.909 251.318 173.641C251.851 171.487 252.355 169.321 252.808 167.146C253.014 166.159 253.329 165.206 253.61 164.245C253.648 164.123 253.594 163.968 253.589 163.888C253.329 163.854 253.115 163.833 252.85 163.804ZM191.486 77.4745C190.643 78.2512 189.467 78.3351 188.522 78.9104C187.363 79.6158 186.15 80.2162 184.974 80.8964C183.975 81.4758 182.946 82.0006 181.989 82.664C181.002 83.34 179.873 83.7976 178.84 84.4275C177.769 85.0783 176.715 85.7794 175.586 86.3211C174.952 86.6276 174.314 86.8963 173.722 87.2867C173.054 87.7276 172.366 88.1811 171.622 88.454C170.867 88.7311 170.401 89.6255 169.422 89.4281C169.187 89.3777 168.998 89.701 168.876 89.9319C168.818 90.0495 168.809 90.3099 168.78 90.3057C167.844 90.2763 167.348 91.1244 166.483 91.4183C166.744 91.5946 166.828 91.7626 167.184 91.582C168.826 90.7465 170.527 90.0118 172.16 89.1594C172.735 88.8613 173.424 88.7018 173.827 88.114C175.271 87.7529 176.434 86.7997 177.639 86.0314C178.874 85.242 180.175 84.5366 181.426 83.8061C184.197 82.1938 186.893 80.4387 189.782 79.0279C190.21 78.3394 191.285 78.4653 191.486 77.4745ZM227.746 55.7504C228.007 55.3221 228.162 55.0744 228.313 54.8225C228.951 55.4019 229.354 54.2514 230.102 54.6713C230.761 55.2549 231.391 56.1031 232.39 56.5314C232.856 56.7287 232.94 56.5859 233.007 56.2081C232.445 55.6706 232 54.9904 231.219 54.898C231.059 54.5285 231.529 54.411 231.361 54.1003C230.652 53.3908 230.043 52.4376 229.174 52.0051C228.217 51.5265 227.646 50.7371 226.911 50.0864C226.147 49.4062 225.458 48.6504 224.732 47.924C224.543 47.7351 224.358 47.5335 224.156 47.3572C224.089 47.2984 223.972 47.29 223.875 47.2606C223.69 47.437 223.439 47.5545 223.384 47.8442C224.32 48.2599 224.27 48.2683 224.32 49.1332C224.35 49.5909 223.951 49.4691 223.858 49.6539C223.569 50.1955 224.245 50.4517 224.261 50.8799C224.333 51.2284 223.657 51.1654 223.926 51.6525C224.446 51.4509 224.669 50.6238 225.433 50.9849C225.756 51.8792 225.756 51.8792 226.785 51.6566C227.091 51.3921 226.373 51.2032 226.718 50.8673C226.961 51.1864 227.553 51.2494 227.091 51.8708C226.953 52.0597 227.293 52.6014 227.364 52.8155C227.608 53.101 227.893 52.8239 227.961 53.1178C228.07 53.6048 227.763 53.9617 227.675 54.3522C227.347 54.4194 227.037 54.2683 226.797 54.432C226.94 55.0366 227.553 54.6168 227.725 55.0492C227.73 55.1878 227.734 55.3431 227.746 55.7504ZM161.252 225.894C162.033 225.894 162.751 225.949 163.46 225.877C164.157 225.81 164.829 225.986 165.539 225.949C166.483 225.894 167.399 225.625 168.347 225.651C170.233 225.705 172.097 225.436 173.97 225.226C176.904 224.895 179.726 224.072 182.568 223.362C183.228 223.199 183.857 222.93 184.496 222.711C176.783 223.513 169.208 225.176 161.462 225.525C161.411 225.533 161.369 225.693 161.252 225.894ZM137.55 82.706C134.443 83.1007 131.487 83.9236 128.556 84.8305C125.03 85.9222 121.532 87.1188 118.018 88.2399C117.623 88.3658 117.421 88.5506 117.342 88.9914C124.047 87.2994 130.559 85.137 137.113 83.1259C137.286 83.0797 137.407 82.8488 137.55 82.706ZM141.623 20.0363C143.118 20.7333 144.705 20.3638 146.208 20.7081C147.765 21.0566 149.344 21.2162 150.927 21.3715C152.556 21.531 154.194 21.6066 155.819 21.72C155.73 21.4471 155.537 21.1615 155.201 21.1615C153.954 21.1825 152.921 20.0909 151.616 20.4646C150.969 19.8348 150.15 20.0825 149.386 19.9901C148.849 19.9229 148.32 19.7046 148.047 19.3897C147.312 19.5786 146.77 19.5912 146.132 19.3561C145.603 19.1629 144.948 19.4149 144.411 19.0706C144.083 19.9859 143.978 19.9985 142.815 19.3309C142.698 19.4988 142.891 19.7508 142.534 19.9733C142.307 19.9901 141.963 20.0153 141.623 20.0363ZM146.707 34.1649C149.306 35.0592 156.129 35.8864 158.224 34.8325C157.469 34.6562 156.889 34.1943 156.121 34.6436C155.84 34.8073 155.369 34.6058 155.012 34.6855C154.496 34.7989 154.42 34.1271 153.904 34.1901C153.371 34.2531 152.758 33.9676 152.292 34.1397C151.658 34.379 151.208 33.9046 150.642 33.9676C150.108 34.0305 149.495 34.1397 149.05 33.9382C148.525 33.6989 147.946 34.1943 147.551 33.7408C147.136 33.258 146.581 34.0474 146.212 33.5267C145.368 33.5897 144.579 33.153 143.726 33.2832C143.42 33.3294 143.227 33.3965 143.222 33.7702C143.806 34.2027 144.549 34.1649 145.158 34.2867C145.389 34.5932 145.133 35.0424 145.612 35.1264C145.649 35.1222 145.721 35.1432 145.75 35.1138C146.061 34.8115 146.363 34.5092 146.707 34.1649ZM75.0483 158.098C74.7208 157.795 74.9223 157.376 74.4269 157.132C73.9314 156.889 73.4486 156.918 72.9783 156.784C72.3149 156.599 71.7313 156.847 71.2904 157.254C70.9084 157.602 70.7404 157.174 70.4129 157.191C69.6488 157.896 68.9518 158.669 69.1239 160.075C71.1057 159.336 73.226 159.483 75.0483 158.098ZM57.1618 58.6894C56.4061 59.4284 55.94 60.054 55.4698 60.7426C54.693 61.8721 54.1052 63.0981 53.383 64.2401C52.2829 65.9868 51.607 67.9224 50.7588 69.7782C50.4817 70.3828 50.1542 71.0294 49.9988 71.7222C49.8477 72.394 49.663 73.0742 49.3481 73.7082C49.3145 73.7754 49.2095 74.0147 49.5622 74.0735C49.7175 73.8174 49.9317 73.6284 50.066 73.2253C50.5741 71.718 51.3467 70.3157 51.9806 68.8587C52.6608 67.2968 53.4586 65.8021 54.2941 64.3367C54.7392 63.5558 55.1717 62.737 55.5957 61.9602C56.1164 60.9945 56.8721 60.0876 57.1618 58.6894Z" fill="#F97561"/>
</svg>
