<svg width="358" height="379" viewBox="0 0 358 379" fill="none" xmlns="http://www.w3.org/2000/svg">
<path d="M59.3056 197.367C59.1527 194.785 60.7167 193.455 63.2086 193.826C63.6529 193.894 64.027 193.886 63.9883 193.388C63.8757 191.878 64.9453 191.468 65.9868 190.792C66.8672 190.223 67.9747 190.078 68.7033 189.22C69.0208 188.842 69.5989 188.772 70.0818 189.114C70.7364 189.583 71.1792 188.853 71.5324 188.827C73.7027 188.695 74.5503 185.582 77.0589 186.478C78.1987 184.533 80.3583 186.004 81.9897 184.946C83.8192 183.758 86.3437 183.834 88.6136 183.616C92.322 183.253 96.0515 182.907 99.7496 183.261C104.818 183.743 109.786 182.753 114.818 182.702C116.19 182.689 117.557 181.902 119.005 181.97C122.199 182.125 125.106 180.068 128.363 180.777C132.791 178.563 137.816 179.268 142.431 177.866C151.465 175.127 160.303 171.948 168.769 167.74C175.957 164.17 182.932 160.233 189.565 155.723C194.828 152.141 199.327 147.622 204.072 143.408C213.439 135.084 222.291 126.21 231.557 117.783C237.818 112.083 244.635 107.118 251.735 102.489C262.05 95.7567 272.904 90.0685 284.228 85.2841C291.347 82.2748 298.734 80.1432 306.524 79.5688C315.651 78.897 327.409 85.8795 330.35 93.9988C331.493 97.1617 332.189 100.442 332.139 103.821C332.115 105.43 332.228 107.057 332.36 108.628C332.634 111.867 332.064 115.043 332.072 118.247C332.073 118.929 332.171 119.773 331.352 120.205C331.096 120.339 331.03 120.535 331.064 120.814C331.932 127.508 329.87 133.712 327.683 139.831C324.516 148.718 319.399 156.534 313.831 164.088C305.691 175.134 297.11 185.83 288.115 196.186C280.023 205.5 271.352 214.274 262.596 222.959C251.985 233.491 241.306 243.966 230.824 254.633C218.463 267.208 206.411 280.087 193.747 292.362C185.662 300.204 177.178 307.604 168.474 314.721C158.157 323.152 147.069 330.463 134.421 334.959C124.275 338.564 113.692 340.342 102.968 339.396C89.5201 338.206 77.792 332.906 70.5807 320.952C64.9418 311.608 57.8738 303.743 50.2078 296.11C40.0499 285.992 34.8087 273.623 36.0471 258.943C36.3712 255.077 35.2782 251.267 35.4257 247.387C35.5837 243.293 35.4387 239.185 36.2238 235.133C38.2829 224.545 42.599 214.929 49.0218 206.293C49.7234 205.35 50.1603 203.719 51.9342 203.9C52.0422 203.91 52.2376 203.528 52.3052 203.298C53.1217 200.328 55.6832 198.824 57.6936 196.865C58.2859 196.287 58.3445 196.346 59.3056 197.367ZM259.115 215.399C244.921 228.791 230.527 241.997 217.667 256.714C231.476 242.946 245.296 229.177 259.115 215.399ZM45.9934 216.21C45.0395 216.44 44.771 217.101 44.5752 217.591C42.1688 223.597 39.0448 229.358 38.4145 235.959C38.3735 236.381 38.3104 236.83 38.1501 237.224C37.3184 239.24 37.5167 241.395 37.2856 243.485C37.2467 243.819 37.3644 244.33 37.8601 244.262C38.3171 244.198 38.223 243.734 38.2735 243.364C38.4905 241.782 38.5706 240.192 38.836 238.605C39.8335 232.528 41.3679 226.633 43.9556 221.03C44.6548 219.503 45.2672 217.929 45.9934 216.21ZM271.427 151.614C275.975 148.543 291.163 130.101 291.418 127.395C284.965 135.747 278.272 143.744 271.427 151.614ZM303.018 164.956C295.948 173.551 288.664 181.976 282.15 191.02C289.424 182.586 296.441 173.947 303.018 164.956ZM159.117 188.454C159.039 188.281 158.956 188.113 158.872 187.935C154.934 189.79 151.005 191.643 147.067 193.497C152.25 194.291 155.258 190.482 159.117 188.454ZM50.7751 270.809C49.7106 267.103 49.4778 263.218 48.2665 259.559C47.4337 263.679 48.5264 267.373 50.7751 270.809ZM64.7429 295.919C60.7149 289.512 56.9473 282.965 53.2396 276.379C56.4482 283.272 60.0863 289.898 64.7429 295.919ZM127.447 328.732C122.695 329.912 117.709 330.251 113.108 332.158C118.05 331.765 122.818 330.598 127.447 328.732ZM302.85 177.175C296.305 184.975 289.76 192.774 283.215 200.574C290.012 192.986 296.631 185.248 302.85 177.175ZM67.149 230.129C69.2266 225.486 71.7855 221.113 74.0332 216.577C70.6034 220.515 68.6267 225.197 67.149 230.129ZM93.0696 292.272C91.9752 291.452 91.536 291.944 91.281 292.536C90.5885 294.14 90.4931 295.887 90.2282 297.591C90.1697 297.981 90.38 298.381 90.7847 298.443C91.2387 298.51 91.3659 298.071 91.4865 297.724C91.9869 296.263 92.4627 294.799 92.9684 293.343C93.1432 292.836 93.2248 292.376 93.0696 292.272ZM78.4855 228.669C76.1582 233.407 74.6858 238.396 74.089 243.654C75.2167 238.564 76.8936 233.63 78.4855 228.669ZM55.0917 265.152C55.6033 268.94 57.5515 272.115 59.4567 275.299C58.002 271.92 56.542 268.537 55.0917 265.152ZM148.689 317.25C151.1 315.914 153.356 314.368 155.344 312.436C152.917 313.749 150.385 314.92 148.689 317.25ZM317.466 135.718C318.555 133.972 319.337 132.165 319.547 130.164C318.612 131.951 317.169 133.543 317.466 135.718ZM274.133 210.042C276.497 207.332 279.729 205.316 281.828 201.811C279.107 204.723 276.623 207.385 274.133 210.042ZM100.829 207.122C103.199 208.546 103.915 206.156 105.338 205.612C103.828 205.886 102.311 206.135 100.829 207.122ZM230.314 253.928C228.586 255.827 226.428 257.331 225.114 259.623C226.603 257.496 228.952 256.18 230.314 253.928ZM296.735 182.21C296.767 182.236 296.798 182.263 296.824 182.285C298.593 180.177 300.366 178.064 302.134 175.957C302.103 175.93 302.071 175.904 302.045 175.882C300.272 177.995 298.504 180.102 296.735 182.21ZM309.087 169.592C309.054 169.546 309.02 169.491 308.987 169.445C307.359 171.384 305.727 173.329 304.1 175.268C304.142 175.304 304.194 175.338 304.236 175.374C305.854 173.445 307.473 171.516 309.087 169.592ZM270.611 153.035C270.533 152.915 270.444 152.796 270.366 152.676C269.298 153.948 268.231 155.22 266.833 156.886C268.326 155.363 269.466 154.196 270.611 153.035ZM296.345 98.0404C296.269 97.9496 296.203 97.858 296.126 97.7673C294.93 98.6267 293.735 99.4862 292.543 100.34C292.679 100.499 292.805 100.659 292.94 100.817C294.082 99.8942 295.214 98.9721 296.345 98.0404ZM90.1836 292.851C90.015 292.817 89.842 292.789 89.6735 292.755C89.5136 294.045 88.999 295.288 89.5301 296.683C89.7444 295.403 89.964 294.127 90.1836 292.851ZM78.2306 311.59C79.2795 312.891 80.0421 314.426 81.5395 315.342C80.5364 314.008 79.9138 312.348 78.2306 311.59Z" fill="#F97561"/>
</svg>
