<svg width="159" height="154" viewBox="0 0 159 154" fill="none" xmlns="http://www.w3.org/2000/svg">
<path d="M90.3051 127.919C89.8573 127.686 89.151 127.314 88.4005 126.916C88.5519 126.677 88.6527 126.519 88.823 126.248C88.6338 126.034 88.3689 125.819 88.2176 125.542C88.0725 125.264 88.0473 124.93 87.9716 124.621C87.7635 124.551 87.568 124.482 87.3851 124.419C87.3851 124.142 87.3851 123.914 87.3851 123.675C87.6185 123.568 87.8518 123.454 88.1419 123.315C87.9842 123.006 87.8455 122.723 87.6815 122.388C87.9969 122.187 88.3122 121.821 88.6023 121.833C89.5988 121.871 90.633 121.524 91.5917 122.048C91.7304 122.123 91.907 122.136 92.0647 122.142C93.2314 122.174 94.3729 122.186 95.5396 122.439C96.9965 122.754 98.529 122.697 100.024 122.842C100.553 122.893 101.071 123.069 101.6 123.17C102.073 123.259 102.635 122.956 103.019 123.492C103.057 123.549 103.234 123.517 103.347 123.511C104.728 123.467 106.028 123.902 107.365 124.154C108.588 124.387 109.818 124.583 111.022 124.892C113.501 125.529 116.011 126.034 118.458 126.834C119.404 127.144 120.388 127.465 121.391 127.661C121.655 127.711 121.883 127.976 122.412 128.348C121.624 128.348 121.189 128.348 120.76 128.348C120.754 128.417 120.747 128.487 120.741 128.562C121.315 128.777 121.889 128.991 122.538 129.231C122.406 129.464 122.28 129.691 122.166 129.893C122.286 130.07 122.406 130.246 122.576 130.505C121.965 130.94 121.416 131.337 120.861 131.735C120.779 131.533 120.703 131.337 120.583 131.041C120.344 131.148 120.117 131.249 119.877 131.356C119.681 131.281 119.442 131.186 119.202 131.091C118.963 130.997 118.717 130.902 118.578 130.852C118.168 130.959 117.815 131.054 117.512 131.136C117.235 130.858 117.033 130.656 116.831 130.454C115.816 131.23 114.895 130.291 113.917 130.284C113.722 130.284 113.526 130.076 113.324 130.076C112.114 130.057 110.985 129.691 109.824 129.408C108.758 129.149 107.636 129.162 106.538 129.029C105.895 128.947 105.258 128.815 104.621 128.689C103.984 128.563 103.253 128.998 102.685 128.367C102.635 128.31 102.471 128.348 102.357 128.342C100.572 128.228 98.7876 128.134 97.0028 127.989C96.3027 127.932 95.609 127.724 94.909 127.667C94.1711 127.61 93.4206 127.623 92.6764 127.661C91.9827 127.692 91.289 127.806 90.3051 127.919Z" fill="#F97561"/>
<path d="M34.2011 125.031C33.5578 124.64 33.0974 124.362 32.656 124.098C33.1857 122.66 33.1857 122.66 31.464 121.821C31.2622 122.023 31.0604 122.224 30.7451 122.54C30.6063 122.325 30.4612 122.105 30.2657 121.796C30.8081 121.285 30.7892 120.635 30.1711 120.03C30.6757 119.582 31.0982 119.21 31.6469 118.718C31.8235 118.712 32.2082 118.693 32.6118 118.667C32.656 118.472 32.6875 118.314 32.719 118.15C32.8073 118.106 32.9019 118.018 32.9902 118.018C33.4948 118.024 33.9551 117.759 34.3966 117.715C36.421 117.494 38.3761 116.731 40.4636 116.958C40.9681 117.015 41.6745 116.492 41.9961 116.7C42.5511 117.053 42.8664 116.567 43.2953 116.624C43.8566 116.694 44.4431 116.687 45.0107 116.624C45.3071 116.593 45.5846 116.372 45.8495 116.252C46.0261 116.41 46.1459 116.523 46.1711 116.548C47.3252 116.164 48.3722 116.17 49.6461 116.605C49.6902 116.58 49.9173 116.321 50.138 116.321C51.7715 116.347 53.4112 116.454 55.0446 116.473C56.06 116.479 57.0817 116.347 58.097 116.321C58.3934 116.315 58.6962 116.466 59.0809 116.561C59.1061 116.536 59.2259 116.429 59.3457 116.321C59.4782 116.435 59.598 116.548 59.7431 116.675C60.7774 116.082 61.8684 116.334 62.9531 116.353C62.9531 116.593 62.9531 116.706 62.9531 116.826C62.6693 116.971 62.3855 117.116 62.0639 117.28C61.9945 117.217 61.8747 117.11 61.7423 116.996C60.5062 117.646 59.125 117.179 57.8195 117.583C58.1664 117.614 58.5574 117.759 58.8538 117.652C59.2763 117.494 59.5223 118.207 60.0016 117.766C60.1782 117.602 60.6827 117.797 61.2629 117.854C61.244 117.867 61.4648 117.734 61.6603 117.621C61.8495 117.797 61.9756 117.904 62.0954 118.018C62.4612 117.476 63.0099 117.734 63.4829 117.696C63.6532 117.867 63.8172 118.031 64.0442 118.258C63.6469 118.333 63.3 118.403 62.9469 118.472C62.9469 118.535 62.9531 118.598 62.9531 118.655C63.382 118.686 63.8108 118.718 64.4163 118.762C64.2397 119.336 64.0884 119.828 63.8928 120.44C62.3856 120.288 60.8593 120.137 59.5539 120.005C59.0556 120.484 58.7277 120.793 58.4376 121.07C57.6429 120.875 57.3465 120.238 56.9744 119.683C56.7222 119.941 56.5203 120.143 56.369 120.301C55.8266 120.206 55.3221 120.118 54.9185 120.049C54.6473 120.49 54.4455 120.805 54.2563 121.102C53.8526 121.102 53.5121 121.102 53.1211 121.102C52.9571 121.297 52.7742 121.518 52.5724 121.751C52.0552 121.751 51.557 121.751 51.002 121.751C50.9516 121.6 50.8822 121.405 50.7561 121.045C50.0686 121.247 49.3749 121.455 48.7316 121.644C48.2586 121.581 47.7919 121.499 47.3253 121.468C46.8712 121.436 46.2973 121.291 45.9756 121.499C45.4963 121.815 45.0359 121.777 44.544 121.802C44.0458 121.833 43.4593 121.726 43.0683 121.953C42.7025 122.168 42.3934 121.701 42.0024 122.098C41.7628 122.344 41.0627 122.142 40.5582 122.388C40.9051 122.458 41.2519 122.527 41.6808 122.609C40.7979 123.278 40.1293 122.502 39.3915 122.445C38.5527 122.382 37.9662 123.038 37.1526 123.006C37.367 123.107 37.5815 123.215 37.777 123.309C37.7139 123.379 37.6445 123.517 37.5878 123.511C37.3229 123.48 37.058 123.404 36.7931 123.36C36.4589 123.303 36.1246 123.252 35.7588 123.372C35.9796 123.479 36.2003 123.587 36.6418 123.795C35.9165 123.795 35.4183 123.795 34.9642 123.795C34.7182 124.224 34.4912 124.577 34.2011 125.031Z" fill="#F97561"/>
<path d="M35.3614 32.1023C35.6768 32.3041 36.0867 32.569 36.5849 32.8843C36.2822 32.9852 36.0867 33.0546 35.8659 33.1303C35.8849 33.206 35.8849 33.3384 35.929 33.3573C36.3137 33.5339 36.7111 33.6853 37.1021 33.8492C36.6669 34.4484 37.512 35.0034 37.0831 35.5205C36.8057 35.8737 36.5344 36.2205 36.238 36.5989C34.6614 35.8674 33.0343 36.0124 31.5207 36.2269C30.3539 36.3908 29.1998 36.3971 28.0457 36.517C27.4655 36.5737 26.9294 37.0026 26.2988 36.8386C26.0528 36.7755 25.8258 36.6557 25.5861 36.5674C25.214 37.5764 24.3815 37.5891 23.3662 37.4882C23.2274 37.0972 23.0887 36.6998 22.9878 36.4097C22.5652 36.0187 22.1931 35.6782 21.7327 35.2493C21.6697 35.3691 21.5246 35.6529 21.4931 35.7097C20.011 36.0061 18.7308 35.47 17.5136 36.2016C17.3685 36.0944 17.1983 35.9683 17.0091 35.8359C16.473 35.9683 15.8991 36.107 15.3315 36.2457C15.1801 35.9367 15.0729 35.7097 14.9342 35.4196C14.8332 35.6908 14.7639 35.8926 14.6441 36.2206C14.2089 36.0944 13.7611 35.962 13.2566 35.8169C13.162 36.0187 13.0485 36.2457 12.8971 36.5611C12.6638 36.4475 12.4367 36.3341 12.1908 36.2142C11.4907 36.8134 10.6078 36.353 9.93298 36.5043C9.59242 36.334 9.36538 36.2206 9.1005 36.0818C8.99329 36.3782 8.92392 36.5737 8.86716 36.725C7.53645 36.889 6.23097 37.053 4.94442 37.2107C4.85612 37.4566 4.78045 37.6585 4.67955 37.936C4.5408 37.6458 4.43358 37.4314 4.32006 37.1917C3.56957 37.1728 3.4182 37.9864 2.77492 38.2702C2.36499 38.0369 1.89831 37.772 1.42531 37.5008C1.39378 37.1918 1.36855 36.9206 1.34332 36.6242C0.864015 36.3845 0.0126133 36.662 0 35.7223C0.346866 35.489 0.70005 35.2493 1.13521 34.9592C0.845103 34.8646 0.64958 34.8016 0.447767 34.7322C0.4793 34.0132 1.0343 33.7357 1.66497 33.4204C2.12535 33.4204 2.85691 33.6348 3.229 33.3636C3.65155 33.0546 4.02365 33.433 4.42097 33.1177C4.79306 32.8275 5.49941 33.2816 5.99764 32.796C6.149 32.651 6.62829 32.6258 6.79857 32.7519C7.27157 33.1114 7.65628 32.7456 8.07882 32.733C8.65273 32.714 9.22664 32.7266 9.79424 32.7266C10.3114 32.7266 10.9484 32.9159 11.3141 32.6825C11.989 32.2537 12.6575 32.6447 13.3323 32.4303C14.0071 32.2158 14.8143 32.4618 15.5459 32.3609C16.2649 32.26 16.9145 32.6636 17.6839 32.4303C18.4154 32.2095 19.2731 32.424 20.0741 32.3672C20.8309 32.3104 21.5877 32.1654 22.3382 32.0329C23.0887 31.8942 23.9022 32.3609 24.6212 31.7176C24.8104 31.5473 25.2834 31.6923 25.6303 31.6923C27.9196 31.6923 30.2089 31.6545 32.4982 31.7113C33.4253 31.7113 34.3397 31.9509 35.3614 32.1023Z" fill="#F97561"/>
<path d="M87.2589 143.591C86.7039 143.932 86.3823 144.127 86.0669 144.317C86.4895 144.5 86.9499 144.695 87.4796 144.922C87.3535 145.231 87.2778 145.427 87.1517 145.729C88.0535 146.6 86.7102 147.079 86.5967 147.949C85.739 147.508 84.9128 147.085 84.0488 146.644C84.0109 146.751 83.9479 146.94 83.8344 147.268C81.173 146.688 78.4422 146.442 75.6799 146.322C76.0267 146.253 76.3736 146.183 76.7205 146.12C76.7205 146.07 76.7141 146.013 76.7141 145.963C75.8312 145.963 74.9483 145.963 74.0591 145.963C73.9897 146.152 73.9203 146.347 73.8383 146.568C73.5924 146.568 73.3716 146.568 73.1446 146.568C71.94 146.568 70.7354 146.511 69.5372 146.587C68.4398 146.656 67.3551 146.871 66.0244 147.054C65.3937 147.35 64.6684 148.12 63.4008 147.886C63.2242 147.672 62.9404 147.331 62.5936 146.909C62.6377 146.82 62.7386 146.631 62.8332 146.436C62.3287 145.685 61.8052 144.897 61.3259 144.184C61.5908 143.352 61.8304 142.614 62.1268 141.687C62.9215 141.006 64.1324 140.779 65.2928 140.747C68.5533 140.659 71.8139 140.697 75.0807 140.734C75.661 140.741 76.2411 140.955 76.8277 141.062C77.4142 141.17 78.0638 140.823 78.5998 141.371C78.7133 141.491 79.035 141.403 79.2621 141.409C81.0721 141.479 84.5533 142.462 86.4895 143.44C86.6282 143.503 86.7985 143.503 87.2589 143.591Z" fill="#F97561"/>
<path d="M113.93 31.8689C113.671 31.9572 113.469 32.0265 113.116 32.1527C113.533 32.4617 113.873 32.7202 114.277 33.0167C114.163 33.1996 114.043 33.3762 113.911 33.5843C114.106 33.6789 114.327 33.7861 114.548 33.8933C114.548 34.0194 114.548 34.1267 114.548 34.2718C114.333 34.3727 114.1 34.4798 113.867 34.5933C113.987 34.7258 114.088 34.8456 114.195 34.9655C113.892 35.1231 113.608 35.2682 113.205 35.4763C110.783 35.3249 108.203 35.798 105.63 35.2871C105.851 35.3943 106.072 35.5016 106.299 35.6088C105.271 36.334 104.312 35.1232 103.303 35.5331C103.278 35.5772 103.227 35.6277 103.24 35.6592C103.259 35.7096 103.322 35.7411 103.354 35.7853C103.41 35.861 103.461 35.943 103.637 36.2205C102.824 36.0881 102.168 35.9808 101.417 35.861C101.607 36.0817 101.708 36.2016 101.815 36.3151C101.247 36.9395 100.755 36.0502 100.062 36.1763C100.213 36.3844 100.295 36.4917 100.434 36.6809C99.5507 36.9647 98.7056 37.3998 97.8164 37.4881C96.8073 37.589 96.3532 38.6423 95.4387 38.5918C95.2559 39.2918 95.0919 39.9099 94.9153 40.5721C94.4928 40.5721 94.1144 40.5721 93.6918 40.5721C93.5657 40.446 93.2503 40.2693 93.2629 40.118C93.3449 38.9954 92.1088 38.453 92.1593 37.28C92.2413 35.2808 93.0486 33.7293 94.9532 32.714C96.2776 32.0076 97.6713 31.522 99.1849 31.2886C100.055 31.1562 100.926 31.068 101.796 30.9481C102.666 30.8283 103.518 30.6013 104.407 30.6391C105.265 30.677 106.129 30.6454 106.986 30.6454C107.901 30.6454 108.834 30.5571 109.736 30.6643C110.966 30.8157 112.177 31.1121 113.388 31.3833C113.577 31.4211 113.722 31.6734 113.93 31.8689Z" fill="#F97561"/>
<path d="M75.2573 100.082C74.8095 100.082 74.4248 100.082 74.0843 100.082C73.9014 99.2935 73.7248 98.5619 73.5419 97.7672C73.2896 97.7672 73.0184 97.7672 72.7472 97.7672C72.1733 96.8149 73.277 96.0392 72.8986 95.2256C73.5103 94.3301 74.4185 94.1535 75.3267 93.9202C77.1556 93.4661 79.0413 93.4408 80.8765 93.1633C83.2037 92.8102 85.5056 92.8543 87.7949 92.9552C90.5572 93.0751 93.3322 93.4282 95.9936 94.2922C96.2395 94.3742 96.4413 94.6013 96.7377 94.8094C96.4729 94.8977 96.2774 94.9608 96.0629 95.0302C96.0755 95.1058 96.0629 95.2257 96.1071 95.2572C96.5044 95.541 96.9144 95.8122 97.3495 96.1086C97.2297 96.2536 97.1351 96.3671 97.0468 96.4806C97.1666 96.6951 97.2991 96.9222 97.4378 97.1681C97.1288 97.3132 96.8954 97.4204 96.6621 97.5276C96.7819 97.6663 96.8828 97.7798 96.9963 97.9059C96.2459 98.2339 95.6593 98.5808 94.7007 98.1267C93.761 97.679 92.5375 97.7609 91.4402 97.7231C89.8383 97.6663 88.2301 97.7231 86.6282 97.6979C85.9786 97.6852 85.3101 97.8618 84.6857 97.3952C84.4587 97.2249 83.9668 97.4077 83.5253 97.4393C83.7208 97.6663 83.8217 97.7798 84.0551 98.051C83.2415 98.051 82.5667 98.1015 81.8982 98.0384C81.3369 97.988 80.7882 97.8051 79.9873 97.6285C80.2774 97.9754 80.372 98.0889 80.5107 98.2592C79.6972 98.6186 78.9467 98.3159 77.9629 97.8933C78.2151 98.3096 78.3034 98.4546 78.4989 98.7826C77.8241 98.6438 77.2943 98.5303 76.5943 98.3789C76.8276 98.6564 76.9286 98.7763 77.1178 98.997C76.6889 99.0411 76.3231 99.0727 75.8816 99.1169C75.6924 99.4259 75.4654 99.7728 75.2573 100.082Z" fill="#F97561"/>
<path d="M55.4987 96.9726C55.2716 96.7456 55.1139 96.5879 54.8175 96.2915C54.7166 96.6194 54.6157 96.9474 54.5968 97.0042C53.4994 96.8402 52.7742 96.7266 51.784 96.5816C52.0552 96.9348 52.1435 97.0483 52.2949 97.2438C52.1057 97.3069 51.9417 97.3573 51.7714 97.4078C51.6327 97.1303 51.5191 96.8969 51.3299 96.5122C51.0966 96.8275 50.9326 97.0546 50.756 97.3005C49.6208 97.187 48.4289 97.0672 47.3189 96.96C47.2054 97.1492 47.1486 97.1996 47.1612 97.2249C47.1802 97.2753 47.2432 97.3068 47.2748 97.351C47.3315 97.4267 47.382 97.5087 47.5586 97.7735C46.5306 97.6159 45.6603 97.4835 44.5566 97.3132C44.8404 97.6474 44.935 97.761 45.0359 97.8808C44.3674 98.461 43.7493 97.805 42.9295 97.66C43.1187 97.9753 43.207 98.1267 43.3205 98.3096C42.5069 98.7258 41.7754 97.5969 40.9555 98.2339C41.1762 98.3411 41.3907 98.4483 41.7123 98.606C41.069 98.7447 40.514 98.8646 39.7068 99.0412C38.9247 98.6817 38.2941 97.9123 38.0986 96.7203C37.84 96.7014 37.5688 96.6825 37.1526 96.6509C37.2093 96.2473 37.2661 95.8563 37.3418 95.3202C37.3481 95.3266 37.222 95.1563 37.1147 95.0175C37.1967 94.8473 37.222 94.7338 37.2913 94.6581C38.2626 93.6364 39.3662 93.0247 40.842 92.8228C41.7691 92.6967 42.734 92.7535 43.6232 92.5201C45.635 91.9904 47.6595 92.2741 49.6713 92.2173C51.6705 92.1669 53.6823 92.1543 55.6815 92.2237C57.2141 92.2741 58.6393 92.7598 59.8818 93.7121C59.7367 93.8698 59.6232 93.9958 59.4971 94.1283C59.5034 94.7653 60.0079 94.8914 60.525 95.0806C60.4304 95.2067 60.3422 95.314 60.1782 95.5221C60.4305 95.6924 60.7016 95.8752 60.9034 96.014C60.7142 96.3671 60.5881 96.5942 60.4115 96.9159C60.1845 97.0294 59.8565 97.1996 59.5286 97.3636C58.2673 96.6509 56.8798 97.2375 55.4987 96.9726Z" fill="#F97561"/>
<path d="M81.974 2.95923C81.8983 3.46376 81.8541 3.77906 81.8037 4.11332C81.1667 3.6214 80.618 4.56737 79.8486 3.85472C79.8865 3.97455 79.8234 3.7791 79.7414 3.52053C79.3756 3.52053 78.9909 3.52053 78.5999 3.52053C78.4296 3.72865 78.2278 3.97456 77.9377 4.33403C77.7989 3.94302 77.7296 3.74751 77.6287 3.4574C77.3449 3.47001 77.0359 3.48899 76.6259 3.51422C76.834 3.74756 76.9413 3.86733 77.1305 4.08175C76.6322 4.1259 76.2034 4.16378 75.7934 4.20162C75.7493 4.2773 75.6988 4.32775 75.7115 4.35297C75.7304 4.40343 75.7934 4.43493 75.825 4.47908C75.8817 4.55476 75.9322 4.63677 76.0015 4.74398C74.5258 5.22329 73.1573 4.09443 71.5743 4.61788C71.6626 4.74401 71.7572 4.87642 71.9338 5.13499C71.4608 5.13499 70.9121 5.29901 70.6661 5.09719C70.231 4.74402 69.7517 4.74395 69.3922 4.87009C67.9038 5.38092 66.2767 5.16652 64.8135 5.84133C64.4477 6.01161 63.8865 5.77199 63.3441 5.71523C63.0225 6.2513 62.6567 6.44681 61.5278 6.50988C61.8116 6.18193 62.026 5.92961 62.3161 5.58905C61.9314 5.58905 61.6665 5.58905 61.3386 5.58905C61.2692 5.22327 61.2124 4.91425 61.1494 4.57369C60.8403 4.52324 60.525 4.4791 60.2034 4.42865C60.3547 3.79168 60.4872 3.21778 60.6448 2.54928C61.4584 1.95645 62.5368 1.66637 63.5648 1.23121C64.2459 0.94741 65.0721 1.4456 65.5893 0.720333C66.7434 0.606814 67.9038 0.543787 69.0516 0.367201C72.9996 -0.231932 76.9728 0.171645 80.9333 0.00136529C81.5892 -0.030168 82.2325 0.499622 82.8821 0.0329294C83.4623 0.745581 84.3579 0.152759 85.0642 0.587918C85.6255 0.934784 86.3823 0.966274 87.1958 1.17439C86.7985 1.35729 86.5652 1.47084 86.2814 1.60328C86.4895 2.32224 87.2968 2.2213 87.6688 2.66907C87.467 2.75105 87.2715 2.83304 87.076 2.90872C87.1958 3.12946 87.3157 3.34391 87.4418 3.57095C86.8238 3.97458 86.231 4.10703 85.5751 4.21425C84.9381 4.32146 84.3831 3.64035 83.784 4.14488C83.2479 3.7854 82.7118 3.43853 81.974 2.95923Z" fill="#F97561"/>
<path d="M68.5281 20.6242C68.2758 21.0341 68.1623 21.217 68.0425 21.4062C68.4524 21.6837 68.7993 21.917 69.1524 22.1566C69.0578 22.2702 68.9885 22.3522 68.875 22.4972C68.9569 22.6738 69.0768 22.8756 69.1398 23.1026C69.184 23.2603 69.1461 23.4369 69.1461 23.7081C68.6605 23.973 68.1434 24.2505 67.847 24.4082C66.9766 24.5532 66.6424 23.5252 65.9298 24.055C65.3243 23.4054 64.7567 24.0802 64.1765 24.0928C62.5746 24.1307 60.9664 24.1433 59.3708 24.0865C58.7906 24.0676 58.223 23.8153 57.6176 23.6576C57.5167 23.9477 57.4473 24.1495 57.3842 24.345C56.9239 24.837 56.5139 23.9478 55.9337 24.3388C55.5364 24.6037 54.8301 24.4838 54.2751 24.427C53.7642 24.3766 53.266 24.1811 52.5533 23.9919C52.7614 24.3577 52.8434 24.509 53.039 24.8559C51.7335 24.5595 50.5415 25.1145 49.3243 24.4838C48.8387 24.2316 48.1198 24.4397 47.4891 24.6919C48.0567 24.7487 48.6243 24.8118 49.1919 24.8685C49.1919 24.9253 49.1856 24.9758 49.1856 25.0325C48.4729 25.0325 47.7666 25.0325 46.8458 25.0325C46.7008 24.8748 46.4107 24.5595 46.1836 24.3072C46.3034 24.0234 46.3918 23.7901 46.5116 23.5C46.2341 23.4432 46.0764 23.4117 45.8431 23.3612C45.7989 23.09 45.7421 22.7747 45.6917 22.472C45.4773 22.3963 45.2818 22.3269 45.08 22.2576C45.08 21.999 45.08 21.772 45.08 21.3999C46.2088 21.362 47.363 21.3305 48.5234 21.2926C48.5234 21.2106 48.5234 21.135 48.5234 21.053C47.5206 21.053 46.5179 21.053 45.6034 21.053C45.1683 20.416 45.7737 20.0061 45.9124 20.025C46.6314 20.1511 47.1611 19.6277 47.8296 19.6088C50.9893 19.5205 54.1489 19.3818 57.3086 19.2808C58.1663 19.2556 59.0303 19.243 59.8817 19.2872C61.6664 19.3755 63.4639 19.4196 65.2297 19.6592C66.3145 19.8106 67.3614 20.271 68.5281 20.6242Z" fill="#F97561"/>
<path d="M21.9788 5.99272C21.2346 6.33959 20.667 6.60448 20.0931 6.87567C19.8913 6.67385 19.6894 6.47206 19.4056 6.18826C19.33 6.40269 19.2732 6.57298 19.1786 6.83155C18.6993 6.83155 18.1632 6.83155 17.6209 6.83155C17.5767 6.65497 17.5326 6.50356 17.4632 6.23238C17.1352 6.33328 16.9965 6.64861 16.7064 6.86304C16.3784 6.86304 15.9937 6.86304 15.5775 6.86304C15.5144 6.68645 15.4451 6.48468 15.3126 6.1189C15.2054 6.4027 15.1423 6.56661 15.073 6.76211C14.209 7.13421 13.263 7.31714 12.2476 7.2793C11.7809 7.26038 11.3079 7.4748 10.8286 7.58832C10.7214 7.48742 10.6016 7.3802 10.488 7.27299C10.3556 7.38651 10.2295 7.50002 10.0592 7.65769C9.64295 7.44326 9.2204 7.22256 8.89245 7.05858C8.369 7.15318 7.90861 7.23513 7.37255 7.33604C7.29687 7.09008 7.23381 6.8946 7.16443 6.65495C6.19952 6.59188 5.53732 5.93598 4.79944 5.38731C4.94449 5.24225 5.06432 5.12239 5.31028 4.87643C5.72652 4.87643 6.27518 4.87643 6.81756 4.87643C6.82386 4.81336 6.83648 4.75034 6.84279 4.68096C6.2815 4.51699 5.72021 4.35304 5.03278 4.15123C5.31658 3.84851 5.46163 3.6908 5.66345 3.47637C7.09506 3.47637 8.57712 3.50158 10.0592 3.46374C10.8223 3.44482 11.6232 3.66554 12.3296 3.13579C12.7017 2.85829 13.099 3.64034 13.4522 3.23671C13.8558 2.77633 14.1207 3.72864 14.581 3.24303C14.7702 3.04752 15.3946 3.29352 15.8172 3.2809C16.3785 3.26198 16.9334 3.13579 17.4884 3.13579C21.2157 3.12317 24.9429 3.19889 28.6638 3.09799C30.4486 3.04753 32.2208 2.66913 34.0245 2.78265C34.775 2.25289 35.6011 2.49882 36.4525 2.42944C36.1498 3.45112 35.2669 2.9529 34.3776 3.38175C35.3993 3.43851 36.0489 3.47642 36.9886 3.52687C36.5597 3.76022 36.339 3.88002 36.0174 4.05661C36.2003 4.30257 36.3768 4.50434 36.5156 4.72508C36.648 4.92689 36.7426 5.15396 36.9886 5.62065C36.5093 5.37469 36.2949 5.2675 35.9669 5.09722C35.8534 5.3621 35.7651 5.58909 35.6642 5.82874C35.4939 5.72783 35.3173 5.63329 35.0777 5.48823C34.9326 5.58914 34.756 5.70893 34.5668 5.84137C34.4722 5.75307 34.3524 5.64587 34.2326 5.53866C34.0308 5.74047 33.829 5.94228 33.6019 6.16932C33.2488 5.98643 32.8893 5.80352 32.4919 5.60171C32.41 5.7783 32.3028 5.99277 32.1956 6.2072C32.0694 6.21351 31.9559 6.21976 31.7982 6.22606C31.7352 6.04317 31.6658 5.84766 31.5775 5.5954C31.3252 5.5954 31.0603 5.5954 30.7324 5.5954C30.6883 5.72784 30.6189 5.92969 30.5054 6.26394C30.026 6.15042 29.5278 6.03687 29.0296 5.91704C28.9476 6.11886 28.8719 6.32067 28.7458 6.6297C28.4872 6.23238 28.2665 5.89817 28.0521 5.57654C27.8376 5.90448 27.6169 6.2576 27.434 6.5414C26.5322 6.71798 26.2105 6.2513 26.0339 5.44404C25.7628 5.82244 25.5609 6.09997 25.2708 6.5036C24.9366 6.5036 24.4384 6.5036 23.8582 6.5036C23.8203 6.39008 23.7509 6.19457 23.6689 5.94861C23.486 5.94861 23.2905 5.94861 23.0067 5.94861C23.177 6.15042 23.2779 6.2639 23.3788 6.38373C23.114 6.75582 22.6977 6.62969 21.9788 5.99272Z" fill="#F97561"/>
<path d="M105.391 116.586C105.208 116.965 105.031 117.337 104.773 117.873C104.653 117.526 104.602 117.375 104.501 117.072C104.167 116.876 103.41 117.072 103.227 116.454C103.133 116.145 103.322 115.747 103.391 115.331C103.089 115.192 102.66 114.997 102.105 114.745C102.193 113.868 102.281 112.947 102.382 111.881C102.408 111.907 102.294 111.781 102.042 111.497C102.464 111.572 102.729 111.623 103.101 111.692C103.139 111.389 103.183 110.992 103.253 110.406C104.079 110.053 104.987 109.605 105.933 109.264C106.898 108.924 108.02 108.955 108.916 108.57C109.944 108.129 111.085 108.886 111.968 108.041C112.082 108.148 112.208 108.261 112.328 108.375C113.551 107.738 114.863 108.148 116.434 107.984C116.15 108.299 116.043 108.425 115.935 108.545C116.043 108.665 116.15 108.785 116.383 109.05C115.324 108.98 114.384 109.327 113.507 108.703C112.523 109.201 111.495 109.491 110.367 109.409C109.042 109.308 107.819 109.731 106.406 110.298C106.866 110.645 107.182 110.885 107.529 111.144C107.598 110.929 107.667 110.734 107.737 110.532C107.838 110.5 107.938 110.45 108.039 110.431C108.79 110.305 109.547 110.595 110.329 110.128C110.89 109.794 111.773 110.336 112.397 109.743C112.429 109.712 112.511 109.743 112.568 109.737C114.182 109.624 115.797 109.485 117.411 109.409C117.884 109.39 118.439 109.189 118.836 109.706C118.906 109.794 119.19 109.794 119.322 109.731C120.899 109.012 122.557 109.573 124.172 109.397C124.342 109.378 124.512 109.397 124.695 109.397C124.891 109.598 125.093 109.8 125.351 110.065C126.026 110.065 126.758 110.065 127.376 110.065C127.634 110.292 127.798 110.444 128.013 110.633C127.767 110.721 127.565 110.79 127.262 110.891C127.628 111.125 127.943 111.333 128.404 111.635C127.779 112.09 127.224 112.487 126.707 112.859C125.774 112.569 125.011 111.56 123.976 112.474C123.711 111.85 123.465 111.194 122.513 111.541C122.494 111.673 122.469 111.831 122.444 111.989C122.683 112.102 122.904 112.209 123.156 112.329C123.018 112.399 122.923 112.455 122.822 112.487C122.204 112.701 121.718 111.673 120.981 112.367C120.52 112.796 119.751 112.512 119.095 112.758C118.262 113.073 117.216 112.834 115.866 112.834C116.49 112.544 116.717 112.436 117.171 112.222C116.402 112.222 115.86 112.222 115.305 112.222C115.406 112.493 115.506 112.752 115.645 113.118C114.8 113.118 114.069 113.118 113.577 113.118C113.135 113.345 112.908 113.458 112.523 113.66C112.725 113.357 113.4 112.701 113.507 112.645C112.845 112.146 112.416 112.872 111.786 112.928C111.912 113.086 112 113.2 112.183 113.433C111.426 113.584 110.72 113.742 110.007 113.862C109.433 113.956 109.004 114.215 108.657 114.789C108.348 114.7 108.027 114.606 107.642 114.492C106.854 115.098 106.072 115.703 105.29 116.302C105.327 116.41 105.359 116.498 105.391 116.586Z" fill="#F97561"/>
<path d="M31.1045 72.7929C31.3 72.8875 31.4955 72.9884 31.691 73.083C31.6658 73.1524 31.6343 73.2217 31.6091 73.2974C31.0478 73.2974 30.354 73.0893 29.963 73.3479C29.4144 73.7074 29.0927 73.2154 28.6702 73.2974C28.1404 73.3983 27.617 73.1966 27.043 73.5308C26.5133 73.8335 25.7439 73.8146 25.2583 73.3605C24.7222 73.4614 24.2429 73.5308 23.7762 73.6443C23.3537 73.7452 22.95 74.357 22.5212 73.6569C22.1869 74.2182 21.8148 73.9281 21.449 73.701C21.058 74.2182 20.4967 73.9281 20.0174 73.9723C19.5633 74.0164 19.0967 73.9407 18.6426 73.9912C17.9993 74.0669 17.3245 74.1173 16.7317 74.3443C15.8929 74.666 15.0226 74.6723 14.1522 74.7858C15.1109 75.1327 16.1641 75.1894 17.0344 74.9183C17.6524 74.7227 18.2263 74.748 18.8129 74.6723C19.6832 74.5588 20.503 74.2497 21.4238 74.2876C22.2311 74.3191 23.1266 74.666 23.8771 74.029C24.2492 74.3443 24.5141 74.3885 24.9871 74.0353C25.2898 73.8083 26.0024 73.947 26.4313 74.1362C26.7845 74.2939 27.1566 73.8651 27.4719 74.3065C27.5665 74.439 28.0584 74.4201 28.2918 74.3128C29.5279 73.7326 30.7703 73.9344 32.0316 74.1677C32.2334 74.2056 32.4731 73.9786 32.6812 73.9975C34.0813 74.1299 35.5003 73.6948 36.8877 74.1993C37.1085 74.2813 37.4427 74.0101 37.7265 73.9975C38.4707 73.966 39.2212 74.029 39.9591 73.9786C41.0249 73.9029 42.034 74.0858 43.2448 74.6092C42.4691 74.6534 41.9268 74.6786 41.3781 74.7102C41.3592 74.7669 41.3402 74.8173 41.3213 74.8741C41.4664 74.9245 41.6114 74.9813 41.7628 75.0129C41.9204 75.0444 42.0844 75.0507 42.2862 75.0759C42.1097 75.4291 41.9583 75.7381 41.8069 76.0472C41.6682 75.921 41.5421 75.8075 41.3592 75.6498C41.1447 75.7634 40.924 75.8832 40.5582 76.0787C40.6402 75.5804 40.7096 75.1895 40.7915 74.6975C40.7537 74.6597 40.5897 74.4957 40.451 74.357C39.6942 74.5083 38.9563 74.6597 38.1806 74.811C38.3446 74.9876 38.4896 75.139 38.6221 75.284C38.8932 75.1768 39.1581 75.0696 39.3978 74.975C39.896 75.8075 39.0131 75.612 38.8113 75.9084C38.9437 76.1796 39.0509 76.4003 39.2338 76.7787C38.9374 76.6967 38.6031 76.6715 38.5905 76.5895C38.4518 75.8075 38.004 75.5741 37.2724 75.757C37.1968 75.9588 37.1211 76.1544 36.9508 76.5769C36.7048 76.0093 36.5283 75.6057 36.3138 75.1075C36.8184 75.0318 37.1337 74.9877 37.449 74.9435C37.4553 74.8741 37.4553 74.8047 37.4616 74.7353C36.9508 74.7038 36.4463 74.6786 35.8156 74.6407C35.8787 74.8299 35.9165 74.9434 35.9985 75.1957C35.9165 75.3849 35.7841 75.6939 35.6264 76.0597C34.8002 75.9588 33.9173 76.249 32.9271 75.7066C33.0911 76.1102 33.192 76.3688 33.3182 76.6841C33.0344 76.6841 32.7695 76.6841 32.4226 76.6841C32.2523 76.1859 32.0631 75.6309 31.8613 75.0507C31.7352 75.0507 31.5775 75.0507 31.3505 75.0507C31.4829 75.3597 31.5901 75.6183 31.7037 75.8895C31.0541 76.0535 30.4928 76.1922 29.7864 76.3688C29.6036 76.2111 29.3198 75.9715 29.036 75.7318C28.8215 76.1796 28.6197 76.6147 28.3927 77.094C28.2728 76.8481 28.1656 76.6337 28.0584 76.4066C27.5665 77.3526 26.7908 77.567 25.7943 77.3463C25.9583 77.0625 26.0907 76.8481 26.3115 76.4697C25.7313 76.4381 25.3087 76.4129 24.8168 76.3814C24.8168 76.7219 24.8168 76.9869 24.8168 77.3842C23.4167 77.5608 22.0671 77.7247 20.6986 77.895C20.6418 78.0653 20.5724 78.2671 20.4715 78.5635C19.4877 77.8319 18.3903 78.2104 17.3371 78.0968C17.2362 77.8824 17.129 77.668 16.9902 77.3842C16.8893 77.6617 16.8137 77.8571 16.7443 78.059C16.5236 77.9454 16.3028 77.8382 15.9433 77.6616C15.874 78.059 15.8235 78.3617 15.8046 78.4752C15.2307 79.1185 14.7577 79.6483 14.2405 80.2222C14.1396 79.951 14.064 79.7492 13.982 79.5221C13.7486 79.8627 13.5279 80.1969 13.2882 80.5375C12.7648 79.8122 12.3548 79.1185 13.1495 78.3869C12.9224 78.1473 12.7711 77.9896 12.6008 77.813C12.4305 77.9139 12.2602 78.0085 11.9827 78.1725C11.8125 78.0275 11.6107 77.8509 11.3332 77.6175C11.4215 76.5769 11.0998 75.448 11.762 74.4453C13.0801 73.5623 14.6568 73.6822 16.0947 73.2722C17.6461 72.8308 19.2102 72.9947 20.7742 72.9506C21.1652 72.938 21.5121 72.9506 21.8653 72.6352C22.0545 72.465 22.5464 72.5406 22.8617 72.6289C23.0762 72.6857 23.2149 73.0956 23.4735 72.6857C24.2366 72.9442 24.9618 72.4839 25.7376 72.5785C26.6394 72.6857 27.5665 72.6037 28.4873 72.6037C29.345 72.6037 30.209 72.6037 31.0667 72.6037C31.0856 72.6668 31.0982 72.7298 31.1045 72.7929Z" fill="#F97561"/>
<path d="M61.5404 50.0762C61.5404 49.6285 61.5404 49.4708 61.5404 49.2879C61.1936 49.2374 60.8783 49.187 60.4242 49.1176C60.6386 48.7518 60.7963 48.4806 60.8467 48.3986C61.8558 47.5788 62.7702 49.3888 63.4261 48.2788C64.1325 48.3798 64.6623 48.5122 65.1857 48.5122C69.5373 48.5311 73.8889 48.4806 78.2405 48.5437C79.9685 48.5689 81.6902 48.8212 83.5317 48.9789C83.5885 49.0356 83.7462 49.1933 83.9039 49.3509C83.8408 49.4203 83.7714 49.5465 83.7083 49.5528C82.3335 49.5654 80.9587 49.5591 79.5838 49.5654C79.3189 49.5654 79.0477 49.5969 78.7829 49.7105C79.4261 49.9817 80.0946 49.887 80.7505 49.8996C81.438 49.9185 82.1317 49.8429 82.8128 49.9186C83.4309 49.9879 84.03 50.2024 84.8246 50.3979C84.421 50.5429 84.2192 50.6123 83.8534 50.7448C84.175 50.8772 84.3705 50.9654 84.6102 51.0663C84.6165 51.2745 84.6291 51.4952 84.6417 51.7349C84.339 51.9241 84.0552 52.189 83.721 52.2899C83.4056 52.3845 83.0398 52.3403 82.6993 52.3025C82.0055 52.2331 81.2614 52.5358 80.6307 52.0187C79.9937 52.6052 79.2243 52.2394 78.518 52.2962C77.7801 52.3529 77.0296 52.3088 76.1719 52.3088C76.0205 52.5169 75.8187 52.7944 75.5917 53.0971C75.1565 52.9647 74.8033 52.8638 74.2421 52.6935C74.2042 52.7187 73.9772 52.9836 73.7627 52.971C73.1132 52.9331 72.4573 53.1476 71.7951 52.7502C71.1203 52.3466 70.3256 52.826 69.5436 52.7061C68.2129 52.5043 66.8254 52.6493 65.4947 52.6493C65.3938 52.9331 65.3244 53.1286 65.2424 53.3683C65.0596 53.3178 64.8704 53.3242 64.7632 53.2296C64.3532 52.8512 63.9937 52.3529 63.3063 52.8196C63.5523 52.9331 63.773 53.0404 64.0568 53.1791C63.1676 53.5828 62.4297 53.2548 61.6351 52.8953C61.6161 52.6493 61.5909 52.3781 61.5657 52.107C61.3639 51.9051 61.1621 51.7033 60.9287 51.47C61.0233 51.3565 61.1179 51.243 61.2629 51.0601C60.9161 50.8394 60.5692 50.6186 60.1404 50.3411C60.317 50.0763 60.4998 49.8114 60.6701 49.5654C60.9098 49.7231 61.1368 49.8492 61.5404 50.0762Z" fill="#F97561"/>
<path d="M33.3118 54.9513C33.1163 55.027 32.9145 55.1027 32.6181 55.2162C32.8262 55.4369 32.9901 55.6198 33.1541 55.7964C33.3244 55.6261 33.4064 55.5441 33.5262 55.4243C33.7154 55.7901 33.8983 56.1369 34.0623 56.4586C33.8983 56.7739 33.7532 57.0577 33.5956 57.3793C33.1415 57.5181 32.6307 57.7956 32.1198 57.7956C30.7828 57.7893 29.5341 58.0416 28.2665 58.4704C27.5727 58.7038 26.7213 58.3948 26.015 58.8551C24.6591 58.6344 23.3851 59.3029 22.0355 59.2146C21.7075 59.1957 21.2913 59.4984 21.0453 59.3849C20.5723 59.1705 20.3201 59.6813 19.8849 59.5678C19.5444 59.4795 19.0777 59.3912 18.8065 59.8263C17.3686 59.7759 16.0631 60.4444 14.6504 60.6146C13.4521 60.7534 12.298 61.2579 11.2763 61.5606C10.9484 62.021 10.7024 62.3616 10.4438 62.7337C10.2231 62.6012 10.0339 62.5508 9.95824 62.431C9.64922 61.939 9.37803 61.422 9.08792 60.9111C8.86719 60.9111 8.64016 60.9111 8.26806 60.9111C8.32482 60.4886 8.38157 60.0975 8.45094 59.5552C8.46356 59.5678 8.32482 59.4038 8.23022 59.2903C8.5834 58.1551 9.59875 58.01 10.3619 57.8839C11.6989 57.6569 12.9728 57.1901 14.3603 57.0766C15.8676 56.9568 17.3749 56.6226 18.8822 56.3766C19.7588 56.2315 20.6291 56.1054 21.4994 56.1306C21.985 56.1432 22.3256 55.8595 22.7355 55.7838C23.2338 55.6955 23.7635 55.7649 24.2807 55.7586C24.7347 55.7586 25.4726 55.9163 25.5987 55.7144C25.9204 55.1721 26.4123 55.9856 26.6456 55.4685C26.6772 55.3928 26.9547 55.4243 27.125 55.4117C27.9448 55.336 28.7458 55.481 29.5782 55.1153C30.2909 54.8062 31.2054 55.2351 32.0126 54.7558C32.3406 54.5603 32.8829 54.7243 33.3244 54.7243C33.3118 54.7999 33.3118 54.8756 33.3118 54.9513Z" fill="#F97561"/>
<path d="M113.047 93.2074C112.7 93.2074 112.315 93.2074 111.867 93.2074C111.867 92.8164 111.867 92.4317 111.867 92.0785C111.653 91.8767 111.508 91.6939 111.319 91.574C111.193 91.492 111.01 91.492 110.814 91.4478C110.814 90.7667 110.814 90.0919 110.814 89.3099C111.382 87.9603 112.593 87.1215 113.879 86.371C115.538 85.4061 117.304 84.624 119.12 84.1006C120.451 83.7222 121.832 83.3817 123.245 83.1988C124.411 83.0474 125.591 83.1105 126.713 82.8771C127.704 82.669 128.643 82.5555 129.659 82.6122C129.659 82.8519 129.659 83.0096 129.659 83.2871C128.977 83.2871 128.315 83.2871 127.659 83.2871C127.659 83.3691 127.653 83.4511 127.653 83.533C128.404 83.533 129.148 83.533 129.923 83.533C129.816 84.0123 129.816 84.0123 129.684 84.1511C129.923 84.2646 130.157 84.3781 130.516 84.5484C130.163 84.9709 129.848 85.343 129.684 85.5385C128.385 85.9358 127.224 85.8854 126.139 86.3079C125.427 86.5854 124.556 86.0809 123.907 86.7242C121.422 87.0332 119.246 88.1747 117.039 89.2405C116.465 89.518 115.948 89.9153 115.374 90.1991C114.27 90.7415 113.57 91.5551 113.438 92.8164C113.419 92.9362 113.205 93.0498 113.047 93.2074Z" fill="#F97561"/>
<path d="M140.998 142.097C141.023 142.343 141.036 142.45 141.061 142.683C140.172 142.942 139.201 142.658 138.299 143.055C138.721 143.081 139.15 143.112 139.573 143.125C140.02 143.137 140.474 143.125 140.878 143.125C141.08 143.333 141.225 143.49 141.408 143.68C141.175 143.762 140.973 143.837 140.613 143.963C140.929 144.096 141.13 144.184 141.458 144.323C141.338 144.701 141.219 145.092 141.093 145.496C139.655 145.672 138.349 145.837 136.968 146.007C136.955 146.076 136.924 146.234 136.861 146.53C136.167 146.429 135.442 146.278 134.717 146.234C133.916 146.183 133.115 146.221 132.295 146.221C132.061 146.448 131.815 146.682 131.569 146.909C130.97 146.946 130.434 146.625 129.766 146.852C129.312 147.003 128.675 146.625 128.006 146.751C128.214 146.858 128.429 146.972 128.845 147.186C127.893 147.186 127.161 147.186 126.512 147.186C126.158 147.514 125.881 147.773 125.521 148.113C125.156 147.672 124.878 147.325 124.632 147.029C124.481 146.606 124.336 146.202 124.191 145.799C124.292 145.635 124.393 145.471 124.544 145.225C124.077 145.225 123.699 145.225 123.352 145.225C122.917 144.619 123.213 144.228 123.623 143.863C124.039 143.818 124.462 143.768 124.884 143.724C124.884 143.661 124.884 143.591 124.884 143.528C124.456 143.497 124.027 143.459 123.541 143.421C123.541 143.232 123.472 143.018 123.554 142.929C124.096 142.324 124.771 142.071 125.603 142.078C130.687 142.109 135.789 142.097 140.998 142.097Z" fill="#F97561"/>
<path d="M62.89 77.6805C62.9846 76.9994 63.0603 76.4633 63.1738 75.6813C63.2432 75.6308 63.5459 75.3976 64.0441 75.0255C66.5479 74.357 69.3796 74.7858 72.186 74.6849C72.7852 74.666 73.3464 74.729 73.9519 74.9686C74.5447 75.202 75.3204 74.9308 75.989 75.0443C76.5439 75.1389 77.0485 75.5173 77.6035 75.6939C78.1647 75.8705 78.8017 75.8642 79.3252 76.1039C79.8928 76.3688 80.3721 76.8228 80.9018 77.2075C80.7378 77.3715 80.6558 77.4535 80.6117 77.4976C80.9207 78.1157 81.2235 78.7211 81.5325 79.3329C81.2613 79.5978 80.9775 79.8752 80.5991 80.241C79.2432 79.8437 77.7233 79.7239 76.4052 78.822C75.8187 79.0364 75.2006 79.4905 74.488 78.8473C74.3492 78.7211 73.8699 78.9103 73.5861 79.0302C73.1131 79.2383 72.7221 79.2509 72.413 78.7338C71.6373 79.0806 70.9562 79.2257 70.0607 78.9292C69.1399 78.6265 68.0426 78.8599 66.9893 78.8599C66.3839 79.3013 65.728 79.7743 65.0343 80.2852C64.4919 79.7807 63.8676 79.4905 63.9685 78.6202C64 78.368 63.7036 78.0526 63.5018 77.8066C63.4135 77.712 63.1864 77.7373 62.89 77.6805Z" fill="#F97561"/>
<path d="M114.869 65.5339C114.731 65.7294 114.611 65.9059 114.409 66.2023C114.731 66.3348 114.958 66.4294 115.21 66.5303C115.21 67.0159 115.21 67.5141 115.21 68.0502C114.844 68.2772 114.478 68.5043 114.094 68.7439C113.23 68.4601 112.341 68.1764 111.319 67.8421C111.01 67.9493 110.568 68.498 110.001 67.9052C109.881 67.779 109.585 67.7979 109.37 67.7916C105.763 67.6403 102.155 67.4952 98.4218 67.3439C97.8352 66.4231 97.5829 65.1491 96.145 64.1716C97.2045 64.0581 97.7722 63.995 98.3398 63.9319C98.3461 63.8752 98.3524 63.8184 98.3587 63.7617C97.9172 63.6986 97.4694 63.6292 96.8892 63.5472C97.0973 63.1941 97.2613 62.9292 97.4631 62.5886C98.0433 62.7841 98.6803 62.3427 99.2101 62.9166C99.2921 63.0049 99.5317 62.9608 99.6957 62.9671C101.083 63.0175 102.464 63.0932 103.852 63.2256C105.34 63.3707 106.86 63.4653 108.323 63.7112C110.556 64.0896 112.864 64.3734 114.869 65.5339Z" fill="#F97561"/>
<path d="M56.5959 63.6103C56.3941 63.8752 56.1859 64.1464 56.0283 64.3482C55.1075 64.3482 54.3065 64.3482 53.5371 64.3482C52.2884 63.5914 52.4335 62.0463 51.3235 60.93C52.0488 60.93 52.4776 60.93 52.9002 60.93C52.9128 60.848 52.9254 60.7723 52.938 60.6903C52.6668 60.6399 52.3956 60.5832 51.9983 60.5075C51.9794 60.2678 51.9542 59.9588 51.9226 59.5362C53.8777 59.5362 55.7823 59.3281 57.6112 59.6056C58.8347 59.7948 60.0519 59.7254 61.2502 59.902C62.5178 60.0849 63.7602 60.4444 65.0153 60.7408C66.0874 60.9931 67.1595 61.2705 68.2317 61.794C68.074 62.0652 67.9668 62.2481 67.8532 62.4373C68.1497 62.6391 68.4839 62.8725 68.8245 63.0995C68.6857 63.2572 68.5785 63.377 68.4839 63.4779C68.61 63.6545 68.7362 63.8247 68.9317 64.0959C68.5281 64.3987 68.1749 64.6699 67.6199 65.0861C67.2226 64.96 66.5667 64.7581 65.9045 64.55C64.454 64.1148 62.8016 64.8338 61.4899 63.768C61.1619 63.85 60.8529 64.0203 60.5691 63.9825C60.1465 63.932 59.7429 63.295 59.314 63.9825C58.9356 63.3896 58.6014 63.9068 58.2167 63.9572C57.7248 64.0203 57.1887 63.7554 56.5959 63.6103Z" fill="#F97561"/>
<path d="M21.695 102.749C21.468 102.831 21.2662 102.901 20.9445 103.014C22.2248 103.323 22.0293 104.44 22.4266 105.215C22.0986 105.72 21.8022 106.161 21.468 106.678C20.8689 106.59 20.4274 106.212 20.1247 105.65C19.9985 105.758 19.8787 105.871 19.803 105.941C19.185 105.795 18.6048 105.657 17.8984 105.486C17.7786 105.278 17.5831 104.95 17.3308 104.515C16.5677 104.767 15.7605 105.02 14.9595 105.304C14.2153 105.568 13.4838 105.878 12.7396 106.161C12.7396 106.262 12.7396 106.376 12.7396 106.502C12.9729 106.615 13.2063 106.723 13.4774 106.855C13.4018 107.032 13.3135 107.309 13.2819 107.303C12.6513 107.177 12.8594 107.851 12.563 108.034C12.4873 107.952 12.4053 107.87 12.2855 107.744C12.0837 107.845 11.8756 107.952 11.5476 108.123C11.4404 107.858 11.3458 107.631 11.2323 107.36C11.1061 107.46 10.9926 107.549 10.7467 107.744C10.5386 107.246 10.425 106.723 10.1349 106.332C9.8259 105.922 9.42227 105.606 9.68084 105.032C9.23938 104.957 8.92405 104.9 8.5961 104.843C8.99342 103.689 8.99343 103.689 8.54565 102.68C9.20785 102.295 9.86373 101.627 10.5764 101.57C11.4089 101.501 12.2098 100.788 13.2 101.337C13.0171 101.621 12.8783 101.848 12.708 102.119C12.2098 102.119 11.7179 102.119 11.2197 102.119C10.9863 102.415 10.7845 102.667 10.5953 102.901C10.7404 103.052 10.8034 103.121 10.8728 103.191C10.9548 103.109 11.0305 102.964 11.1188 102.957C12.6828 102.806 14.2532 102.655 15.8172 102.548C15.9938 102.535 16.1893 102.737 16.3407 102.819C16.6182 102.674 16.902 102.529 17.1984 102.377C16.1325 101.652 15.01 101.665 13.8117 102.112C13.8117 101.829 13.8117 101.557 13.8117 101.286C13.8495 101.248 13.8937 101.173 13.9315 101.173C15.3064 101.16 16.7695 100.864 18.0309 101.242C19.2417 101.608 20.7301 101.557 21.695 102.749Z" fill="#F97561"/>
<path d="M29.862 153.19C29.6287 153.051 29.162 152.944 29.0232 152.673C28.5755 151.784 28.1971 150.844 27.8881 149.892C27.7871 149.583 27.9763 149.173 28.0583 148.668C28.0836 148.7 27.9827 148.58 27.8313 148.416C28.2412 148.151 28.6449 147.892 29.0422 147.634C33.0848 147.634 37.1273 147.634 41.1446 147.634C41.3149 147.817 41.46 147.974 41.6744 148.201C41.2771 148.258 40.9618 148.309 40.4824 148.378C41.069 148.618 41.5167 148.807 42.3051 149.135C41.605 149.274 41.2645 149.343 40.9239 149.412C40.9239 149.463 40.9239 149.519 40.9239 149.57C41.2266 149.62 41.5293 149.665 41.8384 149.715C42.1411 150.264 41.9204 150.667 41.4663 151.008C38.4895 150.976 35.538 151.626 32.5487 151.386C32.4352 151.38 32.3216 151.386 32.2081 151.386C31.4829 151.948 30.745 152.515 29.862 153.19Z" fill="#F97561"/>
<path d="M129.047 46.6517C129.917 46.5256 130.655 46.3427 131.405 46.3238C132.093 46.3049 132.736 46.04 133.512 46.4058C134.155 46.7085 135.057 46.4688 135.864 46.3049C135.297 46.0968 134.729 45.8823 134.08 45.6426C134.767 45.2832 135.265 45.5039 135.845 45.7499C136.306 45.9454 136.974 45.6238 137.233 46.4058C136.905 46.4499 136.59 46.5004 136.199 46.5572C136.35 46.7337 136.426 46.8851 136.545 46.9545C136.911 47.1689 137.296 47.3518 137.681 47.5473C137.832 47.4211 137.958 47.3202 138.097 47.2067C138.482 47.3328 138.601 47.7113 138.589 48.7582C137.151 48.8969 136.463 48.7266 134.874 47.8122C134.679 47.9257 134.452 48.0581 134.193 48.2158C133.979 48.096 133.745 47.9698 133.443 47.8059C133.291 47.9194 133.121 48.0518 132.944 48.1779C132.497 48.077 132.03 47.9761 131.563 47.8752C131.254 48.5626 130.617 47.3518 130.195 48.1338C130.037 48.4239 129.318 48.405 128.832 48.5311C128.731 48.4365 128.605 48.323 128.46 48.1842C128.404 48.3419 128.347 48.4869 128.227 48.796C127.83 48.9473 127.306 49.1429 126.606 49.4015C126.606 48.7645 126.606 48.3356 126.606 47.9193C126.215 47.8752 125.944 47.85 125.61 47.8122C125.893 47.6293 126.152 47.4653 126.329 47.3455C126.089 46.841 125.982 46.6202 125.811 46.267C126.89 46.021 127.899 45.7877 128.933 45.548C129.047 45.6679 129.192 45.8256 129.406 46.0526C129.009 46.1157 128.694 46.1598 128.17 46.2418C128.593 46.431 128.839 46.5508 129.047 46.6517Z" fill="#F97561"/>
<path d="M155.194 78.9482C154.91 79.0806 154.702 79.1815 154.223 79.4085C154.992 79.4527 155.51 79.4842 156.128 79.5158C155.989 79.1752 155.882 78.9166 155.762 78.6202C156.374 78.4815 156.916 78.3553 157.597 78.1976C157.502 78.4751 157.427 78.7022 157.313 79.0491C157.389 79.0806 157.547 79.1373 157.761 79.2193C157.868 79.4337 158.013 79.7176 158.158 79.9951C157.357 80.3483 156.506 80.7203 155.856 81.0041C154.519 81.3447 153.378 81.6348 152.192 81.9375C152.123 81.7231 152.054 81.5213 151.99 81.3258C151.555 81.1303 151.126 80.9348 150.565 80.6825C151.246 80.4302 151.82 80.2158 152.615 79.9256C151.972 79.8689 151.543 79.8374 151.114 79.7995C151.063 79.7428 151.013 79.6797 150.962 79.6229C151.183 79.5788 151.398 79.541 151.618 79.4968C152.659 79.3707 153.807 78.4436 155.194 78.9482Z" fill="#F97561"/>
</svg>
