<svg width="244" height="256" viewBox="0 0 244 256" fill="none" xmlns="http://www.w3.org/2000/svg">
<path d="M37.0295 92.4573C36.7826 92.1438 36.9445 91.806 37.1135 91.5903C38.1754 90.2259 39.0062 88.7099 40.0209 87.3103C40.5543 86.576 41.0644 85.7782 41.4821 84.9429C41.8138 84.2839 42.3779 83.786 42.7289 83.1247C43.107 82.4132 43.6757 81.825 44.1095 81.138C44.4725 80.5591 45.038 80.1215 45.4299 79.5392C45.9985 78.6933 46.643 77.8929 47.2912 77.1076C47.7101 76.6039 48.0635 76.0262 48.6515 75.6933C48.8068 75.6061 48.8319 75.4586 48.9219 75.3482C49.317 74.8727 49.693 74.386 50.1502 73.9557C51.1023 73.0535 51.9633 72.0589 52.9274 71.1748C53.6261 70.5317 54.2831 69.8508 54.9616 69.1868C55.6163 68.551 56.2818 67.9237 56.9592 67.3145C58.55 65.8858 60.2038 64.5255 61.9454 63.2933C63.3114 62.3271 64.7476 61.4735 66.2185 60.6644C67.4094 60.0084 68.586 59.3151 69.846 58.8263C70.856 58.4324 71.817 57.8921 72.8454 57.6013C73.8131 57.3257 74.7739 56.9923 75.7311 56.6946C77.9423 56.0024 80.1763 55.4013 82.4344 54.8869C83.7618 54.5832 85.1023 54.3072 86.4218 53.9869C87.9686 53.6097 89.5446 53.4085 91.0899 53.0354C91.9962 52.816 92.9631 52.7103 93.8956 52.5462C94.7979 52.3898 95.7193 52.3599 96.6105 52.1443C97.5016 51.9287 98.4295 51.855 99.3282 51.7341C100.173 51.6217 101.05 51.3044 101.935 51.5327C102.519 51.0558 103.24 51.3176 103.89 51.2093C104.531 51.1022 105.204 51.0341 105.832 50.8856C106.479 50.7348 107.144 50.5994 107.788 50.4705C109.096 50.2061 110.376 49.8164 111.677 49.5492C112.471 49.3864 113.157 48.9965 113.919 48.7714C115.361 48.3385 116.762 47.739 118.107 47.0232C118.647 46.7372 119.208 46.4914 119.805 46.3779C120.259 46.2915 120.429 45.8552 120.838 45.7021C121.499 45.4598 122.122 45.107 122.765 44.8122C122.98 44.7139 123.172 44.6125 123.216 44.3612C123.453 44.4183 123.636 44.4605 123.805 44.5024C124.036 44.3963 123.751 44.3177 123.817 44.1848C124.071 44.0407 124.307 43.8169 124.664 43.834C125 43.8479 125.076 43.4658 125.384 43.364C126.051 43.1464 126.464 42.3741 127.291 42.4805C127.723 41.9401 128.388 41.7266 128.933 41.3462C129.204 41.1532 129.531 41.012 129.896 41.0594C130.213 41.099 130.212 40.4824 130.623 40.6979C131.433 39.8462 132.606 39.7406 133.614 39.3548C135.226 38.7433 136.805 38.005 138.533 37.6604C139.399 37.4909 140.248 37.0579 141.124 36.8694C143.1 36.4382 145.045 35.8721 147.073 35.6804C147.911 35.6021 148.729 35.3329 149.568 35.2642C151.343 35.1111 153.124 34.9553 154.908 34.9435C155.241 34.9381 155.577 34.8739 155.902 35.0589C156.254 35.2582 156.539 34.8723 156.913 34.8815C157.355 34.8922 157.753 35.117 158.234 35.0449C158.501 35.0067 158.905 35.1234 159.212 35.0764C160.213 34.9276 161.175 35.3767 162.171 35.2031C162.547 35.1397 162.92 35.3463 163.262 35.4453C164.426 35.7781 165.681 35.5633 166.798 36.0541C167.41 36.3232 168.039 36.3912 168.674 36.3415C168.877 36.3266 169.092 36.3024 169.213 36.4145C169.642 36.8114 170.216 36.7631 170.714 36.9134C171.247 37.0712 171.832 37.041 172.368 37.2688C172.911 37.4995 173.473 37.8196 174.036 37.841C175.041 37.8731 175.896 38.3118 176.797 38.624C177.247 38.7801 177.807 38.759 178.09 39.3062C178.24 39.5944 178.674 38.9718 178.881 39.4599C179.004 39.7475 179.25 39.7664 179.555 39.7235C179.836 39.6855 179.968 40.1789 180.262 40.0768C180.55 39.9773 180.966 39.96 181 40.1238C181.083 40.5353 181.559 40.1808 181.602 40.5229C181.606 40.5518 181.649 40.5856 181.683 40.5931C182.713 40.8272 183.487 41.5958 184.508 41.8817C185.102 42.0477 185.676 42.4092 186.168 42.7964C186.644 43.164 187.179 43.4329 187.687 43.7108C188.574 44.1885 189.275 44.9172 190.159 45.3798C190.399 45.5068 190.24 46.1447 190.793 45.8727C190.882 46.2678 191.289 46.1969 191.514 46.3784C191.682 46.5121 191.765 46.7578 191.915 47.009C192.454 47.1464 192.854 47.5604 193.313 47.9633C194.191 48.7369 195.033 49.548 195.8 50.4151C196.855 51.6103 197.984 52.7769 198.638 54.2706C198.773 54.5762 199.109 54.4846 199.253 54.7384C200.107 56.2254 201.108 57.6222 201.697 59.2721C201.943 59.9625 202.45 60.5898 202.706 61.2926C203.221 62.7094 203.926 64.0466 204.242 65.5579C204.429 66.4525 204.767 67.3503 204.979 68.2633C205.426 70.1569 205.799 72.0613 205.783 74.015C205.773 75.4742 205.79 76.9339 205.659 78.3961C205.613 78.8994 205.398 79.3607 205.402 79.8267C205.405 80.3064 205.31 80.7279 205.138 81.1449C205.003 81.4737 205.264 81.7971 205.061 82.1477C204.905 82.4185 204.724 82.7312 204.9 83.1392C204.982 83.3245 204.756 83.6487 204.664 83.9057C204.531 84.277 204.451 84.681 204.251 85.0097C204.087 85.2776 204.467 85.694 203.993 85.8375C204.242 86.2483 203.925 86.5815 203.826 86.9371C203.732 87.2763 203.591 87.6077 203.473 87.9382C203.341 88.3095 203.208 88.6808 203.076 89.0521C202.956 89.3867 202.741 89.7193 202.741 90.055C202.741 90.6991 202.376 91.2313 202.292 91.8544C202.198 92.5431 201.87 93.2035 201.604 93.8584C201.371 94.4332 201.538 95.0629 201.246 95.635C200.965 96.1923 200.657 96.8094 200.636 97.4091C200.609 98.0896 200.185 98.674 200.235 99.2808C200.294 100.006 199.805 100.526 199.769 101.166C199.7 102.558 199.186 103.884 199.09 105.248C198.967 106.97 198.629 108.667 198.588 110.405C198.562 111.536 198.571 112.671 198.544 113.802C198.517 114.924 198.716 116.053 198.883 117.171C199.088 118.569 199.454 119.927 199.883 121.277C200.315 122.631 200.942 123.904 201.392 125.247C201.597 125.858 201.912 126.421 202.1 127.04C202.302 127.71 202.767 128.304 202.973 128.976C203.488 130.654 204.448 132.165 204.773 133.91C205.776 135.882 206.059 138.09 206.781 140.155C207.14 141.185 207.207 142.313 207.424 143.393C207.782 145.186 207.956 147.006 208.15 148.823C208.327 150.491 208.355 152.166 208.309 153.843C208.279 155.047 208.189 156.252 208.178 157.458C208.174 157.944 207.78 158.378 208.017 158.886C207.605 159.912 207.828 161.068 207.376 162.089C207.503 162.815 207.166 163.449 206.903 164.073C206.701 164.548 206.949 165.051 206.675 165.523C206.423 165.958 206.157 166.484 206.176 166.96C206.207 167.826 205.81 168.527 205.554 169.282C204.961 171.034 204.338 172.781 203.683 174.511C203.467 175.078 203.447 175.742 202.941 176.192C202.497 176.586 202.663 177.307 202.15 177.686C201.964 177.821 202.269 178.063 202.112 178.284C201.809 178.718 201.903 179.332 201.405 179.71C201.019 180.005 201.205 180.683 200.684 180.971C200.368 181.148 200.989 181.779 200.322 181.868C200.195 182.521 199.77 183.028 199.456 183.587C199.194 184.05 199.242 184.638 198.766 185.029C198.362 185.363 198.545 186.1 197.964 186.362C197.865 187.155 197.202 187.672 196.958 188.409C196.773 188.964 196.425 189.475 196.093 189.968C195.581 190.733 195.086 191.513 194.616 192.302C194.443 192.594 194.244 192.855 194.048 193.12C193.935 193.269 193.728 193.282 193.649 193.502C193.167 194.894 192.192 196 191.321 197.138C190.796 197.825 190.327 198.573 189.666 199.174C189.487 199.34 189.363 199.714 189.125 199.851C188.421 200.252 188.036 200.943 187.563 201.533C187.304 201.86 187.037 202.146 186.706 202.377C186.643 202.424 186.521 202.431 186.498 202.483C186.128 203.468 185.214 203.979 184.539 204.686C183.884 205.372 183.1 205.934 182.463 206.636C181.181 208.051 179.625 209.161 178.295 210.517C177.861 210.96 177.331 211.309 176.969 211.603C176.714 211.931 177.038 212.079 176.883 212.345C176.74 212.579 176.445 212.594 176.072 212.557C175.933 213.423 175.128 213.734 174.547 214.212C173.178 215.342 171.755 216.417 170.297 217.433C169.338 218.098 168.397 218.788 167.348 219.343C164.024 221.105 160.636 222.735 157.208 224.271C155.9 224.858 154.588 225.452 153.253 225.97C152.118 226.406 150.976 226.859 149.816 227.222C147.113 228.07 144.404 228.92 141.638 229.566C139.522 230.058 137.386 230.422 135.249 230.791C133.88 231.03 132.508 231.202 131.121 231.324C128.908 231.519 126.699 231.664 124.476 231.758C122.388 231.846 120.32 231.481 118.242 231.682C117.029 231.254 115.708 231.629 114.5 231.161C113.859 231.332 113.244 231.044 112.643 230.949C112.021 230.851 111.349 230.915 110.746 230.594C110.472 230.446 110.094 230.669 109.759 230.486C109.483 230.332 109.161 230.203 108.818 230.325C108.674 229.878 108.314 230.347 108.056 230.14C107.795 229.932 107.401 229.773 107.07 229.784C106.264 229.813 105.583 229.271 104.857 229.27C104.066 229.268 103.464 228.777 102.752 228.749C101.883 228.71 101.305 228.021 100.491 227.905C100.421 227.894 100.373 227.72 100.314 227.616C100.127 227.623 100.145 227.832 99.9842 227.959C99.7849 227.731 99.6169 227.441 99.3695 227.284C99.076 227.101 98.7102 227.03 98.3226 226.892C98.0589 227.051 97.7605 227.23 97.4968 227.388C97.0899 227.124 96.6892 227.151 96.3863 226.827C96.2537 226.683 95.7915 226.702 95.4829 226.651C95.0746 226.584 94.8902 226.03 94.5554 226.118C94.1034 226.237 93.7942 226.021 93.4473 225.897C90.2154 224.758 86.9879 223.606 83.7647 222.442C83.4179 222.318 82.9653 222.336 82.8063 221.879C82.2562 222.299 82.1724 221.529 81.783 221.473C81.4251 221.418 81.1264 221.16 80.813 220.942C80.2767 220.576 79.5746 220.468 78.9495 220.222C78.5336 220.06 78.0938 219.99 77.7612 219.582C77.4953 219.257 76.964 219.238 76.5682 218.968C76.0899 218.645 75.5923 218.261 75.0182 218.065C74.6276 217.935 74.2493 217.809 73.9455 217.461C73.7167 217.2 73.1645 217.33 73.0251 216.857C72.2501 216.631 71.6837 216.065 71.025 215.655C69.433 214.664 67.9339 213.554 66.4759 212.381C65.2537 211.397 64.0187 210.437 62.8064 209.438C62.4158 209.115 62.027 208.774 61.6629 208.427C60.3436 207.175 58.98 205.943 57.8142 204.556C56.7741 203.32 55.6728 202.127 54.683 200.84C54.1589 200.156 53.4806 199.569 52.9151 198.898C51.5793 197.317 50.2882 195.702 49.0833 194.025C48.0222 192.552 46.9234 191.106 46.1609 189.44C45.9591 189 45.6327 188.626 45.4032 188.199C45.1434 187.716 44.9935 187.156 44.6711 186.719C44.2513 186.155 44.0212 185.498 43.6343 184.932C43.3352 184.495 43.6058 183.878 43.0199 183.522C42.5924 183.263 42.8495 182.504 42.3534 182.18C42.4144 181.429 41.6957 181.007 41.585 180.273C41.4793 179.563 40.9887 178.915 40.67 178.235C40.3498 177.56 39.9484 176.906 39.7235 176.195C39.3097 174.893 38.582 173.722 38.1457 172.444C37.7301 171.224 37.0482 170.093 36.889 168.799C36.8517 168.491 36.5798 168.518 36.4926 168.299C36.3987 168.072 36.5062 167.848 36.3927 167.637C35.935 166.793 35.6349 165.881 35.3223 164.978C34.8737 163.696 34.4625 162.399 34.0029 161.122C33.2936 159.139 32.784 157.113 32.291 155.079C31.968 153.754 31.692 152.413 31.3994 151.08C31.0647 149.53 30.7149 147.984 30.4091 146.431C30.1792 145.245 30.0276 144.045 29.8129 142.855C29.6421 141.916 29.4344 140.977 29.2212 140.041C28.9317 138.75 28.6851 137.443 28.4053 136.152C28.0068 134.317 27.7414 132.47 27.5489 130.612C27.4508 129.675 27.3485 128.737 27.3687 127.778C27.3814 127.176 27.3594 126.528 27.2829 125.931C27.1304 124.708 27.3061 123.519 27.3396 122.317C27.3526 121.894 27.4691 121.503 27.5063 121.102C27.5389 120.727 27.6067 120.37 27.6596 120.002C27.817 118.904 28.1767 117.832 28.147 116.703C28.1458 116.629 28.1557 116.55 28.1886 116.484C28.7412 115.361 28.6765 114.072 29.1856 112.929C29.64 111.914 29.5662 110.728 30.0958 109.721C29.9304 108.986 30.458 108.397 30.5406 107.727C30.7607 105.925 31.5784 104.317 32.136 102.625C32.6908 100.942 33.323 99.2858 33.9104 97.614C34.3286 96.4292 35.0342 95.393 35.6314 94.2998C35.761 94.0654 36.027 93.8614 36.1059 93.5629C36.2728 93.0567 36.5857 92.7083 37.0295 92.4573ZM118.221 49.3867C117.907 48.9114 117.577 49.0004 117.232 49.1028C117.155 49.319 117.076 49.5394 116.961 49.8617C116.276 49.6541 116.126 50.5526 115.414 50.602C114.825 50.6404 114.264 51.052 113.698 51.2963C113.716 51.5831 114.135 51.5166 114.103 51.864C114.592 51.666 115.03 51.2654 115.589 51.5937C115.663 51.3856 115.714 51.2428 115.777 51.0674C116.254 51.1089 116.642 50.8471 117.046 50.6555C117.433 50.4719 117.985 50.641 118.201 50.1112C118.714 50.3494 118.91 49.7246 119.36 49.6874C119.764 49.6521 120.149 49.371 120.537 49.1873C120.946 48.9931 121.315 48.683 121.705 48.5048C122.095 48.3267 122.426 48.0308 122.844 47.9176C123.276 47.8006 123.779 47.8098 124.088 47.4463C124.417 47.0531 124.833 46.9714 125.31 46.9349C125.394 46.1597 125.982 46.3283 126.518 46.4135C126.444 46.2585 126.41 46.1865 126.373 46.109C126.482 45.8441 126.704 46.1625 126.848 46.0162C127.243 45.6189 127.639 45.1531 128.183 45.0343C128.795 44.9033 129.223 44.4903 129.753 44.2424C131.832 43.2639 133.924 42.3267 136.05 41.4616C136.195 41.4029 136.346 41.2636 136.478 41.2787C137.264 41.3843 137.852 40.8951 138.53 40.6723C139.26 40.4314 139.954 40.0212 140.676 39.8651C141.768 39.6291 142.845 39.3832 143.812 38.891C143.94 38.9965 143.892 39.1681 143.984 39.155C144.55 38.9106 145.081 38.4792 145.547 38.5397C146.177 38.6173 146.508 38.2433 147.149 38.0992C146.052 37.8323 146.052 37.8323 145.293 38.1822C145.037 37.7917 144.484 38.1926 144.177 37.7654C143.939 38.1359 143.809 38.7059 143.169 38.3855C143.044 38.3226 142.921 38.357 142.844 38.4308C142.29 39.0056 141.49 38.9504 140.813 39.1733C140.276 39.3497 139.676 39.6002 139.152 39.2384C138.721 39.7103 138.265 39.9336 137.729 40.0046C137.65 39.8522 137.596 39.7455 137.532 39.6264C137.3 39.8654 137.074 40.0977 136.841 40.3408C136.453 40.2162 136.054 40.29 135.652 40.3583C135.6 40.5052 135.547 40.6521 135.495 40.799C135.121 40.7253 134.822 40.9178 134.526 41.0787C134.251 41.2291 133.905 41.0917 133.657 41.4496C133.481 41.6994 133.045 41.7738 132.725 41.922C132.457 41.8862 132.21 41.6645 131.852 41.7529C132.027 41.9073 132.136 42.0014 132.378 42.212C131.775 42.0198 131.606 42.4931 131.252 42.6337C130.668 42.8667 130.11 43.1647 129.54 43.435C129.564 43.9493 128.989 43.459 128.874 43.8458C128.741 44.2952 128.337 43.6358 128.132 43.9535C128.165 44.0528 128.2 44.1481 128.168 44.0584C127.452 44.401 126.788 44.7159 126.119 45.0293C125.95 45.1436 126.075 44.7009 125.822 44.8449C125.395 45.047 126.172 45.4621 125.653 45.6403C125.49 45.6327 125.588 45.3457 125.352 45.3996C125.179 45.5358 125.277 45.8694 124.99 45.9511C124.927 45.7675 124.862 45.5743 124.746 45.5787C124.463 45.5974 124.449 45.726 124.411 45.8321C124.251 46.3083 124.008 46.691 123.434 46.6885C123.263 47.1426 122.786 46.9311 122.486 47.1276C122.158 47.3372 121.728 47.409 121.434 47.6536C120.502 48.448 119.311 48.7409 118.221 49.3867ZM64.0093 75.1433C65.0158 74.9781 65.6679 74.3368 66.4378 73.9584C67.101 73.6339 67.7312 73.1825 68.3646 72.7738C69.0508 72.3333 69.8053 72.0367 70.4763 71.6C71.4697 70.9563 72.4507 70.3082 73.5219 69.8073C73.8042 69.6735 74.1606 69.6028 74.3529 69.3862C74.8817 68.8067 75.6312 68.6786 76.2702 68.3317C76.9093 67.9847 77.441 67.4615 78.1503 67.227C78.338 67.1652 78.5116 67.2456 78.7441 67.0709C79.6937 66.3564 80.911 66.0778 81.8439 65.3067C82.3187 65.4072 82.5191 64.9359 82.8891 64.8011C83.2648 64.6638 83.6156 64.467 84.0087 64.2807C83.5572 63.8573 83.2836 64.2887 82.9823 64.3468C81.6587 64.6012 80.357 64.9877 79.1101 65.5042C76.6743 66.5163 74.3686 67.7956 72.1398 69.1945C71.587 69.5446 70.9856 69.7992 70.4544 70.1662C68.6482 71.4122 66.8699 72.6958 65.1036 73.9974C64.7111 74.2852 64.3122 74.6166 64.0093 75.1433ZM52.4734 76.2752C52.6521 76.1871 52.7879 76.116 52.9222 76.0489C52.747 75.7794 52.8355 75.4798 52.7672 75.207C53.0574 74.8322 53.4807 75.5536 53.7522 75.0893C53.7335 74.8711 53.3757 74.9458 53.4155 74.6794C53.4871 74.2725 53.8685 74.1189 54.0908 73.844C54.2878 73.8591 54.4397 74.0651 54.6574 73.945C54.5594 73.6524 54.4943 73.3578 54.7936 73.138C55.3891 72.7065 55.7687 71.991 56.5258 71.7643C56.7988 71.6824 56.8299 71.3117 57.1347 71.2825C57.1716 70.7022 57.6748 70.4908 58.0361 70.1873C59.2124 69.1857 60.3711 68.1686 61.6048 67.2381C63.2368 66.0035 64.8743 64.7663 66.6112 63.6887C67.8094 62.9479 68.9513 62.0812 70.2698 61.5444C70.4785 61.4624 70.5501 61.3132 70.4466 61.1521C65.1496 63.2085 60.8129 66.6473 56.7816 70.5447C56.6953 70.3483 56.6434 70.1457 56.3785 70.1662C56.072 70.4708 55.7906 70.8212 55.4427 71.0742C55.01 71.3844 54.8804 71.7476 55.0865 72.1753C54.7107 72.5196 54.3948 72.8117 54.1014 73.0796C53.9161 73.0318 53.6951 72.9162 53.6295 72.971C53.1564 73.3817 52.5159 73.6684 52.5324 74.4471C52.0463 74.2368 51.9427 74.7334 51.6408 74.8189C51.6904 75.2598 50.9161 75.264 51.1354 75.8483C51.2937 76.2682 51.021 76.5297 50.555 76.5336C50.5209 76.4616 50.4868 76.3896 50.4395 76.29C50.3569 76.6377 49.811 76.5947 49.8531 77.0053C49.9683 77.2626 50.2112 76.7881 50.2946 77.1859C49.8541 77.6727 49.4434 78.2437 48.9122 78.6751C48.5608 78.9637 48.5111 79.245 48.4578 79.6906C48.8751 79.3335 49.1026 78.8764 49.6394 78.8932C49.5396 78.6828 49.4038 78.4963 49.7188 78.3097C50.0046 78.1403 50.2326 78.2493 50.4928 78.3192C50.5855 78.3431 50.6339 78.2591 50.5997 78.1871C50.4852 78.0957 50.3747 78.0056 50.2077 77.8678C50.9189 77.2154 51.5127 76.4797 52.3183 75.9622C52.3764 76.0703 52.4064 76.1408 52.4734 76.2752ZM120.598 230.945C120.762 231.169 120.971 231.216 121.212 231.196C122.228 231.108 123.255 231.157 124.269 231.151C126.097 231.146 127.906 231.014 129.721 230.852C132.814 230.576 135.895 230.166 138.947 229.567C140.249 229.31 141.552 229.034 142.835 228.701C144.209 228.345 145.556 227.882 146.932 227.518C148.253 227.17 149.505 226.638 150.801 226.23C151.889 225.888 152.892 225.307 154.018 225.065C154.242 225.016 154.449 224.874 154.657 224.769C154.865 224.663 155.113 224.6 155.257 224.44C155.055 224.207 154.914 224.267 154.772 224.345C154.124 224.689 153.405 224.901 152.725 225.091C151.086 225.546 149.517 226.191 147.895 226.689C147.032 226.956 146.172 227.316 145.306 227.499C143.356 227.912 141.44 228.46 139.487 228.868C136.859 229.411 134.207 229.753 131.571 230.219C130.946 230.332 130.322 230.211 129.717 230.322C128.384 230.563 127.04 230.733 125.694 230.717C124.672 230.706 123.667 230.904 122.632 230.829C121.994 230.785 121.277 230.769 120.598 230.945ZM139.717 206.502C140.296 206.221 140.927 206.244 141.544 206.151C142.273 206.043 142.979 205.817 143.705 205.69C143.98 205.641 144.07 205.171 144.435 205.398C145.408 204.54 146.612 204.197 147.836 203.847C147.938 203.985 148.021 204.102 148.098 204.207C148.241 204.143 148.387 204.081 148.524 204.019C148.48 203.911 148.438 203.809 148.395 203.711C148.635 203.502 148.879 203.966 149.126 203.686C149.01 203.585 148.901 203.491 148.787 203.4C149.065 202.735 149.067 202.731 149.735 202.818C149.866 202.837 149.957 202.815 150.005 202.68C150.099 202.506 149.952 202.39 149.91 202.25C150.123 202.041 150.655 202.134 150.565 201.665C149.773 201.64 149.177 202.099 148.5 202.322C147.717 202.581 146.914 202.782 146.144 203.096C145.398 203.396 144.644 203.692 143.891 203.957C143.039 204.256 142.146 204.439 141.328 204.837C141.044 204.974 140.761 205.214 140.476 205.213C140.099 205.212 139.817 205.383 139.508 205.516C139.176 205.66 138.856 205.822 138.55 205.97C138.848 206.514 139.546 205.82 139.717 206.502ZM123.453 107.811C123.95 107.901 123.994 107.405 124.339 107.276C124.683 107.15 125.002 106.937 125.317 106.714C126.513 105.862 127.783 105.114 129.031 104.336C129.931 103.774 130.859 103.236 131.714 102.631C132.57 102.025 133.506 101.54 134.326 100.894C135.102 100.279 136.127 99.9964 136.714 99.1249C136.32 98.5657 135.922 98.419 135.32 98.779C134.454 99.298 133.625 99.8807 132.793 100.458C132.213 100.858 131.68 101.335 131.075 101.689C129.884 102.396 128.824 103.278 127.742 104.12C126.435 105.14 125.128 106.159 123.81 107.16C123.558 107.351 123.452 107.53 123.453 107.811ZM39.8081 148.129C39.768 147.816 39.7954 147.494 39.6688 147.256C39.6003 147.125 39.4229 147.094 39.442 146.834C39.519 145.781 39.5988 144.719 39.5607 143.666C39.5419 143.126 39.6741 142.575 39.4539 142.032C38.8596 140.578 38.3067 139.111 37.7386 137.648C37.6867 137.509 37.5506 137.401 37.6162 137.217C37.7079 136.96 37.4966 136.779 37.4021 136.58C37.3181 136.403 37.3111 136.152 36.9782 136.015C37.0912 137.812 37.4066 139.493 37.7442 141.164C38.0657 142.751 38.4106 144.337 38.7913 145.912C38.964 146.627 39.0543 147.354 39.1693 148.076C39.1824 148.168 39.2669 148.253 39.2946 148.304C39.4767 148.245 39.6245 148.192 39.8081 148.129ZM107.244 185.87C107.558 185.094 108.307 184.671 108.75 183.997C109.293 183.17 109.906 182.395 110.468 181.579C110.946 180.884 111.46 180.217 111.884 179.48C112.323 178.726 112.925 178.072 113.409 177.334C113.912 176.57 114.387 175.778 114.963 175.068C115.285 174.668 115.622 174.292 115.89 173.849C116.192 173.35 116.505 172.836 116.909 172.423C117.321 172.005 117.349 171.269 118.056 171.094C118.226 171.053 118.25 170.781 118.258 170.591C118.26 170.495 118.184 170.321 118.205 170.314C118.831 170.041 118.893 169.327 119.371 168.863C119.145 168.828 119.037 168.744 118.858 168.974C118.037 170.038 117.145 171.054 116.335 172.126C116.048 172.503 115.644 172.823 115.562 173.336C114.723 174.026 114.254 175.018 113.7 175.901C113.132 176.807 112.495 177.679 111.898 178.552C110.575 180.481 109.346 182.48 107.882 184.313C107.815 184.901 107.067 185.154 107.244 185.87ZM90.1265 211.524C90.0887 211.888 90.0636 212.1 90.0427 212.313C89.4409 212.13 89.5346 213.015 88.9107 212.972C88.2937 212.793 87.6134 212.43 86.8207 212.46C86.4518 212.476 86.441 212.596 86.5148 212.866C87.0537 213.045 87.5597 213.354 88.1035 213.171C88.3242 213.365 88.0508 213.589 88.2586 213.742C88.9482 213.988 89.6475 214.426 90.3557 214.44C91.1364 214.456 91.7596 214.798 92.4474 214.997C93.1638 215.207 93.8539 215.49 94.5598 215.742C94.7434 215.808 94.9282 215.883 95.1162 215.936C95.1789 215.954 95.259 215.923 95.3318 215.912C95.3985 215.738 95.5279 215.581 95.4733 215.373C94.7261 215.392 94.7567 215.371 94.4532 214.816C94.2908 214.524 94.5919 214.479 94.595 214.329C94.6168 213.881 94.091 213.923 93.9461 213.646C93.7902 213.439 94.2555 213.269 93.9261 213.032C93.6459 213.327 93.7576 213.942 93.141 213.943C92.6483 213.454 92.6484 213.455 92.0397 213.923C91.9203 214.193 92.4527 214.093 92.3306 214.422C92.0704 214.288 91.6604 214.431 91.7707 213.877C91.803 213.709 91.4095 213.459 91.2955 213.34C91.0457 213.228 90.9441 213.5 90.808 213.327C90.5838 213.04 90.6743 212.709 90.6105 212.424C90.8054 212.277 91.0575 212.28 91.1641 212.097C90.881 211.743 90.6081 212.211 90.3594 211.98C90.3134 211.89 90.262 211.789 90.1265 211.524ZM80.7963 78.5672C80.2814 78.8113 79.791 78.9997 79.3455 79.2685C78.907 79.5306 78.409 79.6242 77.9529 79.8709C77.3471 80.2021 76.8276 80.6653 76.1941 80.9452C74.9341 81.4984 73.789 82.2581 72.62 82.9817C70.7886 84.1176 69.1856 85.5419 67.5332 86.898C67.1498 87.212 66.8185 87.586 66.466 87.9294C71.3006 84.9903 75.7749 81.527 80.7734 78.8764C80.804 78.8552 80.7818 78.7368 80.7963 78.5672ZM141.17 165.565C143.095 164.334 144.787 162.868 146.435 161.354C148.42 159.532 150.352 157.65 152.318 155.813C152.539 155.607 152.614 155.422 152.529 155.106C148.637 158.317 145.019 161.778 141.327 165.152C141.227 165.236 141.219 165.427 141.17 165.565ZM158.069 208.157C156.866 208.164 155.935 208.904 154.836 209.147C153.7 209.404 152.61 209.792 151.518 210.184C150.394 210.588 149.29 211.05 148.184 211.483C148.327 211.635 148.544 211.763 148.765 211.658C149.581 211.255 150.603 211.652 151.347 210.997C151.97 211.21 152.433 210.791 152.965 210.613C153.341 210.49 153.758 210.468 154.036 210.591C154.461 210.236 154.814 210.059 155.309 210.014C155.718 209.976 156.071 209.606 156.533 209.665C156.463 208.959 156.528 208.918 157.503 208.994C157.529 208.847 157.322 208.741 157.488 208.483C157.632 208.401 157.852 208.277 158.069 208.157ZM150.302 200.431C148.309 200.653 143.552 202.24 142.5 203.59C143.053 203.47 143.579 203.593 143.946 203.057C144.08 202.861 144.453 202.847 144.663 202.683C144.968 202.447 145.228 202.866 145.549 202.663C145.881 202.455 146.374 202.451 146.628 202.192C146.971 201.836 147.415 202.009 147.769 201.79C148.101 201.582 148.471 201.318 148.828 201.312C149.249 201.306 149.476 200.798 149.878 200.974C150.303 201.162 150.421 200.469 150.828 200.697C151.364 200.391 152.021 200.432 152.543 200.08C152.73 199.954 152.837 199.849 152.723 199.602C152.203 199.499 151.724 199.756 151.285 199.866C151.037 199.736 151.066 199.36 150.724 199.454C150.7 199.469 150.646 199.477 150.636 199.506C150.526 199.802 150.421 200.096 150.302 200.431ZM158.818 96.3269C159.128 96.4239 159.126 96.7637 159.529 96.7694C159.932 96.7752 160.241 96.6049 160.593 96.5465C161.088 96.461 161.395 96.1153 161.559 95.709C161.702 95.3598 161.946 95.5897 162.157 95.4763C162.44 94.7724 162.659 94.0453 162.105 93.1717C161.03 94.2782 159.586 94.844 158.818 96.3269ZM201.676 156.278C201.943 155.555 202.055 154.996 202.15 154.396C202.309 153.408 202.313 152.416 202.432 151.437C202.612 149.942 202.453 148.455 202.432 146.966C202.426 146.481 202.44 145.952 202.326 145.447C202.215 144.957 202.124 144.451 202.134 143.934C202.135 143.879 202.13 143.689 201.879 143.76C201.856 143.978 201.774 144.169 201.811 144.477C201.948 145.629 201.876 146.795 201.914 147.954C201.953 149.197 201.895 150.431 201.802 151.659C201.752 152.313 201.723 152.987 201.686 153.632C201.645 154.432 201.43 155.266 201.676 156.278Z" fill="#F97561"/>
</svg>
