<svg width="236" height="233" viewBox="0 0 236 233" fill="none" xmlns="http://www.w3.org/2000/svg">
<path d="M196.663 88.5618C194.361 89.9702 191.707 90.7013 189.48 92.2741C189.126 92.5179 188.397 92.7804 188.203 92.6155C186.315 90.9558 184.124 92.5572 182.04 91.98C180.202 91.4686 179.558 90.5939 179.425 89.0784C178.92 83.218 178.103 77.3993 177.102 71.6071C176.846 70.0836 176.566 68.5538 176.158 67.0587C175.769 65.6314 176.606 64.6141 177.336 63.7375C178.131 62.7842 178.952 63.9322 179.79 64.1505C183.718 65.1466 185.711 68.4271 188.227 71.0891C191.476 74.5244 194.642 78.0376 197.996 81.363C200.796 84.1384 200.936 86.7971 196.663 88.5618Z" fill="#FFCA0F"/>
<path d="M133.77 38.7642C134.82 40.4127 134.411 42.2217 132.648 43.5364C130.187 45.3727 127.752 47.2534 125.203 48.9721C122.871 50.5358 120.464 49.295 118.359 48.4427C116.912 47.8542 116.598 46.008 116.722 44.2352C117.127 38.3241 116.57 32.4438 115.789 26.5847C115.654 25.5642 115.569 24.5945 116.561 23.8443C117.632 23.0278 118.368 23.7703 119.296 24.1444C122.081 25.2858 123.853 27.5665 125.852 29.6071C128.674 32.5078 131.459 35.4299 133.77 38.7642Z" fill="#FFCA0F"/>
<path d="M150.102 79.867C151.34 82.0108 152.886 83.3532 151.433 85.4782C151.091 85.9823 150.848 86.538 150.292 86.7402C147.817 87.6448 145.694 89.0386 144.233 91.237C143.089 92.9558 141.825 92.8552 139.961 92.3684C136.379 91.4398 135.792 90.5616 135.626 86.949C135.355 81.1704 135.461 75.3232 134.083 69.6304C133.884 68.8057 133.699 67.9534 133.675 67.1067C133.623 65.356 134.909 64.5843 136.554 65.138C140.02 66.3114 141.988 69.1712 144.104 71.8073C146.332 74.6054 148.381 77.5372 150.102 79.867Z" fill="#FFCA0F"/>
<path d="M197.223 157.919C194.803 158.97 192.263 158.785 189.815 158.211C188.923 158.003 188.356 156.867 188.279 155.774C188.044 152.112 186.764 148.627 186.579 144.897C186.492 143.136 185.685 141.07 185.247 139.147C184.939 137.792 184.786 136.189 186.101 135.281C187.421 134.381 188.876 135.222 190.02 135.867C192.963 137.521 195.126 140.12 197.335 142.593C199.754 145.292 201.965 148.179 204.212 151.026C205.105 152.162 204.728 153.428 205.498 154.487C205.912 155.049 205.199 155.579 204.36 155.787C201.967 156.407 199.605 157.197 197.223 157.919Z" fill="#FFCA0F"/>
<path d="M108.288 76.2941C109.452 78.2927 108.95 79.8387 106.523 80.7059C104.539 81.4159 102.851 82.6378 101.105 83.656C98.9471 84.9214 96.9746 84.7942 94.7532 84.3558C92.7104 83.9526 91.8514 82.6188 91.8165 80.7596C91.7074 74.8486 91.046 69.0091 89.8239 63.2263C89.3506 60.9675 90.5698 60.1153 92.7702 60.8428C94.2854 61.3429 95.6168 62.1073 96.7689 63.1433C101.16 67.1165 104.938 71.6215 108.288 76.2941Z" fill="#FFCA0F"/>
<path d="M82.871 114.964C81.2778 115.785 79.98 116.603 78.5046 117.148C74.9873 118.457 73.4228 118.094 72.125 114.63C70.4628 110.209 68.5703 105.852 67.5965 101.202C67.3882 100.224 67.1764 99.1892 67.2634 98.2092C67.4172 96.4884 68.2861 95.4922 70.239 95.9966C71.9111 96.4259 73.5061 96.9787 74.9352 97.9637C78.9732 100.726 82.6931 103.88 86.2989 107.179C88.2191 108.928 87.8525 111.771 85.7929 113.069C84.7461 113.723 83.7133 114.418 82.871 114.964Z" fill="#FFCA0F"/>
<path d="M153.119 159.922C151.891 161.016 150.822 162.197 149.194 162.752C146.791 163.575 142.502 161.749 142.024 159.345C140.967 154.001 139.211 148.853 137.995 143.561C137.716 142.357 137.275 141.079 138.538 140.132C139.809 139.181 140.97 139.924 141.977 140.589C147.048 143.942 151.49 148.073 155.924 152.19C157.236 153.4 157.387 154.877 156.373 156.599C155.52 158.051 153.753 158.399 153.119 159.922Z" fill="#FFCA0F"/>
<path d="M63.6833 71.1081C66.1586 74.8815 65.4346 77.6535 61.9547 80.6715C60.1311 82.2584 58.1559 82.2119 56.183 82.4608C53.8819 82.7409 52.3869 81.7446 51.6564 79.2288C50.7134 75.9851 50.4415 72.6704 49.9148 69.394C49.481 66.7068 49.0293 64.04 48.4554 61.3843C48.0061 59.2699 48.7674 58.9095 50.7073 58.8775C54.0654 58.8179 55.9348 60.874 57.7254 63.0844C59.8225 65.6717 61.7068 68.4214 63.6833 71.1081Z" fill="#FFCA0F"/>
<path d="M94.9046 168.973C94.0461 167.52 93.7531 165.899 93.7512 164.268C93.7487 160.135 93.1133 156.071 92.5427 151.999C92.0796 148.696 92.437 148.767 95.5112 148.901C98.7162 149.038 100.583 150.918 102.632 152.702C104.854 154.633 107 156.688 109.029 158.831C110.876 160.781 110.686 161.513 108.948 163.506C107.344 165.352 106.134 167.505 104.016 168.925C103.001 169.6 102.338 169.548 101.492 168.819C100.735 168.159 100.146 168.578 99.637 169.238C98.267 171.028 96.0182 170.902 94.9046 168.973Z" fill="#FFCA0F"/>
<path d="M134.247 203.744C131.615 204.908 129.396 206.031 127.067 206.881C123.244 208.277 120.294 206.558 119.018 202.636C117.751 198.729 116.44 194.847 115.902 190.746C115.472 187.414 116.584 186.307 119.719 187.266C121.099 187.686 122.477 188.394 123.62 189.277C127.546 192.292 131.553 195.241 134.841 199C136.629 201.034 136.336 202.617 134.247 203.744Z" fill="#FFCA0F"/>
<path d="M51.9979 124.243C53.8121 127.231 53.401 128.18 50.7821 129.623C49.2887 130.446 48.0878 131.792 46.7572 132.896C44.6814 134.629 40.0182 134.621 38.2718 133.018C37.6989 132.488 37.4386 131.986 37.3567 131.262C36.7975 126.164 36.1883 121.066 35.6439 115.96C35.4066 113.733 36.2377 113.066 38.4805 113.541C43.5181 114.609 46.6289 118.421 50.0563 121.753C50.9367 122.61 51.5854 123.699 51.9979 124.243ZM44.8437 123.586C43.9524 123.378 43.98 121.473 42.4688 121.871C41.9435 122.006 42.0912 122.93 42.5188 123.276C43.3015 123.913 43.7101 125.289 45.0218 124.957C45.6533 124.8 45.2035 124.209 44.8437 123.586Z" fill="#FFCA0F"/>
<path d="M50.2627 174.481C48.0404 169.552 47.012 164.311 46.1014 159.05C45.7132 156.802 46.6009 156.25 48.8993 156.564C50.9469 156.856 52.5898 157.886 53.8174 159.412C56.7361 163.029 59.5491 166.736 62.344 170.463C63.5208 172.039 62.9567 173.512 61.4592 174.841C59.0728 176.961 56.305 177.135 53.409 176.967C51.815 176.878 51.0932 175.594 50.2627 174.481Z" fill="#FFCA0F"/>
<path d="M127.281 127.571C126.512 127.936 125.485 128.094 125.325 128.552C124.773 130.167 123.03 130.283 122.063 131.434C121.032 132.663 117.177 130.596 116.404 128.896C115.259 126.382 116.452 123.685 115.402 121.097C114.367 118.549 114.001 115.724 113.381 113.006C113.199 112.211 113.366 111.471 114.134 110.969C114.962 110.432 115.637 110.556 116.468 111.105C121.082 114.128 124.901 118.105 129.11 121.609C131.444 123.545 129.69 125.715 127.281 127.571Z" fill="#FFCA0F"/>
<path d="M171.398 115.759C173.405 117.934 171.429 120.885 169.347 121.474C168.377 121.747 167.524 121.864 166.779 122.937C165.86 124.258 164.374 126.086 162.514 123.619C162.372 123.424 161.758 123.63 161.388 123.537C159.124 122.955 157.902 120.941 158.3 118.564C158.387 118.029 158.452 117.458 158.352 116.942C157.645 113.404 158.406 109.651 156.737 106.263C156.308 105.383 156.165 104.417 157.04 103.704C157.922 102.987 158.791 103.415 159.617 103.937C160.008 104.186 160.507 104.313 160.829 104.632C164.534 108.17 168.119 111.827 171.398 115.759Z" fill="#FFCA0F"/>
</svg>
