<svg width="91" height="99" viewBox="0 0 91 99" fill="none" xmlns="http://www.w3.org/2000/svg">
<path d="M5.27492 29.3245C5.1524 29.1689 5.23277 29.0013 5.31661 28.8943C5.84353 28.2172 6.25576 27.465 6.75926 26.7705C7.02394 26.4062 7.27704 26.0103 7.48431 25.5958C7.64893 25.2688 7.92884 25.0218 8.10301 24.6936C8.29062 24.3406 8.57281 24.0487 8.78805 23.7078C8.96815 23.4206 9.24878 23.2034 9.44321 22.9145C9.72537 22.4947 10.0451 22.0976 10.3668 21.7079C10.5747 21.458 10.75 21.1713 11.0418 21.0061C11.1189 20.9629 11.1313 20.8897 11.176 20.8349C11.372 20.599 11.5586 20.3574 11.7854 20.144C12.2579 19.6963 12.6851 19.2028 13.1635 18.7641C13.5102 18.445 13.8362 18.1071 14.1729 17.7776C14.4977 17.4621 14.8279 17.1509 15.1641 16.8486C15.9535 16.1396 16.7741 15.4647 17.6382 14.8532C18.316 14.3738 19.0287 13.9503 19.7586 13.5488C20.3495 13.2233 20.9333 12.8793 21.5585 12.6367C22.0597 12.4413 22.5366 12.1732 23.0468 12.0289C23.527 11.8921 24.0038 11.7267 24.4787 11.5789C25.5759 11.2355 26.6844 10.9372 27.8049 10.682C28.4636 10.5313 29.1287 10.3943 29.7835 10.2354C30.551 10.0482 31.333 9.94839 32.0998 9.76325C32.5495 9.6544 33.0293 9.60193 33.492 9.52055C33.9397 9.44293 34.3969 9.42806 34.8391 9.32108C35.2813 9.21411 35.7417 9.17755 36.1876 9.11757C36.607 9.0618 37.0421 8.90436 37.481 9.01762C37.7709 8.78097 38.1285 8.91088 38.4512 8.85716C38.7692 8.80401 39.1031 8.77023 39.4147 8.69655C39.7359 8.62171 40.0657 8.55453 40.3853 8.49053C41.0347 8.35936 41.6697 8.16601 42.3151 8.03339C42.7091 7.9526 43.0498 7.75917 43.4274 7.64744C44.1432 7.43267 44.8382 7.13519 45.5059 6.78001C45.7734 6.63809 46.0521 6.51612 46.3484 6.45979C46.5736 6.41693 46.6577 6.20044 46.8606 6.12447C47.1888 6.00422 47.4978 5.82916 47.8171 5.68289C47.9235 5.63413 48.0191 5.58379 48.0407 5.45913C48.1584 5.48744 48.2491 5.50839 48.333 5.52919C48.4477 5.47653 48.3063 5.43751 48.339 5.37156C48.4649 5.30009 48.5822 5.18902 48.7595 5.1975C48.9259 5.2044 48.9639 5.01481 49.1166 4.9643C49.4473 4.85634 49.6526 4.47309 50.0628 4.52592C50.2772 4.25776 50.6072 4.15183 50.8777 3.96305C51.0123 3.86728 51.1742 3.79725 51.3553 3.82078C51.5126 3.8404 51.5122 3.53442 51.716 3.64138C52.1179 3.21874 52.7004 3.16639 53.2001 2.97495C54 2.67151 54.7835 2.30517 55.6411 2.13418C56.0706 2.05006 56.4919 1.83522 56.927 1.74169C57.9073 1.52772 58.8726 1.2468 59.8789 1.15169C60.2945 1.11283 60.7005 0.979256 61.1167 0.945171C61.9974 0.869178 62.881 0.791883 63.7664 0.786024C63.9317 0.78338 64.0982 0.75152 64.2595 0.843306C64.4342 0.942174 64.5756 0.750687 64.7611 0.755268C64.9806 0.760565 65.1782 0.872149 65.4169 0.836371C65.5493 0.817396 65.75 0.875326 65.9021 0.852005C66.3986 0.778132 66.8761 1.001 67.3701 0.914839C67.5571 0.883413 67.742 0.985895 67.9116 1.03502C68.4895 1.20016 69.1118 1.09357 69.6663 1.3371C69.9702 1.47064 70.2822 1.5044 70.5969 1.47974C70.6977 1.47234 70.8047 1.46031 70.8647 1.51597C71.0775 1.71287 71.3622 1.68894 71.6095 1.7635C71.8737 1.84181 72.1644 1.82684 72.4299 1.93985C72.6995 2.05431 72.9783 2.21317 73.2575 2.2238C73.7563 2.23973 74.1808 2.4574 74.6277 2.61231C74.8511 2.68977 75.1287 2.67929 75.2692 2.95082C75.3437 3.09382 75.559 2.78488 75.662 3.02707C75.7229 3.16978 75.8451 3.17916 75.9965 3.15786C76.1356 3.13903 76.2012 3.38382 76.347 3.33318C76.4902 3.28383 76.6964 3.27525 76.7131 3.35651C76.7543 3.56069 76.9906 3.38478 77.0122 3.55455C77.0139 3.56886 77.0353 3.58563 77.0522 3.58939C77.5631 3.70552 77.9475 4.0869 78.4538 4.22878C78.7485 4.31113 79.0337 4.49053 79.2779 4.68265C79.514 4.86508 79.7791 4.99849 80.0312 5.13638C80.4716 5.37343 80.8196 5.73499 81.2581 5.96452C81.3771 6.02754 81.2984 6.3441 81.5725 6.20912C81.6167 6.40519 81.8187 6.37 81.9304 6.46006C82.014 6.52642 82.0549 6.64832 82.1291 6.77295C82.397 6.84114 82.5953 7.04656 82.8229 7.2465C83.2589 7.63032 83.6767 8.03281 84.0573 8.46306C84.5806 9.05611 85.141 9.63498 85.4654 10.3761C85.5322 10.5278 85.6991 10.4824 85.7706 10.6083C86.1943 11.3461 86.691 12.0392 86.9832 12.8579C87.1052 13.2005 87.357 13.5118 87.4836 13.8605C87.7395 14.5635 88.0893 15.227 88.2463 15.9769C88.3389 16.4208 88.5063 16.8663 88.6117 17.3194C88.8333 18.259 89.0188 19.2039 89.0107 20.1734C89.0057 20.8974 89.0142 21.6217 88.9493 22.3473C88.9264 22.597 88.8196 22.8259 88.8215 23.0572C88.8233 23.2952 88.7761 23.5043 88.6908 23.7112C88.6235 23.8744 88.7534 24.0349 88.6525 24.2088C88.5749 24.3432 88.4852 24.4984 88.5728 24.7008C88.613 24.7928 88.5008 24.9536 88.4553 25.0812C88.3896 25.2654 88.35 25.4658 88.2507 25.629C88.169 25.7619 88.3578 25.9685 88.1224 26.0397C88.2459 26.2436 88.0888 26.4089 88.0395 26.5853C87.9931 26.7537 87.923 26.9181 87.8645 27.0821C87.7988 27.2663 87.733 27.4506 87.6673 27.6348C87.608 27.8008 87.5012 27.9659 87.5011 28.1324C87.5012 28.452 87.3202 28.7161 87.2783 29.0253C87.2317 29.367 87.0691 29.6947 86.9371 30.0197C86.8217 30.3049 86.9042 30.6174 86.7595 30.9013C86.6197 31.1778 86.4671 31.484 86.4568 31.7816C86.4435 32.1192 86.2328 32.4092 86.2577 32.7103C86.2869 33.0699 86.0442 33.3279 86.0266 33.6458C85.9923 34.3366 85.7371 34.9942 85.6896 35.6711C85.6288 36.5259 85.4608 37.3675 85.4406 38.23C85.4275 38.7913 85.4319 39.3544 85.4188 39.9158C85.405 40.4724 85.5041 41.0327 85.5869 41.5873C85.6886 42.2809 85.8703 42.9552 86.0833 43.6246C86.2976 44.2969 86.6087 44.9283 86.832 45.5946C86.9337 45.8979 87.0897 46.1773 87.1832 46.4845C87.2836 46.8171 87.514 47.1116 87.6165 47.4449C87.8717 48.2778 88.3482 49.0276 88.5095 49.8932C89.007 50.8719 89.1478 51.9675 89.5057 52.9923C89.684 53.5033 89.7171 54.0629 89.8248 54.5989C90.0026 55.4886 90.089 56.3914 90.185 57.293C90.273 58.121 90.2868 58.9522 90.2638 59.784C90.2492 60.3813 90.2047 60.9794 90.1989 61.5777C90.1972 61.819 90.0016 62.0345 90.1194 62.2866C89.9149 62.7956 90.0252 63.3691 89.8011 63.8757C89.8642 64.236 89.6971 64.5508 89.5662 64.8601C89.4661 65.096 89.5893 65.3454 89.4532 65.5798C89.3283 65.7955 89.1963 66.0565 89.2056 66.2927C89.2211 66.7227 89.024 67.0701 88.8972 67.4448C88.6028 68.3144 88.2936 69.181 87.9689 70.0397C87.8617 70.321 87.8513 70.6506 87.6005 70.8738C87.3801 71.069 87.4624 71.4271 87.2082 71.6148C87.1157 71.6822 87.2668 71.8024 87.189 71.9116C87.039 72.1274 87.0856 72.4316 86.8383 72.6195C86.6468 72.7657 86.739 73.1022 86.4804 73.245C86.3235 73.3328 86.6317 73.646 86.301 73.69C86.2378 74.0144 86.0271 74.2656 85.871 74.5432C85.7411 74.773 85.7649 75.0645 85.5289 75.2588C85.3283 75.4245 85.4191 75.7902 85.1308 75.9201C85.0818 76.3135 84.7527 76.5704 84.6315 76.9357C84.54 77.2112 84.3674 77.4646 84.2025 77.7093C83.9484 78.0888 83.7029 78.476 83.4696 78.8675C83.3836 79.0126 83.285 79.1417 83.1877 79.2736C83.1318 79.3472 83.029 79.3539 82.9899 79.4632C82.7504 80.1538 82.2669 80.7026 81.8348 81.2673C81.5741 81.608 81.3412 81.9791 81.0133 82.2775C80.9245 82.3599 80.8628 82.5456 80.7451 82.6132C80.3955 82.8125 80.2047 83.1553 79.9701 83.4482C79.8416 83.61 79.7087 83.7521 79.5445 83.8669C79.5134 83.8901 79.4528 83.8936 79.4414 83.9192C79.2577 84.4083 78.8043 84.6619 78.4692 85.0125C78.1445 85.3531 77.7551 85.6319 77.4391 85.9801C76.8029 86.6821 76.0311 87.233 75.371 87.9058C75.1556 88.1257 74.8929 88.299 74.713 88.4448C74.5865 88.6074 74.7475 88.6808 74.6706 88.8131C74.5995 88.9292 74.4532 88.9364 74.2679 88.9182C74.199 89.3478 73.7994 89.5019 73.5115 89.7393C72.832 90.3003 72.1259 90.8335 71.4027 91.3377C70.9266 91.6677 70.4597 92.0101 69.9392 92.2854C68.2896 93.1598 66.6088 93.9683 64.9078 94.7308C64.2585 95.0218 63.6076 95.3168 62.9454 95.5735C62.3819 95.7901 61.8156 96.0148 61.2399 96.1951C59.8984 96.6157 58.5541 97.0376 57.182 97.3582C56.1318 97.602 55.072 97.783 54.0115 97.966C53.3324 98.0843 52.6514 98.17 51.9634 98.2303C50.8652 98.3269 49.769 98.399 48.6658 98.4459C47.63 98.4894 46.6037 98.308 45.5728 98.408C44.9708 98.1955 44.3154 98.3816 43.7158 98.1494C43.3979 98.2345 43.0929 98.0914 42.7947 98.0443C42.4857 97.9957 42.1525 98.0274 41.8533 97.8681C41.7174 97.7946 41.5295 97.9055 41.3635 97.8143C41.2264 97.738 41.0665 97.6741 40.8966 97.7345C40.8252 97.5126 40.6462 97.7455 40.5185 97.6429C40.3887 97.5395 40.1932 97.4606 40.0292 97.466C39.6291 97.4807 39.2914 97.2118 38.931 97.211C38.5387 97.2103 38.2399 96.9667 37.8866 96.9525C37.4552 96.9332 37.1687 96.5913 36.7646 96.5338C36.7301 96.5283 36.7061 96.4421 36.6766 96.3905C36.584 96.394 36.5927 96.4975 36.5132 96.5605C36.4142 96.4476 36.3309 96.3037 36.2081 96.2256C36.0625 96.1349 35.881 96.0998 35.6887 96.0311C35.5578 96.11 35.4097 96.1986 35.2789 96.2775C35.077 96.1461 34.8782 96.1596 34.7279 95.9987C34.6621 95.9273 34.4327 95.9367 34.2796 95.9118C34.077 95.8783 33.9855 95.6037 33.8194 95.6471C33.5951 95.7063 33.4416 95.599 33.2696 95.5376C31.6659 94.9722 30.0644 94.4006 28.465 93.8231C28.2929 93.7616 28.0683 93.7705 27.9895 93.5438C27.7165 93.7522 27.6749 93.3699 27.4817 93.342C27.3041 93.3152 27.1559 93.187 27.0004 93.079C26.7343 92.8973 26.3859 92.8437 26.0757 92.7216C25.8693 92.6411 25.6511 92.6066 25.4861 92.4039C25.3541 92.2427 25.0905 92.2331 24.8941 92.0991C24.6567 91.939 24.4099 91.7482 24.125 91.6511C23.9312 91.5865 23.7435 91.5241 23.5927 91.3516C23.4792 91.2221 23.2052 91.2864 23.136 91.0517C22.7515 90.9396 22.4704 90.659 22.1436 90.4556C21.3536 89.9637 20.6098 89.4129 19.8863 88.8306C19.2798 88.3426 18.667 87.866 18.0655 87.3705C17.8717 87.2101 17.6787 87.0408 17.4981 86.869C16.8434 86.2474 16.1668 85.6362 15.5883 84.9481C15.0722 84.3348 14.5257 83.7427 14.0347 83.104C13.7746 82.7647 13.438 82.4734 13.1574 82.1405C12.4946 81.3561 11.8539 80.5546 11.2561 79.7227C10.7295 78.9916 10.1843 78.2743 9.80596 77.4477C9.70584 77.2293 9.54384 77.0437 9.42999 76.8319C9.30108 76.5919 9.22668 76.3142 9.06669 76.0974C8.85839 75.8176 8.74421 75.4915 8.55225 75.2108C8.40383 74.9935 8.53811 74.6876 8.2474 74.5108C8.03523 74.3826 8.16283 74.0059 7.91667 73.845C7.94695 73.4723 7.59029 73.2629 7.53539 72.8986C7.48296 72.5467 7.23949 72.2247 7.08135 71.8875C6.92249 71.5523 6.72331 71.2279 6.61173 70.8754C6.40637 70.2292 6.04528 69.6484 5.82879 69.0142C5.62257 68.4088 5.28421 67.8475 5.20524 67.2053C5.18669 67.0526 5.05178 67.0661 5.00851 66.9571C4.96192 66.8446 5.01526 66.7335 4.95898 66.629C4.73184 66.2101 4.58293 65.7575 4.4278 65.3096C4.20524 64.6732 4.00118 64.0298 3.77312 63.396C3.4212 62.4122 3.16831 61.4067 2.92368 60.3972C2.76343 59.7398 2.62646 59.0746 2.48126 58.4133C2.31521 57.6442 2.14163 56.877 1.98989 56.1061C1.8758 55.5176 1.80061 54.9224 1.69403 54.332C1.60932 53.8658 1.50625 53.3999 1.40043 52.9353C1.25682 52.2952 1.13446 51.6467 0.995621 51.006C0.797862 50.0954 0.66618 49.1788 0.570657 48.2568C0.521951 47.792 0.471234 47.3266 0.481236 46.8508C0.487526 46.5518 0.476602 46.2306 0.438643 45.934C0.363006 45.3273 0.450188 44.7375 0.466817 44.1409C0.47327 43.9309 0.531075 43.737 0.549535 43.5381C0.565686 43.3522 0.599331 43.1747 0.625604 42.9924C0.7037 42.4473 0.882157 41.9153 0.867412 41.3554C0.866825 41.3186 0.871741 41.2793 0.888074 41.2463C1.16225 40.6891 1.13014 40.05 1.38278 39.4827C1.60824 38.9789 1.57165 38.3906 1.83442 37.8909C1.75234 37.5261 2.01413 37.2338 2.05512 36.9015C2.16436 36.0069 2.57008 35.209 2.84679 34.3697C3.12206 33.5343 3.43578 32.7128 3.72725 31.8832C3.93476 31.2954 4.28488 30.7812 4.58119 30.2387C4.64551 30.1224 4.7775 30.0212 4.81665 29.8731C4.89945 29.6219 5.05472 29.449 5.27492 29.3245ZM45.5622 7.95275C45.4067 7.71694 45.2426 7.76108 45.0715 7.81188C45.0332 7.91919 44.9942 8.02853 44.9371 8.18847C44.5973 8.08545 44.5226 8.5313 44.1692 8.55583C43.8771 8.57484 43.5988 8.77909 43.3181 8.90034C43.3267 9.04263 43.5348 9.00962 43.5189 9.18199C43.7617 9.08374 43.9787 8.885 44.2561 9.0479C44.293 8.94464 44.3182 8.87378 44.3493 8.78672C44.5862 8.80734 44.7786 8.67743 44.9792 8.58238C45.1715 8.49123 45.4451 8.57517 45.5526 8.31225C45.8071 8.43047 45.9041 8.12042 46.1275 8.102C46.3278 8.08445 46.519 7.945 46.7114 7.85385C46.9146 7.75749 47.0974 7.60358 47.291 7.51518C47.4846 7.42678 47.6488 7.27996 47.8561 7.2238C48.0708 7.16576 48.3202 7.17033 48.4736 6.98996C48.6368 6.79485 48.843 6.75431 49.08 6.73618C49.1214 6.35151 49.4134 6.43517 49.6791 6.47747C49.6426 6.40055 49.6257 6.36484 49.6075 6.32638C49.6612 6.19492 49.7714 6.35294 49.843 6.28033C50.0389 6.08318 50.2355 5.85205 50.5053 5.79313C50.8093 5.72813 51.0217 5.52317 51.2847 5.40019C52.3162 4.91463 53.354 4.44961 54.4088 4.0203C54.4808 3.99122 54.5557 3.92208 54.6215 3.92958C55.0114 3.98198 55.3034 3.73925 55.6396 3.62869C56.0018 3.50915 56.3461 3.30561 56.7047 3.22815C57.2464 3.11103 57.7807 2.989 58.2604 2.74479C58.3239 2.79712 58.3003 2.8823 58.346 2.87578C58.6267 2.75453 58.8903 2.54045 59.1215 2.57047C59.4341 2.609 59.5985 2.42342 59.9162 2.35191C59.3723 2.21944 59.3723 2.21944 58.9953 2.39306C58.8682 2.19932 58.5941 2.39822 58.4414 2.18627C58.3233 2.37009 58.2589 2.65296 57.9413 2.49397C57.8794 2.46275 57.8186 2.47983 57.7804 2.51642C57.5051 2.80166 57.1086 2.77428 56.7724 2.88485C56.5061 2.9724 56.2084 3.09668 55.9483 2.91715C55.7346 3.15132 55.5079 3.26214 55.242 3.29735C55.2028 3.22173 55.176 3.16881 55.1446 3.10968C55.0293 3.22828 54.9174 3.34356 54.8013 3.46419C54.6088 3.40235 54.4108 3.43898 54.2116 3.47287C54.1856 3.54575 54.1596 3.61865 54.1336 3.69153C53.948 3.655 53.7998 3.75047 53.6526 3.83033C53.5164 3.90498 53.3445 3.83677 53.2217 4.01438C53.1341 4.13833 52.9178 4.17526 52.7592 4.24876C52.6263 4.23101 52.5035 4.12099 52.3258 4.16485C52.4126 4.24147 52.4667 4.28816 52.5869 4.39268C52.2877 4.29732 52.2039 4.53218 52.0283 4.60193C51.7383 4.71754 51.4618 4.86539 51.1789 4.99951C51.1905 5.25474 50.9053 5.01144 50.8482 5.20335C50.7823 5.42635 50.5818 5.09915 50.4799 5.25679C50.4965 5.3061 50.5139 5.35339 50.4978 5.30885C50.1427 5.47885 49.8131 5.6351 49.4814 5.79064C49.3972 5.84734 49.4596 5.62767 49.3337 5.69914C49.1222 5.7994 49.5074 6.00537 49.2499 6.09379C49.1691 6.09005 49.2176 5.9476 49.1008 5.97439C49.0151 6.04194 49.0633 6.2075 48.921 6.24802C48.8896 6.15693 48.8576 6.06107 48.7998 6.06325C48.6595 6.07254 48.6527 6.13631 48.6339 6.18895C48.5542 6.42526 48.4339 6.61516 48.149 6.61393C48.0641 6.83925 47.8276 6.73431 47.6787 6.83182C47.516 6.93583 47.3024 6.97146 47.1564 7.09282C46.6939 7.48699 46.1034 7.63231 45.5622 7.95275ZM18.6623 20.7332C19.1618 20.6513 19.4854 20.3331 19.8674 20.1453C20.1964 19.9842 20.5092 19.7603 20.8235 19.5575C21.164 19.3389 21.5383 19.1918 21.8713 18.975C22.3642 18.6556 22.851 18.3341 23.3825 18.0855C23.5226 18.0191 23.6995 17.984 23.7949 17.8766C24.0573 17.589 24.4292 17.5255 24.7462 17.3533C25.0633 17.1811 25.3272 16.9215 25.6791 16.8052C25.7723 16.7745 25.8584 16.8144 25.9738 16.7277C26.445 16.3732 27.049 16.2349 27.5119 15.8523C27.7475 15.9021 27.8469 15.6683 28.0306 15.6014C28.2169 15.5333 28.391 15.4356 28.5861 15.3432C28.362 15.1331 28.2263 15.3472 28.0768 15.376C27.42 15.5022 26.7741 15.694 26.1554 15.9503C24.9468 16.4525 23.8026 17.0873 22.6967 17.7814C22.4224 17.9552 22.124 18.0815 21.8604 18.2636C20.9642 18.8819 20.0818 19.5188 19.2053 20.1647C19.0106 20.3074 18.8127 20.4719 18.6623 20.7332ZM12.9382 21.2949C13.0269 21.2512 13.0943 21.2159 13.1609 21.1826C13.074 21.0489 13.1179 20.9002 13.084 20.7649C13.228 20.5789 13.4381 20.9368 13.5728 20.7065C13.5635 20.5981 13.3859 20.6352 13.4057 20.503C13.4412 20.3012 13.6305 20.2249 13.7408 20.0885C13.8385 20.096 13.9139 20.1982 14.0219 20.1386C13.9733 19.9934 13.941 19.8473 14.0895 19.7382C14.385 19.5241 14.5734 19.169 14.949 19.0566C15.0845 19.0159 15.0999 18.832 15.2512 18.8175C15.2695 18.5296 15.5192 18.4247 15.6985 18.2741C16.2821 17.7771 16.8571 17.2724 17.4692 16.8107C18.279 16.198 19.0916 15.5841 19.9534 15.0495C20.5479 14.6819 21.1146 14.2518 21.7688 13.9854C21.8724 13.9448 21.9079 13.8707 21.8566 13.7908C19.2282 14.8112 17.0763 16.5175 15.076 18.4514C15.0332 18.3539 15.0074 18.2534 14.8759 18.2636C14.7238 18.4147 14.5842 18.5886 14.4116 18.7142C14.1969 18.8681 14.1326 19.0483 14.2349 19.2605C14.0484 19.4313 13.8916 19.5763 13.7461 19.7092C13.6541 19.6855 13.5444 19.6281 13.5119 19.6553C13.2771 19.8591 12.9593 20.0014 12.9675 20.3878C12.7263 20.2834 12.6749 20.5298 12.5251 20.5722C12.5497 20.791 12.1655 20.7931 12.2743 21.0831C12.3529 21.2914 12.2176 21.4211 11.9863 21.4231C11.9694 21.3874 11.9525 21.3517 11.929 21.3022C11.888 21.4747 11.6172 21.4534 11.638 21.6571C11.6952 21.7848 11.8157 21.5494 11.8571 21.7468C11.6385 21.9883 11.4347 22.2716 11.1711 22.4857C10.9968 22.6289 10.9721 22.7685 10.9457 22.9896C11.1527 22.8124 11.2656 22.5856 11.532 22.5939C11.4825 22.4895 11.4151 22.397 11.5714 22.3044C11.7132 22.2204 11.8263 22.2744 11.9555 22.3091C12.0014 22.321 12.0254 22.2793 12.0085 22.2436C11.9517 22.1982 11.8969 22.1535 11.814 22.0851C12.1669 21.7614 12.4615 21.3964 12.8613 21.1396C12.8901 21.1932 12.905 21.2282 12.9382 21.2949ZM46.7419 98.0423C46.8231 98.1535 46.9267 98.1768 47.0466 98.167C47.5507 98.1232 48.0601 98.1476 48.5633 98.1445C49.4705 98.1418 50.368 98.0764 51.2686 97.9961C52.8034 97.859 54.3322 97.6559 55.8466 97.3587C56.4925 97.2308 57.1393 97.0942 57.7758 96.9287C58.4574 96.752 59.1259 96.5226 59.809 96.3418C60.464 96.1693 61.0856 95.9049 61.7283 95.7029C62.2683 95.5327 62.766 95.2447 63.3248 95.1245C63.4361 95.1003 63.5389 95.0298 63.642 94.9775C63.7451 94.9253 63.8681 94.8939 63.9398 94.8145C63.8396 94.6988 63.7696 94.7286 63.6988 94.7673C63.3776 94.938 63.0205 95.0433 62.6833 95.1376C61.8701 95.3632 61.0916 95.6834 60.2868 95.9303C59.8583 96.0627 59.4316 96.2414 59.002 96.3323C58.0342 96.5371 57.0834 96.8094 56.1143 97.0114C54.8106 97.2811 53.4947 97.4506 52.1864 97.6822C51.8765 97.7382 51.567 97.678 51.2667 97.7329C50.6053 97.8529 49.9385 97.9368 49.2703 97.9289C48.7631 97.9237 48.2647 98.022 47.7508 97.9847C47.4344 97.963 47.0789 97.9549 46.7419 98.0423ZM56.2286 85.9135C56.5158 85.7741 56.829 85.7854 57.1353 85.7395C57.4968 85.6859 57.8473 85.5736 58.2076 85.5105C58.3441 85.4861 58.3885 85.2532 58.5697 85.3658C59.0526 84.9401 59.6498 84.7697 60.2572 84.5962C60.3081 84.6646 60.3491 84.7226 60.3874 84.775C60.4581 84.7432 60.5308 84.7121 60.5988 84.6816C60.5768 84.6281 60.5561 84.5773 60.5347 84.5286C60.6538 84.425 60.7748 84.6554 60.8974 84.5165C60.8399 84.4663 60.7858 84.4196 60.729 84.3743C60.8672 84.0447 60.8679 84.0426 61.1995 84.0856C61.2645 84.0952 61.3097 84.0839 61.3335 84.0171C61.3802 83.931 61.3073 83.8731 61.2863 83.8039C61.3919 83.7001 61.6561 83.7464 61.6113 83.5136C61.2186 83.5013 60.9228 83.729 60.5866 83.8395C60.1983 83.968 59.7998 84.0678 59.4178 84.2236C59.0475 84.3722 58.6732 84.5194 58.2998 84.6509C57.8772 84.7991 57.434 84.8897 57.028 85.0872C56.8871 85.1556 56.7466 85.2744 56.6052 85.2742C56.4182 85.2736 56.2784 85.3584 56.1247 85.4245C55.96 85.4958 55.8012 85.5762 55.6494 85.6498C55.7974 85.9194 56.144 85.5752 56.2286 85.9135ZM48.1586 36.9428C48.4052 36.9874 48.4266 36.7418 48.598 36.6774C48.7686 36.615 48.9272 36.5095 49.0832 36.3986C49.6768 35.9759 50.3068 35.605 50.9262 35.2189C51.3727 34.94 51.8332 34.6729 52.2577 34.3724C52.6822 34.072 53.1469 33.8315 53.5534 33.511C53.9386 33.2056 54.4474 33.0654 54.7387 32.6329C54.5433 32.3555 54.3456 32.2827 54.0467 32.4613C53.617 32.7188 53.2057 33.008 52.793 33.2944C52.5053 33.493 52.2406 33.7295 51.9404 33.9054C51.3497 34.2561 50.8237 34.6938 50.2866 35.1116C49.6381 35.6174 48.9897 36.1233 48.3354 36.6202C48.2103 36.7148 48.1581 36.8034 48.1586 36.9428ZM6.65366 56.9487C6.63381 56.7933 6.64737 56.6338 6.58458 56.5155C6.55058 56.4509 6.46252 56.4354 6.47204 56.3064C6.51023 55.7837 6.54985 55.2569 6.53092 54.7343C6.5216 54.4662 6.58718 54.1928 6.47794 53.9233C6.18305 53.2018 5.90869 52.4739 5.62682 51.7479C5.60106 51.6794 5.53352 51.6256 5.56604 51.5345C5.61156 51.4069 5.5067 51.317 5.45982 51.2181C5.41816 51.1302 5.41466 51.0057 5.2495 50.9377C5.30554 51.8296 5.46205 52.6638 5.62957 53.4927C5.78912 54.2801 5.96025 55.067 6.14916 55.8488C6.23486 56.2035 6.27963 56.5642 6.33669 56.9224C6.34321 56.9681 6.38515 57.0104 6.39889 57.0359C6.48926 57.0065 6.56257 56.9801 6.65366 56.9487ZM40.1155 75.6759C40.2711 75.291 40.6427 75.0812 40.8626 74.7465C41.1323 74.3361 41.4362 73.9515 41.7153 73.5466C41.9524 73.2021 42.2075 72.8709 42.4179 72.5054C42.6358 72.1313 42.9344 71.8064 43.1746 71.4402C43.424 71.0613 43.66 70.6685 43.9455 70.3162C44.1054 70.1176 44.2725 69.9307 44.4057 69.7112C44.5557 69.4634 44.7107 69.2083 44.9115 69.0038C45.1157 68.7959 45.1295 68.4311 45.4802 68.3439C45.5649 68.3239 45.5766 68.1889 45.5806 68.0945C45.5816 68.0469 45.544 67.9604 45.5542 67.9572C45.8651 67.8217 45.8957 67.4674 46.1331 67.2371C46.0206 67.2198 45.9671 67.1778 45.8783 67.2923C45.4708 67.8202 45.0284 68.3242 44.6262 68.8563C44.4843 69.043 44.2838 69.202 44.243 69.4568C43.8265 69.7989 43.5938 70.2911 43.3187 70.7293C43.0373 71.179 42.7209 71.6116 42.4248 72.0446C41.7683 73.0018 41.1586 73.9939 40.4323 74.9034C40.399 75.1951 40.0278 75.3205 40.1155 75.6759ZM31.6217 88.4056C31.603 88.5861 31.5906 88.6912 31.5802 88.797C31.2815 88.7065 31.3281 89.1453 31.0185 89.1239C30.7123 89.0351 30.3747 88.8553 29.9814 88.8702C29.7983 88.8779 29.793 88.9376 29.8296 89.0717C30.097 89.1602 30.3481 89.3137 30.6179 89.2229C30.7274 89.319 30.5918 89.4304 30.6949 89.506C31.0371 89.6281 31.3841 89.8455 31.7355 89.8522C32.1229 89.8604 32.4321 90.03 32.7734 90.129C33.1288 90.233 33.4713 90.3735 33.8216 90.4985C33.9127 90.531 34.0044 90.5683 34.0976 90.5948C34.1287 90.6036 34.1685 90.5881 34.2046 90.5827C34.2377 90.4964 34.3019 90.4189 34.2749 90.3156C33.9041 90.3248 33.9193 90.3143 33.7687 90.0391C33.6881 89.894 33.8375 89.8719 33.839 89.7972C33.8498 89.5751 33.589 89.5961 33.517 89.4586C33.4397 89.3556 33.6706 89.2714 33.5071 89.1537C33.3681 89.3004 33.4235 89.6055 33.1175 89.6059C32.8731 89.3634 32.8731 89.3635 32.5711 89.5958C32.5118 89.7298 32.776 89.6803 32.7154 89.8436C32.5863 89.7769 32.3829 89.8481 32.4376 89.5732C32.4536 89.4899 32.2584 89.3655 32.2018 89.3065C32.0779 89.2509 32.0275 89.3858 31.9599 89.3C31.8487 89.1576 31.8936 88.9933 31.8619 88.8519C31.9586 88.7792 32.0837 88.7804 32.1366 88.6898C31.9961 88.5141 31.8607 88.7465 31.7373 88.6317C31.7145 88.587 31.689 88.5369 31.6217 88.4056ZM26.9921 22.4322C26.7366 22.5533 26.4933 22.6468 26.2722 22.7801C26.0546 22.9102 25.8075 22.9567 25.5812 23.0791C25.2806 23.2434 25.0228 23.4733 24.7085 23.6122C24.0833 23.8866 23.5151 24.2636 22.935 24.6227C22.0263 25.1863 21.2308 25.893 20.4109 26.566C20.2207 26.7217 20.0563 26.9073 19.8814 27.0777C22.2803 25.6193 24.5005 23.9009 26.9807 22.5856C26.9959 22.5751 26.9849 22.5163 26.9921 22.4322ZM56.9495 65.6008C57.9048 64.9899 58.7442 64.2623 59.5623 63.5112C60.5469 62.6071 61.5055 61.6733 62.4814 60.7616C62.591 60.6592 62.6283 60.5675 62.586 60.4109C60.6548 62.0042 58.8596 63.7214 57.0273 65.3957C56.9781 65.4375 56.9741 65.5319 56.9495 65.6008ZM65.335 86.7347C64.7379 86.7384 64.276 87.1054 63.7309 87.2259C63.1672 87.3534 62.626 87.546 62.0841 87.7406C61.5264 87.9411 60.979 88.1702 60.4298 88.3851C60.501 88.4607 60.6084 88.5242 60.7183 88.4721C61.123 88.2719 61.6302 88.4689 61.9994 88.1441C62.3086 88.2499 62.5381 88.0419 62.8024 87.9536C62.9886 87.8923 63.1956 87.8817 63.3337 87.9424C63.5448 87.7666 63.72 87.6785 63.9652 87.6565C64.1683 87.6376 64.3435 87.4536 64.5727 87.4829C64.5379 87.1327 64.5703 87.1123 65.0543 87.1504C65.0667 87.0772 64.9645 87.0247 65.0467 86.8966C65.1183 86.8559 65.227 86.7943 65.335 86.7347ZM61.4807 82.901C60.4918 83.0114 58.1314 83.7988 57.6094 84.4684C57.884 84.4089 58.1452 84.4702 58.3269 84.2041C58.3935 84.1069 58.5786 84.0999 58.683 84.0185C58.8344 83.9013 58.9633 84.1093 59.1225 84.0087C59.2872 83.9054 59.532 83.9037 59.6578 83.7751C59.8281 83.5985 60.0486 83.6841 60.2243 83.5756C60.389 83.4723 60.5726 83.3415 60.7494 83.3384C60.9582 83.3353 61.071 83.0834 61.2704 83.1706C61.4813 83.2641 61.5402 82.9199 61.7418 83.0329C62.0081 82.8815 62.334 82.9019 62.5927 82.7272C62.6858 82.6645 62.7386 82.6126 62.682 82.4897C62.424 82.4387 62.1867 82.5663 61.9687 82.6209C61.8456 82.5564 61.8598 82.3697 61.6902 82.4165C61.6784 82.4237 61.6518 82.4279 61.6468 82.4421C61.592 82.5892 61.54 82.7349 61.4807 82.901ZM65.7063 31.2446C65.8603 31.2927 65.8595 31.4613 66.0594 31.4642C66.2592 31.467 66.4126 31.3825 66.5873 31.3535C66.833 31.3111 66.9855 31.1396 67.0666 30.938C67.1375 30.7647 67.2589 30.8788 67.3634 30.8225C67.504 30.4732 67.6122 30.1124 67.3378 29.679C66.8041 30.228 66.0876 30.5087 65.7063 31.2446ZM86.9726 60.9924C87.1053 60.6334 87.1607 60.3565 87.2078 60.0583C87.2868 59.5684 87.289 59.0761 87.3481 58.5905C87.4372 57.8485 87.3582 57.1105 87.3479 56.3718C87.3448 56.1311 87.3517 55.8687 87.2951 55.618C87.2403 55.3748 87.1953 55.1236 87.2 54.8674C87.2006 54.8402 87.1978 54.7456 87.0733 54.7811C87.0622 54.889 87.0214 54.984 87.04 55.1367C87.1075 55.7086 87.0722 56.2871 87.0907 56.8621C87.1104 57.4786 87.0812 58.0913 87.0351 58.7002C87.0106 59.0247 86.9961 59.3596 86.9778 59.6795C86.9572 60.0762 86.8506 60.4901 86.9726 60.9924Z" fill="#41766C"/>
</svg>
