<svg width="233" height="244" viewBox="0 0 233 244" fill="none" xmlns="http://www.w3.org/2000/svg">
<path d="M35.3844 88.3495C35.1485 88.0499 35.3032 87.7271 35.4647 87.521C36.4794 86.2172 37.2733 84.7686 38.2429 83.4311C38.7526 82.7295 39.2401 81.9672 39.6392 81.169C39.9562 80.5393 40.4953 80.0635 40.8307 79.4315C41.192 78.7517 41.7354 78.1896 42.1499 77.5331C42.4968 76.9799 43.0372 76.5618 43.4116 76.0053C43.955 75.197 44.5708 74.4322 45.1902 73.6818C45.5906 73.2005 45.9282 72.6485 46.4901 72.3303C46.6385 72.247 46.6625 72.1061 46.7485 72.0005C47.126 71.5462 47.4854 71.0811 47.9222 70.6699C48.8321 69.8078 49.6547 68.8574 50.576 68.0126C51.2437 67.3981 51.8715 66.7474 52.5199 66.1129C53.1455 65.5054 53.7814 64.9059 54.4287 64.3237C55.9489 62.9585 57.5292 61.6587 59.1934 60.4812C60.4986 59.558 61.8711 58.7423 63.2766 57.9692C64.4146 57.3423 65.5389 56.6798 66.743 56.2128C67.7081 55.8363 68.6264 55.32 69.6091 55.0422C70.5339 54.7788 71.4519 54.4602 72.3666 54.1757C74.4796 53.5143 76.6143 52.9398 78.7721 52.4484C80.0405 52.1581 81.3214 51.8944 82.5823 51.5883C84.0604 51.2279 85.5663 51.0356 87.043 50.6791C87.909 50.4694 88.833 50.3684 89.7241 50.2117C90.5862 50.0622 91.4668 50.0336 92.3183 49.8276C93.1698 49.6215 94.0565 49.5511 94.9153 49.4356C95.7229 49.3282 96.5607 49.025 97.406 49.2432C97.9642 48.7874 98.6529 49.0376 99.2745 48.9341C99.8868 48.8318 100.53 48.7667 101.13 48.6248C101.748 48.4807 102.384 48.3513 102.999 48.2281C104.25 47.9755 105.473 47.6031 106.715 47.3477C107.474 47.1922 108.13 46.8197 108.858 46.6045C110.236 46.1909 111.574 45.618 112.86 44.934C113.375 44.6607 113.912 44.4258 114.483 44.3174C114.916 44.2348 115.078 43.8179 115.469 43.6716C116.101 43.44 116.696 43.1029 117.311 42.8212C117.516 42.7273 117.7 42.6304 117.742 42.3903C117.968 42.4448 118.143 42.4852 118.304 42.5252C118.525 42.4238 118.253 42.3487 118.316 42.2217C118.559 42.084 118.784 41.8701 119.126 41.8865C119.446 41.8998 119.519 41.5346 119.814 41.4374C120.45 41.2295 120.846 40.4914 121.636 40.5932C122.049 40.0768 122.684 39.8727 123.205 39.5092C123.464 39.3248 123.776 39.1899 124.125 39.2352C124.428 39.273 124.427 38.6838 124.819 38.8897C125.593 38.0758 126.715 37.975 127.677 37.6063C129.218 37.022 130.727 36.3165 132.378 35.9872C133.205 35.8252 134.017 35.4115 134.855 35.2314C136.742 34.8193 138.601 34.2783 140.539 34.0952C141.34 34.0203 142.121 33.7631 142.923 33.6975C144.619 33.5511 146.321 33.4023 148.026 33.391C148.344 33.3859 148.665 33.3245 148.975 33.5013C149.312 33.6917 149.584 33.3229 149.941 33.3317C150.364 33.3419 150.745 33.5568 151.204 33.4879C151.459 33.4514 151.846 33.5629 152.139 33.518C153.095 33.3758 154.014 33.805 154.966 33.639C155.326 33.5785 155.682 33.7759 156.008 33.8705C157.121 34.1885 158.32 33.9832 159.388 34.4522C159.973 34.7094 160.574 34.7744 161.18 34.7269C161.374 34.7127 161.58 34.6895 161.695 34.7967C162.105 35.1759 162.654 35.1298 163.13 35.2734C163.639 35.4242 164.198 35.3953 164.71 35.613C165.229 35.8334 165.766 36.1393 166.303 36.1598C167.264 36.1905 168.081 36.6097 168.942 36.908C169.372 37.0571 169.907 37.037 170.178 37.5599C170.321 37.8353 170.735 37.2403 170.934 37.7067C171.051 37.9816 171.287 37.9996 171.578 37.9586C171.846 37.9223 171.972 38.3937 172.253 38.2962C172.529 38.2012 172.926 38.1847 172.958 38.3412C173.037 38.7343 173.492 38.3956 173.534 38.7225C173.537 38.7501 173.579 38.7824 173.611 38.7896C174.595 39.0133 175.335 39.7477 176.31 40.0209C176.878 40.1795 177.427 40.525 177.897 40.895C178.352 41.2463 178.863 41.5032 179.348 41.7688C180.196 42.2253 180.866 42.9216 181.711 43.3636C181.94 43.4849 181.788 44.0946 182.316 43.8346C182.401 44.2122 182.79 44.1444 183.005 44.3179C183.166 44.4457 183.245 44.6804 183.388 44.9204C183.904 45.0517 184.286 45.4473 184.724 45.8324C185.564 46.5715 186.368 47.3466 187.101 48.1752C188.109 49.3173 189.188 50.432 189.813 51.8594C189.942 52.1515 190.263 52.0639 190.401 52.3065C191.217 53.7273 192.173 55.0621 192.736 56.6387C192.971 57.2984 193.456 57.8978 193.7 58.5695C194.192 59.9233 194.866 61.2011 195.168 62.6452C195.347 63.5001 195.669 64.358 195.872 65.2304C196.299 67.0399 196.656 68.8597 196.64 70.7266C196.631 72.1209 196.647 73.5158 196.522 74.913C196.478 75.3939 196.272 75.8348 196.276 76.2801C196.28 76.7385 196.189 77.1412 196.024 77.5397C195.895 77.8539 196.145 78.1629 195.951 78.498C195.801 78.7567 195.629 79.0556 195.797 79.4454C195.875 79.6225 195.659 79.9322 195.571 80.1779C195.444 80.5327 195.368 80.9187 195.177 81.2329C195.02 81.4888 195.383 81.8867 194.93 82.0238C195.168 82.4164 194.865 82.7348 194.77 83.0745C194.681 83.3987 194.546 83.7154 194.433 84.0312C194.307 84.386 194.18 84.7408 194.053 85.0956C193.939 85.4154 193.733 85.7332 193.733 86.054C193.733 86.6694 193.385 87.178 193.304 87.7734C193.215 88.4315 192.901 89.0626 192.647 89.6884C192.425 90.2376 192.584 90.8394 192.305 91.3861C192.036 91.9186 191.742 92.5082 191.722 93.0813C191.697 93.7316 191.291 94.29 191.339 94.8698C191.395 95.5624 190.928 96.0593 190.894 96.6714C190.828 98.0017 190.336 99.2681 190.245 100.572C190.128 102.218 189.804 103.839 189.765 105.499C189.74 106.581 189.749 107.665 189.723 108.746C189.697 109.818 189.888 110.897 190.047 111.965C190.243 113.301 190.593 114.599 191.003 115.888C191.416 117.183 192.015 118.399 192.445 119.682C192.641 120.266 192.941 120.804 193.121 121.396C193.315 122.036 193.758 122.604 193.956 123.245C194.447 124.849 195.365 126.293 195.675 127.96C196.633 129.845 196.905 131.955 197.594 133.928C197.937 134.912 198.001 135.99 198.208 137.022C198.551 138.736 198.717 140.474 198.902 142.211C199.071 143.805 199.098 145.406 199.054 147.008C199.026 148.158 198.94 149.31 198.929 150.462C198.925 150.927 198.549 151.342 198.776 151.827C198.382 152.807 198.594 153.912 198.163 154.887C198.284 155.581 197.962 156.187 197.71 156.783C197.517 157.237 197.755 157.718 197.493 158.169C197.252 158.584 196.998 159.087 197.016 159.542C197.046 160.37 196.666 161.039 196.422 161.761C195.855 163.435 195.26 165.104 194.634 166.758C194.428 167.3 194.408 167.934 193.925 168.364C193.5 168.74 193.659 169.43 193.169 169.791C192.991 169.921 193.282 170.152 193.132 170.363C192.843 170.778 192.933 171.364 192.457 171.726C192.088 172.008 192.266 172.656 191.768 172.931C191.466 173.1 192.059 173.703 191.422 173.787C191.3 174.412 190.895 174.896 190.594 175.43C190.344 175.873 190.39 176.434 189.935 176.809C189.549 177.128 189.724 177.832 189.169 178.082C189.074 178.84 188.441 179.334 188.207 180.038C188.031 180.568 187.699 181.056 187.381 181.528C186.892 182.259 186.419 183.004 185.97 183.758C185.804 184.037 185.614 184.286 185.427 184.54C185.319 184.682 185.121 184.695 185.046 184.905C184.585 186.235 183.654 187.292 182.821 188.38C182.319 189.036 181.871 189.75 181.239 190.325C181.068 190.484 180.95 190.841 180.723 190.971C180.05 191.355 179.682 192.015 179.23 192.579C178.983 192.891 178.727 193.165 178.411 193.386C178.351 193.43 178.234 193.437 178.212 193.486C177.858 194.428 176.985 194.917 176.34 195.592C175.715 196.248 174.965 196.785 174.356 197.455C173.131 198.807 171.645 199.868 170.374 201.164C169.959 201.587 169.453 201.921 169.106 202.202C168.863 202.515 169.173 202.656 169.025 202.911C168.888 203.135 168.606 203.148 168.249 203.113C168.117 203.941 167.347 204.238 166.793 204.695C165.484 205.775 164.124 206.802 162.731 207.773C161.815 208.408 160.916 209.068 159.913 209.598C156.736 211.282 153.499 212.839 150.224 214.307C148.973 214.868 147.72 215.436 146.445 215.93C145.36 216.347 144.269 216.78 143.16 217.127C140.577 217.937 137.988 218.75 135.346 219.367C133.323 219.836 131.282 220.185 129.24 220.538C127.932 220.765 126.621 220.93 125.296 221.046C123.181 221.232 121.07 221.371 118.945 221.462C116.951 221.545 114.974 221.196 112.989 221.389C111.83 220.979 110.568 221.338 109.413 220.891C108.801 221.055 108.213 220.779 107.639 220.688C107.044 220.595 106.402 220.656 105.826 220.349C105.564 220.207 105.202 220.421 104.883 220.245C104.619 220.098 104.311 219.975 103.984 220.092C103.846 219.664 103.501 220.113 103.255 219.915C103.006 219.716 102.629 219.564 102.313 219.575C101.543 219.603 100.892 219.085 100.198 219.084C99.4429 219.082 98.8674 218.613 98.1871 218.586C97.3564 218.549 96.8046 217.89 96.0265 217.779C95.9599 217.769 95.9137 217.603 95.8568 217.503C95.6786 217.51 95.6953 217.71 95.5422 217.831C95.3517 217.613 95.1912 217.336 94.9547 217.186C94.6743 217.011 94.3248 216.944 93.9544 216.811C93.7024 216.963 93.4172 217.134 93.1653 217.286C92.7764 217.033 92.3935 217.059 92.1041 216.749C91.9774 216.611 91.5357 216.63 91.2408 216.581C90.8506 216.517 90.6745 215.988 90.3545 216.072C89.9226 216.186 89.6271 215.979 89.2957 215.861C86.2074 214.772 83.1232 213.671 80.0433 212.559C79.7119 212.441 79.2794 212.458 79.1275 212.021C78.6018 212.423 78.5217 211.686 78.1496 211.633C77.8077 211.581 77.5221 211.334 77.2227 211.126C76.7102 210.776 76.0394 210.673 75.442 210.438C75.0445 210.283 74.6243 210.217 74.3065 209.826C74.0524 209.516 73.5447 209.497 73.1665 209.239C72.7094 208.931 72.234 208.563 71.6853 208.376C71.3121 208.252 70.9506 208.132 70.6604 207.8C70.4417 207.55 69.914 207.674 69.7808 207.222C69.0403 207.006 68.499 206.466 67.8696 206.074C66.3483 205.127 64.9158 204.066 63.5226 202.945C62.3547 202.005 61.1746 201.087 60.0161 200.133C59.6429 199.824 59.2713 199.498 58.9234 199.167C57.6627 197.97 56.3597 196.793 55.2457 195.468C54.2518 194.287 53.1994 193.147 52.2537 191.917C51.7528 191.263 51.1047 190.702 50.5642 190.061C49.2879 188.551 48.0541 187.007 46.9028 185.405C45.8887 183.997 44.8388 182.616 44.1102 181.024C43.9174 180.603 43.6054 180.246 43.3861 179.838C43.1379 179.376 42.9946 178.841 42.6865 178.423C42.2854 177.885 42.0655 177.257 41.6958 176.716C41.41 176.298 41.6686 175.709 41.1088 175.368C40.7002 175.121 40.9459 174.396 40.4718 174.086C40.5301 173.368 39.8433 172.965 39.7376 172.263C39.6366 171.586 39.1677 170.966 38.8632 170.316C38.5573 169.671 38.1737 169.046 37.9588 168.367C37.5633 167.123 36.868 166.004 36.451 164.783C36.0539 163.617 35.4023 162.536 35.2502 161.299C35.2145 161.005 34.9547 161.031 34.8714 160.821C34.7817 160.605 34.8844 160.391 34.776 160.19C34.3386 159.383 34.0518 158.511 33.7531 157.649C33.3245 156.423 32.9315 155.184 32.4923 153.964C31.8146 152.069 31.3276 150.133 30.8565 148.189C30.5479 146.922 30.2841 145.641 30.0045 144.368C29.6847 142.887 29.3504 141.409 29.0582 139.925C28.8385 138.792 28.6937 137.645 28.4885 136.508C28.3253 135.611 28.1268 134.713 27.923 133.819C27.6465 132.586 27.4108 131.337 27.1435 130.103C26.7626 128.35 26.509 126.584 26.3251 124.809C26.2313 123.914 26.1336 123.017 26.1529 122.101C26.165 121.525 26.144 120.907 26.0709 120.336C25.9252 119.167 26.0931 118.032 26.1251 116.883C26.1375 116.478 26.2489 116.105 26.2844 115.722C26.3155 115.364 26.3803 115.022 26.4309 114.671C26.5813 113.621 26.925 112.597 26.8966 111.518C26.8954 111.448 26.9049 111.372 26.9364 111.308C27.4644 110.235 27.4025 109.004 27.889 107.912C28.3232 106.942 28.2528 105.809 28.7588 104.847C28.6007 104.144 29.1049 103.581 29.1838 102.941C29.3942 101.218 30.1755 99.6818 30.7084 98.0654C31.2385 96.4568 31.8427 94.8746 32.404 93.2771C32.8036 92.145 33.4778 91.1548 34.0485 90.1101C34.1723 89.8862 34.4265 89.6912 34.5019 89.406C34.6614 88.9223 34.9604 88.5894 35.3844 88.3495ZM112.969 47.1925C112.669 46.7383 112.353 46.8234 112.024 46.9212C111.95 47.1278 111.875 47.3384 111.765 47.6464C111.11 47.448 110.967 48.3066 110.286 48.3538C109.723 48.3905 109.187 48.7838 108.647 49.0173C108.664 49.2913 109.064 49.2277 109.034 49.5597C109.501 49.3705 109.919 48.9878 110.453 49.3015C110.524 49.1026 110.573 48.9662 110.633 48.7985C111.089 48.8382 111.46 48.588 111.846 48.405C112.216 48.2294 112.743 48.3911 112.95 47.8848C113.44 48.1124 113.627 47.5154 114.057 47.4799C114.443 47.4461 114.811 47.1775 115.182 47.002C115.573 46.8164 115.925 46.52 116.298 46.3498C116.671 46.1796 116.987 45.8968 117.386 45.7887C117.8 45.6769 118.28 45.6857 118.575 45.3384C118.89 44.9626 119.287 44.8845 119.743 44.8496C119.823 44.1088 120.385 44.2699 120.897 44.3514C120.827 44.2033 120.794 44.1345 120.759 44.0604C120.862 43.8073 121.075 44.1116 121.212 43.9718C121.59 43.5921 121.968 43.147 122.488 43.0335C123.073 42.9083 123.482 42.5136 123.989 42.2768C125.975 41.3417 127.974 40.4462 130.005 39.6195C130.144 39.5635 130.288 39.4303 130.415 39.4447C131.166 39.5457 131.728 39.0782 132.375 38.8653C133.073 38.6351 133.736 38.2431 134.426 38.094C135.47 37.8684 136.499 37.6334 137.422 37.1631C137.545 37.2639 137.499 37.4279 137.587 37.4154C138.128 37.1819 138.635 36.7696 139.081 36.8274C139.683 36.9016 139.999 36.5442 140.611 36.4065C139.564 36.1514 139.564 36.1514 138.838 36.4858C138.593 36.1127 138.065 36.4957 137.771 36.0875C137.544 36.4415 137.42 36.9863 136.808 36.6801C136.689 36.62 136.572 36.6529 136.498 36.7233C135.968 37.2726 135.204 37.2199 134.557 37.4328C134.044 37.6014 133.471 37.8408 132.97 37.495C132.558 37.946 132.122 38.1594 131.61 38.2272C131.534 38.0816 131.483 37.9797 131.422 37.8658C131.2 38.0942 130.985 38.3162 130.761 38.5485C130.39 38.4294 130.009 38.5 129.625 38.5652C129.575 38.7056 129.525 38.846 129.475 38.9863C129.118 38.916 128.832 39.0998 128.549 39.2536C128.287 39.3974 127.955 39.266 127.719 39.608C127.55 39.8467 127.134 39.9179 126.828 40.0594C126.572 40.0252 126.336 39.8134 125.994 39.8978C126.161 40.0454 126.265 40.1353 126.497 40.3366C125.92 40.1529 125.759 40.6052 125.421 40.7395C124.862 40.9622 124.33 41.2469 123.785 41.5052C123.807 41.9967 123.258 41.5282 123.148 41.8977C123.021 42.3272 122.635 41.6971 122.439 42.0007C122.471 42.0956 122.504 42.1867 122.473 42.1009C121.79 42.4283 121.155 42.7292 120.516 43.0287C120.354 43.1379 120.474 42.7149 120.232 42.8525C119.824 43.0456 120.566 43.4422 120.07 43.6125C119.915 43.6053 120.008 43.331 119.783 43.3826C119.618 43.5127 119.711 43.8315 119.437 43.9095C119.376 43.7341 119.315 43.5495 119.203 43.5537C118.933 43.5716 118.92 43.6944 118.884 43.7958C118.73 44.2509 118.499 44.6166 117.95 44.6142C117.787 45.0481 117.331 44.846 117.044 45.0338C116.731 45.2341 116.32 45.3027 116.039 45.5364C115.148 46.2955 114.011 46.5754 112.969 47.1925ZM61.1655 71.8048C62.1274 71.6469 62.7505 71.0341 63.4862 70.6725C64.1199 70.3624 64.7221 69.9311 65.3274 69.5405C65.9831 69.1196 66.7041 68.8362 67.3453 68.4189C68.2945 67.8038 69.232 67.1845 70.2555 66.7058C70.5253 66.5779 70.8659 66.5104 71.0496 66.3035C71.5549 65.7497 72.2712 65.6273 72.8818 65.2958C73.4924 64.9642 74.0005 64.4643 74.6783 64.2402C74.8576 64.1811 75.0236 64.2579 75.2458 64.0911C76.1532 63.4083 77.3163 63.142 78.2078 62.4052C78.6615 62.5012 78.853 62.0508 79.2066 61.9221C79.5655 61.7908 79.9008 61.6028 80.2764 61.4248C79.8449 61.0202 79.5835 61.4324 79.2956 61.4879C78.0308 61.7311 76.787 62.1004 75.5955 62.5939C73.2679 63.5611 71.0646 64.7836 68.9348 66.1202C68.4066 66.4548 67.8319 66.6981 67.3243 67.0488C65.5983 68.2394 63.8991 69.466 62.2112 70.7098C61.8362 70.9848 61.455 71.3015 61.1655 71.8048ZM50.1422 72.8864C50.3129 72.8022 50.4427 72.7343 50.5711 72.6702C50.4036 72.4126 50.4882 72.1263 50.423 71.8657C50.7003 71.5075 51.1048 72.1969 51.3642 71.7532C51.3463 71.5446 51.0044 71.616 51.0425 71.3615C51.1109 70.9727 51.4754 70.8258 51.6878 70.5632C51.876 70.5776 52.0211 70.7744 52.2291 70.6597C52.1355 70.3801 52.0733 70.0986 52.3593 69.8885C52.9284 69.4762 53.2911 68.7925 54.0146 68.5759C54.2755 68.4976 54.3052 68.1434 54.5964 68.1155C54.6317 67.561 55.1125 67.359 55.4578 67.069C56.5818 66.1119 57.689 65.14 58.8679 64.2508C60.4274 63.071 61.9921 61.8888 63.6519 60.8591C64.7968 60.1512 65.888 59.323 67.148 58.81C67.3473 58.7317 67.4158 58.5891 67.3169 58.4351C62.2552 60.4002 58.1112 63.6862 54.259 67.4104C54.1766 67.2228 54.1269 67.0292 53.8738 67.0488C53.5809 67.3399 53.312 67.6747 52.9796 67.9165C52.5661 68.2129 52.4422 68.5599 52.6392 68.9686C52.2801 69.2976 51.9783 69.5768 51.6979 69.8327C51.5208 69.7871 51.3096 69.6766 51.247 69.729C50.7948 70.1215 50.1828 70.3954 50.1986 71.1395C49.734 70.9385 49.6351 71.4131 49.3466 71.4947C49.394 71.9161 48.6541 71.9201 48.8636 72.4784C49.0149 72.8797 48.7544 73.1295 48.3091 73.1333C48.2765 73.0645 48.2438 72.9957 48.1987 72.9005C48.1197 73.2327 47.5981 73.1916 47.6383 73.584C47.7484 73.8299 47.9805 73.3765 48.0602 73.7566C47.6393 74.2217 47.2468 74.7674 46.7392 75.1797C46.4034 75.4554 46.3559 75.7242 46.3051 76.15C46.7038 75.8088 46.9211 75.372 47.4341 75.3881C47.3388 75.187 47.209 75.0088 47.51 74.8305C47.7831 74.6686 48.0009 74.7728 48.2496 74.8395C48.3382 74.8624 48.3844 74.7821 48.3518 74.7134C48.2423 74.626 48.1368 74.5399 47.9772 74.4082C48.6568 73.7848 49.2242 73.0818 49.994 72.5873C50.0495 72.6906 50.0782 72.758 50.1422 72.8864ZM115.24 220.684C115.397 220.899 115.596 220.943 115.827 220.925C116.798 220.84 117.779 220.887 118.748 220.881C120.495 220.876 122.223 220.75 123.958 220.595C126.914 220.332 129.858 219.94 132.774 219.368C134.018 219.122 135.263 218.859 136.489 218.54C137.802 218.2 139.089 217.758 140.405 217.41C141.666 217.077 142.863 216.568 144.101 216.179C145.141 215.852 146.099 215.297 147.175 215.065C147.39 215.019 147.588 214.883 147.786 214.782C147.985 214.682 148.222 214.621 148.36 214.468C148.167 214.246 148.032 214.303 147.895 214.377C147.277 214.706 146.589 214.909 145.94 215.091C144.374 215.525 142.875 216.142 141.325 216.617C140.5 216.872 139.678 217.216 138.851 217.391C136.987 217.786 135.156 218.31 133.289 218.699C130.779 219.219 128.245 219.545 125.725 219.991C125.128 220.099 124.532 219.983 123.954 220.089C122.68 220.32 121.396 220.481 120.109 220.466C119.133 220.456 118.173 220.645 117.183 220.573C116.574 220.532 115.889 220.516 115.24 220.684ZM133.51 197.327C134.063 197.059 134.666 197.08 135.256 196.992C135.952 196.889 136.627 196.673 137.321 196.551C137.584 196.504 137.669 196.056 138.018 196.272C138.948 195.453 140.098 195.125 141.268 194.79C141.366 194.922 141.445 195.034 141.519 195.135C141.655 195.073 141.795 195.014 141.926 194.955C141.883 194.852 141.843 194.754 141.802 194.66C142.032 194.461 142.264 194.904 142.501 194.637C142.39 194.54 142.286 194.45 142.176 194.363C142.442 193.728 142.444 193.724 143.082 193.807C143.208 193.825 143.295 193.804 143.341 193.675C143.43 193.509 143.29 193.398 143.25 193.265C143.453 193.065 143.962 193.154 143.876 192.706C143.119 192.682 142.55 193.12 141.902 193.333C141.154 193.581 140.387 193.773 139.651 194.073C138.938 194.359 138.217 194.642 137.498 194.896C136.684 195.181 135.831 195.356 135.049 195.736C134.778 195.868 134.507 196.096 134.235 196.096C133.875 196.095 133.606 196.258 133.31 196.385C132.992 196.523 132.687 196.677 132.394 196.819C132.679 197.339 133.347 196.676 133.51 197.327ZM117.969 103.021C118.443 103.107 118.485 102.634 118.815 102.51C119.143 102.389 119.449 102.186 119.749 101.973C120.892 101.159 122.106 100.444 123.298 99.7008C124.158 99.1637 125.045 98.6494 125.863 98.0708C126.68 97.4922 127.575 97.0291 128.358 96.4118C129.1 95.8238 130.079 95.5537 130.64 94.7209C130.264 94.1866 129.883 94.0463 129.308 94.3904C128.48 94.8863 127.688 95.4431 126.894 95.9947C126.339 96.3772 125.83 96.8327 125.252 97.1714C124.114 97.8467 123.101 98.6897 122.067 99.4942C120.818 100.468 119.569 101.442 118.309 102.399C118.068 102.582 117.968 102.752 117.969 103.021ZM38.0396 141.548C38.0013 141.248 38.0275 140.941 37.9065 140.713C37.8411 140.589 37.6715 140.559 37.6898 140.311C37.7633 139.304 37.8396 138.289 37.8032 137.283C37.7852 136.767 37.9115 136.24 37.7012 135.721C37.1333 134.332 36.6049 132.93 36.0621 131.532C36.0125 131.4 35.8824 131.296 35.9451 131.121C36.0327 130.875 35.8308 130.702 35.7405 130.512C35.6603 130.342 35.6535 130.103 35.3355 129.972C35.4434 131.689 35.7448 133.296 36.0674 134.892C36.3747 136.408 36.7042 137.924 37.068 139.429C37.233 140.113 37.3193 140.807 37.4292 141.497C37.4417 141.585 37.5225 141.666 37.5489 141.715C37.723 141.659 37.8641 141.608 38.0396 141.548ZM102.479 177.612C102.779 176.871 103.495 176.467 103.918 175.822C104.438 175.032 105.023 174.291 105.56 173.511C106.017 172.848 106.508 172.21 106.913 171.506C107.333 170.786 107.908 170.16 108.371 169.455C108.851 168.725 109.305 167.969 109.855 167.29C110.163 166.908 110.485 166.548 110.741 166.125C111.03 165.648 111.329 165.157 111.715 164.763C112.109 164.363 112.135 163.66 112.811 163.492C112.974 163.454 112.996 163.194 113.004 163.012C113.006 162.92 112.933 162.754 112.953 162.747C113.552 162.486 113.611 161.804 114.068 161.361C113.851 161.327 113.748 161.247 113.577 161.467C112.793 162.483 111.941 163.454 111.166 164.479C110.893 164.838 110.507 165.145 110.428 165.635C109.626 166.294 109.178 167.242 108.648 168.086C108.106 168.952 107.497 169.785 106.927 170.619C105.662 172.462 104.488 174.373 103.09 176.124C103.025 176.686 102.311 176.927 102.479 177.612ZM86.1224 202.126C86.0863 202.474 86.0623 202.676 86.0423 202.88C85.4672 202.706 85.5569 203.551 84.9606 203.51C84.371 203.339 83.721 202.992 82.9635 203.021C82.611 203.036 82.6007 203.151 82.6712 203.409C83.1862 203.58 83.6697 203.875 84.1893 203.7C84.4002 203.885 84.139 204.1 84.3375 204.245C84.9965 204.481 85.6647 204.899 86.3414 204.912C87.0875 204.928 87.6829 205.255 88.3402 205.445C89.0247 205.646 89.6842 205.916 90.3587 206.157C90.5342 206.219 90.7108 206.291 90.8904 206.342C90.9503 206.359 91.0269 206.329 91.0965 206.319C91.1602 206.153 91.2838 206.003 91.2317 205.805C90.5177 205.822 90.5469 205.802 90.2569 205.272C90.1017 204.993 90.3894 204.95 90.3924 204.806C90.4132 204.378 89.9108 204.419 89.7723 204.154C89.6233 203.956 90.068 203.794 89.7533 203.567C89.4854 203.85 89.5922 204.437 89.003 204.438C88.5322 203.971 88.5323 203.971 87.9506 204.418C87.8365 204.677 88.3452 204.581 88.2286 204.896C87.9799 204.767 87.5882 204.904 87.6936 204.375C87.7244 204.215 87.3484 203.975 87.2395 203.861C87.0008 203.754 86.9037 204.014 86.7736 203.849C86.5594 203.575 86.6459 203.258 86.5849 202.986C86.7711 202.846 87.012 202.848 87.1139 202.674C86.8434 202.335 86.5826 202.783 86.345 202.562C86.301 202.476 86.2519 202.379 86.1224 202.126ZM77.2068 75.0766C76.7148 75.3098 76.2461 75.4898 75.8204 75.7467C75.4013 75.9971 74.9255 76.0866 74.4897 76.3223C73.9108 76.6388 73.4144 77.0814 72.809 77.3489C71.605 77.8775 70.5108 78.6035 69.3937 79.295C67.6437 80.3803 66.1119 81.7414 64.5329 83.0373C64.1665 83.3373 63.85 83.6946 63.5131 84.0228C68.1329 81.2143 72.4085 77.9049 77.1849 75.372C77.2141 75.3517 77.1929 75.2386 77.2068 75.0766ZM134.898 158.209C136.738 157.033 138.354 155.632 139.93 154.185C141.826 152.444 143.672 150.646 145.551 148.89C145.762 148.693 145.834 148.517 145.753 148.215C142.033 151.283 138.576 154.59 135.048 157.815C134.953 157.895 134.945 158.077 134.898 158.209ZM151.047 198.909C149.897 198.916 149.007 199.622 147.957 199.854C146.872 200.1 145.83 200.471 144.786 200.846C143.712 201.232 142.658 201.673 141.6 202.087C141.737 202.233 141.944 202.355 142.156 202.254C142.935 201.869 143.912 202.248 144.623 201.623C145.218 201.826 145.66 201.426 146.169 201.256C146.528 201.138 146.926 201.117 147.192 201.234C147.599 200.896 147.936 200.726 148.409 200.684C148.8 200.647 149.137 200.293 149.578 200.349C149.511 199.675 149.574 199.636 150.506 199.709C150.53 199.568 150.333 199.467 150.491 199.22C150.629 199.142 150.839 199.023 151.047 198.909ZM143.624 191.526C141.72 191.738 137.174 193.255 136.169 194.544C136.698 194.43 137.201 194.548 137.55 194.035C137.679 193.848 138.035 193.835 138.236 193.678C138.528 193.452 138.776 193.853 139.083 193.659C139.4 193.46 139.871 193.457 140.113 193.209C140.441 192.869 140.866 193.034 141.204 192.825C141.522 192.626 141.875 192.374 142.216 192.368C142.618 192.362 142.835 191.877 143.219 192.045C143.625 192.225 143.738 191.562 144.127 191.78C144.64 191.488 145.267 191.527 145.765 191.191C145.945 191.07 146.046 190.97 145.937 190.734C145.441 190.635 144.984 190.881 144.564 190.986C144.327 190.862 144.354 190.503 144.027 190.593C144.005 190.607 143.954 190.615 143.944 190.642C143.838 190.925 143.738 191.206 143.624 191.526ZM151.762 92.0472C152.058 92.1399 152.057 92.4646 152.441 92.4701C152.826 92.4755 153.122 92.3128 153.458 92.2571C153.931 92.1754 154.225 91.845 154.381 91.4568C154.518 91.1231 154.751 91.3428 154.953 91.2344C155.224 90.5618 155.432 89.8669 154.903 89.0322C153.876 90.0895 152.496 90.6302 151.762 92.0472ZM192.716 149.335C192.971 148.643 193.078 148.11 193.168 147.536C193.321 146.592 193.325 145.644 193.439 144.709C193.61 143.28 193.458 141.859 193.438 140.437C193.432 139.973 193.446 139.468 193.337 138.985C193.231 138.517 193.144 138.033 193.153 137.539C193.155 137.487 193.149 137.305 192.91 137.373C192.888 137.581 192.81 137.764 192.845 138.058C192.975 139.159 192.907 140.274 192.943 141.381C192.981 142.568 192.925 143.748 192.836 144.921C192.789 145.545 192.761 146.19 192.726 146.806C192.686 147.57 192.481 148.367 192.716 149.335Z" fill="#FFCA0F"/>
</svg>
