<svg width="214" height="177" viewBox="0 0 214 177" fill="none" xmlns="http://www.w3.org/2000/svg">
<path d="M173.973 171.711C174.203 172.67 174.683 173.302 175.416 173.718C175.917 173.998 176.649 174.053 176.951 174.456C177.347 174.982 177.927 174.854 178.293 175.167C178.812 175.613 179.2 175.459 179.734 175.25C180.122 175.096 180.575 175.281 180.478 175.952C180.822 175.815 181.134 175.689 181.484 175.549C181.459 175.717 181.482 175.865 181.43 175.895C180.616 176.404 179.776 176.789 178.862 176.1C178.772 176.037 178.681 175.92 178.585 175.914C176.278 175.837 176.066 175.536 173.734 174.311C173.127 173.992 172.382 174.076 171.869 173.48C171.104 172.582 169.84 172.219 169.244 171.107C169.18 170.983 168.909 170.993 168.792 170.884C168.125 170.276 167.128 170.028 166.815 169.046C165.945 168.74 165.538 167.928 164.922 167.368C164.047 166.572 163.56 165.368 162.379 164.895C162.198 164.822 162.128 164.501 161.982 164.316C161.597 163.822 161.503 163.153 160.774 162.835C160.24 162.604 160.285 161.709 159.521 161.426C159.051 161.251 158.911 160.516 158.467 160.08C157.664 159.289 156.962 158.393 156.065 157.679C155.554 157.274 156.149 156.999 156.301 156.596C155.905 156.563 155.524 156.529 154.933 156.478C154.829 156.299 154.692 155.862 154.397 155.617C154.146 155.408 153.705 155.432 153.369 155.303C152.892 155.116 152.41 154.909 151.968 154.649C151.853 154.584 151.869 154.305 151.862 154.279C151.069 154.106 150.288 153.94 149.45 153.755C149.499 153.48 149.492 153.307 149.556 153.178C149.634 153.033 149.786 152.937 150 152.721C149.724 152.603 149.539 152.51 149.351 152.45C149.162 152.389 148.967 152.371 148.773 152.329C148.875 152.093 148.968 151.854 149.099 151.548C148.546 151.429 148.186 150.566 147.334 151.089C147.578 151.326 147.902 151.5 147.986 151.752C148.09 152.053 147.987 152.421 147.969 152.924C147.639 152.791 147.253 152.737 146.999 152.522C146.257 151.904 145.408 151.593 144.478 151.437C143.742 151.308 143.055 151.05 142.583 150.607C142.403 150.749 142.267 150.859 142.124 150.972C141.753 150.37 141.133 150.428 140.551 150.394C140.383 150.384 140.185 150.467 140.05 150.406C139.066 149.928 138.014 149.827 136.954 149.87C136.283 149.895 135.756 149.768 135.436 149.014C135.377 149.233 135.366 149.293 135.346 149.351C135.142 149.892 134.493 149.42 134.237 149.844C133.047 149.623 131.781 150.177 130.728 149.5C130.262 149.892 129.844 150.234 129.215 150.758C129.259 150.34 129.271 150.202 129.294 149.989C128.914 150.224 128.359 149.582 128.051 150.422C127.925 150.764 127.219 151.141 126.845 151.08C126.188 150.982 125.819 151.356 125.377 151.604C123.736 152.521 121.991 153.312 120.521 154.446C118.283 156.169 115.789 157.448 113.42 158.946C112.805 159.332 112.433 160.101 111.667 160.335C111.348 160.435 110.961 160.366 110.69 160.522C110.418 160.679 110.276 161.046 110.042 161.281C109.554 161.755 108.784 161.607 108.283 161.927C107.274 162.579 106.121 162.821 105.064 163.324C104.957 163.378 104.845 163.504 104.749 163.498C103.288 163.287 102.002 164.06 100.614 164.269C98.1664 164.643 95.7129 164.966 93.2622 164.988C90.6354 165.011 87.9346 165.147 85.4868 163.773C85.1809 163.603 84.6864 163.774 84.355 163.626C84.0145 163.476 83.8016 163.014 83.4562 162.883C82.7257 162.604 81.9428 162.448 81.0048 162.197C80.8094 161.378 80.0321 160.818 79.1553 160.54C77.9712 160.169 77.3128 159.002 76.0606 158.739C75.0625 158.53 74.2033 157.949 73.386 157.32C72.5405 156.669 71.6318 156.108 70.7979 155.45C70.2303 155.001 69.4827 154.785 69.0727 154.075C68.9761 153.908 68.2311 154.284 67.999 153.602C67.8868 153.275 67.4851 152.952 67.1431 152.826C66.5045 152.587 66.33 152.018 65.9996 151.539C65.5086 150.822 65.3068 149.899 64.4086 149.463C64.184 149.354 64.0029 148.974 63.9653 148.696C63.9099 148.32 64.2122 147.883 63.545 147.714C63.4026 147.681 63.4209 147.139 63.294 146.866C62.5644 145.309 62.286 143.707 62.7672 142.021C62.9007 141.559 62.9428 141.165 62.7066 140.662C62.4352 140.072 62.2648 139.324 62.3737 138.699C62.4938 138.014 62.0029 137.497 62.1224 136.851C62.178 136.534 61.9298 136.131 62.0452 135.864C62.5885 134.565 62.1145 133.237 62.236 131.928C61.7404 131.483 62.7153 131.105 62.4288 131.008C61.8069 130.798 62.1394 130.467 62.2168 130.215C62.3351 129.846 62.5535 129.505 62.7584 129.086C62.4847 128.906 62.2077 128.719 61.6886 128.38C61.8457 128.012 62.2125 127.554 62.1841 127.132C62.1324 126.469 62.9032 125.777 62.1164 125.108C62.0002 125.013 62.2286 124.489 62.3289 124.169C62.3737 124.02 62.5594 123.782 62.5379 123.771C61.714 123.131 62.5068 122.157 62.0637 121.443C62.0046 121.354 61.9477 121.202 61.9845 121.12C62.4193 120.153 62.0636 119.203 61.9816 118.235C61.9127 117.435 62.1381 116.613 62.2249 115.87C62.6273 115.807 62.9231 115.759 63.2958 115.698C62.6766 115.532 62.1848 115.4 61.8206 115.303C61.6722 113.926 61.2479 112.777 61.9502 111.541C61.6148 111.626 61.4116 111.674 61.0912 111.759C61.1539 111.361 61.339 110.962 61.2483 110.645C61.1056 110.158 60.6491 109.767 60.8217 109.159C60.8387 109.096 60.4478 108.952 60.2834 108.8C60.1697 108.697 60.0674 108.386 60.0674 108.386C60.8461 107.975 60.1113 107.476 60.1623 107.031C60.1957 106.742 60.3408 106.473 60.4575 106.129C59.8691 106.376 59.4773 106.218 59.1565 105.849C58.9412 105.596 58.5562 105.302 58.5841 105.071C58.6696 104.405 58.404 104.159 57.8511 103.854C57.4931 103.661 57.3465 103.06 57.0698 102.581C56.9973 102.269 57.9407 102.063 57.3221 101.658C56.8527 101.352 56.7005 101.901 56.6393 102.275C55.63 101.78 57.1873 101.305 56.4614 100.754C56.1453 100.513 56.1473 99.8499 56.0088 99.3834C55.1425 99.4294 55.5432 100.283 55.1435 100.591C54.7971 100.791 54.2772 100.637 54.2673 100.273C54.2592 99.9393 54.2504 99.6442 53.8835 99.702C53.786 99.7198 53.7438 100.26 53.35 100.018C53.1169 99.8675 52.9275 99.646 52.7248 99.455C51.9011 98.6682 50.9404 98.1375 49.808 98.0293C48.97 97.9512 48.1161 98.0054 47.2678 98.0026C46.4194 97.9998 45.5655 98.054 44.7267 97.961C44.2336 97.907 43.77 97.5973 43.302 97.4133C43.1805 97.9761 42.8265 98.1497 42.1683 98.1295C40.822 98.0908 39.4465 98.3615 38.131 98.1896C37.1589 98.0658 36.2237 98.0592 35.2548 98.0875C34.2858 98.1158 33.311 97.9473 32.344 97.859C32.239 97.8504 32.1395 97.7847 32.0326 97.7463C32.5513 97.2313 33.0699 96.7164 33.5885 96.2014C33.5552 96.1437 33.5185 96.0802 33.4852 96.0224C33.2573 96.1078 33.0095 96.1585 32.8141 96.2867C32.6187 96.4149 32.4758 96.6206 32.307 96.795C32.0381 96.1959 30.9874 96.8025 30.9407 95.775C30.3865 96.0949 29.89 96.3816 29.1625 96.8016C30.1173 96.9354 30.8736 97.0453 31.6413 97.1485C31.3858 98.0658 30.5324 97.481 30.0334 97.7767C28.599 97.0654 27.0417 97.7412 25.4963 97.3711C25.2563 96.9554 24.993 96.4993 24.6964 95.9855C24.3961 96.1588 24.1479 96.3021 23.7669 96.5221C23.7097 96.1164 23.6687 95.8321 23.604 95.4C23.2334 95.5447 22.9329 95.6643 22.5508 95.8156C22.212 95.4955 21.8745 95.0976 21.4665 94.8175C21.1895 94.631 20.7391 94.6909 20.4876 94.482C20.2237 94.2649 20.1045 93.8718 19.9245 93.5601C19.8979 93.5139 19.8521 93.4479 19.8066 93.4358C18.5319 93.1479 17.6473 92.2423 16.6876 91.38C16.7023 91.3254 16.7957 91.1406 16.7883 90.9678C16.7756 90.7058 16.6975 90.4506 16.6517 90.1846C16.411 90.3543 16.1679 90.5332 15.9099 90.7129C14.5601 89.3215 14.5601 89.3215 14.4921 88.5372C13.854 88.6053 13.3563 88.6232 12.8555 87.9425C11.834 86.5464 10.5577 85.3357 9.70416 83.8041C9.51661 83.4659 8.78237 83.4741 9.09374 82.8401C8.33734 82.8766 8.94765 82.1471 8.62446 81.9873C8.19355 81.7742 7.68692 81.6434 8.03539 80.9803C7.58911 80.6607 7.14861 80.3377 6.69901 80.0122C6.78636 79.5769 7.17712 79.1204 6.40749 78.7873C6.07941 78.6458 5.91243 78.1032 6.48331 77.8121C6.48331 77.8121 6.42284 77.6007 6.38065 77.5943C5.72969 77.5467 6.48872 76.6082 5.77938 76.6329C5.62149 76.6394 5.46317 76.7385 5.39633 76.7694C5.52077 76.3049 5.655 75.8041 5.84776 75.0847C5.24508 75.2941 4.93219 75.4054 4.40302 75.5955C4.56746 75.2003 4.61221 74.8512 4.80736 74.6692C5.13595 74.3718 5.05457 74.1108 4.77203 73.9814C4.39755 73.8128 4.26174 74.1375 4.197 74.452C4.1848 74.4976 4.14863 74.5416 4.10267 74.622C3.40541 74.2009 4.03061 73.6705 3.97519 73.2946C2.76345 72.4624 2.20009 71.2866 1.95026 69.9606C1.76228 68.9684 1.22366 67.9554 1.92357 66.9278C2.00325 66.8126 1.29166 66.7 1.60221 66.2513C1.34503 66.2458 1.09118 66.2461 0.750496 66.2426C0.964454 65.8266 1.16775 65.4321 1.3948 64.9854C1.13268 64.7981 0.797953 64.6449 0.612422 64.3903C0.54089 64.293 0.963569 63.7719 0.928687 63.7381C0.132091 63.105 0.493416 62.3576 0.714386 61.6604C0.947564 60.9177 0.870714 60.1846 0.760766 59.4475C1.73994 58.7437 1.0652 58.0016 0.51256 57.0044C1.24023 57.3848 1.62229 57.5799 2.00767 57.7808C2.06623 57.5622 2.1239 57.3288 2.20931 57.0101C1.92148 56.9915 1.62789 56.9763 1.39714 56.9633C1.32178 56.7528 1.25689 56.667 1.2673 56.5918C1.46416 55.4928 1.73874 54.3952 1.84544 53.2867C1.89459 52.8119 2.61434 52.712 2.32698 52.0542C2.2343 51.8537 2.7018 51.1835 3.032 51.0622C3.5785 50.8621 3.6768 50.6591 3.68749 50.091C3.70308 49.5047 4.06268 48.9276 4.26348 48.3421C4.89628 46.545 4.96272 44.5669 5.98799 42.8896C5.84446 41.2944 7.00515 40.1316 7.40067 38.7102C7.70503 37.6107 8.78747 36.8857 9.00629 35.7049C9.02647 35.5931 9.29226 35.4936 9.4648 35.4324C10.093 35.2006 10.3432 34.7406 10.5049 34.1007C10.8005 32.9062 11.6988 32.0489 12.4929 31.1979C13.2196 30.4165 13.6736 29.323 14.7972 28.936C15.1944 27.8908 16.2147 27.3248 16.749 26.4237C17.0526 25.9096 17.4316 26.1527 17.678 25.9796C18.0679 25.7083 18.2565 25.1684 18.5798 24.7816C18.9778 24.2978 19.2854 23.7507 19.9349 23.4757C20.3864 23.2844 21.0026 23.1518 21.0864 22.4569C21.0977 22.3965 21.5079 22.4137 21.7093 22.3359C21.8991 22.2648 22.2078 22.1328 22.2155 22.0128C22.244 21.3421 22.7477 21.3746 23.1858 21.1602C23.7344 20.8973 24.118 20.3217 24.6316 19.9713C25.2251 19.5594 25.9159 19.276 26.5061 18.8583C27.2108 18.359 28.2348 18.2528 28.5703 17.2739C29.5669 17.7069 29.9574 16.6501 30.6283 16.3321C31.1861 16.0716 31.8454 15.9604 32.3694 15.5347C32.6742 15.2894 33.2533 15.5324 33.6651 15.1791C34.0259 14.8708 34.5214 14.7156 34.9013 14.427C35.2186 14.19 35.8394 14.532 35.9398 13.8659C35.9462 13.8237 36.4992 13.7815 36.7468 13.8772C37.1104 14.0136 37.4307 14.2752 37.8064 14.5124C37.8337 13.9732 37.8582 13.5357 37.8775 13.209C38.5749 12.9372 39.1828 12.7633 39.733 12.4764C40.6973 11.9736 41.5688 11.2164 42.5827 10.8927C44.0805 10.4205 45.309 9.44187 46.7298 8.92951C48.0803 8.44226 49.3455 7.72719 50.7497 7.38606C50.8587 7.3616 50.975 7.30978 51.0776 7.32751C51.4756 7.39023 51.8858 7.75391 52.1596 7.04159C52.2372 6.8428 52.9613 6.96358 53.2472 6.75228C53.7624 6.3779 54.3414 6.42085 54.893 6.25633C55.9251 5.93753 56.9838 5.81124 58.0179 5.37584C58.9818 4.96556 60.0951 4.85397 61.101 4.39637C61.8016 4.07657 62.6308 4.0596 63.3932 3.87347C64.7618 3.53746 66.079 2.9925 67.4879 2.77951C70.3708 2.34663 73.1922 1.63374 76.1268 1.46357C77.5048 1.38384 78.925 1.31052 80.3014 1.05469C81.1961 0.884504 82.1236 1.01102 82.9977 1.04516C85.9393 1.14039 88.8615 0.415488 91.8007 0.920013C94.8313 0.409578 97.8003 1.45882 100.818 1.23288C101.697 1.94172 102.768 1.53095 103.737 1.74162C104.714 1.95473 105.696 2.18849 106.683 2.25769C108.857 2.4109 110.861 3.25532 112.971 3.66928C113.796 3.8318 114.628 3.87439 115.214 4.67548C115.303 4.41628 115.359 4.26059 115.426 4.08334C118.86 5.00323 122.34 5.81873 125.735 6.8992C127.492 7.46273 129.291 7.9252 131.014 8.56247C133.728 9.55832 136.399 10.6643 139.04 11.8647C143.698 13.9864 147.995 16.7091 152.184 19.5786C155.227 21.6628 158.083 24.024 160.9 26.4234C163.551 28.6805 166.15 30.9824 168.746 33.2935C169.677 34.1187 170.512 35.0452 171.375 35.9402C172.124 36.7166 172.827 37.5345 173.589 38.2951C174.314 39.0162 174.864 39.8762 175.669 40.5506C176.263 41.0465 176.511 41.8889 177.189 42.4365C177.848 42.9645 178.209 43.8567 178.841 44.431C179.428 44.9543 179.757 45.7648 180.568 46.0357C181.206 47.2218 182.3 48.0223 183.106 49.0581C183.918 50.1054 184.906 50.9899 185.777 51.965C186.58 52.8635 187.246 54.0033 188.426 54.5536C189.193 56.0816 190.6 57.0932 191.585 58.4647C192.631 59.9161 194.003 61.133 194.838 62.7524C195.968 63.3774 196.118 64.7303 196.912 65.5726C198.669 67.4293 199.64 69.7634 200.942 71.8983C202.234 74.0159 203.402 76.2126 204.697 78.336C205.191 79.1516 205.441 80.0385 205.754 80.9127C206.066 81.787 206.949 82.4238 206.807 83.4837C207.581 84.2914 207.508 85.4576 208.032 86.3789C208.372 86.9677 208.691 87.6534 208.715 88.309C208.763 89.6591 209.427 90.8079 209.703 92.0726C209.979 93.3373 210.025 94.6575 210.593 95.854C210.255 96.2027 210.962 96.7875 210.318 97.098C210.257 97.1255 210.246 97.4398 210.324 97.5486C211.269 98.9583 211.072 100.604 211.348 102.161C211.697 104.153 211.964 106.162 212.152 108.155C212.38 110.548 213.135 112.883 212.877 115.357C212.732 116.772 213.134 118.241 213.254 119.689C213.356 120.946 213.121 122.205 213.162 123.436C213.182 124.218 212.395 125.041 213.184 125.794C213.086 126.544 212.96 127.286 212.895 128.04C212.829 128.832 212.781 129.63 212.787 130.427C212.82 133.31 212.313 136.112 211.593 138.891C211.329 139.913 211.335 141.018 210.988 142.003C209.865 145.138 208.941 148.35 207.442 151.34C207.013 152.196 206.51 153.018 205.978 153.817C205.2 154.99 204.681 156.29 203.738 157.389C202.188 159.185 200.715 161.02 198.844 162.539C197.636 163.514 196.42 164.501 195.244 165.503C193.903 166.647 192.396 167.424 190.929 168.295C189.861 168.926 188.98 169.72 188.162 170.623C187.857 170.961 187.382 171.151 187.004 171.43C186.718 171.642 186.461 171.89 186.184 172.104C185.502 172.628 184.927 173.338 183.9 173.253C183.714 173.238 183.518 173.912 183.265 173.966C182.554 174.122 181.817 174.579 181.084 173.948C180.791 173.694 180.404 173.517 180.032 173.393C178.742 172.96 177.443 172.563 176.141 172.16C175.992 172.115 175.781 172.029 175.695 172.094C175.058 172.577 174.566 172.138 173.973 171.711ZM85.4241 26.1931C84.6234 25.9395 84.144 25.6159 83.8311 25.7273C82.6218 26.1791 81.4094 26.1324 80.1553 26.1868C78.9459 26.2385 77.7267 26.5267 76.4986 26.6661C75.2763 26.8022 73.982 26.9336 72.8895 27.4412C71.1955 28.2268 69.3953 28.3887 67.6334 28.7901C65.9921 29.1604 64.4107 29.781 62.7022 29.9283C62.093 29.9798 61.4857 30.2611 60.9221 30.5249C60.083 30.9247 59.3079 31.3954 58.3572 31.6286C57.4272 31.8577 56.5948 32.4691 55.6412 32.8041C54.8396 33.0822 53.9664 33.2631 53.201 33.6973C52.4414 34.1281 51.5967 34.3849 50.8202 34.7331C49.1796 35.4648 47.4242 35.824 45.791 36.5283C45.5871 36.6153 45.4768 36.9175 45.2812 36.992C45.0303 37.0907 44.7291 37.049 44.4497 37.0717C44.2059 37.0894 43.963 37.1219 43.696 37.1529C43.7696 37.3336 43.8205 37.4351 43.854 37.5466C43.8692 37.5994 43.8754 37.7035 43.8605 37.7044C43.0416 37.9925 42.5494 38.7 41.8936 39.2172C42.6366 38.9576 43.2893 38.2882 43.9688 38.2653C44.8543 38.2391 45.3757 37.4223 46.0622 37.4647C46.9852 37.5169 47.456 36.8524 48.1586 36.6161C48.6358 36.4561 49.299 36.4581 49.5572 36.132C49.8375 35.7777 49.9968 35.6935 50.4402 35.5683C51.1984 35.3615 52.0384 35.1767 52.6957 34.7818C54.3161 33.8155 56.0438 33.1413 57.8543 32.7041C59.232 32.3706 60.5719 31.9049 61.9169 31.4747C63.2768 31.0436 64.6735 30.8762 66.0236 30.4816C67.8643 29.95 69.7531 29.6216 71.6038 29.1073C72.8169 28.7687 74.1543 28.6585 75.3816 28.3579C76.5883 28.0614 77.7759 27.7452 79.0104 27.5636C80.2276 27.392 81.4488 27.1873 82.6525 26.9389C83.4852 26.7814 84.2786 26.5157 85.4241 26.1931ZM81.3471 18.0783C81.0724 18.0291 80.7949 17.9352 80.518 17.9488C78.8944 18.0164 77.2941 18.3245 75.6567 18.2616C74.8933 18.2327 74.1217 18.5627 73.3542 18.7133C72.6429 18.8546 71.7537 18.7676 71.2519 19.1651C70.5993 19.6881 69.569 18.7434 69.2167 19.8397C67.7896 19.8477 66.4766 20.4134 65.1026 20.6602C64.2195 20.8237 63.3296 20.9756 62.4757 21.2299C61.6104 21.4909 60.6601 21.6316 59.896 21.9881C59.1377 22.3412 58.0794 22.1748 57.5521 23.1412C57.4258 23.3758 56.5011 23.494 56.3076 23.3056C55.7129 22.7021 55.557 22.9922 55.3851 23.561C54.518 23.2457 54.0435 24.3971 53.1205 24.1449C52.7016 24.0327 52.144 24.3469 51.6677 24.5218C51.2029 24.6901 51.1844 24.978 51.5793 25.2888C52.1101 25.0747 52.6565 24.6745 53.1833 24.6937C53.8573 24.7279 54.2479 23.8712 55.0204 24.3027C55.3976 24.516 55.8613 23.7325 56.4064 24.1567C56.4786 24.2151 56.7169 24.0545 56.8821 24.0207C59.1288 23.4856 61.298 22.6566 63.5801 22.2627C64.4137 22.1201 65.1536 21.7084 66.0321 21.6168C66.7859 21.5357 67.5486 21.257 68.3379 21.1708C69.1742 21.0728 69.9699 20.7443 70.7851 20.5431C74.2573 19.6776 77.8105 19.1657 81.3471 18.0783ZM111.458 88.7379C111.181 88.8979 110.939 89.0379 110.696 89.1779C110.973 89.4032 111.202 89.5866 111.773 90.0422C110.652 89.9273 109.958 89.8584 109.179 89.7767C109.418 89.4697 109.707 89.2105 109.663 89.1354C109.54 88.9218 109.292 88.7724 109.076 88.6121C108.776 88.3853 108.237 89.0507 108.048 88.3512C107.464 88.4729 106.771 88.1651 106.315 88.7898C106.411 89.1424 106.51 89.4859 106.632 89.9385C105.393 89.4991 105.397 89.505 103.76 89.7496C103.647 89.7683 103.534 89.7721 103.426 89.7577C102.691 89.6584 102.691 89.6584 102.488 90.3067C104.451 90.5592 104.451 90.5593 105.677 90.0974C105.694 90.3264 105.472 90.5159 105.895 90.7414C106.45 91.0366 106.772 90.0346 107.338 90.6936C107.803 91.2331 108.188 90.2334 108.638 90.3587C108.765 90.6856 108.809 91.0294 108.995 91.2303C109.19 91.4485 109.527 91.5388 109.616 91.5872C110.047 91.2926 110.388 91.0571 110.792 90.77C111.018 91.1626 111.162 91.4108 111.132 91.3589C112.173 91.6817 112.812 90.8966 113.673 91.1466C113.767 91.1768 113.93 90.952 114.152 90.7774C113.854 90.5414 113.619 90.3613 113.387 90.1722C113.542 89.9747 113.678 89.7964 113.814 89.618C113.645 89.4997 113.446 89.2607 113.31 89.2928C112.542 89.4822 111.971 89.1193 111.458 88.7379ZM96.0541 82.2826C96.3127 82.4104 96.5451 82.5996 96.8049 82.6497C97.4272 82.7677 98.105 82.715 98.6881 82.9249C100.041 83.4142 101.468 83.1673 102.83 83.4589C103.25 83.5471 103.764 82.7965 104.156 83.5703C104.374 83.3601 104.566 83.0261 104.814 82.9754C105.189 82.9051 105.587 83.3291 105.998 82.9999C106.129 82.8934 106.275 82.7862 106.353 82.6411C106.39 82.5731 106.319 82.3833 106.242 82.3431C106.162 82.2972 106.009 82.3392 105.913 82.3867C105.797 82.4385 105.692 82.63 105.613 82.6138C104.427 82.3595 103.2 82.6601 101.983 82.2463C101.34 82.0251 100.496 81.9891 99.812 82.0451C99.1995 82.0908 98.8202 82.1405 98.2547 81.7743C97.5547 81.3086 96.6648 81.2604 96.0541 82.2826Z" fill="#F97561"/>
</svg>
