<svg width="379" height="376" viewBox="0 0 379 376" fill="none" xmlns="http://www.w3.org/2000/svg">
<path d="M113.162 87.3814C113.087 86.8396 113.512 86.5523 113.862 86.4143C116.063 85.5363 118.095 84.3191 120.265 83.3667C121.404 82.8679 122.56 82.2778 123.633 81.5793C124.482 81.0297 125.494 80.8317 126.367 80.2928C127.307 79.7133 128.387 79.4116 129.376 78.8996C130.206 78.4665 131.178 78.3408 132.045 77.9235C133.303 77.3171 134.62 76.8169 135.931 76.3373C136.775 76.0319 137.593 75.5934 138.519 75.607C138.763 75.6115 138.895 75.4545 139.078 75.3862C139.875 75.0976 140.656 74.7825 141.495 74.5904C143.246 74.183 144.953 73.6032 146.706 73.2255C147.978 72.949 149.226 72.5988 150.489 72.2836C151.704 71.9853 152.925 71.7044 154.148 71.4531C157.019 70.8656 159.917 70.4026 162.831 70.1517C165.115 69.9554 167.405 69.9408 169.705 70.003C171.568 70.0521 173.44 70.0473 175.269 70.3422C176.736 70.5759 178.247 70.6027 179.664 70.9712C181 71.3156 182.367 71.587 183.705 71.8979C186.8 72.6112 189.858 73.4478 192.885 74.4038C194.665 74.9642 196.442 75.5663 198.224 76.1016C200.314 76.7271 202.318 77.5809 204.404 78.2102C205.627 78.5785 206.844 79.1233 208.061 79.5754C209.236 80.0154 210.346 80.6183 211.55 80.9806C212.753 81.343 213.901 81.8986 215.048 82.3783C216.125 82.8308 217.382 83.063 218.27 83.9457C219.291 83.7864 219.962 84.5953 220.806 84.9178C221.638 85.2351 222.481 85.6207 223.327 85.8802C224.197 86.1501 225.077 86.4505 225.928 86.7441C227.659 87.3381 229.442 87.7639 231.165 88.3487C232.217 88.7063 233.299 88.7209 234.355 88.9819C236.361 89.4692 238.433 89.7306 240.52 89.8162C241.356 89.8514 242.19 89.9497 242.975 90.2291C243.572 90.4415 244.074 90.0429 244.664 90.1451C245.614 90.3167 246.595 90.3309 247.56 90.4279C247.882 90.4603 248.18 90.4737 248.405 90.2069C248.646 90.4387 248.833 90.6152 249.004 90.7819C249.351 90.8165 249.069 90.5262 249.239 90.4146C249.638 90.4201 250.073 90.3191 250.484 90.5868C250.871 90.8356 251.226 90.4368 251.66 90.5296C252.599 90.7339 253.624 90.1071 254.528 90.8057C255.413 90.4659 256.347 90.6741 257.255 90.6018C257.71 90.5615 258.194 90.6207 258.592 90.9295C258.94 91.196 259.366 90.4662 259.703 91.0056C261.251 90.5594 262.712 91.2478 264.17 91.4892C266.5 91.8827 268.879 92.1035 271.162 92.8932C272.303 93.2923 273.607 93.3685 274.774 93.753C277.409 94.6115 280.102 95.2897 282.633 96.4679C283.678 96.9555 284.832 97.2039 285.872 97.7037C288.077 98.7522 290.291 99.8015 292.409 101.024C292.807 101.248 293.248 101.405 293.504 101.849C293.783 102.328 294.387 102.069 294.823 102.339C295.339 102.658 295.654 103.2 296.273 103.448C296.615 103.587 297.012 104.006 297.407 104.163C298.694 104.68 299.52 105.877 300.818 106.362C301.308 106.548 301.605 107.05 301.941 107.404C303.088 108.605 304.72 109.219 305.701 110.574C306.239 111.316 306.936 111.833 307.72 112.213C307.971 112.336 308.242 112.457 308.308 112.673C308.54 113.44 309.252 113.78 309.737 114.303C310.258 114.859 310.971 115.229 311.446 115.869C311.929 116.518 312.372 117.286 313.023 117.701C314.189 118.435 314.897 119.547 315.746 120.54C316.17 121.036 316.846 121.399 316.802 122.242C316.78 122.687 317.724 122.251 317.632 122.972C317.578 123.397 317.856 123.59 318.246 123.751C318.604 123.9 318.419 124.575 318.837 124.658C319.247 124.74 319.751 125.008 319.677 125.225C319.49 125.769 320.299 125.68 320.113 126.114C320.097 126.151 320.125 126.221 320.16 126.253C321.216 127.243 321.599 128.689 322.608 129.734C323.195 130.342 323.625 131.167 323.938 131.966C324.247 132.731 324.692 133.419 325.1 134.099C325.819 135.279 326.144 136.627 326.868 137.786C327.064 138.102 326.434 138.747 327.276 138.808C327.108 139.337 327.638 139.535 327.779 139.905C327.885 140.18 327.813 140.528 327.816 140.929C328.359 141.465 328.545 142.231 328.808 143.026C329.311 144.549 329.745 146.092 330.052 147.649C330.471 149.793 330.998 151.955 330.737 154.174C330.684 154.629 331.145 154.753 331.14 155.153C331.12 157.503 331.336 159.849 330.889 162.208C330.702 163.195 330.868 164.288 330.682 165.296C330.311 167.329 330.218 169.399 329.545 171.405C329.146 172.592 328.923 173.888 328.542 175.115C327.759 177.663 326.881 180.175 325.509 182.474C324.486 184.192 323.495 185.931 322.327 187.569C321.924 188.132 321.35 188.529 321.032 189.083C320.704 189.652 320.299 190.085 319.807 190.459C319.419 190.754 319.504 191.318 319.021 191.592C318.648 191.803 318.218 192.048 318.144 192.653C318.112 192.928 317.62 193.155 317.333 193.395C316.919 193.743 316.545 194.165 316.081 194.415C315.701 194.618 315.862 195.374 315.202 195.215C315.211 195.873 314.606 196.048 314.242 196.4C313.897 196.736 313.5 197.03 313.132 197.339C312.718 197.687 312.304 198.034 311.89 198.381C311.517 198.694 311.032 198.938 310.799 199.335C310.353 200.097 309.553 200.474 309.022 201.152C308.434 201.902 307.588 202.456 306.82 203.046C306.147 203.565 305.907 204.424 305.166 204.899C304.447 205.363 303.656 205.88 303.216 206.575C302.713 207.361 301.806 207.758 301.445 208.51C301.012 209.408 300.073 209.684 299.588 210.417C298.542 212.016 297.015 213.227 295.957 214.774C294.619 216.726 293.043 218.497 291.791 220.525C290.976 221.844 290.201 223.193 289.386 224.512C288.576 225.819 288.03 227.293 287.453 228.731C286.727 230.526 286.219 232.386 285.792 234.279C285.364 236.181 285.224 238.12 284.826 240.02C284.645 240.885 284.626 241.768 284.42 242.631C284.195 243.564 284.333 244.587 284.112 245.525C283.558 247.866 283.647 250.318 282.823 252.607C282.642 255.634 281.448 258.442 280.87 261.384C280.582 262.85 279.88 264.23 279.388 265.658C278.57 268.027 277.515 270.299 276.485 272.582C275.539 274.678 274.411 276.679 273.195 278.629C272.327 280.032 271.386 281.396 270.537 282.813C270.196 283.386 269.429 283.627 269.357 284.392C268.159 285.32 267.622 286.84 266.38 287.735C266.028 288.682 265.19 289.199 264.446 289.753C263.878 290.176 263.824 290.942 263.172 291.311C262.573 291.65 261.894 292.088 261.587 292.664C261.023 293.711 260.068 294.264 259.243 294.979C257.327 296.641 255.381 298.275 253.408 299.868C252.76 300.389 252.275 301.16 251.365 301.342C250.568 301.499 250.264 302.467 249.396 302.56C249.081 302.592 249.274 303.089 248.936 303.241C248.277 303.545 247.963 304.336 247.112 304.438C246.451 304.519 246.201 305.45 245.385 305.429C244.889 305.42 245.186 306.596 244.337 306.239C243.733 306.924 242.88 307.229 242.121 307.673C241.49 308.039 241.14 308.767 240.306 308.9C239.597 309.015 239.303 310.014 238.434 309.921C237.768 310.79 236.625 310.943 235.826 311.644C235.224 312.173 234.459 312.536 233.724 312.889C232.588 313.439 231.463 314.019 230.36 314.626C229.953 314.852 229.537 315.022 229.121 315.201C228.885 315.298 228.631 315.17 228.385 315.377C226.85 316.688 224.932 317.321 223.114 318.064C222.016 318.511 220.943 319.071 219.745 319.324C219.419 319.397 219.012 319.753 218.637 319.75C217.526 319.737 216.593 320.288 215.625 320.658C215.092 320.864 214.577 321.017 214.026 321.062C213.919 321.074 213.77 320.997 213.707 321.042C212.586 321.952 211.152 321.923 209.863 322.291C208.614 322.649 207.297 322.77 206.058 323.159C203.561 323.944 200.953 324.179 198.44 324.861C197.62 325.085 196.752 325.131 196.119 325.227C195.591 325.438 195.872 325.838 195.504 326.046C195.172 326.223 194.814 326.036 194.398 325.734C193.634 326.662 192.466 326.471 191.449 326.635C189.046 327.024 186.619 327.309 184.191 327.501C182.596 327.622 181.005 327.787 179.38 327.716C174.228 327.497 169.093 327.078 163.974 326.52C162.021 326.307 160.058 326.102 158.121 325.789C156.475 325.518 154.812 325.263 153.188 324.889C149.404 324.019 145.611 323.148 141.893 321.996C139.05 321.111 136.271 320.063 133.488 319.019C131.704 318.353 129.962 317.606 128.238 316.789C125.486 315.486 122.772 314.128 120.077 312.699C117.548 311.357 115.355 309.492 112.759 308.291C111.621 306.944 109.799 306.473 108.694 305.082C107.817 304.841 107.29 304.074 106.645 303.546C105.977 302.998 105.138 302.609 104.647 301.811C104.426 301.446 103.824 301.448 103.555 300.999C103.335 300.626 103.043 300.251 102.554 300.157C102.693 299.529 101.942 299.834 101.781 299.411C101.616 298.983 101.26 298.522 100.862 298.306C99.8874 297.783 99.4578 296.67 98.6 296.166C97.6661 295.616 97.294 294.618 96.4719 294.091C95.4707 293.443 95.2651 292.228 94.3823 291.527C94.3076 291.466 94.3707 291.227 94.3724 291.063C94.147 290.942 94.0231 291.201 93.7458 291.239C93.6676 290.832 93.6698 290.373 93.4861 290.016C93.2658 289.596 92.8822 289.259 92.5196 288.827C92.0977 288.832 91.621 288.837 91.1991 288.842C90.9013 288.247 90.4086 288.001 90.2751 287.408C90.2179 287.146 89.6581 286.848 89.328 286.575C88.8919 286.212 89.0572 285.43 88.6006 285.302C87.9835 285.13 87.7675 284.66 87.4431 284.273C84.4104 280.687 81.3913 277.089 78.3859 273.479C78.0614 273.093 77.5138 272.8 77.6424 272.15C76.7008 272.266 77.1354 271.296 76.7138 270.96C76.3281 270.648 76.1538 270.136 75.934 269.661C75.5534 268.857 74.7979 268.243 74.229 267.518C73.8495 267.038 73.3776 266.652 73.2672 265.938C73.1779 265.37 72.563 264.979 72.282 264.385C71.9397 263.672 71.6177 262.873 71.0743 262.244C70.7026 261.819 70.3423 261.408 70.2239 260.787C70.1341 260.32 69.3913 260.09 69.554 259.434C68.7941 258.63 68.516 257.569 68.0209 256.628C66.8249 254.353 65.821 252.002 64.9097 249.604C64.1456 247.594 63.3505 245.603 62.6084 243.582C62.3705 242.929 62.147 242.256 61.9562 241.595C61.2638 239.199 60.5045 236.798 60.0865 234.35C59.7126 232.168 59.2369 229.994 58.958 227.786C58.8118 226.614 58.4163 225.45 58.2124 224.265C57.7277 221.47 57.3198 218.666 57.0563 215.848C56.8221 213.37 56.5241 210.9 56.7764 208.401C56.8426 207.741 56.7156 207.073 56.74 206.409C56.7678 205.657 56.9781 204.891 56.8996 204.151C56.7937 203.194 56.9768 202.257 56.9112 201.32C56.8609 200.595 57.6079 200.053 57.1619 199.226C56.8352 198.624 57.6653 197.904 57.3032 197.177C57.8956 196.331 57.338 195.334 57.7157 194.39C58.0821 193.478 57.9513 192.37 58.0452 191.346C58.1345 190.325 58.1127 189.274 58.3389 188.278C58.7516 186.451 58.7018 184.563 59.0713 182.749C59.425 181.018 59.4021 179.208 60.1105 177.567C60.2794 177.178 59.9391 177.021 59.9882 176.701C60.0342 176.368 60.3163 176.178 60.3282 175.85C60.3716 174.535 60.6485 173.248 60.9042 171.964C61.2621 170.136 61.6741 168.318 62.0154 166.489C62.5501 163.653 63.3512 160.903 64.1774 158.156C64.7134 156.365 65.3156 154.589 65.8927 152.81C66.5706 150.745 67.2281 148.674 67.9426 146.625C68.4923 145.063 69.1441 143.54 69.7143 141.984C70.1633 140.755 70.568 139.5 70.9644 138.245C71.5158 136.519 72.1296 134.803 72.6932 133.082C73.4931 130.635 74.4589 128.267 75.5184 125.936C76.0512 124.761 76.5802 123.58 77.2682 122.46C77.7007 121.756 78.1231 120.976 78.4466 120.216C79.1134 118.664 80.1445 117.38 81.0171 115.982C81.3257 115.49 81.7342 115.109 82.0558 114.661C82.3539 114.24 82.6818 113.864 82.999 113.466C83.9461 112.276 85.1142 111.257 85.8607 109.902C85.9106 109.814 85.9772 109.727 86.0622 109.671C87.4936 108.726 88.3094 107.158 89.7034 106.158C90.9442 105.272 91.6782 103.819 93.0021 102.995C93.3158 102.011 94.3478 101.68 94.9094 100.945C96.4187 98.9654 98.4996 97.6302 100.331 96.016C102.153 94.4095 104.048 92.8893 105.901 91.3192C107.216 90.2078 108.768 89.4711 110.232 88.5918C110.547 88.4045 111.003 88.3475 111.303 88.0492C111.851 87.5661 112.463 87.3709 113.162 87.3814ZM239.017 92.6898C238.975 91.9107 238.523 91.7868 238.044 91.669C237.803 91.8713 237.557 92.0774 237.198 92.379C236.532 91.659 235.732 92.6174 234.855 92.1824C234.132 91.82 233.184 91.9182 232.346 91.8153C232.167 92.1664 232.709 92.3783 232.431 92.7669C233.147 92.8717 233.941 92.701 234.375 93.4765C234.607 93.2819 234.766 93.1483 234.962 92.9842C235.498 93.364 236.138 93.323 236.748 93.3765C237.334 93.4277 237.869 94.0097 238.492 93.5332C238.934 94.1703 239.598 93.5668 240.156 93.8348C240.658 94.0725 241.308 94.0072 241.894 94.0584C242.513 94.1126 243.163 94.0009 243.748 94.0605C244.333 94.1201 244.929 93.9995 245.502 94.1549C246.094 94.3164 246.683 94.6755 247.3 94.4597C247.961 94.2226 248.509 94.4138 249.1 94.7015C249.735 93.8425 250.314 94.4496 250.888 94.9213C250.909 94.687 250.918 94.5783 250.929 94.4611C251.24 94.2229 251.282 94.7534 251.554 94.6802C252.296 94.4838 253.088 94.2075 253.813 94.4437C254.628 94.7131 255.421 94.5212 256.219 94.5952C259.355 94.8781 262.478 95.2187 265.592 95.6681C265.804 95.6993 266.079 95.6391 266.225 95.7488C267.081 96.418 268.116 96.2472 269.072 96.453C270.102 96.6738 271.206 96.6693 272.169 96.9854C273.624 97.4624 275.068 97.9175 276.552 98.0053C276.63 98.2186 276.455 98.3887 276.573 98.437C277.411 98.5398 278.338 98.3976 278.848 98.7919C279.539 99.3203 280.19 99.1074 281.047 99.3805C279.935 98.3054 279.935 98.3055 278.795 98.193C278.762 97.5537 277.831 97.6451 277.763 96.9269C277.225 97.2001 276.677 97.7843 276.142 96.962C276.038 96.8012 275.869 96.7569 275.727 96.7908C274.672 97.0864 273.766 96.4675 272.81 96.2617C272.053 96.0985 271.17 95.9791 270.801 95.1882C269.965 95.448 269.27 95.3956 268.587 95.1082C268.599 94.8733 268.609 94.7098 268.617 94.525C268.176 94.6467 267.748 94.7652 267.303 94.8906C266.931 94.4745 266.408 94.2854 265.886 94.088C265.722 94.2254 265.558 94.3628 265.394 94.5002C265.003 94.1541 264.517 94.1748 264.054 94.1596C263.626 94.1474 263.311 93.7448 262.771 93.9967C262.389 94.1698 261.822 93.9559 261.341 93.9096C261.049 93.6818 260.91 93.2481 260.425 93.1045C260.525 93.4083 260.589 93.5951 260.729 94.012C260.149 93.367 259.622 93.8098 259.106 93.7309C258.253 93.6015 257.388 93.568 256.526 93.4926C256.198 94.1171 255.858 93.1391 255.454 93.5168C254.985 93.9563 254.964 92.8965 254.501 93.13C254.472 93.2707 254.447 93.4077 254.471 93.2791C253.388 93.1885 252.384 93.1006 251.376 93.0083C251.096 93.0259 251.552 92.5895 251.152 92.584C250.508 92.5277 251.138 93.5564 250.401 93.4076C250.214 93.2859 250.528 93.0142 250.213 92.9149C249.914 92.9562 249.798 93.4181 249.402 93.316C249.454 93.0551 249.512 92.782 249.371 92.7064C249.024 92.5327 248.919 92.6753 248.8 92.7745C248.28 93.2263 247.729 93.511 247.051 93.1104C246.534 93.5288 246.117 92.9485 245.626 92.973C245.093 92.9938 244.534 92.7806 244.017 92.866C242.364 93.1597 240.754 92.6816 239.017 92.6898ZM157.062 85.5956C158.367 86.0975 159.583 85.7908 160.755 85.8766C161.764 85.9522 162.822 85.8551 163.855 85.8105C164.971 85.7649 166.069 85.9368 167.165 85.8852C168.786 85.812 170.395 85.7252 172.009 85.8749C172.435 85.9122 172.906 86.0755 173.283 85.9526C174.31 85.6336 175.285 86.0013 176.281 86.0337C177.277 86.066 178.269 85.8156 179.27 86.0297C179.535 86.0866 179.684 86.3019 180.08 86.2565C181.698 86.0693 183.331 86.583 184.968 86.3174C185.46 86.7651 186.024 86.3465 186.555 86.4436C187.094 86.5413 187.645 86.5517 188.239 86.6036C187.998 85.7902 187.376 86.1108 186.98 85.9708C185.238 85.3548 183.431 84.9101 181.599 84.6571C178.017 84.1667 174.404 84.0824 170.799 84.1927C169.903 84.2239 169.015 84.1083 168.132 84.1744C165.133 84.3966 162.141 84.6828 159.15 84.9985C158.487 85.0669 157.786 85.1826 157.062 85.5956ZM142.636 78.9428C142.908 78.9624 143.118 78.9724 143.323 78.9861C143.303 78.546 143.615 78.253 143.723 77.8831C144.326 77.6408 144.327 78.7873 144.97 78.4263C145.099 78.1552 144.624 77.9956 144.856 77.7082C145.222 77.2767 145.78 77.3592 146.233 77.1881C146.455 77.3424 146.492 77.6912 146.833 77.6999C146.92 77.2861 147.047 76.8926 147.553 76.8399C148.556 76.7423 149.501 76.159 150.553 76.4154C150.933 76.5077 151.226 76.0908 151.607 76.2674C152.053 75.6067 152.794 75.7053 153.432 75.5967C155.517 75.227 157.592 74.8269 159.695 74.581C162.48 74.2515 165.274 73.9227 168.075 73.8516C170.005 73.8056 171.956 73.5716 173.887 73.8502C174.19 73.8978 174.379 73.7709 174.368 73.5087C166.679 72.2712 159.168 73.3337 151.701 75.1503C151.735 74.8582 151.814 74.5827 151.486 74.4234C150.913 74.5713 150.337 74.7907 149.75 74.849C149.024 74.9161 148.619 75.2557 148.566 75.9044C147.883 76.0512 147.307 76.1779 146.775 76.2914C146.589 76.1066 146.408 75.8167 146.292 75.8361C145.448 75.9941 144.492 75.8893 143.972 76.8217C143.543 76.2362 143.076 76.7518 142.66 76.6437C142.413 77.1995 141.495 76.6682 141.349 77.511C141.246 78.1173 140.742 78.2376 140.188 77.9194C140.198 77.8107 140.207 77.7019 140.22 77.5513C139.882 77.9053 139.266 77.4763 139.031 77.991C138.989 78.3751 139.605 77.9822 139.428 78.5105C138.57 78.781 137.689 79.1717 136.762 79.314C136.146 79.4119 135.893 79.71 135.521 80.2001C136.262 80.0669 136.847 79.6839 137.471 80.0756C137.498 79.7578 137.467 79.4431 137.969 79.4406C138.424 79.4383 138.618 79.7251 138.878 79.988C138.971 80.0805 139.086 80.0147 139.096 79.9059C139.023 79.7184 138.955 79.5354 138.853 79.2567C140.146 78.9779 141.358 78.5191 142.669 78.4653C142.663 78.6333 142.65 78.7375 142.636 78.9428ZM116.055 309.051C116.094 309.43 116.308 309.63 116.608 309.774C117.87 310.373 119.05 311.143 120.254 311.838C122.42 313.098 124.65 314.195 126.909 315.261C130.758 317.077 134.685 318.727 138.71 320.133C140.427 320.73 142.16 321.307 143.908 321.802C145.779 322.332 147.693 322.719 149.573 323.241C151.375 323.745 153.225 323.982 155.039 324.398C156.564 324.746 158.152 324.755 159.652 325.248C159.951 325.346 160.294 325.322 160.613 325.341C160.932 325.36 161.269 325.457 161.551 325.368C161.473 324.953 161.265 324.926 161.042 324.919C160.038 324.878 159.04 324.63 158.105 324.384C155.852 323.786 153.549 323.463 151.286 322.928C150.08 322.645 148.814 322.475 147.663 322.092C145.071 321.229 142.424 320.551 139.832 319.679C136.349 318.502 132.976 317.069 129.534 315.794C128.718 315.495 128.064 314.919 127.272 314.631C125.528 313.994 123.821 313.263 122.24 312.311C121.039 311.59 119.713 311.129 118.541 310.322C117.817 309.829 116.981 309.314 116.055 309.051ZM155.599 293.389C156.478 293.457 157.208 293.922 158.002 294.24C158.939 294.617 159.931 294.838 160.878 295.191C161.237 295.323 161.668 294.83 161.943 295.351C163.688 295.011 165.349 295.439 167.039 295.873C167.065 296.107 167.082 296.303 167.1 296.481C167.313 296.504 167.53 296.531 167.734 296.554C167.756 296.395 167.778 296.246 167.795 296.1C168.223 296.019 168.19 296.737 168.676 296.577C168.609 296.377 168.546 296.19 168.473 296.003C169.263 295.41 169.267 295.406 169.998 295.972C170.14 296.085 170.263 296.122 170.413 295.996C170.644 295.856 170.552 295.616 170.598 295.422C170.995 295.322 171.56 295.801 171.778 295.184C170.859 294.606 169.836 294.736 168.881 294.53C167.776 294.294 166.687 293.975 165.559 293.813C164.469 293.651 163.371 293.479 162.298 293.271C161.083 293.034 159.901 292.631 158.657 292.535C158.226 292.502 157.725 292.589 157.389 292.39C156.944 292.128 156.492 292.135 156.034 292.078C155.541 292.018 155.051 291.988 154.586 291.951C154.563 292.801 155.869 292.464 155.599 293.389ZM204.732 165.408C205.258 165.859 205.652 165.303 206.15 165.389C206.644 165.478 207.169 165.448 207.696 165.402C209.701 165.223 211.72 165.219 213.735 165.163C215.189 165.122 216.659 165.128 218.09 165.005C219.521 164.881 220.965 164.957 222.381 164.76C223.725 164.57 225.134 164.946 226.432 164.322C226.354 163.388 225.984 162.939 225.022 162.947C223.639 162.961 222.255 163.076 220.871 163.183C219.908 163.254 218.947 163.448 217.986 163.449C216.089 163.46 214.224 163.769 212.361 164.014C210.109 164.315 207.857 164.615 205.604 164.886C205.174 164.937 204.926 165.075 204.732 165.408ZM77.8816 155.144C78.0513 154.746 78.3064 154.385 78.3218 154.016C78.331 153.814 78.1427 153.654 78.3455 153.36C79.1663 152.168 79.9962 150.967 80.6807 149.695C81.0328 149.043 81.5707 148.483 81.6866 147.689C81.9911 145.557 82.3533 143.439 82.6951 141.316C82.7294 141.116 82.6435 140.894 82.8482 140.722C83.1348 140.482 83.0104 140.121 83.0367 139.82C83.0601 139.552 83.2256 139.25 82.927 138.858C81.8154 141.062 81.0238 143.268 80.2657 145.478C79.5468 147.577 78.8561 149.692 78.2148 151.819C77.9238 152.784 77.5271 153.706 77.163 154.639C77.1148 154.757 77.1556 154.917 77.1528 154.996C77.4092 155.053 77.6207 155.092 77.8816 155.144ZM131.488 246.494C132.396 245.793 133.575 245.812 134.566 245.321C135.782 244.72 137.043 244.227 138.274 243.652C139.32 243.162 140.39 242.729 141.402 242.151C142.443 241.564 143.608 241.207 144.692 240.669C145.816 240.114 146.927 239.508 148.099 239.066C148.757 238.816 149.416 238.604 150.04 238.267C150.744 237.886 151.469 237.494 152.233 237.287C153.01 237.077 153.553 236.227 154.51 236.508C154.74 236.579 154.956 236.273 155.098 236.054C155.166 235.942 155.197 235.683 155.226 235.69C156.157 235.801 156.724 234.999 157.611 234.782C157.367 234.584 157.298 234.409 156.927 234.558C155.219 235.247 153.461 235.831 151.759 236.537C151.16 236.784 150.461 236.883 150.008 237.434C148.537 237.668 147.296 238.516 146.028 239.176C144.73 239.855 143.372 240.444 142.062 241.063C139.161 242.427 136.322 243.941 133.322 245.095C132.835 245.743 131.775 245.524 131.488 246.494ZM93.4727 264.975C93.176 265.379 92.9996 265.612 92.8271 265.85C92.2418 265.217 91.74 266.328 91.0321 265.844C90.4263 265.206 89.8728 264.306 88.9146 263.792C88.4675 263.555 88.3714 263.69 88.2716 264.06C88.7852 264.645 89.1693 265.361 89.9393 265.521C90.066 265.903 89.5873 265.979 89.7275 266.303C90.3725 267.072 90.896 268.075 91.7241 268.581C92.6361 269.142 93.1361 269.978 93.8114 270.69C94.5133 271.434 95.1334 272.247 95.7937 273.034C95.9655 273.239 96.132 273.456 96.3174 273.649C96.3792 273.713 96.4956 273.732 96.5892 273.77C96.7886 273.61 97.0498 273.515 97.1294 273.231C96.2329 272.735 96.2838 272.731 96.309 271.865C96.3196 271.407 96.7064 271.563 96.8145 271.387C97.1503 270.873 96.4992 270.558 96.5198 270.13C96.4791 269.777 97.147 269.899 96.9218 269.39C96.3855 269.545 96.0917 270.35 95.362 269.924C95.1178 269.005 95.1179 269.005 94.0737 269.137C93.7453 269.373 94.4441 269.624 94.0718 269.929C93.857 269.59 93.2728 269.475 93.787 268.897C93.9415 268.72 93.6499 268.151 93.5975 267.932C93.3798 267.626 93.0712 267.877 93.0299 267.579C92.9636 267.084 93.3 266.755 93.4219 266.374C93.754 266.335 94.0504 266.513 94.303 266.371C94.2135 265.756 93.5663 266.121 93.4325 265.675C93.4404 265.537 93.4497 265.382 93.4727 264.975ZM174.543 101.274C173.765 101.206 173.055 101.089 172.342 101.098C171.642 101.104 170.988 100.87 170.278 100.846C169.332 100.818 168.396 101.006 167.453 100.898C165.58 100.679 163.699 100.785 161.816 100.83C158.863 100.905 155.981 101.479 153.087 101.938C152.416 102.044 151.765 102.257 151.11 102.418C158.864 102.292 166.555 101.296 174.302 101.624C174.353 101.62 174.409 101.464 174.543 101.274ZM185.675 245.983C188.805 245.86 191.821 245.298 194.82 244.65C198.428 243.87 202.017 242.983 205.615 242.172C206.02 242.081 206.236 241.915 206.354 241.483C199.527 242.584 192.851 244.17 186.147 245.603C185.971 245.634 185.83 245.853 185.675 245.983ZM176.156 308.059C174.728 307.234 173.114 307.464 171.647 306.99C170.125 306.507 168.567 306.211 167.003 305.918C165.394 305.617 163.77 305.399 162.161 305.145C162.225 305.424 162.392 305.725 162.727 305.755C163.971 305.842 164.905 307.02 166.238 306.761C166.828 307.445 167.665 307.27 168.418 307.428C168.948 307.542 169.456 307.806 169.7 308.143C170.448 308.019 170.989 308.054 171.604 308.344C172.115 308.582 172.789 308.388 173.294 308.778C173.7 307.895 173.806 307.891 174.906 308.658C175.038 308.501 174.868 308.233 175.243 308.042C175.47 308.045 175.815 308.05 176.156 308.059ZM172.322 293.541C169.811 292.424 163.086 291.005 160.907 291.872C161.644 292.114 162.181 292.624 162.986 292.244C163.281 292.105 163.731 292.347 164.094 292.299C164.618 292.231 164.635 292.906 165.155 292.889C165.692 292.872 166.277 293.21 166.757 293.079C167.409 292.896 167.815 293.408 168.386 293.395C168.922 293.378 169.542 293.323 169.968 293.563C170.47 293.847 171.091 293.404 171.444 293.89C171.816 294.407 172.437 293.669 172.76 294.22C173.606 294.231 174.354 294.735 175.215 294.679C175.524 294.66 175.722 294.61 175.759 294.238C175.216 293.756 174.472 293.729 173.876 293.555C173.673 293.229 173.967 292.804 173.497 292.679C173.459 292.68 173.39 292.652 173.358 292.679C173.022 292.953 172.695 293.228 172.322 293.541ZM254.51 176.325C254.81 176.655 254.572 177.056 255.045 177.341C255.517 177.627 256.001 177.64 256.457 177.815C257.102 178.057 257.705 177.861 258.18 177.494C258.591 177.18 258.721 177.621 259.049 177.633C259.871 176.997 260.633 176.288 260.584 174.872C258.545 175.435 256.446 175.104 254.51 176.325ZM263.664 276.914C264.482 276.244 265 275.661 265.529 275.016C266.401 273.959 267.094 272.789 267.912 271.714C269.161 270.07 270.003 268.201 271.009 266.426C271.338 265.848 271.721 265.232 271.936 264.555C272.145 263.899 272.388 263.238 272.757 262.634C272.797 262.57 272.922 262.34 272.576 262.251C272.399 262.493 272.169 262.662 272 263.052C271.362 264.509 270.471 265.839 269.712 267.235C268.898 268.732 267.973 270.151 267.013 271.538C266.502 272.278 266 273.056 265.509 273.792C264.907 274.709 264.075 275.547 263.664 276.914Z" fill="#FFCA0F"/>
</svg>
