<svg width="282" height="266" viewBox="0 0 282 266" fill="none" xmlns="http://www.w3.org/2000/svg">
<path d="M58.0782 18.6336C58.0014 18.0778 58.4379 17.7831 58.7962 17.6415C61.0539 16.7409 63.139 15.4923 65.3645 14.5154C66.5333 14.0037 67.719 13.3984 68.8193 12.6819C69.6901 12.1182 70.7282 11.9151 71.6239 11.3622C72.5881 10.7678 73.6961 10.4583 74.7104 9.93316C75.5621 9.48886 76.5591 9.35993 77.4483 8.93188C78.7392 8.30985 80.0897 7.79682 81.4341 7.30484C82.3002 6.99152 83.1394 6.5418 84.0893 6.55573C84.3397 6.56034 84.4748 6.39925 84.6626 6.32921C85.4796 6.03321 86.2818 5.70995 87.1421 5.51285C88.9382 5.09499 90.6894 4.50025 92.4872 4.11279C93.7917 3.82917 95.0726 3.47 96.3676 3.14665C97.6136 2.84061 98.8666 2.5525 100.121 2.29479C103.066 1.6921 106.039 1.21718 109.028 0.959818C111.371 0.75846 113.72 0.743484 116.079 0.807226C117.99 0.857673 119.91 0.852701 121.786 1.15516C123.291 1.39493 124.841 1.42245 126.295 1.80043C127.665 2.15374 129.067 2.43205 130.44 2.75103C133.614 3.48269 136.751 4.34083 139.856 5.3215C141.682 5.8963 143.505 6.514 145.333 7.06306C147.477 7.70463 149.532 8.58048 151.672 9.22596C152.927 9.60384 154.175 10.1627 155.423 10.6263C156.629 11.0777 157.768 11.6961 159.002 12.0678C160.236 12.4395 161.414 13.0095 162.591 13.5015C163.696 13.9657 164.985 14.2038 165.896 15.1093C166.943 14.9459 167.631 15.7757 168.497 16.1065C169.351 16.4319 170.216 16.8275 171.083 17.0936C171.975 17.3706 172.878 17.6787 173.751 17.9798C175.526 18.5891 177.356 19.0259 179.123 19.6258C180.202 19.9926 181.312 20.0076 182.396 20.2753C184.453 20.7752 186.578 21.0433 188.719 21.1312C189.576 21.1673 190.432 21.2681 191.237 21.5547C191.849 21.7725 192.365 21.3637 192.97 21.4685C193.944 21.6445 194.951 21.6591 195.941 21.7586C196.271 21.7918 196.576 21.8056 196.808 21.5319C197.055 21.7697 197.247 21.9508 197.422 22.1217C197.778 22.1572 197.488 21.8594 197.662 21.745C198.073 21.7506 198.518 21.647 198.94 21.9216C199.337 22.1768 199.701 21.7677 200.147 21.8629C201.11 22.0725 202.16 21.4295 203.088 22.1462C203.996 21.7976 204.954 22.0111 205.886 21.937C206.352 21.8957 206.848 21.9564 207.257 22.2731C207.614 22.5465 208.051 21.7979 208.396 22.3512C209.984 21.8935 211.483 22.5996 212.979 22.8472C215.369 23.2509 217.809 23.4773 220.151 24.2875C221.321 24.6968 222.659 24.775 223.856 25.1694C226.559 26.0501 229.322 26.7457 231.918 27.9542C232.99 28.4544 234.174 28.7093 235.24 29.2219C237.502 30.2975 239.773 31.3738 241.946 32.6275C242.354 32.8577 242.806 33.0184 243.069 33.4737C243.355 33.9656 243.975 33.6999 244.422 33.9768C244.951 34.3041 245.274 34.8598 245.909 35.1143C246.259 35.2574 246.667 35.6864 247.073 35.8472C248.392 36.3778 249.24 37.6063 250.572 38.1032C251.074 38.2942 251.379 38.8094 251.723 39.1724C252.9 40.4037 254.574 41.0344 255.581 42.4238C256.132 43.1854 256.847 43.7149 257.651 44.1052C257.908 44.2315 258.187 44.3553 258.254 44.5773C258.492 45.3634 259.223 45.7127 259.721 46.2491C260.254 46.8189 260.986 47.1985 261.474 47.8551C261.969 48.521 262.423 49.3086 263.09 49.7345C264.287 50.4877 265.013 51.6278 265.884 52.6465C266.319 53.1558 267.013 53.5277 266.967 54.3928C266.945 54.8491 267.913 54.402 267.818 55.1417C267.763 55.5778 268.048 55.7757 268.449 55.9405C268.816 56.0936 268.626 56.786 269.055 56.8711C269.476 56.9554 269.992 57.2298 269.916 57.4523C269.725 58.0105 270.554 57.9188 270.364 58.3648C270.348 58.4023 270.376 58.4739 270.412 58.5073C271.495 59.5229 271.888 61.0057 272.923 62.0776C273.525 62.701 273.966 63.548 274.288 64.3674C274.604 65.1516 275.061 65.8574 275.48 66.5555C276.217 67.7657 276.55 69.148 277.293 70.3371C277.494 70.6616 276.848 71.3228 277.712 71.3854C277.539 71.928 278.083 72.1312 278.227 72.5113C278.336 72.7932 278.262 73.1499 278.265 73.5609C278.822 74.1112 279.013 74.8974 279.283 75.7122C279.799 77.2748 280.244 78.8573 280.558 80.4541C280.989 82.6535 281.53 84.8711 281.261 87.1477C281.207 87.6142 281.68 87.742 281.675 88.1523C281.654 90.5629 281.876 92.9688 281.418 95.3887C281.225 96.4008 281.395 97.5225 281.205 98.5564C280.824 100.642 280.729 102.765 280.039 104.823C279.63 106.041 279.401 107.37 279.01 108.628C278.206 111.243 277.306 113.818 275.898 116.177C274.849 117.94 273.833 119.723 272.635 121.404C272.221 121.981 271.632 122.388 271.306 122.956C270.97 123.541 270.555 123.984 270.05 124.368C269.652 124.67 269.739 125.249 269.243 125.53C268.861 125.747 268.42 125.998 268.344 126.618C268.311 126.901 267.806 127.133 267.512 127.38C267.088 127.736 266.704 128.17 266.227 128.426C265.837 128.634 266.003 129.41 265.326 129.247C265.336 129.922 264.715 130.101 264.342 130.462C263.987 130.807 263.58 131.109 263.202 131.426C262.778 131.782 262.353 132.138 261.929 132.494C261.546 132.816 261.048 133.066 260.81 133.473C260.352 134.254 259.532 134.641 258.986 135.337C258.383 136.106 257.516 136.674 256.728 137.279C256.038 137.811 255.792 138.693 255.032 139.18C254.294 139.656 253.482 140.186 253.031 140.899C252.515 141.705 251.584 142.112 251.214 142.884C250.77 143.805 249.808 144.089 249.309 144.84C248.236 146.48 246.671 147.722 245.585 149.309C244.212 151.312 242.596 153.129 241.312 155.209C240.476 156.562 239.68 157.945 238.844 159.299C238.014 160.64 237.453 162.151 236.862 163.626C236.117 165.467 235.596 167.376 235.158 169.318C234.719 171.268 234.575 173.257 234.167 175.206C233.981 176.093 233.962 176.999 233.751 177.885C233.52 178.841 233.662 179.891 233.435 180.853C232.866 183.255 232.957 185.77 232.112 188.117C231.927 191.223 230.702 194.103 230.11 197.121C229.814 198.625 229.093 200.041 228.589 201.505C227.749 203.935 226.668 206.266 225.611 208.608C224.641 210.758 223.484 212.81 222.237 214.81C221.346 216.25 220.38 217.648 219.509 219.103C219.16 219.69 218.373 219.937 218.3 220.722C217.071 221.674 216.519 223.234 215.246 224.151C214.884 225.122 214.025 225.653 213.262 226.221C212.679 226.655 212.623 227.441 211.955 227.819C211.341 228.167 210.644 228.617 210.329 229.207C209.751 230.281 208.771 230.848 207.925 231.582C205.96 233.287 203.963 234.962 201.939 236.597C201.274 237.131 200.777 237.922 199.844 238.108C199.026 238.27 198.714 239.263 197.824 239.358C197.501 239.391 197.698 239.901 197.352 240.056C196.676 240.369 196.354 241.18 195.481 241.285C194.803 241.368 194.547 242.323 193.71 242.301C193.201 242.291 193.506 243.498 192.634 243.133C192.015 243.835 191.14 244.148 190.361 244.602C189.714 244.978 189.355 245.725 188.5 245.862C187.772 245.98 187.471 247.004 186.58 246.909C185.896 247.8 184.724 247.957 183.904 248.677C183.286 249.219 182.501 249.591 181.748 249.954C180.583 250.517 179.429 251.112 178.297 251.736C177.879 251.967 177.454 252.142 177.027 252.325C176.785 252.425 176.524 252.294 176.272 252.505C174.697 253.85 172.729 254.5 170.864 255.262C169.739 255.721 168.638 256.295 167.409 256.555C167.074 256.629 166.657 256.995 166.273 256.991C165.132 256.978 164.175 257.543 163.182 257.923C162.636 258.134 162.108 258.291 161.542 258.337C161.433 258.349 161.28 258.271 161.215 258.317C160.066 259.25 158.594 259.22 157.273 259.598C155.991 259.965 154.64 260.089 153.368 260.488C150.808 261.293 148.132 261.535 145.555 262.234C144.713 262.463 143.823 262.511 143.174 262.61C142.632 262.826 142.921 263.236 142.543 263.45C142.203 263.632 141.835 263.439 141.408 263.13C140.624 264.081 139.427 263.886 138.383 264.054C135.918 264.452 133.429 264.745 130.938 264.942C129.302 265.067 127.67 265.235 126.003 265.163C120.718 264.938 115.451 264.508 110.201 263.936C108.196 263.717 106.183 263.507 104.196 263.186C102.508 262.908 100.802 262.647 99.1365 262.263C95.2544 261.37 91.3638 260.476 87.5502 259.295C84.6335 258.387 81.7833 257.312 78.9285 256.241C77.099 255.558 75.3113 254.792 73.5429 253.954C70.7199 252.618 67.9365 251.224 65.1724 249.759C62.5778 248.382 60.3284 246.469 57.6649 245.237C56.4974 243.855 54.6288 243.372 53.4955 241.945C52.5962 241.698 52.0555 240.911 51.3939 240.369C50.708 239.808 49.848 239.408 49.3446 238.59C49.1179 238.216 48.4995 238.218 48.2242 237.757C47.9983 237.374 47.6991 236.989 47.1973 236.893C47.3402 236.249 46.5692 236.562 46.4039 236.128C46.2348 235.689 45.8697 235.217 45.4611 234.995C44.4618 234.458 44.0212 233.317 43.1414 232.799C42.1833 232.235 41.8016 231.212 40.9583 230.671C39.9313 230.006 39.7205 228.76 38.8149 228.041C38.7383 227.978 38.803 227.733 38.8048 227.564C38.5735 227.44 38.4465 227.706 38.162 227.746C38.0818 227.328 38.0841 226.857 37.8957 226.49C37.6696 226.06 37.2762 225.714 36.9042 225.271C36.4714 225.276 35.9825 225.281 35.5496 225.287C35.2442 224.676 34.7388 224.424 34.6018 223.816C34.5432 223.547 33.9689 223.242 33.6303 222.961C33.183 222.589 33.3526 221.787 32.8842 221.655C32.2511 221.479 32.0296 220.997 31.6968 220.6C28.5859 216.921 25.4891 213.23 22.4062 209.528C22.0734 209.131 21.5117 208.831 21.6435 208.164C20.6777 208.283 21.1235 207.289 20.691 206.944C20.2953 206.624 20.1165 206.098 19.8911 205.611C19.5007 204.786 18.7257 204.156 18.1422 203.413C17.7529 202.921 17.2688 202.524 17.1556 201.792C17.0639 201.209 16.4332 200.808 16.145 200.199C15.7939 199.468 15.4636 198.648 14.9061 198.003C14.5248 197.567 14.1553 197.146 14.0338 196.508C13.9417 196.029 13.1798 195.794 13.3467 195.121C12.5672 194.296 12.2819 193.208 11.7741 192.243C10.5472 189.909 9.51748 187.497 8.58265 185.037C7.79892 182.976 6.98326 180.933 6.22209 178.86C5.97807 178.19 5.74877 177.5 5.55306 176.822C4.84285 174.364 4.06397 171.901 3.63511 169.391C3.25161 167.152 2.76365 164.922 2.47756 162.657C2.32763 161.455 1.92196 160.261 1.71274 159.045C1.21558 156.178 0.797166 153.301 0.526888 150.411C0.286653 147.87 -0.0190944 145.336 0.23971 142.773C0.307601 142.096 0.177409 141.41 0.202395 140.729C0.230975 139.957 0.446641 139.172 0.366076 138.413C0.257468 137.431 0.445283 136.47 0.37806 135.509C0.326424 134.765 1.0927 134.209 0.635164 133.361C0.300068 132.744 1.15153 132.005 0.780115 131.259C1.3878 130.392 0.815801 129.369 1.20322 128.4C1.57906 127.464 1.44497 126.328 1.54122 125.278C1.63281 124.231 1.61045 123.152 1.84251 122.131C2.26585 120.257 2.21481 118.32 2.59376 116.459C2.95661 114.684 2.93315 112.827 3.65973 111.144C3.83306 110.744 3.48393 110.584 3.53428 110.255C3.58148 109.914 3.87093 109.718 3.88304 109.382C3.9276 108.033 4.21166 106.713 4.47391 105.396C4.8411 103.522 5.2637 101.656 5.61373 99.7802C6.16224 96.871 6.98399 94.0506 7.8315 91.2324C8.3813 89.3955 8.999 87.5732 9.59096 85.7486C10.2864 83.6305 10.9608 81.5062 11.6938 79.4043C12.2577 77.8021 12.9262 76.2394 13.5111 74.6434C13.9716 73.3823 14.3868 72.0957 14.7934 70.8083C15.3591 69.0377 15.9887 67.2769 16.5668 65.5117C17.3873 63.0024 18.378 60.5729 19.4648 58.1821C20.0113 56.9761 20.5539 55.7655 21.2597 54.6167C21.7034 53.8946 22.1366 53.0938 22.4685 52.3143C23.1525 50.7226 24.2102 49.4058 25.1053 47.9709C25.4217 47.4668 25.8408 47.0755 26.1707 46.6158C26.4765 46.1843 26.8128 45.7986 27.1382 45.3904C28.1097 44.1698 29.3079 43.1246 30.0737 41.7346C30.1248 41.644 30.1932 41.5549 30.2803 41.4976C31.7487 40.528 32.5855 38.9194 34.0154 37.8945C35.2881 36.9855 36.0411 35.495 37.3991 34.6497C37.7209 33.6402 38.7795 33.3005 39.3556 32.5467C40.9038 30.5162 43.0383 29.1465 44.9168 27.4907C46.786 25.8428 48.7296 24.2835 50.6301 22.6728C51.9793 21.5328 53.5716 20.7772 55.0729 19.8752C55.3967 19.6831 55.8644 19.6245 56.1721 19.3186C56.7343 18.823 57.3614 18.6228 58.0782 18.6336ZM187.177 24.0788C187.135 23.2796 186.67 23.1525 186.179 23.0317C185.932 23.2392 185.68 23.4506 185.312 23.7599C184.628 23.0214 183.807 24.0045 182.908 23.5584C182.167 23.1865 181.194 23.2873 180.334 23.1818C180.151 23.5419 180.707 23.7592 180.422 24.1579C181.156 24.2654 181.971 24.0903 182.416 24.8858C182.654 24.6861 182.817 24.5491 183.018 24.3807C183.567 24.7704 184.224 24.7283 184.85 24.7832C185.451 24.8357 186 25.4328 186.639 24.944C187.092 25.5975 187.773 24.9784 188.346 25.2533C188.86 25.4972 189.528 25.4301 190.128 25.4827C190.763 25.5383 191.431 25.4237 192.03 25.4848C192.63 25.546 193.242 25.4222 193.829 25.5817C194.437 25.7473 195.041 26.1156 195.674 25.8944C196.352 25.6511 196.914 25.8473 197.52 26.1423C198.172 25.2612 198.766 25.8839 199.355 26.3678C199.376 26.1275 199.386 26.0159 199.396 25.8958C199.716 25.6514 199.759 26.1956 200.038 26.1205C200.799 25.9191 201.611 25.6356 202.355 25.8779C203.191 26.1543 204.004 25.9574 204.823 26.0334C208.04 26.3235 211.243 26.6729 214.437 27.1339C214.655 27.1659 214.937 27.1041 215.087 27.2167C215.965 27.9031 217.026 27.7279 218.007 27.939C219.063 28.1655 220.197 28.1609 221.184 28.4851C222.676 28.9745 224.157 29.4413 225.68 29.5313C225.76 29.7501 225.58 29.9246 225.702 29.9741C226.561 30.0796 227.512 29.9337 228.035 30.3382C228.744 30.8802 229.411 30.6618 230.29 30.9419C229.15 29.8392 229.15 29.8392 227.98 29.7238C227.947 29.0681 226.992 29.1618 226.922 28.4251C226.37 28.7053 225.808 29.3046 225.259 28.4611C225.152 28.2962 224.979 28.2507 224.833 28.2855C223.752 28.5887 222.822 27.9539 221.841 27.7428C221.065 27.5754 220.159 27.4529 219.78 26.6416C218.923 26.9081 218.21 26.8543 217.509 26.5596C217.522 26.3185 217.532 26.1509 217.54 25.9613C217.088 26.0861 216.649 26.2077 216.193 26.3364C215.811 25.9095 215.274 25.7155 214.739 25.513C214.571 25.654 214.403 25.7949 214.235 25.9359C213.833 25.5809 213.334 25.602 212.86 25.5865C212.42 25.5739 212.098 25.1609 211.543 25.4194C211.152 25.597 210.57 25.3775 210.077 25.33C209.777 25.0963 209.635 24.6515 209.137 24.5042C209.24 24.8158 209.305 25.0074 209.449 25.4351C208.854 24.7735 208.313 25.2276 207.784 25.1468C206.909 25.014 206.022 24.9796 205.138 24.9023C204.801 25.5429 204.452 24.5396 204.038 24.9271C203.557 25.3779 203.536 24.2908 203.061 24.5303C203.031 24.6747 203.006 24.8152 203.03 24.6833C201.918 24.5903 200.889 24.5002 199.855 24.4055C199.568 24.4236 200.035 23.9759 199.625 23.9703C198.964 23.9125 199.611 24.9678 198.855 24.8151C198.663 24.6902 198.986 24.4115 198.662 24.3097C198.355 24.3521 198.236 24.8258 197.83 24.7212C197.884 24.4535 197.943 24.1733 197.798 24.0958C197.442 23.9177 197.334 24.0639 197.213 24.1657C196.679 24.6292 196.114 24.9212 195.419 24.5102C194.888 24.9394 194.461 24.3442 193.957 24.3693C193.41 24.3907 192.837 24.1719 192.306 24.2595C190.611 24.5608 188.959 24.0704 187.177 24.0788ZM103.111 16.8017C104.449 17.3166 105.696 17.002 106.899 17.09C107.934 17.1676 109.019 17.0679 110.078 17.0222C111.223 16.9754 112.349 17.1518 113.474 17.0988C115.136 17.0238 116.787 16.9347 118.442 17.0882C118.88 17.1265 119.362 17.2941 119.749 17.168C120.803 16.8407 121.803 17.2179 122.825 17.2511C123.846 17.2843 124.863 17.0274 125.89 17.247C126.162 17.3054 126.316 17.5263 126.722 17.4797C128.381 17.2877 130.056 17.8146 131.736 17.5422C132.24 18.0014 132.818 17.5721 133.363 17.6716C133.916 17.7719 134.482 17.7824 135.091 17.8357C134.844 17.0014 134.206 17.3303 133.799 17.1866C132.012 16.5547 130.159 16.0986 128.279 15.839C124.605 15.336 120.899 15.2495 117.201 15.3627C116.282 15.3947 115.371 15.2761 114.466 15.3439C111.389 15.5719 108.32 15.8654 105.252 16.1893C104.572 16.2594 103.852 16.3781 103.111 16.8017ZM88.3122 9.97748C88.5915 9.99759 88.8067 10.0078 89.0173 10.0219C88.9963 9.57045 89.3166 9.26989 89.4276 8.8905C90.046 8.64197 90.0468 9.81795 90.7061 9.44762C90.8385 9.16954 90.3514 9.00589 90.589 8.71108C90.965 8.2684 91.5369 8.35301 92.0018 8.17753C92.2301 8.33584 92.268 8.69363 92.6174 8.70258C92.7064 8.27803 92.8368 7.87443 93.356 7.82041C94.3851 7.72022 95.3541 7.12193 96.4335 7.38497C96.823 7.47958 97.1241 7.05196 97.5146 7.23313C97.9717 6.55544 98.7324 6.65656 99.3863 6.54516C101.525 6.16591 103.653 5.75549 105.811 5.50329C108.668 5.16527 111.534 4.82802 114.407 4.7551C116.387 4.70782 118.388 4.46787 120.369 4.7536C120.68 4.80245 120.873 4.6723 120.862 4.40329C112.975 3.13392 105.27 4.22384 97.6106 6.08719C97.6454 5.7876 97.7263 5.505 97.3904 5.34158C96.8022 5.49332 96.2118 5.71838 95.6099 5.77814C94.8646 5.84695 94.4494 6.19537 94.3955 6.86078C93.6949 7.01133 93.1042 7.14128 92.5579 7.25777C92.367 7.06813 92.1811 6.77081 92.0626 6.79071C91.1967 6.95274 90.2161 6.84533 89.6828 7.80169C89.2425 7.20113 88.7639 7.72998 88.3369 7.61913C88.0839 8.18929 87.1415 7.64423 86.9923 8.50882C86.886 9.13074 86.3695 9.25413 85.8014 8.92774C85.8111 8.81618 85.8209 8.70462 85.8344 8.55016C85.487 8.9132 84.8554 8.47315 84.6147 9.00116C84.5715 9.39514 85.2034 8.99215 85.022 9.53399C84.1417 9.81149 83.2376 10.2123 82.2867 10.3582C81.6553 10.4586 81.3951 10.7645 81.0139 11.2672C81.7738 11.1305 82.3745 10.7377 83.0138 11.1395C83.0424 10.8134 83.0101 10.4907 83.5248 10.4881C83.9919 10.4858 84.191 10.7799 84.4571 11.0497C84.5525 11.1445 84.6708 11.077 84.6806 10.9654C84.6066 10.7731 84.5366 10.5854 84.4319 10.2995C85.7583 10.0135 87.0013 9.54289 88.3464 9.48764C88.34 9.66 88.3263 9.76687 88.3122 9.97748ZM61.0467 246.017C61.0862 246.405 61.306 246.61 61.613 246.758C62.9081 247.373 64.1188 248.162 65.3534 248.875C67.575 250.168 69.863 251.293 72.1797 252.386C76.1283 254.249 80.1566 255.942 84.2846 257.384C86.0469 257.997 87.8238 258.589 89.6169 259.096C91.5364 259.64 93.4992 260.036 95.428 260.573C97.2765 261.089 99.1747 261.333 101.035 261.759C102.599 262.117 104.229 262.125 105.767 262.631C106.073 262.732 106.426 262.706 106.753 262.726C107.079 262.746 107.425 262.846 107.714 262.754C107.635 262.328 107.421 262.301 107.193 262.294C106.163 262.251 105.139 261.997 104.18 261.745C101.868 261.132 99.5067 260.8 97.1855 260.251C95.9484 259.961 94.6493 259.787 93.4689 259.394C90.8096 258.508 88.0949 257.813 85.4365 256.919C81.8629 255.711 78.4032 254.241 74.8729 252.933C74.0351 252.627 73.3648 252.036 72.5519 251.74C70.7631 251.087 69.0128 250.337 67.3905 249.36C66.1582 248.621 64.7988 248.148 63.5958 247.321C62.8532 246.815 61.9959 246.286 61.0467 246.017ZM101.609 229.951C102.511 230.021 103.26 230.497 104.075 230.823C105.035 231.21 106.053 231.437 107.024 231.799C107.393 231.935 107.835 231.429 108.117 231.964C109.907 231.615 111.611 232.053 113.344 232.499C113.371 232.739 113.388 232.94 113.407 233.123C113.625 233.146 113.847 233.174 114.057 233.197C114.08 233.035 114.102 232.881 114.12 232.731C114.559 232.649 114.525 233.385 115.024 233.221C114.955 233.016 114.89 232.825 114.816 232.632C115.625 232.024 115.63 232.02 116.379 232.6C116.525 232.717 116.651 232.754 116.805 232.625C117.042 232.481 116.947 232.235 116.995 232.036C117.402 231.933 117.981 232.425 118.205 231.792C117.263 231.199 116.214 231.332 115.233 231.121C114.1 230.879 112.983 230.552 111.826 230.386C110.708 230.219 109.582 230.043 108.481 229.83C107.235 229.587 106.022 229.174 104.747 229.075C104.304 229.041 103.791 229.13 103.445 228.927C102.989 228.658 102.526 228.665 102.055 228.606C101.55 228.545 101.047 228.514 100.571 228.476C100.546 229.347 101.886 229.002 101.609 229.951ZM152.009 98.6712C152.548 99.1334 152.952 98.5635 153.463 98.6515C153.97 98.7434 154.509 98.7126 155.049 98.6648C157.106 98.4816 159.177 98.4769 161.244 98.42C162.735 98.3775 164.243 98.384 165.711 98.2574C167.179 98.1308 168.66 98.2084 170.113 98.007C171.492 97.812 172.937 98.1978 174.268 97.5577C174.188 96.5995 173.809 96.1384 172.822 96.1472C171.403 96.1614 169.983 96.2792 168.564 96.3885C167.576 96.4621 166.59 96.6612 165.605 96.6614C163.658 96.6727 161.745 96.9895 159.834 97.2417C157.524 97.5498 155.215 97.8579 152.903 98.1356C152.462 98.1877 152.208 98.3298 152.009 98.6712ZM21.8889 88.1432C22.063 87.7347 22.3246 87.3642 22.3405 86.9851C22.3499 86.7784 22.1568 86.6146 22.3647 86.3128C23.2067 85.0895 24.058 83.8583 24.7602 82.5535C25.1213 81.8847 25.6731 81.3104 25.792 80.4951C26.1043 78.3088 26.4759 76.1365 26.8265 73.9579C26.8617 73.7534 26.7736 73.5252 26.9835 73.3491C27.2775 73.1024 27.1499 72.7324 27.1769 72.4235C27.2009 72.1489 27.3707 71.8395 27.0644 71.4366C25.9241 73.6974 25.1121 75.9609 24.3345 78.2275C23.597 80.3809 22.8885 82.5498 22.2307 84.7317C21.9322 85.7216 21.5252 86.6674 21.1518 87.6248C21.1023 87.7458 21.1442 87.9094 21.1413 87.9913C21.4044 88.0489 21.6213 88.0895 21.8889 88.1432ZM76.8769 181.847C77.8088 181.128 79.0176 181.148 80.0344 180.644C81.2817 180.027 82.5753 179.522 83.8375 178.932C84.9104 178.429 86.0085 177.985 87.046 177.393C88.1148 176.79 89.3098 176.423 90.4216 175.872C91.5739 175.303 92.7135 174.681 93.916 174.228C94.5913 173.972 95.2675 173.754 95.9074 173.408C96.629 173.017 97.3732 172.615 98.157 172.403C98.9541 172.187 99.5103 171.315 100.492 171.604C100.728 171.677 100.95 171.363 101.095 171.138C101.166 171.023 101.198 170.758 101.227 170.765C102.181 170.879 102.763 170.056 103.674 169.833C103.423 169.63 103.353 169.451 102.972 169.603C101.219 170.31 99.4161 170.909 97.6708 171.634C97.0564 171.887 96.3385 171.989 95.874 172.553C94.3658 172.793 93.0922 173.663 91.7921 174.341C90.4601 175.037 89.067 175.641 87.7231 176.276C84.7472 177.676 81.8358 179.228 78.7578 180.412C78.2586 181.077 77.1715 180.852 76.8769 181.847ZM37.8818 200.804C37.5775 201.219 37.3966 201.458 37.2196 201.702C36.6193 201.053 36.1045 202.192 35.3783 201.696C34.7569 201.041 34.1891 200.118 33.2063 199.591C32.7477 199.348 32.6491 199.486 32.5467 199.866C33.0736 200.466 33.4676 201.201 34.2573 201.365C34.3874 201.757 33.8963 201.835 34.0401 202.167C34.7018 202.956 35.2387 203.984 36.0882 204.504C37.0236 205.078 37.5366 205.936 38.2293 206.667C38.9493 207.43 39.5854 208.264 40.2627 209.071C40.4389 209.281 40.6097 209.504 40.7999 209.702C40.8632 209.768 40.9826 209.787 41.0787 209.826C41.2832 209.662 41.5512 209.564 41.6328 209.273C40.7132 208.765 40.7654 208.761 40.7913 207.872C40.8022 207.402 41.1989 207.562 41.3098 207.382C41.6543 206.854 40.9864 206.532 41.0075 206.093C40.9657 205.73 41.6509 205.855 41.4198 205.333C40.8698 205.493 40.5684 206.318 39.8198 205.881C39.5694 204.938 39.5694 204.938 38.4984 205.073C38.1615 205.316 38.8783 205.574 38.4964 205.886C38.2761 205.538 37.6768 205.421 38.2043 204.827C38.3628 204.647 38.0636 204.063 38.0098 203.837C37.7865 203.524 37.47 203.782 37.4277 203.475C37.3596 202.968 37.7047 202.63 37.8298 202.239C38.1704 202.2 38.4744 202.382 38.7336 202.236C38.6418 201.606 37.9778 201.98 37.8406 201.523C37.8487 201.381 37.8583 201.221 37.8818 200.804ZM121.042 32.8841C120.244 32.8143 119.515 32.6943 118.784 32.7038C118.065 32.7101 117.395 32.4699 116.666 32.4451C115.696 32.4164 114.737 32.6091 113.769 32.4985C111.848 32.2742 109.919 32.3822 107.986 32.4293C104.958 32.5058 102.001 33.0945 99.0327 33.5655C98.3444 33.6739 97.6768 33.8922 97.0051 34.0582C104.959 33.9283 112.847 32.9065 120.794 33.2429C120.847 33.2388 120.904 33.0795 121.042 32.8841ZM132.461 181.323C135.671 181.197 138.765 180.621 141.841 179.956C145.543 179.156 149.224 178.245 152.915 177.414C153.33 177.321 153.552 177.15 153.673 176.707C146.67 177.836 139.822 179.464 132.944 180.933C132.764 180.965 132.619 181.19 132.461 181.323ZM122.696 244.999C121.231 244.153 119.576 244.389 118.071 243.903C116.51 243.407 114.911 243.103 113.308 242.803C111.657 242.494 109.991 242.27 108.34 242.009C108.406 242.296 108.578 242.605 108.921 242.635C110.197 242.725 111.155 243.933 112.523 243.668C113.127 244.369 113.986 244.189 114.759 244.352C115.302 244.469 115.823 244.739 116.074 245.085C116.842 244.958 117.396 244.994 118.027 245.291C118.551 245.536 119.242 245.337 119.761 245.737C120.177 244.83 120.286 244.827 121.415 245.613C121.55 245.452 121.375 245.177 121.759 244.982C121.993 244.985 122.347 244.99 122.696 244.999ZM118.763 230.107C116.188 228.961 109.289 227.505 107.054 228.395C107.811 228.643 108.361 229.166 109.187 228.776C109.489 228.634 109.951 228.882 110.323 228.832C110.861 228.763 110.878 229.456 111.412 229.438C111.962 229.421 112.563 229.768 113.055 229.633C113.724 229.445 114.141 229.97 114.726 229.957C115.276 229.94 115.912 229.883 116.349 230.129C116.864 230.42 117.5 229.966 117.863 230.465C118.245 230.995 118.882 230.238 119.213 230.803C120.081 230.814 120.848 231.331 121.731 231.274C122.048 231.255 122.252 231.203 122.289 230.822C121.732 230.328 120.969 230.3 120.357 230.121C120.149 229.787 120.451 229.351 119.969 229.222C119.93 229.223 119.859 229.195 119.826 229.223C119.482 229.504 119.146 229.786 118.763 230.107ZM203.07 109.87C203.377 110.208 203.134 110.619 203.618 110.912C204.103 111.205 204.599 111.219 205.067 111.398C205.729 111.646 206.347 111.445 206.834 111.068C207.256 110.746 207.389 111.199 207.725 111.211C208.569 110.559 209.35 109.831 209.3 108.379C207.209 108.957 205.056 108.617 203.07 109.87ZM212.46 213.051C213.298 212.364 213.83 211.766 214.373 211.105C215.267 210.02 215.978 208.82 216.818 207.717C218.098 206.031 218.962 204.113 219.994 202.293C220.332 201.7 220.724 201.068 220.945 200.374C221.159 199.701 221.409 199.023 221.787 198.403C221.828 198.337 221.956 198.102 221.601 198.01C221.42 198.258 221.184 198.432 221.01 198.832C220.357 200.327 219.442 201.691 218.664 203.123C217.829 204.658 216.88 206.114 215.895 207.537C215.371 208.295 214.855 209.093 214.353 209.849C213.734 210.789 212.881 211.649 212.46 213.051Z" fill="#F97561"/>
</svg>
