<svg width="103" height="104" viewBox="0 0 103 104" fill="none" xmlns="http://www.w3.org/2000/svg">
<path d="M82.0946 23.2548C82.3207 23.016 82.4844 22.8431 82.8335 22.4678C82.5164 27.1272 83.1672 31.5099 82.9986 35.9102C82.9543 37.0488 82.6301 37.9817 81.5541 38.5245C81.3942 38.6043 81.1685 38.7997 81.0918 38.7521C79.6904 37.8968 78.4979 38.8759 77.2286 39.1544C77.0531 39.1913 76.8611 39.2126 76.6857 39.1901C75.7359 39.0717 73.7761 37.1568 73.5718 36.195C72.6798 32.0242 72.565 27.8242 72.932 23.5837C73.0002 22.7926 73.354 22.1781 73.7433 21.5723C74.7974 19.9312 75.154 19.9471 76.1272 21.5681C76.1926 21.6738 76.3386 21.734 76.4582 21.8254C76.9595 21.616 76.7709 21.1126 76.9333 20.7728C77.0909 20.4348 77.3555 20.1388 77.6597 20.3519C78.8337 21.1605 80.3898 20.7506 81.5452 21.7008C82.1146 22.1682 81.8133 22.7042 82.0946 23.2548Z" fill="#F2F0EF"/>
<path d="M10.5323 28.8968C11.0884 28.4677 10.8565 27.8452 11.0339 27.3542C11.143 27.0609 11.23 26.4842 11.4722 26.6011C12.3211 27.0207 13.4808 26.4259 14.0026 27.0293C14.5309 27.6357 15.9484 27.2601 15.7413 28.6037C15.737 28.6214 16.5604 27.9332 16.4862 28.9154C16.4469 29.4154 16.4527 29.9206 16.5096 30.418C16.6477 31.6575 17.3759 32.7092 17.7874 33.8547C18.3117 35.3099 17.729 36.8819 18.6007 38.2538C18.8889 38.7047 17.9523 38.8892 17.8627 39.429C17.7092 40.3862 17.2476 39.8742 16.8138 39.6165C16.3948 39.3697 16.125 39.7107 15.8837 39.982C15.49 40.4275 15.1652 40.9289 14.7551 41.3588C13.9208 42.2399 13.3324 43.4255 11.7071 43.1859C11.0338 43.0856 10.2454 43.5884 9.53626 43.8789C8.73829 44.2072 8.06585 44.1983 7.38457 43.572C6.65389 42.8989 5.37749 42.8616 5.28133 41.4556C5.12426 39.23 5.35584 37.0194 6.62088 35.2314C7.86903 33.4711 8.09811 31.6392 8.09839 29.6531C8.09945 28.8109 8.1993 28.0028 8.69301 27.2834C8.90738 26.9679 9.1148 26.6334 9.52598 26.6511C10.0736 26.673 10.0595 27.2124 10.2021 27.5598C10.3803 27.9753 10.1985 28.484 10.5323 28.8968Z" fill="#F2F0EF"/>
<path d="M42.8273 25.491C42.9733 24.1427 44.0089 24.408 44.5187 23.985C45.2278 23.3977 45.7001 23.5981 46.4532 23.7396C47.1434 23.8715 47.9093 23.4848 48.7122 23.7485C49.8956 24.1381 50.5864 24.7015 50.8641 26.0576C51.3292 28.3438 51.2454 30.6786 51.7638 32.9778C51.9595 33.8564 51.3824 35.5182 50.4933 36.5596C50.0627 37.067 49.7541 36.6343 49.4802 36.3562C49.0971 35.956 48.5789 35.7776 48.3342 36.2768C47.7505 37.4607 46.5897 37.1924 45.7561 37.2152C44.783 37.2402 43.8965 36.9099 42.7974 37.2559C42.0323 37.4966 40.9051 36.698 39.9791 36.2741C38.4148 35.5644 38.0527 34.169 38.0856 32.6136C38.1104 31.4659 38.172 30.3155 38.2306 29.1717C38.2405 28.9468 38.2443 28.6162 38.3764 28.5196C39.6971 27.5963 40.0256 26.1114 40.6772 24.7733C41.2531 23.5977 41.8853 23.7778 42.8273 25.491Z" fill="#F2F0EF"/>
<path d="M30.2325 62.4716C29.7741 62.3686 30.212 61.8962 29.7666 61.7993C29.33 62.3198 29.1309 63.0776 29.2108 63.653C29.4135 65.0849 27.9799 65.3422 27.5712 66.2951C27.4747 66.5191 27.274 66.3979 27.1219 66.2913C26.5464 65.8964 25.988 66.0672 25.4539 66.3642C25.0224 66.6022 24.6286 66.7509 24.2251 66.3095C24.0019 66.0669 23.7467 66.0627 23.5432 66.3634C22.9282 67.2834 22.3609 66.7182 21.5814 66.4892C18.4781 65.5842 18.2425 63.1281 18.0122 60.5675C17.8983 59.3354 17.7155 58.1067 17.5024 56.8837C17.2989 55.7165 17.601 54.797 18.6346 54.1672C18.7546 54.0965 18.8845 54.0384 18.9863 53.9474C20.7241 52.3759 20.7241 52.3759 21.9171 54.5267C22.0607 52.2672 23.2502 52.7031 24.6436 52.9731C25.9773 53.227 27.3256 53.195 28.5134 54.0417C29.0386 54.4171 29.4092 54.768 29.5229 55.4066C29.769 56.7795 30.405 58.0969 30.0887 59.5558C30.029 59.8366 30.1646 60.0462 30.4788 60.3312C31.2143 61.0025 30.3956 61.7484 30.2325 62.4716Z" fill="#F2F0EF"/>
<path d="M49.387 49.191C50.0167 48.2818 50.7517 47.6473 51.8629 48.5057C51.989 48.6001 52.2143 48.6261 52.382 48.5974C55.6404 48.0752 57.5375 49.225 58.5341 52.2298C59.0549 53.7942 59.0948 55.4904 60.1294 56.9541C61.0405 58.2415 60.3683 59.0042 58.6595 58.9354C58.3528 58.923 58.1722 59.0642 57.9547 59.2675C57.3851 59.7932 56.744 60.1075 55.9436 59.7027C55.7387 59.5992 55.4453 59.5494 55.2985 59.754C54.3371 61.1455 52.8586 60.5233 51.5996 60.7117C50.7543 60.8359 50.0824 61.0804 49.0549 60.4075C47.8853 59.6405 47.6 58.8269 47.3917 57.7208C46.9808 55.539 46.8917 53.3372 46.9067 51.1245C46.9112 50.5292 46.9449 49.9395 47.2506 49.3857C47.9253 48.185 48.4573 48.1047 49.387 49.191Z" fill="#F2F0EF"/>
<path d="M41.4095 96.4877C41.2705 96.684 41.2164 96.7577 41.1735 96.8326C40.9201 97.2486 41.2436 98.1671 40.4546 98.0603C39.7332 97.9613 39.3838 97.2681 39.4009 96.4848C39.4526 93.9134 39.4947 91.3454 39.5416 88.7757C39.5569 87.8095 39.5241 86.8446 39.5893 85.8819C39.6315 85.1973 39.7002 84.3035 40.4466 84.1451C41.3317 83.9525 40.9993 85.115 41.486 85.4884C41.956 85.2525 41.8654 84.8106 41.9107 84.4163C41.9902 83.6858 42.2024 83.1715 42.9872 83.8896C43.1172 84.0096 43.2551 84.24 43.382 84.0104C44.1601 82.6046 45.141 83.8019 45.8784 83.9598C46.7207 84.1389 47.094 85.0608 47.1177 86.1045C47.1762 88.9489 47.379 91.7893 47.5449 94.6324C47.5928 95.446 47.4686 96.128 46.8111 96.7235C46.4901 97.013 46.3846 97.494 45.9585 96.8719C45.9034 96.7948 45.6326 96.7477 45.6079 96.7837C45.0895 97.539 44.2581 97.6419 43.497 97.9675C43.072 98.1492 42.8339 98.7701 42.1614 98.5831C41.4001 98.3745 41.6434 97.7085 41.5081 97.2181C41.4335 97.0132 41.4421 96.7996 41.4095 96.4877Z" fill="#F2F0EF"/>
<path d="M60.3407 12.2521C60.2708 11.6893 60.035 11.338 59.6635 11.0145C58.0804 9.61552 58.0268 7.12557 59.525 5.65203C59.9656 5.21647 60.4305 5.20376 61.0951 5.22089C62.2589 5.24524 63.3199 5.44728 64.3833 5.84817C65.6265 6.31313 66.7873 6.81883 66.9442 8.39154C66.9946 8.88588 67.9848 9.48609 67.6729 9.51868C66.2366 9.67985 68.2672 10.4842 67.4059 10.6088C66.4822 10.74 66.3572 11.6867 66.3487 12.1971C66.3366 13.691 65.3038 14.0561 64.2745 14.4901C63.9795 14.6137 63.4143 15.2403 63.414 14.2312C63.4131 14.1992 63.3736 14.165 63.355 14.1286C62.6373 14.692 62.3182 14.0526 61.7423 13.8197C60.8159 13.4391 60.6455 12.8374 60.3407 12.2521Z" fill="#F2F0EF"/>
</svg>
