<svg width="160" height="198" viewBox="0 0 160 198" fill="none" xmlns="http://www.w3.org/2000/svg">
<path d="M24.4919 37.4345C31.0469 24.3181 39.0786 12.1603 47.5703 0.326356C48.5419 0.572492 47.6869 1.18134 48.0367 1.56349C48.5873 1.81611 49.1962 0.494736 49.9087 1.6736C50.5564 2.7553 50.1742 3.57146 49.7143 4.4135C47.3048 8.83747 43.8265 12.5684 41.7214 17.232C41.0024 18.8254 40.6915 20.7815 38.9167 22.0187C37.8221 22.783 38.0812 24.7132 37.1161 25.9892C36.5137 26.7859 36.1769 27.9 35.5032 28.8003C32.8281 32.3823 31.2865 36.437 30.8461 40.8869C30.7684 41.6901 30.4315 42.4155 29.6866 42.4414C27.6593 42.5127 25.6448 43.3483 23.6563 41.5735C22.2119 40.2845 22.0824 39.1186 22.4904 37.5641C23.475 33.8202 25.4246 30.5233 27.3419 27.2199C29.583 23.3594 32.1286 19.6804 34.4992 15.9106C37.6925 10.8325 41.2615 6.03928 44.6556 1.11656C44.9794 0.6502 45.2839 -0.321387 45.9964 0.106112C46.5275 0.429975 45.9705 1.19431 45.6661 1.66067C43.7488 4.60134 41.6955 7.44483 39.5968 10.256C37.5824 12.957 35.8983 15.9106 34.2142 18.8383C31.4938 23.5732 28.5013 28.1526 26.0464 33.03C25.3339 34.4291 24.6409 35.8347 24.4919 37.4345Z" fill="#FFCA0F"/>
<path d="M14.1287 94.0394C12.8981 95.0304 12.0042 93.4889 11.6156 93.178C10.5598 92.3294 8.91454 93.2039 8.49999 92.2064C7.87818 90.6907 6.53736 89.4082 7.0944 87.3743C8.16962 83.4426 9.80191 79.7441 11.3176 75.9938C12.4187 73.2733 13.468 70.527 15.0744 68.0462C15.7934 66.9386 16.616 65.9605 17.8272 65.4035C19.0773 64.8335 20.172 64.7881 21.3703 65.818C22.2577 66.5758 23.4041 67.0811 24.2267 67.9685C25.0105 68.817 25.6323 69.7108 24.7061 70.8638C24.0583 71.6734 24.1749 72.7422 23.8511 73.6684C22.5362 77.3928 22.0374 81.3958 19.9323 84.8417C18.3713 87.3937 17.2184 90.1401 16.0136 92.867C15.6768 93.6507 15.34 94.59 14.1287 94.0394Z" fill="#FFCA0F"/>
<path d="M91.7649 66.1676C91.4735 66.8218 91.2856 67.2428 91.1107 67.6444C91.3245 67.923 91.5188 67.7545 91.7326 67.6962C92.1665 67.5732 92.3155 66.7376 92.8466 67.0744C93.4879 67.476 92.6653 67.9618 92.7106 68.4411C93.4101 68.6031 93.598 67.7416 94.168 67.7157C95.0489 69.0759 94.589 70.1706 93.7664 71.3883C91.5317 74.6982 89.5951 78.1829 88.2867 81.9916C87.7944 83.4295 85.9484 84.1355 85.916 85.8002C85.8706 87.9183 84.8796 89.7578 83.772 91.2735C81.8547 93.8903 81.4467 96.967 80.3002 99.8105C79.9763 100.607 80.4168 101.598 79.6266 102.252C79.374 102.466 78.9724 102.945 78.804 102.537C78.234 101.145 77.1199 101.818 76.2001 101.585C74.4901 101.158 74.1533 99.4801 73.9849 98.0033C73.7193 95.678 74.393 93.4304 75.3386 91.3577C78.9529 83.423 83.1502 75.8058 88.3449 68.7844C89.1352 67.7157 89.8477 66.3749 91.7649 66.1676Z" fill="#FFCA0F"/>
<path d="M67.8315 34.6559C67.4364 35.893 67.0542 37.182 66.6073 38.458C63.7832 46.5157 60.1235 54.2042 56.1595 61.7502C54.6373 64.6456 52.8885 67.4243 51.7355 70.5075C51.4052 71.3949 50.8157 72.0879 49.7599 71.1487C49.5138 70.9285 49.1446 70.8248 48.8143 70.7082C46.625 69.931 45.7699 68.2533 46.4565 65.9798C47.1626 63.6415 48.4645 61.6012 49.7211 59.548C55.0583 50.8749 60.0782 42.0399 63.9063 32.5702C64.3921 31.3719 64.5345 31.3719 65.3831 32.2852C65.4737 32.3823 65.6616 32.4536 65.7976 32.4406C67.391 32.3046 67.5335 33.4705 67.8315 34.6559Z" fill="#FFCA0F"/>
<path d="M14.3228 125.182C12.8654 128.764 10.4883 131.504 9.10216 134.742C7.70307 138.02 6.00602 141.181 5.12511 144.678C6.40113 141.874 7.67066 139.069 8.95315 136.264C10.43 133.052 12.2954 130.066 14.135 127.054C15.0547 125.545 16.0911 125.616 17.1339 126.451C18.1509 127.268 18.3582 128.634 17.406 129.586C15.4628 131.53 14.3681 134.017 13.6556 136.459C12.4185 140.708 10.2422 144.653 9.58795 149.089C9.43897 150.113 8.69406 150.987 8.54508 152.127C8.37667 153.41 8.30545 154.511 8.94023 155.703C9.30943 156.396 10.2162 157.309 9.41305 158.086C8.75237 158.721 7.78725 159.187 6.68611 158.611C6.26509 158.391 5.65625 158.533 5.1316 158.52C2.06138 158.417 0.247729 156.415 0.701137 153.319C1.31648 149.167 2.87751 145.281 4.52273 141.44C6.67966 136.413 9.03091 131.478 12.2242 127.002C12.6906 126.335 13.0857 125.603 14.3228 125.182Z" fill="#FFCA0F"/>
<path d="M98.0737 164.363C93.9153 164.356 92.6587 162.536 94.0708 159.084C95.1719 156.389 97.0438 154.161 98.851 151.939C103.068 146.745 107.459 141.692 112.136 136.893C113.282 135.72 114.668 135.299 116.093 134.859C116.592 134.71 117.7 134.406 117.654 134.84C117.564 135.727 118.458 136.53 117.654 137.476C114.079 141.712 110.886 146.246 107.582 150.689C106.125 152.645 104.512 154.498 103.107 156.493C102.154 157.84 101.189 159.304 102.148 161.118C102.264 161.338 102.206 161.901 102.103 161.94C100.457 162.484 99.4663 164.233 98.0737 164.363Z" fill="#FFCA0F"/>
<path d="M140.597 70.1707C142.735 67.7676 144.062 64.8529 146.167 62.4692C146.789 61.7697 147.534 61.1544 148.065 60.3965C148.94 59.1399 149.84 60.0985 150.423 60.4937C150.987 60.8758 151.252 61.7697 150.643 62.6182C148.182 66.0706 146.2 69.8403 144.535 73.6878C143.35 76.4277 141.381 78.8243 140.973 82.0111C140.817 83.2158 139.995 84.6085 139.535 85.9623C138.926 87.7694 137.669 86.2732 136.698 86.2084C136.542 86.1954 136.406 85.7485 136.27 85.7485C135.674 85.7549 135.325 87.2771 134.625 86.2213C133.679 84.7898 132.662 83.4426 133.33 81.331C134.385 77.9758 136.005 74.9444 137.773 71.9778C140.176 67.949 142.391 63.7776 145.811 60.4548C146.064 60.2087 146.297 59.9431 146.563 59.7164C146.841 59.4832 147.217 59.2889 147.515 59.5739C147.897 59.9366 147.696 60.3771 147.359 60.6491C144.464 63.0198 143.02 66.4463 140.986 69.4453C140.824 69.659 140.72 69.9246 140.597 70.1707Z" fill="#FFCA0F"/>
<path d="M69.0947 129.787C69.9886 128.945 70.999 128.194 71.7439 127.235C72.6183 126.121 73.5899 125.875 74.8206 126.361C75.5525 126.652 75.3971 127.417 75.3258 127.909C75.1444 129.166 74.3996 130.137 73.1818 130.584C72.8904 130.694 72.4499 130.474 72.4564 130.999C72.4629 133.57 70.2088 134.937 69.2437 136.996C68.9457 137.625 68.3951 138.227 68 138.875C66.86 140.766 65.9273 142.82 63.5178 143.539C62.9543 143.707 62.0669 144.212 62.3648 145.067C63.2911 147.671 61.4645 149.413 60.4281 151.344C58.7246 154.517 56.5677 157.432 54.9872 160.684C54.8123 161.053 54.6957 161.571 54.184 161.442C53.5428 161.28 54.3913 160.716 53.9509 160.379C53.1542 160.807 52.4546 161.947 51.3405 160.6C50.9454 160.12 50.3625 160.93 50.0775 161.442C49.8573 161.83 49.6241 162.2 49.1318 161.915C48.5424 161.571 49.0476 161.208 49.2095 160.885C52.053 155.087 55.5702 149.698 59.2169 144.387C62.4296 139.71 65.6423 135.034 68.8486 130.357C68.9328 130.169 69.0105 129.975 69.0947 129.787Z" fill="#FFCA0F"/>
<path d="M104.039 113.834C103.424 114.015 104.991 111.884 103.32 113.193C103.275 113.225 103.191 113.283 103.165 113.264C102.064 112.409 101.092 112.461 100.088 113.503C99.8225 113.775 97.7757 111.483 97.7303 110.802C97.6655 109.779 97.9247 108.808 98.3716 107.914C100.917 102.848 104.499 98.6382 109.02 95.2311C111.235 93.56 113.561 93.7414 115.88 94.985C117.123 95.6522 117.117 96.4554 116.087 97.4529C114.999 98.5022 113.962 99.6163 112.984 100.776C111.857 102.11 110.912 103.58 109.674 104.85C108.049 106.521 107.485 108.885 106.3 110.867C105.646 111.962 105.069 113.069 104.039 113.834ZM100.192 109.209C102.161 106.165 104.143 103.12 106.339 100.212C103.832 102.091 100.82 106.437 100.192 109.209Z" fill="#FFCA0F"/>
<path d="M155.65 116.878C155.391 117.759 155.236 118.297 154.996 119.106C155.391 118.802 155.631 118.705 155.702 118.543C156.291 117.195 157.373 117.545 158.228 117.979C159.141 118.446 159.381 119.501 159.012 120.408C158.416 121.891 157.729 123.355 156.887 124.716C155.728 126.587 154.413 128.395 153.623 130.435C152.8 132.566 151.595 134.645 152.107 137.152C152.353 138.337 151.362 139.03 150.28 138.544C149.691 138.279 149.166 138.311 148.583 138.337C144.904 138.519 143 135.908 144.432 132.398C146.446 127.442 149.704 123.252 153.092 119.184C153.746 118.407 154.193 117.37 155.65 116.878Z" fill="#FFCA0F"/>
<path d="M21.4416 194.255C21.4222 195.577 22.5363 196.218 22.6917 197.274C21.0595 197.494 20.0361 196.613 19.6733 194.793C19.2847 192.817 19.9065 190.991 20.8651 189.417C22.9119 186.062 24.622 182.512 27.4849 179.617C28.6055 178.483 29.3762 176.65 30.4644 175.277C33.567 171.365 36.8056 167.563 40.0054 163.728C40.6467 162.957 41.411 162.31 42.2919 161.811C42.7388 161.552 43.1857 161.494 43.6068 161.83C44.0602 162.193 44.0084 162.653 43.7558 163.1C43.3801 163.767 43.0497 164.467 42.5769 165.056C38.2566 170.549 33.8132 175.951 29.6094 181.541C27.9707 183.717 26.6947 186.217 25.8138 188.828C25.4057 190.032 25.8397 191.36 25.9822 192.63C26.021 192.973 26.5004 193.446 25.8915 193.705C24.7191 194.204 23.7346 194.696 24.7645 196.225C24.9976 196.574 24.4665 196.756 24.0908 196.762C23.4236 196.775 22.6593 196.769 22.5816 195.94C22.5168 195.188 22.0893 194.8 21.4416 194.255Z" fill="#FFCA0F"/>
<path d="M49.5915 104.04C49.2093 103.768 48.9955 103.716 48.8271 104.124C48.2183 105.601 47.713 107.136 46.9228 108.503C46.4435 109.332 46.5472 111.036 44.7141 110.537C44.4226 110.459 44.4809 110.828 44.6169 111.036C44.9278 111.521 44.7335 111.878 44.3967 112.286C43.8267 112.979 43.6712 113.756 43.8137 114.708C44.0858 116.47 42.8616 117.331 41.2488 116.606C41.0545 116.522 40.7111 116.224 40.6917 116.347C40.2772 119.223 38.7226 115.408 38.0879 116.8C37.6086 116.405 37.3883 115.9 37.33 115.278C37.2069 113.853 37.7899 112.642 38.4506 111.457C40.9638 106.961 44.5586 103.379 48.2442 99.8882C49.1316 99.0462 50.4724 99.0008 51.6188 98.664C52.2925 98.4632 52.6941 99.0268 52.9467 99.5579C53.2965 100.29 52.9143 100.368 52.3119 100.173C52.2342 101.488 51.3727 102.401 50.6667 103.399C50.3752 103.839 50.1744 104.37 49.5915 104.04Z" fill="#FFCA0F"/>
<path d="M95.9621 47.8307C95.4439 48.5755 95.8132 49.8451 94.1938 49.9487C93.0215 50.02 93.2352 49.4565 93.2352 48.8541C92.2247 48.9448 92.6328 50.143 91.7389 50.3827C91.3697 48.7634 91.9721 47.2089 91.8944 45.6543C91.9074 45.609 91.9138 45.5572 91.9138 45.5053C93.1639 44.4301 93.4554 42.8237 94.1485 41.4376C94.4335 40.8676 94.5371 40.1875 94.8869 39.6693C97.7175 35.5045 100.023 31.0092 103.068 26.9739C105.458 23.813 107.576 20.4448 110.128 17.4005C110.717 16.701 111.235 15.9302 112.492 15.1982C111.52 16.9601 110.782 18.2944 110.044 19.6352C110.063 19.5834 110.076 19.5251 110.095 19.4733C108.146 21.0148 107.356 23.3985 105.684 25.1732C106.254 25.6525 106.423 25.1538 106.701 25.0955C107.168 24.9983 107.459 25.2898 107.641 25.6979C107.731 25.8987 107.906 26.1837 107.595 26.2679C106.196 26.6306 106.533 27.7901 106.488 28.7098C106.442 29.7268 105.892 30.2838 105.095 30.7437C103.871 31.4432 103.139 32.4342 103.275 33.9175C103.061 34.2349 102.847 34.5523 102.627 34.8697C101.286 35.5239 99.3692 38.7237 99.5052 40.0774C98.7409 40.1163 98.4364 41.5672 97.4001 40.7705C97.0892 39.9155 96.9143 39.5074 96.1176 40.5761C95.1071 41.9234 95.269 43.7565 94.0448 44.9612C93.8635 45.1426 93.8765 45.4017 94.1226 45.5571C94.4465 45.7579 94.7444 45.609 94.7962 45.2916C95.01 43.9184 96.1046 42.9533 96.4349 41.6514C96.5774 41.1008 96.7264 40.6215 97.4454 40.7251C97.8794 43.2642 95.9233 45.0066 95.2561 47.1765C95.1654 47.4614 94.0902 46.6907 94.4788 47.6558C94.6667 48.1092 95.3856 48.3424 95.9621 47.8307ZM102.096 31.8124C101.954 31.7023 101.805 31.5987 101.662 31.4886C100.827 32.8099 99.991 34.1248 99.1749 35.4526C99.0777 35.6081 98.8963 35.8866 99.1749 36.055C99.3692 36.1716 99.706 36.204 99.7707 35.9578C100.198 34.3903 101.682 33.3864 102.096 31.8124Z" fill="#FFCA0F"/>
<path d="M136.024 165.257C135.668 166.248 135.946 167.135 136.257 167.997C136.426 168.45 136.549 168.787 136.011 168.975C135.519 169.143 135.214 168.8 135.04 168.424C134.593 167.465 134.703 166.397 134.968 165.483C135.979 161.992 137.87 158.967 140.208 156.208C140.901 155.392 141.724 154.647 142.268 153.74C143.253 152.088 144.937 151.616 146.537 151.097C147.282 150.851 147.424 151.855 147.58 152.393C147.67 152.704 147.437 153.3 147.165 153.481C144.503 155.223 144.075 158.462 142.268 160.794C141.672 161.565 141.944 163.119 141.18 164.143C140.571 164.946 140.247 165.956 139.12 166.338C138.473 166.559 138.965 167.401 138.667 167.893C138.518 168.146 138.421 168.456 138.103 168.495C137.786 168.534 137.378 168.262 137.436 168.061C137.818 166.682 136.193 166.332 136.024 165.257Z" fill="#FFCA0F"/>
<path d="M69.0944 129.787C69.0166 129.975 68.9324 130.169 68.8547 130.357C66.5164 132.417 64.6315 134.898 62.8049 137.372C60.2917 140.773 58.0118 144.361 55.8225 147.982C53.97 151.046 51.6058 153.805 50.3038 157.219C49.7727 158.605 48.8982 159.868 47.3696 160.813C47.0069 158.728 48.3412 157.387 49.1055 155.917C51.1265 152.043 53.672 148.487 56.1787 144.925C60.6998 138.493 64.9554 131.847 70.5906 126.27C70.9145 125.953 71.1735 125.512 71.9443 125.752C71.4391 127.436 69.8198 128.323 69.0944 129.787Z" fill="#FFCA0F"/>
<path d="M137.559 105.161C136.866 105.673 137.682 107.046 136.62 106.819C135.713 106.631 136.044 105.524 136.27 104.824C137.682 100.484 140.461 97.2715 144.49 95.1664C145.099 94.849 145.986 94.3633 146.55 95.2636C147.048 96.0668 146.278 96.5526 145.831 97.0513C143.978 99.15 142.216 101.3 141.756 104.196C141.64 104.921 141.05 105.187 140.448 105.433C140.241 105.517 140.027 105.66 139.878 105.828C138.706 107.169 137.818 107.311 137.559 105.161Z" fill="#FFCA0F"/>
<path d="M101.241 27.2911C101.047 29.4545 99.2006 30.6463 98.1966 32.3304C97.4517 33.5741 96.8429 34.9926 95.6575 35.9771C95.3596 36.2233 95.243 36.7673 94.7572 36.4888C94.3685 36.2686 94.2908 35.8281 94.5499 35.4136C96.1304 32.9069 97.6655 30.3743 99.5568 28.0813C100.004 27.5373 100.703 27.5567 101.299 27.3364L101.241 27.2911Z" fill="#FFCA0F"/>
<path d="M101.293 27.3365C101.073 26.8572 100.814 26.4103 101.215 25.8662C103.489 22.7701 105.717 19.6351 108.36 16.8239C108.56 16.6037 108.677 16.092 109.137 16.4159C109.428 16.6231 109.357 16.9405 109.156 17.1931C106.578 20.4512 104.078 23.7676 101.733 27.207C101.669 27.3041 101.409 27.2717 101.241 27.2976C101.241 27.2912 101.293 27.3365 101.293 27.3365Z" fill="#FFCA0F"/>
<path d="M91.9073 45.4987C91.9008 45.5505 91.8944 45.6024 91.8879 45.6477C91.577 46.4379 90.8969 47.0727 90.9552 48.0184C90.9746 48.3552 91.0199 48.8281 90.5082 48.7892C90.0483 48.7503 90.1131 48.3228 90.152 47.9666C90.5082 44.7538 91.6029 41.7484 92.8206 38.7883C93.0279 38.2831 93.6432 37.7325 94.2003 37.9981C94.861 38.309 94.3622 38.9632 94.129 39.3453C92.9631 41.2432 92.4514 43.3742 91.9073 45.4987Z" fill="#FFCA0F"/>
<path d="M110.089 19.4602C110.076 19.5185 110.057 19.5703 110.037 19.6222C110.782 18.8643 112.078 18.6441 112.201 17.245C112.22 17.0118 112.809 16.1698 113.399 16.6944C113.962 17.1867 113.36 17.7114 113.036 18.0223C111.559 19.4214 110.387 20.9953 109.72 23.1199C109.15 22.4592 108.308 22.0252 109.435 21.222C110.044 20.7816 109.804 20.0173 110.089 19.4602Z" fill="#FFCA0F"/>
<path d="M102.621 34.8567C102.835 34.5393 103.048 34.2219 103.269 33.9045C103.528 33.7037 103.787 33.4964 104.046 33.2957C104.137 33.3604 104.227 33.4187 104.318 33.4835C103.722 34.5458 103.126 35.6016 102.537 36.6638C102.407 36.625 102.284 36.5796 102.155 36.5408C102.304 35.9772 102.459 35.4137 102.621 34.8567Z" fill="#FFCA0F"/>
<path d="M96.6486 46.9172C96.3053 45.6995 97.1862 44.8898 97.6525 43.9571C98.1059 43.0373 98.6371 42.15 99.1358 41.2561C99.3107 41.716 99.2719 42.1176 99.0128 42.5645C98.2031 43.996 97.4323 45.4598 96.6486 46.9172Z" fill="#FFCA0F"/>
</svg>
