<svg width="219" height="222" viewBox="0 0 219 222" fill="none" xmlns="http://www.w3.org/2000/svg">
<path d="M92.4217 1.1225C80.0461 0.983066 67.6763 1.63381 55.3297 2.80165C55.3181 2.67383 55.3063 2.54598 55.3005 2.41815C57.8395 2.17413 60.3728 1.95334 62.9119 1.69188C70.744 0.872653 78.6052 0.692569 86.4663 0.489216C92.2881 0.338154 98.0344 0.965611 103.728 2.19738C110.491 3.66735 117.394 4.1496 124.261 4.8933C137.45 6.32842 150.535 8.40269 163.335 11.9759C164.346 12.2548 165.508 12.4233 166.321 12.8939C168.337 14.0618 170.667 14.5557 172.55 16.0431C173.555 16.8332 174.996 16.9727 176.03 17.9372C178.848 20.5518 182.346 22.1147 185.646 24.003C190.736 26.9139 195.913 29.8829 199.608 34.5136C206.243 42.8279 212.111 51.6943 215.406 61.9202C218.816 72.5005 219.24 83.1854 216.045 94.0097C214.674 98.6695 213.622 103.393 211.007 107.571C209.648 109.738 208.038 111.708 206.411 113.671C204.465 116.019 202.862 118.627 200.526 120.696C197.29 123.555 194.053 126.372 190.55 128.917C186.872 131.59 185.57 135.663 184.734 139.974C183.699 145.308 183.258 150.74 181.73 155.987C177.459 170.658 169.011 182.185 156.432 190.906C150.082 195.31 143.354 199.029 136.776 203.02C130.6 206.762 124.116 210.027 117.981 213.804C104.106 222.351 89.1912 222.449 73.893 219.98C67.1009 218.882 60.6692 216.488 54.3013 213.897C47.3465 211.067 40.2811 208.528 33.9132 204.415C22.4614 197.012 13.4732 187.524 8.13369 174.8C5.55977 168.676 2.99749 162.547 1.7425 155.993C0.510733 149.549 0.220222 143.082 1.2951 136.534C2.59077 128.633 4.94949 120.969 6.30326 113.085C6.56471 111.562 6.66354 110.046 6.65193 108.518C6.62869 104.48 7.169 100.436 6.76228 96.4093C6.26262 91.5346 5.49566 86.6889 5.0076 81.8142C4.2639 74.3539 4.45576 66.9053 5.28081 59.4334C6.05937 52.4031 7.44222 45.518 9.37119 38.7375C10.5216 34.6937 12.0844 30.7602 14.1703 27.123C15.1522 25.409 15.588 23.0849 17.8365 22.2541C21.6364 15.9326 28.173 13.0973 34.1109 9.51242C36.7139 7.93787 39.6015 6.95595 42.3323 5.66609C44.5576 4.61446 46.8758 4.67838 49.1243 4.21936C55.2657 2.95856 61.5349 2.62152 67.7751 2.13347C75.9558 1.50016 84.1771 1.2968 92.4217 1.1225ZM171.365 67.9511C165.223 71.9602 158.814 75.5799 153.022 80.8671C160.006 77.6425 170.226 70.4902 171.365 67.9511ZM147.136 93.9226C147.305 94.1375 147.473 94.3525 147.647 94.5617C152.481 90.9304 157.316 87.299 161.598 82.9762C156.287 86.0033 151.831 90.1227 147.136 93.9226ZM153.08 152.17C149.094 156.963 144.179 160.902 140.454 165.911C145.538 162.111 149.658 157.445 153.08 152.17ZM190.48 104.305C188.22 104.898 182.88 111.609 182.462 114.363C185.681 111.196 187.836 107.553 190.48 104.305ZM98.4586 122.514C101.991 121.573 110.294 116.373 111.926 114.078C107.383 116.919 103.066 119.627 98.4586 122.514ZM29.852 194.224C27.1038 191.034 24.2162 188.007 20.7708 185.549C23.2576 189 26.4124 191.76 29.852 194.224ZM138.421 179.53C141.93 176.834 145.689 174.399 147.827 170.292C144.736 173.417 141.547 176.439 138.421 179.53ZM161.278 87.4152C157.647 90.1867 153.893 92.8129 150.756 96.1653C154.492 93.5217 158.164 90.7967 161.278 87.4152ZM113.803 213.694C111.456 214.797 109.08 215.768 106.639 216.529C104.234 217.278 101.77 217.859 99.3301 218.51C104.768 218.202 111.281 216.012 113.803 213.694ZM112.966 187.124C116.848 185.81 123.983 181.157 124.889 179.344C122.78 180.715 120.787 181.912 118.905 183.254C116.97 184.631 114.919 185.816 112.966 187.124ZM156.706 69.3398C156.63 69.2178 156.554 69.0957 156.485 68.9795C153.55 69.915 151.261 71.902 148.862 73.7032C148.932 73.8194 149.007 73.9356 149.077 74.0518C151.616 72.4831 154.161 70.9085 156.706 69.3398ZM76.0313 130.254C79.1804 128.33 82.3294 126.413 85.4785 124.49C85.4087 124.374 85.3391 124.263 85.2694 124.147C81.946 125.791 78.8318 127.778 76.0313 130.254ZM80.8187 119.819C78.9711 120.039 73.2656 123.723 72.0861 125.234C75.1481 123.34 77.9833 121.579 80.8187 119.819ZM154.184 97.5133C154.283 97.6411 154.381 97.7747 154.486 97.9026C156.804 96.113 159.099 94.2886 160.964 91.9645C158.704 93.8122 156.444 95.6598 154.184 97.5133ZM171.777 118.877C173.352 116.646 174.932 114.415 176.507 112.19C174.345 113.985 172.846 116.251 171.777 118.877ZM205.122 96.9613C203.977 99.5004 202.827 102.039 201.682 104.573C203.349 102.272 204.605 99.7909 205.122 96.9613ZM69.9014 166.393C69.9595 166.538 70.0234 166.689 70.0815 166.834C72.1848 165.963 74.2823 165.091 76.3856 164.214C76.3333 164.086 76.281 163.964 76.2287 163.836C74.201 164.888 71.8187 165.068 69.9014 166.393ZM75.4154 113.259C73.4457 113.776 71.7665 114.746 70.3198 116.094C72.3476 115.728 73.8466 114.403 75.4154 113.259ZM200.956 113.398C202.414 112.567 203.373 111.353 204.14 109.976C204.262 109.761 204.506 109.54 204.215 109.302C203.936 109.064 203.715 109.285 203.57 109.5C202.699 110.79 201.833 112.097 200.956 113.398ZM153.26 175.904C151.825 177.246 150.349 178.525 149.361 180.233C151.203 179.268 152.261 177.601 153.26 175.904ZM197.237 104.119C198.806 102.586 200.084 100.047 200.107 98.7044C199.085 100.639 198.161 102.382 197.237 104.119ZM42.338 15.4097C44.3134 14.91 46.2889 14.4104 48.2701 13.9107C46.1552 13.9572 44.1217 14.3232 42.338 15.4097ZM160.79 77.4275C159.059 78.2991 157.409 79.2403 156.026 80.5766C157.763 79.74 159.367 78.6942 160.79 77.4275ZM6.62865 156.301C6.50083 155.237 7.30266 154.075 6.22779 152.983C5.68744 154.255 6.15803 155.278 6.62865 156.301ZM94.6471 139.201C93.09 139.689 91.7478 140.555 90.4812 141.554C92.0151 141.031 93.3921 140.218 94.6471 139.201ZM90.4869 2.42397C90.4869 2.39493 90.4869 2.37168 90.4869 2.34262C88.8891 2.34262 87.2915 2.34262 85.6879 2.34262C85.6879 2.37168 85.6879 2.39493 85.6879 2.42397C87.2915 2.42397 88.8891 2.42397 90.4869 2.42397Z" fill="#FFCA0F"/>
</svg>
