<svg width="117" height="113" viewBox="0 0 117 113" fill="none" xmlns="http://www.w3.org/2000/svg">
<path d="M55.9472 33.1631C56.2159 33.1631 56.5314 33.1631 56.841 33.1631C56.9987 33.4961 57.0572 33.8759 57.4136 34.0687C59.1546 34.1154 58.6054 33.9868 60.6035 35.9908C61.953 35.9908 63.326 35.9908 64.6464 35.9908C65.2481 36.2653 65.4234 37.1125 66.2179 36.9723C66.7846 37.7493 68.1692 37.7493 68.1809 39.0813C68.1809 39.2683 68.5315 39.4552 68.7184 39.6422C68.4088 40.501 67.6902 41.021 67.0884 41.6695C66.8898 41.9908 66.2413 41.4299 66.2238 42.0259C66.2062 42.6042 65.6337 42.2888 65.4351 42.6276C65.2948 42.8671 64.8333 42.9139 64.5119 43.0483C64.3834 42.9373 64.2666 42.8379 64.1556 42.7386C64.0037 43.3287 63.437 43.4222 63.0105 43.6617C62.7009 43.7084 62.6599 43.2294 62.1809 43.428C61.9881 43.6675 61.696 44.0356 61.4039 44.392C61.0884 44.1349 60.8956 43.837 60.6327 43.9947C59.9492 44.4095 59.2948 44.8827 58.6346 45.3384C57.9861 45.7883 57.0222 46.0629 56.2335 45.9577C55.6142 45.8759 55.1643 46.6179 54.4515 46.0337C54.4515 46.6354 54.4515 46.9918 54.4515 47.2956C54.101 47.6637 53.5168 47.2722 53.2539 47.9616C53.1137 46.9918 51.8868 47.5059 51.7699 46.5887C51.2675 46.8282 50.7475 47.1671 50.3502 46.4134C50.2567 46.2498 50.4846 46.2265 50.5372 46.0921C50.5255 45.7824 50.2568 45.9402 50.0932 45.8818C49.766 45.5546 49.9121 44.912 50.5898 43.6559C49.0941 42.7094 48.4865 41.0502 47.5167 39.7415C47.581 38.6957 48.212 38.0414 49.1351 37.6383C49.4038 37.5214 49.7193 37.5273 50.0055 37.4513C50.7709 37.2468 51.5304 36.9489 52.3659 36.9606C53.8498 36.9898 54.2704 36.6101 54.7378 35.1845C54.9656 34.4718 55.0299 33.6597 55.9472 33.1631Z" fill="#FFCA0F"/>
<path d="M98.356 92.556C97.4621 93.111 96.58 93.2746 96.0366 93.9873C95.8263 94.2619 95.54 94.3612 95.2596 94.4197C94.2255 94.6417 93.542 95.6173 92.4319 95.6933C92.2333 95.705 92.058 96.0438 91.8652 96.2308C90.7201 96.1256 89.6568 96.7975 88.5001 96.558C88.2021 96.4937 87.8691 96.6865 87.5945 96.4411C86.8525 95.7751 85.9353 95.5472 84.9888 95.4421C84.13 95.3428 83.6627 94.7235 83.1135 94.1918C83.0142 93.853 83.3121 93.2629 82.5117 93.3564C82.5117 92.8773 82.5117 92.4099 82.5117 91.89C83.3647 90.8091 84.5799 90.3593 86.0054 90.1548C87.3667 89.962 88.7104 89.553 90.0191 89.109C90.5974 88.9162 91.0648 88.5131 91.4154 87.8354C92.3268 86.0769 93.0045 84.2424 93.5945 82.367C94.0385 80.9532 94.0093 80.9473 95.2129 80.3047C96.0775 80.5209 95.7328 81.3037 95.8496 81.7886C96.1768 81.4615 96.4981 81.1401 96.7961 80.8422C97.2343 81.1694 97.4505 81.4381 97.4972 81.8412C97.9821 81.8587 98.4963 82.1333 98.8935 81.5024C99.1623 82.1041 98.7357 82.8403 99.6413 83.1616C99.8458 82.8811 100.115 82.5189 100.395 82.1392C100.792 82.5949 100.442 83.0681 100.71 83.4245C101.014 83.6173 101.189 83.4069 101.371 83.2083C101.447 83.255 101.546 83.2843 101.587 83.3544C102.627 85.1596 102.358 86.924 101.359 88.63C100.862 89.4829 100.196 90.2132 99.4485 90.8617C98.8993 91.3466 98.5371 91.9367 98.356 92.556Z" fill="#FFCA0F"/>
<path d="M78.5742 69.1051C78.1652 69.146 77.7738 69.3271 77.5693 68.8305C77.0786 69.1927 76.7163 69.9113 76.0036 69.2453C75.8225 69.0759 75.6121 69.0992 75.4661 69.2979C75.2324 69.6192 74.8702 69.3797 74.5839 69.5316C74.1458 70.9162 73.0415 71.775 71.9665 72.6455C71.8322 72.7507 71.6277 72.9493 71.47 72.9493C70.0561 72.961 68.6364 73.0837 67.2226 72.8909C66.8078 72.3592 65.8906 73.0369 65.5926 72.219C65.0084 72.2073 64.506 72.0029 63.9919 71.7283C63.4602 71.442 62.9928 71.0447 62.4728 70.7876C61.6724 70.3962 61.2401 69.7536 60.8429 69.0525C60.5799 68.5851 60.3813 68.0768 60.1476 67.5744C60.4163 67.0544 60.6267 66.4877 61.1291 66.0846C61.4154 65.8509 61.6841 65.7224 62.058 65.6231C63.0162 65.3602 63.8516 64.8344 64.6578 64.2092C66.5624 62.7311 68.3794 61.1479 70.2022 59.5705C70.5586 59.2608 70.9968 59.1732 71.3707 58.9512C71.6745 59.1732 72.0308 59.3309 71.9257 59.7925C72.4339 60.1079 72.9948 59.7457 73.4739 60.0203C73.5148 60.476 72.9831 60.0261 72.9715 60.476C73.3687 60.7097 73.8829 60.4818 74.3561 60.587C74.5722 60.9259 75.0046 61.0719 75.1448 61.5276C75.2558 61.8957 75.7524 62.3572 75.6531 62.5442C75.3843 63.0291 75.8575 63.3095 75.7816 63.7126C75.6998 64.1158 75.8575 64.6357 75.6531 64.922C75.4194 65.255 75.9451 65.6406 75.4077 65.8743C75.9919 66.2424 76.5119 66.8091 77.0961 66.8792C77.7329 66.961 77.7504 68.0184 78.58 67.5101C78.5742 68.0651 78.5742 68.5325 78.5742 69.1051Z" fill="#FFCA0F"/>
<path d="M37.1057 82.2734C36.3403 82.6473 36.019 83.6171 35.0608 83.88C34.7395 82.8693 36.3812 82.694 35.8729 81.7417C35.4172 81.4846 34.9732 81.1341 34.4708 80.9705C34.0209 80.8245 33.8573 80.5966 33.6704 80.1877C33.4016 79.5918 33.0511 79.0017 32.4201 78.6102C32.4201 78.248 32.3792 77.88 32.426 77.5177C32.5311 76.7115 32.7298 75.9637 33.3666 75.3561C34.9498 73.8371 36.7083 72.6453 38.8291 72.0085C39.3374 71.8566 39.7931 71.5235 40.3014 71.2606C40.3773 70.5713 40.798 69.9111 40.7571 69.099C40.7396 68.7484 41.0141 68.1817 41.6217 68.0591C41.9314 67.9948 42.2118 67.7611 42.6207 67.5508C42.6207 68.2168 42.6207 68.8244 42.6207 69.6248C43.129 69.1224 43.4796 68.7777 43.8067 68.4563C45.7055 69.5839 47.0434 70.9977 47.4348 73.1711C47.2128 73.2529 47.0258 73.3171 46.7863 73.3989C46.7863 73.8429 46.7863 74.3045 46.7863 74.7251C45.9509 75.3561 45.8691 76.3376 45.5419 77.138C45.1329 78.137 44.6538 79.0309 43.9236 79.8138C43.2868 80.4856 42.5039 81.0348 42.1066 81.9228C42.0073 82.1507 41.7795 82.396 41.5516 82.4778C40.6811 82.7816 40.1144 83.4243 39.5769 84.2013C39.4776 83.9267 39.4133 83.7456 39.279 83.3834C39.0686 84.067 38.9401 84.5752 38.2683 84.9082C37.4445 85.3172 37.1582 84.8381 36.7259 84.4467C36.5214 84.6687 36.3578 84.8849 36.0423 84.7154C36.0073 84.6278 35.9138 84.5168 35.943 84.4467C36.165 83.8741 36.4455 83.3425 36.9479 82.9511C37.1524 82.7933 37.3218 82.5947 37.1057 82.2734Z" fill="#FFCA0F"/>
<path d="M63.8401 14.6371C63.6415 14.5554 63.6181 14.3275 63.3552 14.4502C63.2617 15.2097 63.5246 16.0743 62.8411 16.8572C62.5723 16.9565 61.9648 16.8105 61.7953 17.348C61.661 17.7803 61.5207 18.1075 61.0942 18.1717C60.6035 18.1659 60.9774 17.5232 60.5275 17.5291C60.0894 17.5291 59.9725 17.9673 59.6746 18.16C59.5285 18.0666 59.4467 17.8913 59.5227 17.7686C59.7447 17.4181 59.9901 17.0909 59.7505 16.6527C59.4058 16.3548 59.2422 16.7929 58.9852 16.8397C58.8041 16.7287 58.8274 16.5242 58.8858 16.4132C59.5109 15.2214 59.7563 13.9069 60.2179 12.6683C59.289 12.0724 58.3192 11.681 57.4136 11.2311C56.3912 10.7228 55.6959 9.95747 54.8196 9.19797C54.434 9.19797 53.9725 9.19797 53.4467 9.19797C53.4408 8.39173 54.3639 8.18142 54.1711 7.28755C53.6979 6.96038 53.5752 8.15803 52.991 7.96524C52.8449 7.8776 52.7923 7.74324 52.8274 7.48618C53.6979 6.92532 54.8138 6.87273 55.7777 6.39951C56.806 5.89707 57.992 5.83866 59.1078 5.58744C60.2704 5.32453 61.398 5.56407 62.5782 5.36543C63.4136 4.72278 63.2734 3.60105 63.6298 2.6955C64.0096 1.74904 64.4244 0.855181 65.2131 0.16579C65.511 -0.091271 65.7856 0.0197255 66.1186 0.0489369C66.1712 0.528005 65.324 0.592276 65.6278 1.22324C66.0368 1.02461 66.4517 0.825962 66.8431 0.633166C67.1761 0.650693 67.1468 0.878542 67.1468 1.08886C68.6892 1.4394 68.9521 1.60883 69.5071 3.20962C69.6298 3.56016 69.7174 4.02753 69.7058 4.45986C69.6824 5.04409 69.6999 5.62833 69.6999 6.20087C69.8168 6.43456 70.0797 6.31771 70.29 6.46961C70.29 7.21743 70.29 7.99445 70.29 8.85911C69.0865 9.27391 68.8061 10.5592 68.1167 11.4998C67.8129 11.9146 67.5909 12.3879 66.7204 12.493C67.1352 12.0315 67.5091 11.7627 67.661 11.4064C67.807 11.0617 68.2101 10.7871 68.0933 10.3664C67.9998 10.197 67.9297 10.1853 67.8479 10.3022C67.3923 10.9506 67.0417 11.716 66.1887 11.9731C66.2237 12.5631 66.0193 12.4696 65.7272 12.1308C65.3942 12.3586 65.6045 12.6975 65.5577 12.9838C65.5227 13.1941 65.5461 13.3811 65.2365 13.3986C64.4828 13.4395 64.3192 14.1931 63.8401 14.6371Z" fill="#FFCA0F"/>
<path d="M34.3246 36.9665C34.3947 37.6209 34.2895 38.0415 33.7404 38.246C33.3139 38.2402 33.197 37.8078 32.899 37.6092C32.5251 38.0006 32.1513 38.0649 31.6956 37.691C31.3216 37.3872 30.9945 36.9607 30.9536 36.5751C30.8718 35.8039 30.3927 35.3716 29.8961 34.9393C28.9613 34.1155 28.3245 33.1165 27.863 31.9597C27.6351 31.393 27.6177 31.0016 27.9156 30.4173C28.4297 29.4183 29.16 28.8691 30.2174 28.6822C30.9068 28.5595 31.5553 28.1797 32.2681 28.3842C32.4258 28.1038 32.677 28.0103 32.7471 27.7065C33.1386 26.1232 33.7696 24.6335 34.5407 23.2021C35.0724 22.2206 35.5281 22.1622 36.5154 22.7055C37.1347 23.0444 37.7482 23.3248 38.2857 23.8272C39.0335 24.5225 39.3431 24.8905 39.7579 25.9071C40.1668 26.9061 40.4006 27.911 40.3947 28.9918C40.3889 29.4826 40.1786 30.0434 40.6927 30.4641C40.7687 30.5283 40.7511 30.7912 40.6927 30.9256C40.2896 31.8428 40.4765 32.8945 39.9215 33.7883C39.2964 34.7932 38.6946 35.8098 37.7482 36.5225C37.4327 36.7621 37.012 37.0191 36.5038 36.9724C35.8319 36.9256 35.1425 36.9665 34.3246 36.9665Z" fill="#FFCA0F"/>
<path d="M17.4463 54.8965C17.4463 55.2762 17.3353 55.6501 17.4639 55.7845C18.1124 56.4447 17.2711 56.9822 17.3821 57.5839C16.6342 58.2909 16.4122 59.3249 15.7988 60.1078C15.4541 60.546 15.0919 60.9783 14.3674 60.9082C13.9701 60.8673 13.5086 61.1185 13.1756 61.4691C12.8542 61.2295 12.5154 61.0192 12.0948 61.2821C12.0539 61.5392 12.4745 61.621 12.3051 62.0007C11.7325 62.1877 11.0899 62.3921 10.4473 62.6083C9.79877 62.8303 8.95163 62.877 8.54852 63.3269C8.08113 63.8469 7.49103 64.1916 6.9886 64.7524C6.59132 64.4837 6.1181 64.3668 5.60398 64.3026C5.84351 63.8878 6.41024 63.7768 6.21745 63.0991C5.94286 63.3211 5.69745 63.5197 5.45792 63.7125C5.28849 63.6132 5.26515 63.3795 5.33525 63.3035C5.604 63.0114 5.74422 62.7018 5.55726 62.1993C4.65171 62.176 3.73443 61.8196 2.81719 61.3814C2.5426 60.8965 3.11516 60.4992 3.121 60.0786C2.73541 59.7806 2.54849 59.9618 2.3557 60.1779C1.82405 59.9968 1.63704 59.5177 1.86489 59.1205C2.18038 58.5771 2.42577 57.9812 3.121 57.6599C5.11907 56.7251 7.0295 55.5976 9.03925 54.7387C9.92143 53.2373 9.75784 51.2801 11.2184 50.0474C11.5281 50.0474 11.8435 50.0474 12.1649 50.0474C12.3168 50.5089 12.6498 50.5907 13.1289 50.7251C13.9643 50.9704 14.8816 51.3677 15.197 52.3142C15.4132 52.9568 15.939 53.36 16.2078 53.9676C16.3889 54.394 16.7803 54.8264 17.4463 54.8965Z" fill="#FFCA0F"/>
<path d="M58.4065 105.788C58.1903 105.625 58.1261 105.444 58.0677 105.455C57.5711 105.981 57.1504 106.414 56.6012 106.992C56.5545 107.278 57.2147 106.881 57.238 107.261C56.2682 107.822 54.9654 108.032 54.8368 109.574C54.8777 109.615 55.0238 109.761 55.275 110.012C55.5438 109.644 55.8184 109.276 56.093 108.902C56.426 109.259 56.3266 109.457 56.1104 109.668C55.5905 110.182 55.0355 110.55 54.2585 110.591C53.721 110.62 53.236 111.07 52.6284 110.848C52.5467 111.076 52.4824 111.263 52.4181 111.45C52.2136 111.572 52.202 111.315 51.9741 111.251C51.9332 111.777 51.3665 111.794 51.0919 112.139C50.5778 111.929 50.1922 111.327 49.6547 111.415C49.3977 111.455 49.0121 110.9 48.8426 111.578C48.5622 111.222 48.311 110.895 48.0948 110.62C47.5456 110.62 47.1308 110.62 46.7862 110.62C46.0033 110.252 45.7813 109.563 45.4775 108.937C45.5768 108.774 45.6703 108.616 45.7637 108.464C45.5593 108.26 45.3723 108.073 45.1561 107.857C45.1795 107.407 45.4892 107.056 45.7229 106.688C45.9566 106.32 46.3305 106.373 46.6869 106.519C46.7044 106.793 46.2429 106.951 46.5408 107.337C47.2536 106.858 48.124 106.735 48.8894 106.367C49.4269 104.941 49.386 103.311 50.5486 102.096C50.8174 101.816 51.0218 101.214 50.9108 100.665C50.8524 100.367 51.127 100.378 51.3665 100.378C51.7404 100.817 51.4016 101.372 51.571 101.851C52.6168 101.401 52.9615 100.77 52.9264 99.6716C52.9147 99.3327 53.2244 98.9822 53.0725 98.5323C52.7979 98.4797 52.8505 98.6959 52.7979 98.8595C52.7512 98.9939 52.6168 99.1049 52.5233 99.2217C52.3831 99.4087 52.202 99.4729 51.98 99.3853C52.0442 97.7845 52.5058 97.1126 53.9371 96.5576C54.2876 96.8965 53.9138 97.3755 54.1767 97.767C54.4922 97.7202 54.6031 97.3931 54.8836 97.2003C55.0647 97.5333 55.1464 97.9422 55.5262 98.1409C55.8358 98.2577 55.9761 97.9773 56.2273 97.7845C57.3315 98.2402 58.2078 98.8712 58.2487 100.273C58.2604 100.758 58.8213 101.278 58.5175 101.711C58.1378 102.248 58.7045 102.593 58.5701 103.066C58.3831 103.726 59.0316 104.287 58.8914 105C58.8271 105.374 58.6168 105.543 58.4065 105.788Z" fill="#FFCA0F"/>
<path d="M92.853 28.3667C93.2269 28.3667 93.4957 28.3667 93.7703 28.3667C94.1267 28.6997 93.7761 29.1788 93.9981 29.5585C94.5473 29.8565 94.67 29.2606 94.9971 29.0561C95.0614 29.0911 95.149 29.1204 95.2075 29.1671C95.5697 29.465 95.78 29.8799 96.1773 30.1895C97.4801 31.1944 97.7313 32.7367 96.966 34.3901C96.6155 35.1496 96.2824 35.9967 95.6982 36.5459C95.2191 37.0016 95.336 37.5917 94.9621 38.024C94.5998 38.4447 94.1441 38.7426 93.8812 39.321C93.5774 39.9929 92.6135 40.1506 92.1461 40.7874C91.299 40.5946 91.1646 41.3132 90.8374 41.7981C90.6914 42.0143 90.4694 42.1779 90.2357 42.4116C89.7858 42.3239 89.3535 42.0435 88.8276 42.026C88.3778 42.0085 87.9513 41.4417 87.4664 41.9968C86.7829 41.395 86.0409 42.172 85.4158 41.95C84.7264 41.7047 83.9318 41.7748 83.3184 41.2256C83.1022 41.0328 82.6231 41.1146 82.2609 41.1204C81.8052 41.1263 81.6358 40.8341 81.5774 40.6998C81.3729 40.1214 82.1616 40.1039 81.7468 39.6423C81.5774 39.3444 81.186 39.6715 80.9289 39.432C80.7887 39.1983 80.8705 38.9413 80.8938 38.69C81.4021 38.468 81.8754 38.2402 82.4655 38.2168C83.3126 38.1876 84.0137 37.6209 84.7965 37.3229C86.4032 36.7153 87.8871 35.8974 89.1081 34.6413C89.5463 34.1915 89.8501 33.689 90.113 33.1399C90.6622 31.9889 91.2289 30.838 91.8014 29.6987C92.0526 29.2021 92.3389 28.7172 92.853 28.3667Z" fill="#FFCA0F"/>
<path d="M0.386819 25.8253C0.608826 26.0356 0.836613 26.246 1.05278 26.4563C2.22124 26.4154 2.50168 25.3872 2.74121 24.6452C3.4306 22.4894 4.28943 20.3978 5.01972 18.2596C5.23004 17.6461 5.40534 17.5117 6.80165 16.8516C6.95939 17.5877 7.37419 17.8798 8.18627 17.9148C8.70039 17.9382 9.33719 18.429 9.64099 18.8905C9.88637 19.2703 10.4648 19.6675 10.383 19.9655C10.2544 20.4329 10.9964 20.7367 10.4998 21.1865C10.4297 21.2508 10.8328 21.5079 10.7685 21.8175C10.6692 22.2907 11.4228 22.6939 11.0548 23.0911C10.5932 23.5819 11.306 23.8915 11.084 24.2888C11.0607 24.3297 11.0665 24.3998 11.084 24.4465C11.2768 25.0249 10.0383 25.0717 10.5874 25.8837C10.7802 26.17 10.2544 26.69 10.0208 27.0931C9.72864 27.5955 9.3664 28.0045 8.97496 28.4076C8.61858 28.7815 8.25638 29.1379 7.67799 29.208C7.18724 28.5303 6.67309 29.6462 6.11807 29.3482C5.9837 30.3823 4.70423 30.3005 4.35954 31.2236C4.2719 31.4748 4.66332 31.5624 4.70421 31.8312C4.59905 32.5264 4.01483 32.7134 3.54745 32.4855C2.79964 32.1291 2.04019 32.2752 1.26316 32.1759C1.19306 31.4923 1.00023 30.8672 0.497789 30.4115C0.211516 30.1545 0.106335 29.763 0.258235 29.5761C0.976837 28.6997 0.281604 27.9402 0.112177 27.1632C-0.0397224 26.4504 -0.109776 26.4621 0.386819 25.8253Z" fill="#FFCA0F"/>
<path d="M99.9805 60.0728C100.354 59.6989 100.687 59.3659 101.026 59.0271C103.311 58.659 105.589 58.326 107.944 58.9453C108.633 58.7875 108.954 58.1098 109.135 57.549C109.375 56.8128 109.988 56.3396 110.21 55.6035C110.374 55.0601 111.11 55.1945 111.344 54.7563C111.864 54.9725 112.22 55.1711 112.057 55.7846C112.793 55.7437 113.412 55.732 113.815 56.363C114.125 56.8479 114.919 56.7895 115.06 57.5782C115.159 58.1273 115.597 58.6181 115.86 59.0913C115.153 60.1312 116.164 60.9842 116.111 61.9307C115.895 62.55 115.696 63.1517 114.767 63.1926C114.242 63.216 113.692 63.6834 113.243 64.0573C112.658 64.5363 112.156 64.5422 111.566 64.0514C111.542 64.8284 110.859 64.9628 110.339 65.2666C110.222 65.2024 110.053 65.0213 109.901 65.0329C108.861 65.103 107.903 64.5539 106.945 64.5597C105.957 64.5656 105.028 64.4195 104.257 63.9696C103.433 63.4906 102.481 63.3971 101.692 62.8246C101.359 62.585 101.061 62.4682 100.921 62.0241C100.711 61.364 99.9455 60.9725 99.9805 60.0728Z" fill="#FFCA0F"/>
</svg>
