<svg width="230" height="233" viewBox="0 0 230 233" fill="none" xmlns="http://www.w3.org/2000/svg">
<path d="M132.546 232.072C145.586 232.219 158.619 231.533 171.628 230.303C171.64 230.437 171.653 230.572 171.659 230.707C168.984 230.964 166.314 231.197 163.639 231.472C155.387 232.335 147.104 232.525 138.821 232.739C132.687 232.898 126.632 232.237 120.633 230.939C113.507 229.391 106.234 228.882 98.9981 228.099C85.1014 226.587 71.3149 224.401 57.8283 220.636C56.7631 220.342 55.5387 220.165 54.6816 219.669C52.5573 218.438 50.1023 217.918 48.1188 216.351C47.0597 215.518 45.5416 215.371 44.4519 214.355C41.4828 211.6 37.7973 209.954 34.32 207.964C28.9572 204.897 23.5028 201.769 19.6092 196.889C12.618 188.129 6.43494 178.787 2.96382 168.012C-0.629731 156.864 -1.07669 145.606 2.29035 134.201C3.73512 129.291 4.84314 124.314 7.59799 119.913C9.03052 117.629 10.7264 115.554 12.4405 113.485C14.4913 111.011 16.1809 108.263 18.6419 106.083C22.0518 103.071 25.4617 100.102 29.1532 97.4208C33.0283 94.6047 34.3998 90.3133 35.2813 85.7708C36.371 80.1509 36.8363 74.4269 38.4463 68.8989C42.9459 53.4411 51.8472 41.2952 65.1011 32.1063C71.7923 27.4659 78.8815 23.5478 85.8115 19.3421C92.3191 15.3996 99.1512 11.9591 105.616 7.97984C120.235 -1.02547 135.95 -1.12954 152.069 1.47226C159.225 2.6293 166.002 5.15154 172.712 7.88191C180.04 10.8633 187.484 13.5385 194.194 17.8729C206.26 25.6721 215.73 35.6692 221.356 49.0761C224.068 55.5286 226.768 61.9872 228.09 68.8927C229.388 75.6819 229.694 82.4956 228.562 89.395C227.197 97.7208 224.711 105.796 223.285 114.103C223.009 115.707 222.905 117.305 222.918 118.915C222.942 123.169 222.373 127.43 222.801 131.673C223.328 136.809 224.136 141.915 224.65 147.051C225.434 154.912 225.232 162.76 224.362 170.633C223.542 178.04 222.085 185.295 220.052 192.439C218.84 196.7 217.194 200.844 214.996 204.676C213.961 206.482 213.502 208.931 211.133 209.807C207.129 216.467 200.242 219.455 193.985 223.232C191.243 224.891 188.2 225.926 185.323 227.285C182.978 228.393 180.536 228.325 178.166 228.809C171.696 230.137 165.09 230.492 158.515 231.007C149.895 231.674 141.233 231.888 132.546 232.072ZM49.3677 161.658C55.8385 157.434 62.5912 153.62 68.6947 148.049C61.3362 151.447 50.5676 158.983 49.3677 161.658ZM74.8961 134.293C74.7186 134.066 74.5411 133.84 74.3575 133.62C69.2641 137.446 64.1705 141.272 59.6586 145.827C65.2541 142.637 69.9496 138.297 74.8961 134.293ZM68.6334 72.9209C72.8331 67.8704 78.0122 63.7198 81.9363 58.4427C76.5797 62.4464 72.2392 67.3623 68.6334 72.9209ZM29.2267 123.353C31.6081 122.729 37.234 115.658 37.6748 112.756C34.2833 116.093 32.0122 119.931 29.2267 123.353ZM126.185 104.167C122.463 105.159 113.715 110.638 111.995 113.056C116.782 110.062 121.331 107.21 126.185 104.167ZM198.473 28.6106C201.368 31.9716 204.411 35.1611 208.041 37.7506C205.421 34.1142 202.097 31.2063 198.473 28.6106ZM84.079 44.0929C80.3814 46.9335 76.4205 49.4986 74.1677 53.8267C77.4245 50.5332 80.7854 47.3498 84.079 44.0929ZM59.9955 141.15C63.8217 138.229 67.7764 135.462 71.0822 131.93C67.1458 134.715 63.2769 137.587 59.9955 141.15ZM110.018 8.09616C112.491 6.933 114.994 5.91064 117.566 5.10867C120.1 4.31895 122.696 3.70677 125.267 3.02112C119.537 3.34558 112.674 5.65352 110.018 8.09616ZM110.899 36.0916C106.81 37.4752 99.2919 42.3788 98.3369 44.2888C100.559 42.8441 102.659 41.583 104.642 40.1688C106.681 38.7179 108.842 37.4691 110.899 36.0916ZM64.8132 160.195C64.8928 160.323 64.9726 160.452 65.0461 160.574C68.1376 159.589 70.5494 157.495 73.0778 155.597C73.0043 155.475 72.925 155.352 72.8515 155.23C70.1762 156.883 67.4946 158.542 64.8132 160.195ZM149.816 96.0128C146.498 98.0391 143.18 100.059 139.862 102.086C139.935 102.208 140.009 102.324 140.082 102.447C143.584 100.714 146.865 98.6207 149.816 96.0128ZM144.772 107.008C146.718 106.775 152.73 102.894 153.973 101.302C150.746 103.298 147.759 105.153 144.772 107.008ZM67.4703 130.51C67.3663 130.375 67.2622 130.234 67.152 130.099C64.7094 131.985 62.291 133.907 60.3258 136.356C62.7072 134.409 65.0889 132.463 67.4703 130.51ZM48.9331 107.999C47.274 110.35 45.6088 112.701 43.9498 115.046C46.2271 113.154 47.8066 110.767 48.9331 107.999ZM13.7994 131.091C15.0054 128.416 16.2178 125.741 17.4238 123.072C15.6668 125.496 14.3443 128.11 13.7994 131.091ZM156.275 57.9346C156.213 57.7815 156.146 57.6223 156.085 57.4693C153.869 58.3876 151.659 59.3059 149.443 60.2303C149.498 60.3649 149.553 60.4935 149.608 60.6282C151.744 59.5201 154.254 59.3303 156.275 57.9346ZM150.465 113.919C152.54 113.374 154.309 112.352 155.834 110.932C153.697 111.318 152.118 112.713 150.465 113.919ZM18.1891 113.772C16.6525 114.648 15.6424 115.927 14.8343 117.378C14.7057 117.605 14.4484 117.837 14.7545 118.088C15.0483 118.339 15.2812 118.107 15.4342 117.88C16.3525 116.521 17.2647 115.144 18.1891 113.772ZM68.4436 47.913C69.9557 46.4989 71.5107 45.152 72.5514 43.3522C70.6107 44.3684 69.4966 46.1254 68.4436 47.913ZM22.107 123.549C20.4541 125.165 19.1073 127.841 19.0828 129.255C20.1603 127.216 21.1336 125.38 22.107 123.549ZM185.317 217.018C183.235 217.545 181.154 218.071 179.066 218.598C181.295 218.549 183.437 218.163 185.317 217.018ZM60.5097 151.673C62.334 150.755 64.0724 149.763 65.5294 148.355C63.699 149.237 62.0095 150.338 60.5097 151.673ZM222.942 68.5683C223.077 69.6886 222.232 70.913 223.364 72.0639C223.934 70.7232 223.438 69.6457 222.942 68.5683ZM130.201 86.585C131.842 86.0708 133.256 85.1586 134.591 84.1057C132.974 84.6566 131.524 85.5137 130.201 86.585ZM134.585 230.701C134.585 230.731 134.585 230.756 134.585 230.786C136.268 230.786 137.952 230.786 139.641 230.786C139.641 230.756 139.641 230.731 139.641 230.701C137.952 230.701 136.268 230.701 134.585 230.701Z" fill="#FFCA0F"/>
</svg>
