<svg width="256" height="256" viewBox="0 0 256 256" fill="none" xmlns="http://www.w3.org/2000/svg">
<rect width="256" height="256" rx="80" fill="#FFFAF6"/>
<path fill-rule="evenodd" clip-rule="evenodd" d="M215.727 91.4253C219.315 89.3741 223.907 90.5874 225.982 94.1353C234.786 109.19 230.53 124.3 222.043 135.061C213.79 145.525 200.681 153.15 188.643 154.157C164.498 156.177 147.584 149.003 136.5 138.411C132.786 134.862 129.794 130.994 127.424 127.072C125.054 130.994 122.061 134.862 118.347 138.411C107.264 149.003 90.3494 156.177 66.2042 154.157C54.166 153.15 41.0576 145.525 32.8048 135.061C24.3176 124.3 20.0609 109.19 28.8655 94.1353C30.9404 90.5874 35.5319 89.3741 39.1208 91.4253C42.7098 93.4765 43.9372 98.0154 41.8622 101.563C36.9474 109.967 38.7857 118.508 44.6442 125.936C50.7371 133.661 60.2251 138.763 67.4701 139.369C87.6981 141.061 100.224 135.09 107.913 127.741C115.859 120.149 119.269 110.476 119.962 104.202H134.886C135.578 110.476 138.989 120.149 146.934 127.741C154.624 135.09 167.149 141.061 187.377 139.369C194.622 138.763 204.11 133.661 210.203 125.936C216.062 118.508 217.9 109.967 212.985 101.563C210.91 98.0154 212.138 93.4765 215.727 91.4253Z" fill="#2C2524"/>
<path d="M108.15 65.4807C87.6642 81.4937 112.319 103.55 127.207 112.576C142.095 103.55 166.749 81.4937 146.263 65.4807C142.588 63.0914 133.894 61.9171 127.757 75.5704C127.548 76.0367 126.866 76.0367 126.656 75.5704C120.519 61.9171 111.826 63.0914 108.15 65.4807Z" fill="#2C2524"/>
<path d="M160.547 147.071C130.676 203.224 104.846 170.468 95.6641 147.071C105.081 147.071 121.799 127.546 128.981 117.783C132.916 128.481 151.665 141.766 160.547 147.071Z" fill="#F97561"/>
<path fill-rule="evenodd" clip-rule="evenodd" d="M130.762 105.287L134.613 115.757C135.248 117.482 136.647 119.694 138.879 122.275C141.064 124.801 143.81 127.412 146.805 129.946C152.803 135.021 159.434 139.483 163.646 141.999L168.479 144.886L165.851 149.827C158.171 164.264 150.38 173.732 142.423 178.978C134.167 184.421 125.862 185.199 118.29 182.465C111.092 179.866 105.212 174.338 100.688 168.402C96.107 162.392 92.5244 155.452 90.0759 149.212L86.9102 141.145H95.6633C96.1785 141.145 97.7447 140.761 100.504 138.939C103.068 137.246 105.962 134.785 108.95 131.87C114.913 126.053 120.678 118.995 124.133 114.297L130.762 105.287ZM103.829 150.753C105.634 154.406 107.801 158.044 110.261 161.271C114.095 166.303 118.261 169.84 122.403 171.336C126.17 172.696 130.497 172.597 135.773 169.12C140.66 165.898 146.368 159.738 152.591 149.075C148.474 146.351 143.596 142.828 139.011 138.948C135.717 136.161 132.483 133.113 129.768 129.974C129.286 129.417 128.812 128.847 128.351 128.266C125.128 132.171 121.314 136.455 117.37 140.303C114.104 143.49 110.603 146.52 107.16 148.793C106.125 149.477 105.007 150.151 103.829 150.753Z" fill="#2C2524"/>
</svg>
